<?xml version="1.0" encoding="utf-8"?>
<!-- Generator: Adobe Illustrator 16.0.0, SVG Export Plug-In . SVG Version: 6.00 Build 0)  -->
<!DOCTYPE svg PUBLIC "-//W3C//DTD SVG 1.1//EN" "http://www.w3.org/Graphics/SVG/1.1/DTD/svg11.dtd">
<svg version="1.1" id="Capa_1" xmlns="http://www.w3.org/2000/svg" xmlns:xlink="http://www.w3.org/1999/xlink" x="0px" y="0px"
	 width="500px" height="500px" viewBox="0 0 500 500" enable-background="new 0 0 500 500" xml:space="preserve">
<rect opacity="0" fill="#FFFFFF" stroke="#000000" stroke-miterlimit="10" width="500" height="500"/>
<g>
	<radialGradient id="SVGID_1_" cx="254.8457" cy="257.3789" r="198.9751" gradientUnits="userSpaceOnUse">
		<stop  offset="0" style="stop-color:#AADCF6"/>
		<stop  offset="1" style="stop-color:#AADCF6;stop-opacity:0"/>
	</radialGradient>
	<path opacity="0.6" fill="url(#SVGID_1_)" d="M452.113,256.877c0-110.233-89.361-199.599-199.6-199.599
		c-110.235,0-199.601,89.365-199.601,199.599"/>
	<radialGradient id="SVGID_2_" cx="249" cy="257.9014" r="223.5061" gradientUnits="userSpaceOnUse">
		<stop  offset="0" style="stop-color:#1FB3B0"/>
		<stop  offset="1" style="stop-color:#1FB3B0;stop-opacity:0"/>
	</radialGradient>
	<path fill="url(#SVGID_2_)" d="M471.5,257.151c0,122.331-99.17,221.5-221.5,221.5c-122.33,0-221.499-99.169-221.499-221.5H471.5z"
		/>
	<g>
		<path fill="#EB5E4E" d="M148.137,249.582c0.008-1.801-1.467-3.262-3.264-3.263c-1.803-0.003-3.266,1.46-3.266,3.266
			c-0.006,1.804,1.458,3.269,3.263,3.264C146.678,252.85,148.141,251.387,148.137,249.582z"/>
		<polygon fill="#2E3F51" points="64.93,243.532 66.841,243.53 66.846,257.172 64.926,257.169 		"/>
		<rect x="66.841" y="253.31" fill="#F18A86" width="157.026" height="3.879"/>
		<polygon fill="#EB5E4E" points="66.85,251.403 66.847,247.524 223.868,247.522 223.872,251.401 		"/>
		<path fill="#EB5E4E" d="M229.802,238.932c-6.55-0.002-11.857,5.307-11.855,11.854c-0.002,6.542,5.305,11.849,11.846,11.846
			L229.802,238.932z"/>
		<polygon fill="#2E3F51" points="56.387,251.652 56.389,249.579 60.543,246.584 66.85,246.574 66.837,251.658 		"/>
		<polygon fill="#FFFFFF" points="56.389,249.579 56.387,251.652 53.562,251.66 		"/>
		<path fill="#F18A86" d="M228.799,244.718c-6.549-0.001-11.858,5.309-11.857,11.849c0,6.547,5.306,11.853,11.852,11.852
			L228.799,244.718z"/>
		<polygon fill="#2E3F51" points="56.389,257.167 56.385,255.099 60.545,252.097 66.849,252.087 66.839,257.173 		"/>
		<polygon fill="#FFFFFF" points="56.385,255.099 56.389,257.167 53.567,257.17 		"/>
		<path fill="#F18A86" d="M148.141,255.633c-0.005-1.805-1.467-3.266-3.266-3.272c-1.806,0.003-3.268,1.465-3.268,3.268"/>
	</g>
	<path fill="#F18A86" d="M265.178,146.772l0.002,109.393l54.695-0.279V201.47C319.877,171.262,295.387,146.771,265.178,146.772z"/>
	<g>
		<path fill="#F29598" d="M319.877,201.591c0.002-30.208-24.484-54.702-54.697-54.697v6.705
			c27.215,3.148,48.355,20.781,48.352,54.331l0.002,29.723l6.342-0.035L319.877,201.591z"/>
	</g>
	<path fill="#F29598" d="M308.273,253.021c10.766,29.042,37.932,34.618,41.131,35.179c12.182,2.431,24.584-0.007,34.943-6.874
		c10.4-6.894,17.49-17.426,19.971-29.652l-17.643-3.576c-1.523,7.516-5.883,13.988-12.273,18.226
		c-6.391,4.236-14.049,5.73-21.564,4.207l-0.412-0.074c-0.197-0.03-19.693-3.27-27.268-23.676l0,0
		c-10.709-29.069-37.873-34.694-41.062-35.26c-17.824-3.591-35.375,3.528-45.941,16.927c-4.362,5.531-7.535,12.135-9.042,19.494
		l-3.821,18.668l17.636,3.611l3.821-18.668c3.17-15.506,18.373-25.543,33.88-22.368l0.414,0.075
		c0.195,0.029,19.695,3.308,27.227,23.743"/>
	<g>
		<g>
			<path fill="#2E3F51" d="M412.635,214.439l-2.557-12.678c-0.492-2.434-2.859-4.005-5.293-3.514l-7.633,1.539l-5.047,1.018
				l-17.086,3.447l13.414,14.401l2.588-0.521l0.127,0.641c0.492,2.434,2.859,4.004,5.291,3.514l12.678-2.558
				C411.551,219.238,413.125,216.874,412.635,214.439z"/>
			
				<rect x="389.031" y="217.922" transform="matrix(-0.1977 -0.9803 0.9803 -0.1977 257.3478 671.0372)" fill="#FFFFFF" width="28.516" height="24.559"/>
			<path fill="#F3A8A0" d="M386.562,248.12c-1.76-8.717,3.885-17.214,12.605-18.974c8.721-1.759,17.217,3.887,18.977,12.604
				L386.562,248.12z"/>
			<circle fill="#FFFFFF" cx="408.294" cy="238.619" r="3.244"/>
			<path fill="#F29598" d="M418.145,241.75c1.758,8.726-3.885,17.222-12.605,18.98c-8.723,1.759-17.219-3.884-18.977-12.61
				L418.145,241.75z"/>
			<path fill="#2E3F51" d="M408.293,237.981c-1.434,0.289-2.875-0.267-2.588,1.159c0.289,1.434,1.164,0.458,2.596,0.168
				c1.43-0.287,2.869,0.221,2.582-1.212C410.594,236.671,409.721,237.693,408.293,237.981z"/>
		</g>
		<path fill="none" stroke="#2E3F51" stroke-width="2.2836" stroke-linecap="round" stroke-miterlimit="10" d="M419.176,232.977
			c2.953,2.574,3.264,7.053,0.684,10.009"/>
		<g>
			<g>
				<path fill="#F29598" d="M426.672,249.586c-0.932-0.649-2.215-0.419-2.863,0.509c-0.648,0.931-0.422,2.21,0.51,2.859
					c0.93,0.652,2.211,0.427,2.859-0.506C427.83,251.517,427.602,250.236,426.672,249.586z"/>
				<polygon fill="#F29598" points="424.318,252.954 417.912,245.975 426.672,249.586 				"/>
			</g>
			<path fill="#F29598" d="M421.08,251.828c0.215,0.752-0.223,1.535-0.977,1.746c-0.748,0.211-1.531-0.227-1.744-0.978"/>
			<polygon fill="#F29598" points="421.08,251.828 417.992,246.086 418.359,252.597 			"/>
		</g>
	</g>
	<path fill="#F29598" d="M368.516,315.847l-70.592-83.564l-41.605,35.505l35.115,41.57
		C310.926,332.433,345.436,335.338,368.516,315.847z"/>
	<path fill="#F29598" d="M318.369,259.966c0.006-26.099-21.158-47.261-47.262-47.261c-26.093,0-47.254,21.162-47.254,47.26"/>
	<polygon fill="#F29598" points="268.328,275.635 179.469,275.633 188.036,259.129 271.113,259.13 	"/>
	<polygon fill="#F18A86" points="188.036,259.129 179.469,275.633 192.302,275.63 200.7,259.19 	"/>
	<path fill="#F18A86" d="M318.371,257.017c-0.002-17.765-14.404-32.167-32.168-32.168c-17.771,0.007-32.172,14.406-32.17,32.171
		L318.371,257.017z"/>
	<g>
		<path fill="#2E3F51" d="M291.355,309.267c19.492,23.073,54.004,25.979,77.08,6.49l-4.33-5.129
			c-22.824,15.168-50.346,15.33-71.998-10.299l-31.047-36.751l-4.818,4.113L291.355,309.267z"/>
	</g>
	<path fill="#2E3F51" d="M254.033,257.02c0,0-1.381,6.422,2.209,10.672l4.818-4.113c0,0-0.936-2.213-0.936-6.559H254.033z"/>
	<linearGradient id="SVGID_3_" gradientUnits="userSpaceOnUse" x1="249.5034" y1="339.4707" x2="249.5034" y2="339.4707">
		<stop  offset="0" style="stop-color:#FFFFFF"/>
		<stop  offset="0.9963" style="stop-color:#FFFFFF;stop-opacity:0.0037"/>
		<stop  offset="1" style="stop-color:#FFFFFF;stop-opacity:0"/>
	</linearGradient>
	<path opacity="0.2" fill="url(#SVGID_3_)" d="M249.503,339.471"/>
	<circle fill="#FCBF00" cx="127.71" cy="127.246" r="52.402"/>
	<path fill="#FFFFFF" d="M204.756,167.619c0.025-0.333,0.051-0.667,0.051-1.007c0-7.07-5.732-12.803-12.803-12.803
		c-1.109,0-2.18,0.156-3.207,0.422c-1.199-8.929-8.832-15.821-18.088-15.821c-7.399,0-13.756,4.407-16.629,10.731
		c-2.285-1.242-4.905-1.949-7.69-1.949c-8.896,0-16.111,7.211-16.111,16.111c0,1.739,0.284,3.41,0.794,4.979
		c-4.652,1.958-9.435,5.368-9.435,11.132h90.938C212.577,179.415,211.534,171.274,204.756,167.619z"/>
	<path fill="#FFFFFF" d="M322.375,104.223c0.002-0.076,0.012-0.15,0.012-0.227c0-3.922-2.504-7.248-5.994-8.496
		c-1.857-4.86-6.549-8.318-12.062-8.318c-7.137,0-12.922,5.785-12.922,12.922c0,0.702,0.072,1.387,0.18,2.06
		c-0.512-0.156-1.055-0.241-1.617-0.241c-3.064,0-5.553,2.484-5.553,5.551c0,0.341,0.035,0.672,0.094,0.995
		c-3.322,1.598-2.832,4.556-2.832,4.556s47.996,0.865,47.996,0C329.676,106.777,324.67,104.802,322.375,104.223z"/>
	<path fill="#FFFFFF" d="M86.72,146.583c0.059-0.323,0.094-0.654,0.094-0.995c0-3.066-2.487-5.551-5.553-5.551
		c-0.562,0-1.104,0.085-1.617,0.241c0.108-0.673,0.18-1.357,0.18-2.06c0-7.137-5.785-12.922-12.922-12.922
		c-5.513,0-10.206,3.458-12.062,8.318c-3.491,1.248-5.995,4.574-5.995,8.496c0,0.076,0.01,0.15,0.012,0.227
		c-2.294,0.579-7.3,2.555-7.3,8.801c0,0.865,47.996,0,47.996,0S90.043,148.181,86.72,146.583z"/>
	<linearGradient id="SVGID_4_" gradientUnits="userSpaceOnUse" x1="388.4336" y1="188.77" x2="388.4336" y2="41.0532">
		<stop  offset="0" style="stop-color:#FFFFFF"/>
		<stop  offset="1" style="stop-color:#FFFFFF;stop-opacity:0"/>
	</linearGradient>
	<polygon opacity="0.4" fill="url(#SVGID_4_)" points="390.49,193.274 370.492,41.868 406.375,41.868 395.93,192.273 	"/>
	<linearGradient id="SVGID_5_" gradientUnits="userSpaceOnUse" x1="386.6816" y1="187.7808" x2="386.6816" y2="20.4256">
		<stop  offset="0" style="stop-color:#FFFFFF"/>
		<stop  offset="1" style="stop-color:#FFFFFF;stop-opacity:0"/>
	</linearGradient>
	<polygon opacity="0.4" fill="url(#SVGID_5_)" points="392.611,192.884 375.02,21.349 398.344,21.349 394.574,192.522 	"/>
	<g>
		<linearGradient id="SVGID_6_" gradientUnits="userSpaceOnUse" x1="349.9697" y1="359.6484" x2="349.9697" y2="381.4017">
			<stop  offset="0" style="stop-color:#FFFFFF"/>
			<stop  offset="0.9963" style="stop-color:#FFFFFF;stop-opacity:0.0037"/>
			<stop  offset="1" style="stop-color:#FFFFFF;stop-opacity:0"/>
		</linearGradient>
		<path opacity="0.2" fill="url(#SVGID_6_)" d="M358.422,367.524v-0.248c0-4.647-3.768-8.415-8.416-8.415h-0.002h-0.002
			c-4.65,0-8.418,3.768-8.418,8.415v0.248c-0.131,4.533-3.844,8.168-8.41,8.168l-0.068,4.878h8.479h16.838h8.412v-4.878
			C362.268,375.692,358.553,372.058,358.422,367.524z"/>
		<linearGradient id="SVGID_7_" gradientUnits="userSpaceOnUse" x1="383.6973" y1="359.6484" x2="383.6973" y2="381.4017">
			<stop  offset="0" style="stop-color:#FFFFFF"/>
			<stop  offset="0.9963" style="stop-color:#FFFFFF;stop-opacity:0.0037"/>
			<stop  offset="1" style="stop-color:#FFFFFF;stop-opacity:0"/>
		</linearGradient>
		<path opacity="0.2" fill="url(#SVGID_7_)" d="M392.148,367.524v-0.248c0-4.647-3.766-8.415-8.414-8.415h-0.002h-0.004
			c-4.648,0-8.418,3.768-8.418,8.415v0.248c-0.129,4.533-3.844,8.168-8.408,8.168l-0.068,4.878h8.477h16.838h8.412v-4.878
			C395.996,375.692,392.281,372.058,392.148,367.524z"/>
	</g>
	<g>
		<linearGradient id="SVGID_8_" gradientUnits="userSpaceOnUse" x1="198.9121" y1="404.4707" x2="198.9121" y2="426.224">
			<stop  offset="0" style="stop-color:#FFFFFF"/>
			<stop  offset="0.9963" style="stop-color:#FFFFFF;stop-opacity:0.0037"/>
			<stop  offset="1" style="stop-color:#FFFFFF;stop-opacity:0"/>
		</linearGradient>
		<path opacity="0.2" fill="url(#SVGID_8_)" d="M207.364,412.347v-0.248c0-4.647-3.767-8.415-8.415-8.415h-0.002h-0.003
			c-4.649,0-8.418,3.768-8.418,8.415v0.248c-0.13,4.533-3.844,8.168-8.409,8.168l-0.068,4.878h8.478h16.838h8.412v-4.878
			C211.21,420.515,207.496,416.88,207.364,412.347z"/>
		<linearGradient id="SVGID_9_" gradientUnits="userSpaceOnUse" x1="232.6396" y1="404.4707" x2="232.6396" y2="426.224">
			<stop  offset="0" style="stop-color:#FFFFFF"/>
			<stop  offset="0.9963" style="stop-color:#FFFFFF;stop-opacity:0.0037"/>
			<stop  offset="1" style="stop-color:#FFFFFF;stop-opacity:0"/>
		</linearGradient>
		<path opacity="0.2" fill="url(#SVGID_9_)" d="M241.091,412.347v-0.248c0-4.647-3.766-8.415-8.414-8.415h-0.003h-0.003
			c-4.648,0-8.418,3.768-8.418,8.415v0.248c-0.13,4.533-3.844,8.168-8.409,8.168l-0.068,4.878h8.478h16.838h8.412v-4.878
			C244.939,420.515,241.223,416.88,241.091,412.347z"/>
	</g>
	<linearGradient id="SVGID_10_" gradientUnits="userSpaceOnUse" x1="159.2227" y1="300.8682" x2="159.2227" y2="334.3387">
		<stop  offset="0" style="stop-color:#FFFFFF"/>
		<stop  offset="0.9963" style="stop-color:#FFFFFF;stop-opacity:0.0037"/>
		<stop  offset="1" style="stop-color:#FFFFFF;stop-opacity:0"/>
	</linearGradient>
	<path opacity="0.2" fill="url(#SVGID_10_)" d="M224.121,312.986v-0.381c0-7.151-5.793-12.948-12.945-12.948h-0.005
		c-0.003,0-0.005,0-0.005,0c-7.152,0-12.951,5.797-12.951,12.948v0.381c-0.198,6.917-6.27,12.467-13.221,12.56
		c-6.941-0.093-12.566-5.643-12.768-12.56v-0.381c0-7.151-5.793-12.948-12.945-12.948c-0.004,0-0.005,0-0.005,0h-0.005
		c-7.152,0-12.951,5.797-12.951,12.948v0.381c-0.198,6.913-6.285,12.46-13.231,12.559c-6.937-0.099-12.556-5.646-12.756-12.559
		v-0.381c0-7.151-5.796-12.948-12.948-12.948h-0.002c-0.004,0-0.005,0-0.005,0c-7.153,0-12.952,5.797-12.952,12.948v0.381
		c-0.2,6.976-5.914,12.568-12.938,12.568l-0.105,7.505h13.044h25.907h11.818h1.124h13.045h25.906h12.05h0.894h13.045h25.906h12.943
		v-7.505C230.041,325.555,224.324,319.962,224.121,312.986z"/>
	<g>
		<g>
			<g>
				<polygon fill="#F6FBFB" points="268.65,372.127 263.469,357.479 276.15,357.479 274.723,353.907 229.351,353.907 
					207.916,373.021 				"/>
				<polygon fill="#2E3F51" points="222.206,368.554 225.013,372.127 281.867,372.127 286.691,384.988 226.67,384.988 
					210.417,384.988 209.702,384.988 188.981,368.554 				"/>
				<polygon fill="#2E3F51" points="269.365,344.618 264.184,344.618 257.754,353.907 266.506,353.907 				"/>
				<polygon fill="#2A5A70" points="220.933,361.417 259.307,361.417 257.754,357.479 225.345,357.479 				"/>
				<polygon fill="#2A5A70" points="215.284,366.443 253.656,366.443 252.104,362.506 219.694,362.506 				"/>
			</g>
			<g>
				<path fill="#FFFFFF" d="M256.115,382.255c0-1.511,1.223-2.734,2.732-2.734c1.512,0,2.732,1.224,2.732,2.734
					c0,1.51,1.225,2.733,2.734,2.733h-10.934C254.891,384.988,256.115,383.765,256.115,382.255z"/>
				<path fill="#FFFFFF" d="M288.918,382.255c0-1.511,1.225-2.734,2.734-2.734c1.512,0,2.734,1.224,2.734,2.734
					c0,1.51,1.225,2.733,2.734,2.733h-10.936C287.697,384.988,288.918,383.765,288.918,382.255z"/>
				<path fill="#FFFFFF" d="M299.855,382.255c0-1.511,1.223-2.734,2.734-2.734c1.51,0,2.732,1.224,2.732,2.734v2.733h-8.201
					C298.631,384.988,299.855,383.765,299.855,382.255z"/>
				<path fill="#FFFFFF" d="M267.049,382.255c0-1.511,1.225-2.734,2.734-2.734s2.734,1.224,2.734,2.734
					c0,1.51,1.223,2.733,2.734,2.733h-10.938C265.826,384.988,267.049,383.765,267.049,382.255z"/>
				<path fill="#FFFFFF" d="M245.179,382.255c0-1.511,1.224-2.734,2.734-2.734c1.51,0,2.733,1.224,2.733,2.734
					c0,1.51,1.224,2.733,2.734,2.733h-10.935C243.955,384.988,245.179,383.765,245.179,382.255z"/>
				<path fill="#FFFFFF" d="M277.984,382.255c0-1.511,1.225-2.734,2.734-2.734s2.734,1.224,2.734,2.734
					c0,1.51,1.223,2.733,2.732,2.733h-10.934C276.762,384.988,277.984,383.765,277.984,382.255z"/>
			</g>
			<polygon fill="#F6FBFB" points="263.869,359.551 276.881,359.551 278.023,362.506 263.869,362.506 			"/>
		</g>
		<rect x="206.418" y="371.231" fill="#2A5A70" width="2.903" height="2.903"/>
		<rect x="211.189" y="371.231" fill="#2A5A70" width="2.902" height="2.903"/>
		<rect x="215.959" y="371.231" fill="#2A5A70" width="2.902" height="2.903"/>
		<rect x="209.063" y="375.319" fill="#2A5A70" width="2.902" height="2.902"/>
		<rect x="213.833" y="375.319" fill="#2A5A70" width="2.903" height="2.902"/>
		<rect x="218.603" y="375.319" fill="#2A5A70" width="2.902" height="2.902"/>
	</g>
</g>
</svg>
