<?xml version="1.0" encoding="utf-8"?>
<!-- Generator: Adobe Illustrator 16.0.0, SVG Export Plug-In . SVG Version: 6.00 Build 0)  -->
<!DOCTYPE svg PUBLIC "-//W3C//DTD SVG 1.1//EN" "http://www.w3.org/Graphics/SVG/1.1/DTD/svg11.dtd">
<svg version="1.1" id="Capa_1" xmlns="http://www.w3.org/2000/svg" xmlns:xlink="http://www.w3.org/1999/xlink" x="0px" y="0px"
	 width="500px" height="500px" viewBox="0 0 500 500" enable-background="new 0 0 500 500" xml:space="preserve">
<rect opacity="0" fill="#FFFFFF" stroke="#000000" stroke-miterlimit="10" width="500" height="500"/>
<g>
	<radialGradient id="SVGID_1_" cx="245.8232" cy="214.9438" r="192.7595" gradientUnits="userSpaceOnUse">
		<stop  offset="0" style="stop-color:#AADCF6"/>
		<stop  offset="0.886" style="stop-color:#AADCF6;stop-opacity:0.114"/>
		<stop  offset="1" style="stop-color:#AADCF6;stop-opacity:0"/>
	</radialGradient>
	<circle opacity="0.8" fill="url(#SVGID_1_)" cx="248.905" cy="214.943" r="192.76"/>
	<path fill="#20B4B0" d="M370.91,462.243c0,8.601-52.596,15.572-117.476,15.572c-64.89,0-117.482-6.972-117.482-15.572
		c0-8.597,52.592-15.562,117.482-15.562C318.314,446.681,370.91,453.646,370.91,462.243z"/>
	<g>
		<rect x="244.853" y="288.137" fill="#EB5E4E" width="4.052" height="163.999"/>
		<path fill="#EB5E4E" d="M257.878,281.951c0,6.832-5.542,12.375-12.375,12.375c-6.838,0-12.376-5.543-12.376-12.375H257.878z"/>
		<path fill="#EB5E4E" d="M253.432,344.161c0,3.619-2.93,6.555-6.555,6.555c-3.622,0-6.553-2.936-6.553-6.555
			c0-3.623,2.932-6.557,6.553-6.557C250.502,337.604,253.432,340.538,253.432,344.161z"/>
		<polygon fill="#2E3F51" points="265.891,462.248 265.891,458.121 257.611,452.136 245.062,452.136 245.062,462.248 		"/>
		<polygon fill="#FFFFFF" points="265.891,458.121 265.891,462.248 271.506,462.248 		"/>
	</g>
	<g>
		<g>
			<rect x="192.431" y="192.11" fill="#E9E9E9" width="115.716" height="111.631"/>
			<rect x="235.361" y="261.596" fill="#FCBF00" width="25.081" height="42.146"/>
		</g>
		<g>
			<rect x="213.967" y="216.333" fill="#F29598" width="24.022" height="24.022"/>
			<rect x="259.836" y="216.333" fill="#FCBF00" width="24.023" height="24.022"/>
		</g>
	</g>
	<g>
		<g>
			<path fill="#2E3F51" d="M379.822,65.089l12.088,5.506c2.32,1.056,3.342,3.791,2.285,6.112l-3.316,7.277l-2.191,4.812
				l-7.422,16.289L369.98,88.32l1.121-2.468l-0.611-0.278c-2.32-1.058-3.342-3.79-2.285-6.108l5.508-12.09
				C374.77,65.056,377.502,64.033,379.822,65.089z"/>
			
				<rect x="347.238" y="58.161" transform="matrix(0.91 0.4145 -0.4145 0.91 61.8921 -143.6414)" fill="#FFFFFF" width="29.287" height="25.223"/>
			<path fill="#F3A8A0" d="M340.066,83.338c8.311,3.788,18.123,0.117,21.912-8.198c3.789-8.316,0.115-18.126-8.195-21.915
				L340.066,83.338z"/>
			<path fill="#FFFFFF" d="M357.656,65.189c-0.762,1.675-2.74,2.409-4.412,1.647c-1.676-0.762-2.414-2.736-1.65-4.41
				c0.76-1.674,2.736-2.41,4.41-1.648C357.676,61.542,358.42,63.515,357.656,65.189z"/>
			<path fill="#F29598" d="M353.783,53.226c-8.32-3.787-18.131-0.12-21.918,8.196c-3.787,8.315-0.119,18.129,8.201,21.917
				L353.783,53.226z"/>
			<path fill="#2E3F51" d="M356.764,65.379c-0.611,1.341-2.191,1.926-3.525,1.32c-1.338-0.611-1.928-2.182-1.316-3.523
				c0.607-1.336,2.186-1.927,3.525-1.318C356.779,62.466,357.373,64.044,356.764,65.379z"/>
		</g>
		<path fill="none" stroke="#2E3F51" stroke-width="2.3454" stroke-linecap="round" stroke-miterlimit="10" d="M357.119,54.885
			c-3.709-1.555-7.979,0.187-9.535,3.903"/>
		<g>
			<g>
				<path fill="#F29598" d="M347.928,42.873c0.434,1.081-0.096,2.312-1.174,2.746c-1.084,0.432-2.311-0.092-2.742-1.174
					c-0.436-1.083,0.086-2.312,1.172-2.745C346.268,41.263,347.492,41.79,347.928,42.873z"/>
				<polygon fill="#F29598" points="344.012,44.445 349.502,52.475 347.928,42.873 				"/>
			</g>
			<path fill="#F29598" d="M344.385,47.943c-0.703-0.387-1.588-0.131-1.975,0.572c-0.385,0.701-0.129,1.586,0.574,1.974"/>
			<polygon fill="#F29598" points="344.385,47.943 349.41,52.37 342.984,50.489 			"/>
		</g>
	</g>
	<g>
		<path fill="#F18A86" d="M260.416,281.243c0,6.888-5.613,12.476-12.548,12.476c-6.926,0-12.545-5.588-12.545-12.476H260.416z"/>
		
			<rect x="218.35" y="270.954" transform="matrix(-0.7067 -0.7075 0.7075 -0.7067 154.2519 691.2555)" fill="#F18A86" width="4.085" height="85.409"/>
		<path fill="#F18A86" d="M198.497,343.957c0,3.647-2.962,6.607-6.615,6.607c-3.646,0-6.607-2.96-6.607-6.607
			c0-3.653,2.961-6.61,6.607-6.61C195.535,337.347,198.497,340.304,198.497,343.957z"/>
		<rect x="191.188" y="342.839" fill="#F18A86" width="106.855" height="4.088"/>
		<polygon fill="#2E3F51" points="298.043,363.839 302.205,363.839 308.238,355.493 308.238,342.839 298.043,342.839 		"/>
		<polygon fill="#FFFFFF" points="302.205,363.839 298.043,363.839 298.043,369.498 		"/>
	</g>
	<polygon fill="#20B4B0" points="192.431,303.741 178.907,279.258 178.907,177.554 192.431,192.11 	"/>
	<polygon fill="#EB5E4E" points="192.431,192.11 248.913,117.985 308.146,192.11 	"/>
	<polygon fill="#F18A86" points="248.913,117.985 178.907,177.554 192.431,192.11 	"/>
	<rect x="235.361" y="261.596" fill="#F18A86" width="25.081" height="20.355"/>
	<path fill="#F29598" d="M327.127,145.076c-18.652-12.323-17.359-32.58-17.344-32.783l0.023-0.431
		c0.223-7.87,3.498-15.184,9.223-20.592c5.725-5.41,13.213-8.266,21.086-8.042l0.525-18.479
		c-12.809-0.363-24.992,4.28-34.309,13.081c-9.277,8.766-14.602,20.608-15.002,33.36c-0.182,3.329-0.922,31.801,25.627,49.325
		l0.018,0.01c18.691,12.284,17.436,32.556,17.42,32.758l-0.021,0.429c-0.432,16.254-14.006,29.126-30.256,28.692l-19.254-0.493
		c-0.049-0.004-3.746-0.284-6.332-3.469c-1.797-2.214-3.596-2.11-3.596-2.11h-15.1v24.022l25.885,0.062l0,0l17.906,0.47
		c7.713,0.203,15.057-1.434,21.605-4.513c15.861-7.454,27.064-23.355,27.617-42.02C353.025,191.031,353.715,162.55,327.127,145.076z
		"/>
	<g>
		<polygon fill="#F29598" points="186.449,277.466 103.096,277.466 162.851,212.527 186.449,242.587 		"/>
		<path fill="#F18A86" d="M163.19,212.145l-0.001-0.002l-47.952,52.207h71.211v-62.575
			C177.214,201.775,168.917,205.78,163.19,212.145z"/>
		<polygon fill="#2E3F51" points="144.352,264.35 133.463,277.466 103.096,277.466 115.237,264.35 		"/>
		<path fill="#2E3F51" d="M97.1,273.061h3.138c0-2.405,1.951-4.357,4.356-4.357h2.908c0-2.402,1.951-4.354,4.357-4.354h14.759v4.354
			h-7.264v4.357h-7.495v4.354h-10.406H97.1h-4.351C92.749,275.012,94.696,273.061,97.1,273.061z"/>
	</g>
	<rect x="212.713" y="213.555" fill="#EB5E4E" width="26.532" height="2.778"/>
	<rect x="258.582" y="213.555" fill="#EB5E4E" width="26.531" height="2.778"/>
	<rect x="234.635" y="258.817" fill="#EB5E4E" width="26.531" height="2.778"/>
	<path fill="#FFFFFF" d="M187.632,116.712c0.039-0.465,0.064-0.934,0.064-1.409c0-9.139-7.409-16.547-16.548-16.547
		c-0.186,0-0.371,0.008-0.556,0.013c-1.493-4.636-5.837-7.993-10.97-7.993c-5.863,0-10.694,4.382-11.421,10.049
		c-0.035,0-0.069-0.005-0.104-0.005c-5.138,0-9.486,3.363-10.975,8.007c-0.184-0.009-0.365-0.028-0.551-0.028
		c-6.365,0-11.525,5.16-11.525,11.525c0,0-9.809,0.887-9.809,11.526h84.928C200.166,131.85,200.155,118.717,187.632,116.712z"/>
	<path fill="#FFFFFF" d="M431.834,180.086c-1.004-5.817-6.062-10.246-12.166-10.246c-0.133,0-0.262,0.016-0.395,0.02
		c-1.359-5.351-6.193-9.315-11.967-9.315s-10.609,3.965-11.967,9.315c-0.133-0.004-0.262-0.02-0.395-0.02
		c-6.826,0-12.359,5.534-12.359,12.361c0,0-11.676-0.319-11.676,12.361h72.938C443.848,194.562,444.578,182.2,431.834,180.086z"/>
	<g>
		<ellipse fill="#E9E9E9" cx="320.58" cy="457.97" rx="11.254" ry="2.214"/>
		<rect x="316.939" y="420.643" fill="#EB5E4E" width="7.447" height="37.176"/>
		<circle fill="#007080" cx="320.663" cy="399.588" r="22.595"/>
	</g>
	<g>
		<ellipse fill="#E9E9E9" cx="344.024" cy="463.661" rx="5.979" ry="1.177"/>
		<rect x="342.092" y="443.831" fill="#F18A86" width="3.955" height="19.75"/>
		<circle fill="#A4D8DF" cx="344.068" cy="432.646" r="12.004"/>
	</g>
	<g>
		<ellipse fill="#E9E9E9" cx="298.008" cy="455.586" rx="4.674" ry="0.92"/>
		<rect x="296.496" y="440.083" fill="#EB5E4E" width="3.092" height="15.44"/>
		<circle fill="#2E3F51" cx="298.043" cy="431.34" r="9.385"/>
	</g>
	<g>
		<g>
			<ellipse fill="#E9E9E9" cx="196.243" cy="457.696" rx="11.254" ry="2.215"/>
			<rect x="192.437" y="420.37" fill="#EB5E4E" width="7.446" height="37.175"/>
			<circle fill="#007080" cx="196.159" cy="399.315" r="22.595"/>
		</g>
		<g>
			<ellipse fill="#E9E9E9" cx="172.798" cy="463.389" rx="5.979" ry="1.177"/>
			<rect x="170.776" y="443.559" fill="#F18A86" width="3.956" height="19.75"/>
			<circle fill="#A4D8DF" cx="172.754" cy="432.373" r="12.004"/>
		</g>
		<g>
			<ellipse fill="#E9E9E9" cx="218.815" cy="455.313" rx="4.674" ry="0.92"/>
			<rect x="217.234" y="439.811" fill="#EB5E4E" width="3.092" height="15.439"/>
			<circle fill="#2E3F51" cx="218.78" cy="431.066" r="9.384"/>
		</g>
	</g>
</g>
</svg>
