<?xml version="1.0" encoding="utf-8"?>
<!-- Generator: Adobe Illustrator 16.0.0, SVG Export Plug-In . SVG Version: 6.00 Build 0)  -->
<!DOCTYPE svg PUBLIC "-//W3C//DTD SVG 1.1//EN" "http://www.w3.org/Graphics/SVG/1.1/DTD/svg11.dtd">
<svg version="1.1" id="Capa_1" xmlns="http://www.w3.org/2000/svg" xmlns:xlink="http://www.w3.org/1999/xlink" x="0px" y="0px"
	 width="500px" height="500px" viewBox="0 0 500 500" enable-background="new 0 0 500 500" xml:space="preserve">
<rect opacity="0" fill="#FFFFFF" stroke="#000000" stroke-miterlimit="10" width="500" height="500"/>
<g>
	<radialGradient id="SVGID_1_" cx="250" cy="244.9575" r="182.7625" gradientUnits="userSpaceOnUse">
		<stop  offset="0" style="stop-color:#AADCF6"/>
		<stop  offset="1" style="stop-color:#AADCF6;stop-opacity:0"/>
	</radialGradient>
	<circle opacity="0.8" fill="url(#SVGID_1_)" cx="250" cy="244.957" r="182.763"/>
	<path fill="#20B4B0" d="M360.378,480.657c0,8.156-49.869,14.766-111.384,14.766c-61.524,0-111.389-6.609-111.389-14.766
		c0-8.148,49.864-14.755,111.389-14.755C310.509,465.902,360.378,472.509,360.378,480.657z"/>
	<linearGradient id="SVGID_2_" gradientUnits="userSpaceOnUse" x1="296.2822" y1="8.6343" x2="296.2822" y2="346.625">
		<stop  offset="0" style="stop-color:#FFFFFF"/>
		<stop  offset="1" style="stop-color:#FFFFFF;stop-opacity:0"/>
	</linearGradient>
	<polygon opacity="0.1" fill="url(#SVGID_2_)" points="336.188,337.743 256.377,337.743 256.377,11.192 302.51,4.577 336.188,42.5 	
		"/>
	<linearGradient id="SVGID_3_" gradientUnits="userSpaceOnUse" x1="247.8208" y1="189.7285" x2="247.8208" y2="462.1898">
		<stop  offset="0" style="stop-color:#FFFFFF"/>
		<stop  offset="1" style="stop-color:#FFFFFF;stop-opacity:0"/>
	</linearGradient>
	<path opacity="0.1" fill="url(#SVGID_3_)" d="M342.438,146.999l-94.617,116.087l-94.618-116.087c0,0-18.274,3.498-18.274,154.193
		c0,157.564,0,158.438,0,158.441h112.278h1.229h112.278c0-0.004,0-0.877,0-158.441C360.714,150.497,342.438,146.999,342.438,146.999
		z"/>
	<g>
		<path fill="#2E3F51" d="M260.778,332.729h-4.716h-4.712h-4.716h-4.717h-4.713h-4.714v8.201c0,1.519,1.056,2.748,2.356,2.748
			s2.357-1.229,2.357-2.748c0,1.519,1.055,2.748,2.356,2.748c1.304,0,2.356-1.229,2.356-2.748c0,1.519,1.057,2.748,2.358,2.748
			c1.303,0,2.358-1.229,2.358-2.748c0,1.519,1.053,2.748,2.356,2.748c1.302,0,2.359-1.229,2.359-2.748
			c0,1.519,1.053,2.748,2.354,2.748c1.304,0,2.358-1.229,2.358-2.748c0,1.519,1.056,2.748,2.359,2.748
			c1.301,0,2.356-1.229,2.356-2.748c0,1.519,1.055,2.748,2.356,2.748c1.301,0,2.356-1.229,2.356-2.748v-8.201H260.778z"/>
		<rect x="232.491" y="295.486" fill="#F3A8A0" width="32.996" height="38.593"/>
	</g>
	<g>
		<g>
			<rect x="236.007" y="308.57" fill="#EB5E4E" width="4.012" height="162.336"/>
			<path fill="#EB5E4E" d="M225.763,301.54c0,6.762,5.485,12.249,12.249,12.249c6.768,0,12.25-5.487,12.25-12.249"/>
			<rect x="233.207" y="470.906" fill="#2E3F51" width="9.757" height="9.757"/>
			<polygon fill="#FFFFFF" points="235.188,480.663 238.086,475.783 240.95,480.663 			"/>
			<path fill="#EB5E4E" d="M231.205,382.616c0,3.76,3.044,6.81,6.807,6.81c3.764,0,6.81-3.05,6.81-6.81
				c0-3.763-3.046-6.812-6.81-6.812C234.249,375.805,231.205,378.854,231.205,382.616z"/>
		</g>
		<g>
			<rect x="257.782" y="308.57" fill="#F18A86" width="4.012" height="75.339"/>
			<path fill="#F18A86" d="M247.537,301.54c0,6.762,5.486,12.249,12.25,12.249c6.769,0,12.25-5.487,12.25-12.249"/>
			<rect x="254.982" y="386.766" fill="#2E3F51" width="9.758" height="9.757"/>
			<polygon fill="#FFFFFF" points="256.962,396.522 259.863,391.642 262.728,396.522 			"/>
			<circle fill="#F18A86" cx="259.789" cy="382.616" r="6.809"/>
		</g>
	</g>
	<rect x="240.351" y="138.194" fill="#F3A8A0" width="16.256" height="107.917"/>
	<g>
		<circle fill="#F29598" cx="248.198" cy="132.714" r="19.875"/>
		<path fill="#FFFFFF" d="M238.967,148.3c0.113,4.406,3.776,7.888,8.184,7.771l3.384-0.088c4.407-0.113,7.886-3.778,7.771-8.183
			l-0.403-15.47c-0.116-4.406-3.779-7.884-8.185-7.77l-3.384,0.086c-4.405,0.116-7.883,3.781-7.771,8.187L238.967,148.3z"/>
		<polygon fill="#2E3F51" points="238.563,132.833 257.902,132.33 258.579,158.415 249.234,171.161 239.242,158.916 		"/>
		<g>
			<circle fill="#FFFFFF" cx="239.359" cy="123.346" r="2.831"/>
		</g>
		<g>
			<circle fill="#F29598" cx="243.78" cy="104.14" r="2.111"/>
			<polygon fill="#F29598" points="245.749,103.379 247.207,113.001 241.811,104.901 			"/>
		</g>
		<g>
			<circle fill="#F29598" cx="249.243" cy="106.647" r="1.453"/>
			<polygon fill="#F29598" points="247.862,106.194 247.203,112.86 250.623,107.1 			"/>
		</g>
		<path fill="none" stroke="#2E3F51" stroke-width="2.3458" stroke-linecap="round" stroke-miterlimit="10" d="M239.089,108.382
			c-4.004,0.405-6.917,3.979-6.514,7.983"/>
		<path fill="none" stroke="#2E3F51" stroke-width="2.3458" stroke-linecap="round" stroke-miterlimit="10" d="M254.388,110.613
			c4.021,0.198,7.119,3.613,6.921,7.637"/>
		<g>
			<circle fill="#FFFFFF" cx="256.604" cy="122.7" r="2.831"/>
			<path fill="#2E3F51" d="M254.306,122.761c0.032,1.269,1.088-0.304,2.356-0.337c1.271-0.032,2.271,1.487,2.24,0.219
				c-0.034-1.27-1.089-2.272-2.358-2.24C255.275,120.436,254.273,121.491,254.306,122.761z"/>
			<path fill="#2E3F51" d="M237.061,123.157c0.033,1.27,1.088-0.304,2.356-0.337c1.271-0.033,2.272,1.487,2.241,0.218
				c-0.034-1.268-1.091-2.271-2.358-2.239C238.03,120.832,237.028,121.888,237.061,123.157z"/>
		</g>
	</g>
	<circle fill="#F29598" cx="248.448" cy="265.499" r="43.444"/>
	<rect x="240.351" y="216.415" fill="#F3A8A0" width="16.3" height="33.261"/>
	<circle fill="#F3A8A0" cx="248.557" cy="249.446" r="8.062"/>
	<g>
		<path fill="#F29598" d="M344.98,147.503L234.145,272.414c3.5,5.025,27.94,11.14,55.046,1.896l1.016,3.193l4.833-5.417
			c11.991-5.043,24.242-13.25,35.224-26.014C367.989,202.23,351.914,157.466,344.98,147.503z"/>
		<path fill="#2E3F51" d="M342.846,145.378c0.011,0.01,0.017,0.026,0.028,0.036c-0.414-0.366-1.044-0.329-1.409,0.083
			s-0.329,1.042,0.086,1.406c-0.415-0.364-1.043-0.325-1.41,0.088c-0.365,0.41-0.328,1.039,0.084,1.406
			c-0.412-0.367-1.042-0.33-1.405,0.083c-0.367,0.414-0.331,1.044,0.082,1.41c-0.413-0.366-1.043-0.329-1.408,0.083
			c-0.364,0.41-0.326,1.04,0.086,1.407c-0.412-0.367-1.044-0.329-1.409,0.083c-0.365,0.414-0.328,1.043,0.086,1.41
			c-0.414-0.367-1.043-0.33-1.408,0.081c-0.366,0.414-0.328,1.043,0.084,1.408c-0.412-0.365-1.042-0.328-1.409,0.084
			c-0.363,0.41-0.324,1.041,0.088,1.408c-0.412-0.367-1.043-0.329-1.409,0.083c-0.367,0.414-0.33,1.042,0.085,1.409
			c-0.415-0.367-1.044-0.328-1.409,0.084c-0.365,0.411-0.327,1.042,0.084,1.406c-0.411-0.364-1.04-0.329-1.407,0.083
			c-0.365,0.413-0.33,1.045,0.085,1.411c-0.415-0.366-1.044-0.33-1.409,0.082c-0.365,0.413-0.329,1.043,0.084,1.407
			c-0.413-0.364-1.042-0.327-1.407,0.086c-0.365,0.411-0.328,1.042,0.086,1.406c-0.414-0.364-1.041-0.329-1.41,0.084
			c-0.365,0.412-0.327,1.043,0.086,1.406c-0.413-0.363-1.042-0.325-1.407,0.086c-0.365,0.409-0.33,1.043,0.084,1.407
			c-0.414-0.364-1.043-0.328-1.408,0.084c-0.365,0.413-0.327,1.041,0.085,1.407c-0.412-0.366-1.043-0.328-1.408,0.084
			c-0.365,0.413-0.328,1.044,0.085,1.408c-0.413-0.364-1.044-0.328-1.409,0.083c-0.364,0.412-0.329,1.044,0.083,1.409
			c-0.412-0.365-1.041-0.328-1.407,0.085c-0.363,0.41-0.326,1.041,0.086,1.407c-0.412-0.366-1.044-0.328-1.408,0.083
			c-0.364,0.412-0.328,1.044,0.084,1.408c-0.412-0.364-1.042-0.328-1.407,0.082c-0.315,0.358-0.313,0.865-0.047,1.235
			c-0.398-0.21-0.893-0.147-1.202,0.204c-0.365,0.41-0.329,1.042,0.081,1.407c-0.41-0.365-1.04-0.327-1.407,0.084
			c-0.365,0.413-0.328,1.041,0.086,1.408c-0.414-0.367-1.043-0.327-1.407,0.084c-0.365,0.411-0.329,1.039,0.081,1.407
			c-0.41-0.368-1.042-0.329-1.405,0.084c-0.367,0.414-0.33,1.043,0.084,1.407c-0.414-0.364-1.042-0.328-1.407,0.084
			c-0.365,0.411-0.329,1.043,0.086,1.407c-0.415-0.364-1.045-0.327-1.412,0.087c-0.363,0.41-0.326,1.04,0.084,1.407
			c-0.41-0.367-1.038-0.327-1.405,0.084c-0.365,0.412-0.33,1.041,0.084,1.405c-0.414-0.364-1.043-0.327-1.408,0.085
			c-0.365,0.41-0.329,1.04,0.086,1.407c-0.415-0.367-1.042-0.326-1.409,0.085c-0.365,0.413-0.328,1.041,0.084,1.407
			c-0.412-0.366-1.041-0.328-1.406,0.084c-0.366,0.414-0.331,1.042,0.084,1.406c-0.415-0.364-1.042-0.325-1.407,0.085
			c-0.367,0.412-0.329,1.043,0.084,1.409c-0.413-0.366-1.045-0.329-1.408,0.083c-0.366,0.413-0.329,1.04,0.084,1.405
			c-0.413-0.365-1.044-0.326-1.407,0.086c-0.365,0.413-0.327,1.042,0.084,1.409c-0.411-0.367-1.041-0.329-1.405,0.084
			c-0.365,0.411-0.332,1.04,0.082,1.407c-0.414-0.367-1.043-0.327-1.408,0.084c-0.365,0.41-0.329,1.041,0.085,1.407
			c-0.414-0.366-1.041-0.329-1.408,0.084c-0.365,0.413-0.33,1.041,0.084,1.405c-0.414-0.364-1.041-0.325-1.407,0.088
			c-0.365,0.41-0.33,1.04,0.084,1.407c-0.414-0.367-1.042-0.33-1.407,0.083s-0.329,1.043,0.084,1.41
			c-0.413-0.367-1.043-0.33-1.41,0.083c-0.363,0.409-0.324,1.039,0.086,1.407c-0.41-0.368-1.042-0.329-1.407,0.082
			c-0.367,0.415-0.331,1.045,0.084,1.41c-0.415-0.365-1.043-0.329-1.408,0.081c-0.367,0.414-0.328,1.043,0.084,1.408
			c-0.412-0.365-1.04-0.327-1.407,0.085c-0.363,0.41-0.327,1.04,0.088,1.407c-0.415-0.367-1.045-0.329-1.41,0.083
			c-0.368,0.415-0.328,1.042,0.084,1.409c-0.412-0.367-1.044-0.328-1.407,0.084c-0.367,0.411-0.328,1.042,0.082,1.407
			c-0.41-0.365-1.041-0.33-1.407,0.083c-0.365,0.412-0.329,1.044,0.085,1.41c-0.414-0.366-1.044-0.33-1.407,0.082
			c-0.365,0.413-0.329,1.044,0.082,1.408c-0.411-0.364-1.043-0.327-1.405,0.085c-0.367,0.411-0.328,1.042,0.083,1.407
			c-0.411-0.365-1.04-0.33-1.409,0.083c-0.365,0.413-0.327,1.043,0.086,1.406c-0.413-0.363-1.042-0.325-1.405,0.086
			c-0.365,0.41-0.332,1.043,0.081,1.407c-0.413-0.364-1.04-0.327-1.407,0.084c-0.365,0.413-0.327,1.042,0.088,1.407
			c-0.415-0.365-1.046-0.328-1.411,0.085s-0.328,1.043,0.085,1.407c-0.413-0.364-1.042-0.327-1.407,0.083
			c-0.365,0.412-0.329,1.044,0.084,1.409c-0.413-0.365-1.042-0.328-1.409,0.086c-0.363,0.41-0.326,1.04,0.085,1.407
			c-0.411-0.367-1.044-0.329-1.407,0.082c-0.364,0.412-0.327,1.044,0.083,1.408c-0.41-0.364-1.041-0.328-1.406,0.082
			c-0.366,0.415-0.328,1.045,0.085,1.409l2.222,1.971l1.325-1.491l1.321-1.491l1.322-1.491l1.323-1.491l1.324-1.493l1.324-1.49
			l1.324-1.491l1.323-1.493l1.324-1.491l1.323-1.492l1.324-1.492l1.321-1.489l1.324-1.493l1.323-1.491l1.323-1.49l1.324-1.492
			l1.321-1.494l1.324-1.488l1.325-1.495l1.322-1.49l1.321-1.491l1.326-1.491l1.321-1.493l1.325-1.491l1.325-1.492l1.322-1.491
			l1.323-1.49l1.325-1.491l1.322-1.491l1.323-1.493l1.322-1.491l1.325-1.492l1.322-1.493l1.323-1.49l1.322-1.491l-0.016-0.013
			l1.269-1.427l1.322-1.491l1.323-1.492l1.324-1.49l1.323-1.493l1.323-1.49l1.324-1.491l1.322-1.493l1.324-1.491l1.323-1.492
			l1.324-1.492l1.323-1.491l1.324-1.491l1.321-1.491l1.326-1.49l1.323-1.492l1.32-1.494l1.325-1.489l1.323-1.494l1.205-1.355
			C344.537,146.929,343.791,146.042,342.846,145.378z"/>
	</g>
	<g>
		<path fill="#F29598" d="M151.904,147.503l110.835,124.911c-3.5,5.025-27.939,11.14-55.048,1.896l-1.015,3.193l-4.832-5.417
			c-11.991-5.043-24.243-13.25-35.225-26.014C128.893,202.23,144.968,157.466,151.904,147.503z"/>
		<path fill="#2E3F51" d="M154.036,145.378c-0.011,0.01-0.016,0.026-0.027,0.036c0.415-0.366,1.044-0.329,1.409,0.083
			c0.366,0.412,0.33,1.042-0.085,1.406c0.415-0.364,1.043-0.325,1.409,0.088c0.363,0.41,0.328,1.039-0.085,1.406
			c0.413-0.367,1.042-0.33,1.407,0.083c0.366,0.414,0.33,1.044-0.084,1.41c0.414-0.366,1.044-0.329,1.408,0.083
			c0.364,0.41,0.327,1.04-0.084,1.407c0.411-0.367,1.042-0.329,1.408,0.083c0.366,0.414,0.329,1.043-0.085,1.41
			c0.414-0.367,1.041-0.33,1.407,0.081c0.367,0.414,0.329,1.043-0.084,1.408c0.413-0.365,1.042-0.328,1.408,0.084
			c0.364,0.41,0.327,1.041-0.087,1.408c0.414-0.367,1.043-0.329,1.409,0.083c0.367,0.414,0.328,1.042-0.084,1.409
			c0.412-0.367,1.043-0.328,1.408,0.084c0.366,0.411,0.328,1.042-0.084,1.406c0.412-0.364,1.041-0.329,1.407,0.083
			c0.366,0.413,0.33,1.045-0.084,1.411c0.414-0.366,1.044-0.33,1.408,0.082c0.364,0.413,0.328,1.043-0.083,1.407
			c0.411-0.364,1.042-0.327,1.407,0.086c0.366,0.411,0.327,1.042-0.086,1.406c0.413-0.364,1.041-0.329,1.409,0.084
			c0.366,0.412,0.328,1.043-0.085,1.406c0.413-0.363,1.043-0.325,1.407,0.086c0.363,0.409,0.328,1.043-0.083,1.407
			c0.411-0.364,1.04-0.328,1.407,0.084c0.365,0.413,0.327,1.041-0.088,1.407c0.415-0.366,1.047-0.328,1.41,0.084
			c0.366,0.413,0.328,1.044-0.084,1.408c0.412-0.364,1.043-0.328,1.408,0.083c0.364,0.412,0.328,1.044-0.084,1.409
			c0.412-0.365,1.042-0.328,1.408,0.085c0.363,0.41,0.325,1.041-0.086,1.407c0.411-0.366,1.045-0.328,1.407,0.083
			c0.365,0.412,0.329,1.044-0.082,1.408c0.411-0.364,1.041-0.328,1.407,0.082c0.315,0.358,0.312,0.865,0.045,1.235
			c0.398-0.21,0.895-0.147,1.204,0.204c0.364,0.41,0.328,1.042-0.082,1.407c0.41-0.365,1.04-0.327,1.408,0.084
			c0.364,0.413,0.328,1.041-0.088,1.408c0.416-0.367,1.044-0.327,1.408,0.084c0.366,0.411,0.33,1.039-0.082,1.407
			c0.412-0.368,1.043-0.329,1.406,0.084c0.367,0.414,0.332,1.043-0.083,1.407c0.415-0.364,1.041-0.328,1.407,0.084
			c0.365,0.411,0.328,1.043-0.086,1.407c0.414-0.364,1.044-0.327,1.41,0.087c0.364,0.41,0.328,1.04-0.083,1.407
			c0.411-0.367,1.039-0.327,1.406,0.084c0.364,0.412,0.329,1.041-0.084,1.405c0.413-0.364,1.041-0.327,1.407,0.085
			c0.364,0.41,0.327,1.04-0.085,1.407c0.412-0.367,1.041-0.326,1.407,0.085c0.366,0.413,0.329,1.041-0.082,1.407
			c0.411-0.366,1.041-0.328,1.406,0.084c0.366,0.414,0.33,1.042-0.084,1.406c0.414-0.364,1.043-0.325,1.406,0.085
			c0.367,0.412,0.328,1.043-0.082,1.409c0.41-0.366,1.043-0.329,1.407,0.083c0.366,0.413,0.328,1.04-0.084,1.405
			c0.412-0.365,1.043-0.326,1.405,0.086c0.367,0.413,0.329,1.042-0.082,1.409c0.411-0.367,1.041-0.329,1.406,0.084
			c0.365,0.411,0.329,1.04-0.084,1.407c0.413-0.367,1.042-0.327,1.409,0.084c0.364,0.41,0.328,1.041-0.087,1.407
			c0.415-0.366,1.044-0.329,1.409,0.084s0.33,1.041-0.085,1.405c0.415-0.364,1.042-0.325,1.408,0.088
			c0.364,0.41,0.329,1.04-0.083,1.407c0.412-0.367,1.041-0.33,1.405,0.083c0.367,0.413,0.331,1.043-0.083,1.41
			c0.414-0.367,1.043-0.33,1.409,0.083c0.365,0.409,0.327,1.039-0.085,1.407c0.412-0.368,1.043-0.329,1.408,0.082
			c0.366,0.415,0.329,1.045-0.085,1.41c0.414-0.365,1.042-0.329,1.407,0.081c0.367,0.414,0.329,1.043-0.084,1.408
			c0.413-0.365,1.042-0.327,1.408,0.085c0.364,0.41,0.327,1.04-0.087,1.407c0.414-0.367,1.044-0.329,1.409,0.083
			c0.367,0.415,0.328,1.042-0.084,1.409c0.412-0.367,1.043-0.328,1.408,0.084c0.366,0.411,0.328,1.042-0.084,1.407
			c0.412-0.365,1.042-0.33,1.407,0.083c0.365,0.412,0.33,1.044-0.084,1.41c0.414-0.366,1.044-0.33,1.408,0.082
			c0.364,0.413,0.328,1.044-0.083,1.408c0.411-0.364,1.041-0.327,1.406,0.085c0.366,0.411,0.327,1.042-0.085,1.407
			c0.412-0.365,1.041-0.33,1.409,0.083c0.365,0.413,0.328,1.043-0.085,1.406c0.413-0.363,1.042-0.325,1.407,0.086
			c0.364,0.41,0.329,1.043-0.083,1.407c0.412-0.364,1.04-0.327,1.407,0.084c0.365,0.413,0.327,1.042-0.088,1.407
			c0.415-0.365,1.047-0.328,1.411,0.085c0.366,0.413,0.328,1.043-0.085,1.407c0.413-0.364,1.043-0.327,1.408,0.083
			c0.364,0.412,0.329,1.044-0.084,1.409c0.413-0.365,1.042-0.328,1.409,0.086c0.363,0.41,0.325,1.04-0.087,1.407
			c0.412-0.367,1.045-0.329,1.407,0.082c0.365,0.412,0.329,1.044-0.083,1.408c0.412-0.364,1.043-0.328,1.408,0.082
			c0.364,0.415,0.327,1.045-0.085,1.409l-2.222,1.971l-1.325-1.491l-1.323-1.491l-1.322-1.491l-1.323-1.491l-1.324-1.493
			l-1.323-1.49l-1.323-1.491l-1.324-1.493l-1.322-1.491l-1.324-1.492l-1.324-1.492l-1.322-1.489l-1.324-1.493l-1.323-1.491
			l-1.324-1.49l-1.323-1.492l-1.322-1.494l-1.323-1.488l-1.324-1.495l-1.324-1.49l-1.321-1.491l-1.325-1.491l-1.323-1.493
			l-1.321-1.491l-1.326-1.492l-1.321-1.491l-1.324-1.49l-1.325-1.491l-1.323-1.491l-1.324-1.493l-1.321-1.491l-1.324-1.492
			l-1.324-1.493l-1.322-1.49l-1.322-1.491l0.016-0.013l-1.269-1.427l-1.323-1.491l-1.321-1.492l-1.324-1.49l-1.324-1.493
			l-1.323-1.49l-1.324-1.491l-1.323-1.493l-1.323-1.491l-1.323-1.492l-1.324-1.492l-1.322-1.491l-1.323-1.491l-1.324-1.491
			l-1.324-1.49l-1.323-1.492l-1.322-1.494l-1.323-1.489l-1.325-1.494l-1.204-1.355C152.346,146.929,153.092,146.042,154.036,145.378
			z"/>
	</g>
	<g>
		<g>
			<polygon fill="#2E3F51" points="256.377,11.192 299.828,46.394 336.188,42.5 302.51,4.577 			"/>
		</g>
		<g>
			
				<ellipse transform="matrix(0.8337 0.5523 -0.5523 0.8337 64.568 -159.7432)" fill="#007080" cx="297.479" cy="27.32" rx="23.487" ry="5.815"/>
			
				<rect x="285.621" y="10.2" transform="matrix(0.5524 -0.8336 0.8336 0.5524 103.169 259.5252)" fill="#007080" width="15.278" height="46.978"/>
			<path fill="#2E3F51" d="M308.621,53.03c-1.774,2.676-11.979-0.962-22.791-8.126c-10.814-7.165-18.143-15.144-16.372-17.82
				c1.775-2.677,11.979,0.962,22.793,8.127C303.065,42.373,310.394,50.354,308.621,53.03z"/>
		</g>
		<g>
			<polygon fill="#FCBF00" points="328.88,60.531 324.785,60.531 324.785,41.631 328.88,41.172 			"/>
			<circle fill="#FCBF00" cx="326.833" cy="60.138" r="3.229"/>
			<path fill="#FCBF00" d="M331.125,75.888c0,2.437-1.976,4.411-4.412,4.411l0,0c-2.436,0-4.41-1.975-4.41-4.411V64.942
				c0-2.437,1.975-4.411,4.41-4.411l0,0c2.437,0,4.412,1.975,4.412,4.411V75.888z"/>
		</g>
	</g>
	<polygon fill="#EB5E4E" points="240.019,246.809 248.197,256.577 256.65,246.809 256.65,242.471 260.481,246.881 248.447,265.501 
		236.085,246.111 240.351,242.471 	"/>
	<polygon fill="#EB5E4E" points="254.352,262.946 248.989,259.848 248.989,259.008 248.35,259.478 247.537,259.008 247.571,260.051 
		243.627,262.946 241.896,294.133 248.989,302.954 256.084,294.133 	"/>
	<path fill="#F18A86" d="M344.986,147.503l-72.555,81.771c4.36,2.892,8.166,6.552,11.229,10.784l69.47-69.696
		C351.214,159.304,347.5,151.115,344.986,147.503z"/>
	<path fill="#F18A86" d="M151.878,147.503l72.555,81.771c-4.36,2.892-8.167,6.552-11.231,10.784l-69.47-69.696
		C145.649,159.304,149.363,151.115,151.878,147.503z"/>
	<g>
		<g>
			<polygon fill="#2E3F51" points="220.174,89.144 193.81,110.501 171.749,108.138 192.183,85.129 			"/>
		</g>
		<g>
			<path fill="#2E3F51" d="M183.355,106.799c1.075,1.624,7.267-0.583,13.829-4.93c6.56-4.347,11.007-9.188,9.929-10.812
				c-1.074-1.625-7.267,0.583-13.827,4.93C186.725,100.334,182.279,105.175,183.355,106.799z"/>
			
				<rect x="193.159" y="88.541" transform="matrix(-0.5526 -0.8335 0.8335 -0.5526 221.4132 324.4471)" fill="#2E3F51" width="9.271" height="28.502"/>
			<path fill="#2E3F51" d="M188.476,114.526c1.076,1.625,7.267-0.582,13.826-4.929c6.562-4.348,11.01-9.188,9.935-10.812
				c-1.077-1.624-7.268,0.584-13.829,4.932C191.846,108.062,187.398,112.903,188.476,114.526z"/>
		</g>
		<g>
			<polygon fill="#2E3F51" points="176.183,119.08 178.668,119.08 178.668,107.611 176.183,107.332 			"/>
			<circle fill="#2E3F51" cx="177.425" cy="118.84" r="1.958"/>
			<path fill="#2E3F51" d="M174.822,128.396c0,1.478,1.196,2.676,2.675,2.676l0,0c1.479,0,2.676-1.198,2.676-2.676v-6.642
				c0-1.478-1.196-2.675-2.676-2.675l0,0c-1.479,0-2.675,1.197-2.675,2.675V128.396z"/>
		</g>
	</g>
	<g>
		<g>
			<polygon fill="#2E3F51" points="367.774,193.489 383.855,223.365 405.118,229.698 395.146,200.587 			"/>
		</g>
		<g>
			
				<ellipse transform="matrix(0.556 0.8312 -0.8312 0.556 348.1799 -227.484)" fill="#2E3F51" cx="387.005" cy="212.14" rx="14.25" ry="3.526"/>
			
				<rect x="378.518" y="200.465" transform="matrix(0.8313 -0.5558 0.5558 0.8313 -54.7068 249.1853)" fill="#2E3F51" width="9.27" height="28.502"/>
			
				<ellipse transform="matrix(0.556 0.8312 -0.8312 0.556 349.0251 -218.7903)" fill="#2E3F51" cx="379.3" cy="217.292" rx="14.251" ry="3.527"/>
		</g>
		<g>
			<polygon fill="#2E3F51" points="396.806,238.082 394.514,237.122 398.939,226.542 401.339,227.244 			"/>
			<circle fill="#2E3F51" cx="395.752" cy="237.381" r="1.959"/>
			<path fill="#2E3F51" d="M394.466,247.202c-0.569,1.363-2.136,2.006-3.5,1.436l0,0c-1.362-0.57-2.006-2.138-1.435-3.501
				l2.562-6.127c0.57-1.363,2.138-2.006,3.501-1.436l0,0c1.364,0.57,2.007,2.137,1.436,3.501L394.466,247.202z"/>
		</g>
	</g>
	<g>
		<g>
			<polygon fill="#2E3F51" points="295.088,342.286 315.296,349.506 327.965,343.471 310.95,334.023 			"/>
		</g>
		<g>
			<path fill="#2E3F51" d="M320.759,345.104c-0.301,1.194-4.458,1.176-9.285-0.043c-4.825-1.218-8.494-3.175-8.189-4.369
				c0.298-1.194,4.456-1.176,9.283,0.042C317.395,341.952,321.06,343.91,320.759,345.104z"/>
			
				<rect x="308.372" y="336.728" transform="matrix(0.2452 -0.9695 0.9695 0.2452 -100.2047 562.782)" fill="#2E3F51" width="5.864" height="18.025"/>
			
				<ellipse transform="matrix(0.9696 0.2448 -0.2448 0.9696 94.7956 -65.4317)" fill="#2E3F51" cx="310.585" cy="348.583" rx="9.013" ry="2.23"/>
		</g>
		<g>
			<polygon fill="#2E3F51" points="327.613,350.93 326.13,351.448 323.726,344.605 325.152,343.919 			"/>
			<path fill="#2E3F51" d="M325.652,351.456c0.227,0.646,0.934,0.983,1.578,0.76c0.647-0.229,0.985-0.934,0.762-1.581
				c-0.229-0.646-0.936-0.984-1.58-0.757C325.765,350.104,325.426,350.81,325.652,351.456z"/>
			<path fill="#2E3F51" d="M330.377,356.204c0.312,0.88-0.152,1.847-1.034,2.157l0,0c-0.881,0.309-1.847-0.154-2.157-1.037
				l-1.393-3.962c-0.31-0.883,0.154-1.85,1.035-2.158l0,0c0.884-0.311,1.849,0.154,2.159,1.036L330.377,356.204z"/>
		</g>
	</g>
	<g>
		<g>
			<polygon fill="#2E3F51" points="195.229,319.847 194.426,333.569 187.695,339.527 186.386,327.131 			"/>
		</g>
		<g>
			<path fill="#2E3F51" d="M190.464,335.688c0.779,0.121,1.809-2.335,2.298-5.485c0.491-3.149,0.255-5.803-0.525-5.922
				c-0.779-0.124-1.809,2.333-2.299,5.484C189.447,332.915,189.684,335.566,190.464,335.688z"/>
			
				<rect x="191.328" y="324.499" transform="matrix(-0.9882 -0.1529 0.1529 -0.9882 333.6337 686.204)" fill="#2E3F51" width="3.755" height="11.546"/>
			
				<ellipse transform="matrix(-0.1536 0.9881 -0.9881 -0.1536 551.6575 188.5854)" fill="#2E3F51" cx="195.061" cy="330.559" rx="5.773" ry="1.43"/>
		</g>
		<g>
			<polygon fill="#2E3F51" points="192.182,341.188 192.86,340.442 189.427,337.313 188.665,337.981 			"/>
			<circle fill="#2E3F51" cx="192.449" cy="340.749" r="0.794"/>
			<path fill="#2E3F51" d="M194.6,344.138c0.441,0.405,1.127,0.372,1.531-0.07l0,0c0.403-0.441,0.372-1.128-0.072-1.531
				l-1.986-1.812c-0.443-0.404-1.129-0.373-1.531,0.07l0,0c-0.404,0.442-0.372,1.126,0.071,1.53L194.6,344.138z"/>
		</g>
	</g>
</g>
</svg>
