<?xml version="1.0" encoding="utf-8"?>
<!-- Generator: Adobe Illustrator 16.0.0, SVG Export Plug-In . SVG Version: 6.00 Build 0)  -->
<!DOCTYPE svg PUBLIC "-//W3C//DTD SVG 1.1//EN" "http://www.w3.org/Graphics/SVG/1.1/DTD/svg11.dtd">
<svg version="1.1" id="Capa_1" xmlns="http://www.w3.org/2000/svg" xmlns:xlink="http://www.w3.org/1999/xlink" x="0px" y="0px"
	 width="500px" height="500px" viewBox="0 0 500 500" enable-background="new 0 0 500 500" xml:space="preserve">
<rect opacity="0" fill="#FFFFFF" stroke="#000000" stroke-miterlimit="10" width="500" height="500"/>
<g>
	<path fill="#FCBF00" d="M344.277,404.47c0-60.011-48.649-108.658-108.659-108.658c-60.012,0-108.66,48.647-108.66,108.658H344.277z
		"/>
	
		<linearGradient id="SVGID_1_" gradientUnits="userSpaceOnUse" x1="493.7373" y1="147.959" x2="657.542" y2="147.959" gradientTransform="matrix(0.7071 0.7071 -0.7071 0.7071 67.0752 -316.2871)">
		<stop  offset="0" style="stop-color:#FFFFFF"/>
		<stop  offset="0.9963" style="stop-color:#FFFFFF;stop-opacity:0.0037"/>
		<stop  offset="1" style="stop-color:#FFFFFF;stop-opacity:0"/>
	</linearGradient>
	<polygon opacity="0.1" fill="url(#SVGID_1_)" points="406.583,274.103 303.976,171.499 332.396,116.636 448.222,232.464 	"/>
	<path fill="#20B4B0" d="M455.986,434.226l-31.542-6.693c10.32-2.134,16.303-4.671,16.303-7.394c0-2.633-5.605-5.092-15.315-7.18
		c17.284-1.225,29.05-3.639,29.05-6.418v-2.071H7.223v2.071h0.142c1.563,2.985,16.71,5.473,37.307,6.385
		c-9.802,2.095-15.466,4.565-15.466,7.213c0,7.577,46.333,13.72,103.498,13.72c3.511,0,6.979-0.024,10.399-0.07
		c-2.006,1.065-3.077,2.181-3.077,3.329c0,7.576,46.333,13.719,103.499,13.719c15.213,0,29.659-0.436,42.669-1.217
		c17.407,4.328,51.795,7.275,91.385,7.275c57.156,0,103.493-6.143,103.493-13.719C481.072,439.755,471.619,436.627,455.986,434.226z
		"/>
	
		<radialGradient id="SVGID_2_" cx="238.1621" cy="390.6875" r="217.0239" gradientTransform="matrix(1 0 0 1.8346 0 -326.0717)" gradientUnits="userSpaceOnUse">
		<stop  offset="0" style="stop-color:#AADCF6"/>
		<stop  offset="0.987" style="stop-color:#AADCF6;stop-opacity:0.013"/>
		<stop  offset="1" style="stop-color:#AADCF6;stop-opacity:0"/>
	</radialGradient>
	<path opacity="0.8" fill="url(#SVGID_2_)" d="M453.323,404.47c0-120.231-5.102-382.768-217.705-382.768
		c-216.268,0-217.706,262.536-217.706,382.768H453.323z"/>
	<g>
		<rect x="243.522" y="283.732" fill="#EB5E4E" width="3.568" height="144.48"/>
		<path fill="#2E3F51" d="M176.79,100.741h-11.731c-2.251,0-4.073,1.823-4.073,4.076v7.063v4.668v15.809l15.211-9.341v-2.395h0.593
			c2.252,0,4.072-1.824,4.072-4.073v-11.731C180.862,102.564,179.042,100.741,176.79,100.741z"/>
		<rect x="176.197" y="100.741" fill="#FFFFFF" width="25.864" height="22.275"/>
		<path fill="#F29598" d="M202.061,242.613c0,19.696,15.972,35.67,35.67,35.67c19.703,0,35.669-15.974,35.669-35.67
			c0-19.703-15.966-35.671-35.669-35.671C218.033,206.942,202.061,222.911,202.061,242.613z"/>
		<path fill="#F3A8A0" d="M202.061,129.964c-8.066,0-14.609-6.543-14.609-14.612c0-8.07,6.543-14.61,14.609-14.61V129.964z"/>
		<circle fill="#FFFFFF" cx="197.51" cy="108.938" r="2.941"/>
		<path fill="#F29598" d="M202.061,100.741c8.073,0,14.614,6.54,14.614,14.61c0,8.069-6.541,14.612-14.614,14.612V100.741z"/>
		<path fill="#2E3F51" d="M195.115,108.938c0,1.324,1.075,2.395,2.395,2.395c1.325,0,2.395-1.071,2.395-2.395
			c0-1.322-1.07-2.396-2.395-2.396C196.19,106.542,195.115,107.616,195.115,108.938z"/>
		<rect x="202.061" y="115.352" fill="#F29598" width="14.614" height="127.262"/>
		<polygon fill="#F29598" points="237.73,278.283 319.273,278.283 262.388,216.83 		"/>
		<polygon fill="#F18A86" points="245.843,266.729 308.578,266.729 266.332,220.737 		"/>
		<path fill="#F18A86" d="M218.276,239.167c0,15.222,12.342,27.563,27.567,27.563c15.217,0,27.556-12.341,27.556-27.563
			c0-15.224-12.339-27.564-27.556-27.564C230.618,211.602,218.276,223.942,218.276,239.167z"/>
		<path fill="#F29598" d="M247.091,257.477c12.586,0,22.789-10.205,22.789-22.789c0-12.589-10.203-22.792-22.789-22.792V257.477z"/>
		<polygon fill="#2E3F51" points="282.929,266.729 292.52,278.283 319.273,278.283 308.578,266.729 		"/>
		<path fill="#EB5E4E" d="M235.617,278.283c0,6.02,4.881,10.903,10.901,10.903c6.024,0,10.903-4.884,10.903-10.903H235.617z"/>
		<path fill="#F18A86" d="M251.282,278.283c0,6.02,4.879,10.903,10.904,10.903c6.019,0,10.903-4.884,10.903-10.903H251.282z"/>
		
			<rect x="284.352" y="269.293" transform="matrix(0.7068 -0.7074 0.7074 0.7068 -133.0056 292.2964)" fill="#F18A86" width="3.57" height="74.639"/>
		<path fill="#F18A86" d="M305.272,333.09c0,3.188,2.588,5.774,5.78,5.774c3.187,0,5.774-2.587,5.774-5.774
			c0-3.192-2.588-5.777-5.774-5.777C307.86,327.312,305.272,329.897,305.272,333.09z"/>
		<path fill="#F18A86" d="M239.533,333.09c0,3.188,2.582,5.774,5.774,5.774c3.193,0,5.774-2.587,5.774-5.774
			c0-3.192-2.581-5.777-5.774-5.777C242.115,327.312,239.533,329.897,239.533,333.09z"/>
		<rect x="218.276" y="332.113" fill="#F18A86" width="93.382" height="3.573"/>
		<polygon fill="#2E3F51" points="218.276,350.466 214.64,350.466 209.366,343.172 209.366,332.113 218.276,332.113 		"/>
		<polygon fill="#2E3F51" points="228.557,437.12 228.557,433.485 235.851,428.213 246.909,428.213 246.909,437.12 		"/>
		<path fill="#2E3F51" d="M324.556,274.402h-2.765c0-2.118-1.719-3.838-3.837-3.838h-2.562c0-2.116-1.719-3.835-3.839-3.835h-13.003
			v3.835h6.4v3.838h6.603v3.837h9.167h3.835h3.832C328.388,276.121,326.674,274.402,324.556,274.402z"/>
		<polygon fill="#FFFFFF" points="228.557,433.485 228.557,437.12 223.609,437.12 		"/>
		<polygon fill="#FFFFFF" points="214.64,350.466 218.276,350.466 218.276,355.41 		"/>
	</g>
	<g>
		<rect x="116.951" y="297.39" fill="#EB5E4E" width="2.675" height="108.324"/>
		<path fill="#2E3F51" d="M169.657,160.195h8.796c1.688,0,3.054,1.368,3.054,3.056v5.296v3.5v11.853l-11.406-7.003V175.1h-0.445
			c-1.688,0-3.052-1.366-3.052-3.053v-8.795C166.605,161.562,167.97,160.195,169.657,160.195z"/>
		<rect x="150.711" y="160.195" fill="#FFFFFF" width="19.391" height="16.701"/>
		<path fill="#F29598" d="M150.711,266.563c0,14.767-11.975,26.743-26.743,26.743c-14.771,0-26.742-11.977-26.742-26.743
			c0-14.772,11.971-26.745,26.742-26.745C138.737,239.818,150.711,251.791,150.711,266.563z"/>
		<path fill="#F3A8A0" d="M150.711,182.105c6.047,0,10.953-4.907,10.953-10.957c0-6.049-4.906-10.954-10.953-10.954V182.105z"/>
		<circle fill="#FFFFFF" cx="154.123" cy="166.341" r="2.206"/>
		<path fill="#F29598" d="M150.711,160.195c-6.051,0-10.956,4.904-10.956,10.954c0,6.05,4.904,10.957,10.956,10.957V160.195z"/>
		<circle fill="#2E3F51" cx="154.124" cy="166.341" r="1.795"/>
		<rect x="139.756" y="171.148" fill="#F29598" width="10.956" height="95.415"/>
		<polygon fill="#F29598" points="123.969,293.307 62.834,293.307 105.482,247.232 		"/>
		<polygon fill="#F18A86" points="117.887,284.642 70.852,284.642 102.525,250.162 		"/>
		<path fill="#F18A86" d="M138.555,263.979c0,11.411-9.253,20.663-20.668,20.663c-11.409,0-20.66-9.252-20.66-20.663
			c0-11.414,9.251-20.667,20.66-20.667C129.302,243.311,138.555,252.564,138.555,263.979z"/>
		<path fill="#F29598" d="M116.951,277.707c-9.436,0-17.085-7.651-17.085-17.086c0-9.439,7.649-17.089,17.085-17.089V277.707z"/>
		<polygon fill="#2E3F51" points="90.083,284.642 82.893,293.307 62.834,293.307 70.852,284.642 		"/>
		<path fill="#EB5E4E" d="M125.553,293.307c0,4.512-3.659,8.173-8.172,8.173c-4.516,0-8.174-3.661-8.174-8.173H125.553z"/>
		<path fill="#EB5E4E" d="M122.618,334.396c0,2.391-1.936,4.329-4.331,4.329c-2.392,0-4.327-1.938-4.327-4.329
			c0-2.394,1.935-4.332,4.327-4.332C120.682,330.064,122.618,332.003,122.618,334.396z"/>
		<polygon fill="#2E3F51" points="130.848,412.392 130.848,409.667 125.378,405.714 117.088,405.714 117.088,412.392 		"/>
		<path fill="#2E3F51" d="M58.872,290.396h2.073c0-1.588,1.29-2.878,2.877-2.878h1.919c0-1.587,1.29-2.876,2.878-2.876h9.75v2.876
			h-4.798v2.878H68.62v2.876h-6.872h-2.876H56C56,291.685,57.284,290.396,58.872,290.396z"/>
		<polygon fill="#FFFFFF" points="130.848,409.667 130.848,412.392 134.556,412.392 		"/>
	</g>
	<g>
		<rect x="382.152" y="312.108" fill="#EB5E4E" width="2.969" height="120.114"/>
		<path fill="#F29598" d="M419.59,277.924c0,16.376-13.281,29.655-29.656,29.655c-16.378,0-29.654-13.279-29.654-29.655
			c0-16.381,13.276-29.655,29.654-29.655C406.309,248.269,419.59,261.543,419.59,277.924z"/>
		<g>
			<path fill="#2E3F51" d="M485.008,220.618l6.312,7.433c1.213,1.429,1.037,3.562-0.389,4.775l-4.479,3.801l-2.959,2.513
				l-10.019,8.506l-2.264-14.666l1.518-1.291l-0.32-0.376c-1.21-1.426-1.036-3.56,0.391-4.771l7.435-6.312
				C481.662,219.017,483.796,219.189,485.008,220.618z"/>
			
				<rect x="460.559" y="209.533" transform="matrix(0.6472 0.7624 -0.7624 0.6472 333.0938 -282.1078)" fill="#FFFFFF" width="21.503" height="18.516"/>
			<path fill="#F3A8A0" d="M452.892,220.327c4.341,5.11,12.008,5.738,17.121,1.396c5.114-4.344,5.738-12.008,1.397-17.12
				L452.892,220.327z"/>
			<circle fill="#FFFFFF" cx="468.665" cy="211.896" r="2.446"/>
			<path fill="#F29598" d="M471.41,204.602c-4.342-5.117-12.009-5.745-17.122-1.401c-5.114,4.341-5.738,12.008-1.396,17.125
				L471.41,204.602z"/>
			<circle fill="#2E3F51" cx="468.666" cy="211.896" r="1.991"/>
		</g>
		<polygon fill="#F29598" points="389.934,307.579 322.145,307.579 369.438,256.488 		"/>
		<polygon fill="#2E3F51" points="352.359,297.972 344.385,307.579 322.145,307.579 331.037,297.972 		"/>
		<path fill="#EB5E4E" d="M391.691,307.579c0,5.004-4.059,9.064-9.062,9.064c-5.009,0-9.065-4.061-9.065-9.064H391.691z"/>
		<path fill="#F18A86" d="M378.67,307.579c0,5.004-4.056,9.064-9.066,9.064c-5.005,0-9.063-4.061-9.063-9.064H378.67z"/>
		
			<rect x="357.083" y="307.763" transform="matrix(-0.8968 -0.4425 0.4425 -0.8968 533.137 788.7625)" fill="#F18A86" width="2.969" height="48.87"/>
		<path fill="#EB5E4E" d="M388.437,353.143c0,2.65-2.146,4.801-4.8,4.801c-2.653,0-4.801-2.15-4.801-4.801
			c0-2.653,2.147-4.803,4.801-4.803C386.291,348.34,388.437,350.489,388.437,353.143z"/>
		<polygon fill="#2E3F51" points="397.562,439.629 397.562,436.604 391.496,432.223 382.306,432.223 382.306,439.629 		"/>
		<path fill="#2E3F51" d="M317.752,304.354h2.3c0-1.762,1.428-3.19,3.189-3.19h2.128c0-1.761,1.431-3.191,3.191-3.191h10.811v3.191
			h-5.319v3.19h-5.491v3.188h-7.619h-3.189h-3.186C314.566,305.781,315.992,304.354,317.752,304.354z"/>
		<polygon fill="#FFFFFF" points="397.562,436.604 397.562,439.629 401.675,439.629 		"/>
		<path fill="#F29598" d="M420.025,257.106c-12.169-19.938-2.783-38.625-1.622-40.782c4.248-8.347,11.484-14.551,20.387-17.479
			c8.939-2.938,18.484-2.218,26.882,2.023l-6.122,12.117c-5.161-2.609-11.028-3.051-16.522-1.246
			c-5.492,1.806-9.953,5.643-12.561,10.803l-0.146,0.281c-0.075,0.128-7.261,13.186,1.281,27.199l0,0
			c12.213,19.917,2.857,38.625,1.702,40.779c-6.194,12.228-18.608,19.295-31.473,19.295c-5.314,0-10.706-1.207-15.767-3.75
			l-12.836-6.455l6.098-12.127l12.836,6.454c10.662,5.363,23.704,1.05,29.065-9.615l0.148-0.278
			c0.072-0.132,7.239-13.208-1.344-27.208"/>
		<polygon fill="#F18A86" points="383.192,297.972 331.037,297.972 366.156,259.734 		"/>
		<circle fill="#F18A86" cx="383.193" cy="275.059" r="22.914"/>
		<path fill="#F18A86" d="M382.152,290.28c-10.462,0-18.943-8.482-18.943-18.945c0-10.466,8.481-18.947,18.943-18.947V290.28z"/>
		<path fill="none" stroke="#2E3F51" stroke-width="1.722" stroke-linecap="round" stroke-miterlimit="10" d="M477.837,206.88
			c-1.218-2.693-4.387-3.886-7.08-2.665"/>
		<g>
			<g>
				<path fill="#F29598" d="M470.755,195.895c-0.05,0.854-0.783,1.505-1.639,1.457c-0.854-0.049-1.506-0.783-1.454-1.638
					c0.048-0.854,0.779-1.506,1.635-1.458C470.153,194.306,470.803,195.038,470.755,195.895z"/>
				<polygon fill="#F29598" points="467.662,195.713 468.802,202.767 470.755,195.895 				"/>
			</g>
			<path fill="#F29598" d="M466.817,198.157c-0.347-0.477-1.015-0.584-1.491-0.237c-0.476,0.345-0.581,1.014-0.234,1.489"/>
			<polygon fill="#F29598" points="466.817,198.157 468.773,202.667 465.092,199.409 			"/>
		</g>
		<g>
			<path fill="#F18A86" d="M353.123,354.298c-0.638,2.572-3.243,4.143-5.821,3.507c-2.57-0.637-4.143-3.242-3.505-5.814
				c0.637-2.577,3.242-4.146,5.813-3.509C352.187,349.118,353.758,351.721,353.123,354.298z"/>
			
				<rect x="345.475" y="353.509" transform="matrix(0.9986 0.0526 -0.0526 0.9986 21.1139 -17.7048)" fill="#F18A86" width="2.971" height="77.633"/>
			<polygon fill="#2E3F51" points="358.521,438.285 358.569,435.261 352.574,430.781 343.382,430.636 343.265,438.041 			"/>
			<polygon fill="#FFFFFF" points="358.569,435.261 358.521,438.285 362.633,438.35 			"/>
		</g>
	</g>
	<g>
		<g>
			<g>
				<path fill="#F18A86" d="M332.075,116.805l-35.403,35.406l17.793,17.612l17.61-17.612
					C341.854,142.434,341.854,126.581,332.075,116.805z"/>
				
					<rect x="369.94" y="223.82" transform="matrix(0.7079 0.7063 -0.7063 0.7079 269.0144 -195.0741)" fill="#2E3F51" width="0.875" height="7.834"/>
				
					<rect x="344.793" y="165.058" transform="matrix(0.7078 -0.7064 0.7064 0.7078 -40.9761 302.9275)" fill="#EB5E4E" width="1.776" height="71.873"/>
				
					<rect x="342.918" y="166.93" transform="matrix(0.707 -0.7072 0.7072 0.707 -42.7297 302.6007)" fill="#F18A86" width="1.776" height="71.871"/>
				<path fill="#F18A86" d="M313.067,178.943c2.12,2.121,5.556,2.121,7.674,0c2.118-2.115,2.118-5.551,0-7.667L313.067,178.943z"/>
				<polygon fill="#2E3F51" points="373.311,230.953 372.64,231.624 370.325,231.248 368.281,229.21 369.93,227.57 				"/>
				<polygon fill="#FFFFFF" points="372.64,231.624 373.311,230.953 374.229,231.865 				"/>
				<path fill="#EB5E4E" d="M314.941,177.071c2.118,2.12,5.557,2.12,7.671,0.003c2.12-2.12,2.12-5.554,0-7.672L314.941,177.071z"/>
				<polygon fill="#2E3F51" points="375.184,229.08 374.516,229.75 372.196,229.375 370.154,227.338 371.804,225.695 				"/>
				<polygon fill="#FFFFFF" points="374.516,229.75 375.184,229.08 376.099,229.992 				"/>
				
					<rect x="243.214" y="117.855" transform="matrix(-0.7071 -0.7071 0.7071 -0.7071 378.2054 400.4244)" fill="#F29598" width="57.644" height="8.051"/>
				<path fill="#F29598" d="M324.488,109.215l-35.402,35.405l17.791,17.613l17.611-17.613
					C334.265,134.845,334.265,118.994,324.488,109.215z"/>
				<path fill="#F29598" d="M290.562,144.119c-8.448,8.445-8.447,22.143,0,30.592c8.446,8.445,22.145,8.445,30.591-0.001"/>
				<polygon fill="#F29598" points="311.83,155.244 340.588,184.003 332.475,186.572 305.586,159.685 				"/>
				<path fill="#2E3F51" d="M250.246,84.739l-4.225-4.229c-0.81-0.808-2.125-0.808-2.932,0.002l-2.547,2.543l-1.681,1.684
					l-5.694,5.693l8.842,2.113l0.862-0.864l0.218,0.216c0.807,0.809,2.122,0.809,2.932,0l4.225-4.226
					C251.057,86.864,251.056,85.548,250.246,84.739z"/>
				
					<rect x="244.09" y="87.518" transform="matrix(-0.7071 -0.7071 0.7071 -0.7071 362.0435 336.3401)" fill="#FFFFFF" width="13.176" height="11.346"/>
				<path fill="#F3A8A0" d="M248.825,104.362c-2.909-2.904-2.909-7.62,0-10.525c2.903-2.904,7.616-2.905,10.521,0.001
					L248.825,104.362z"/>
				<circle fill="#FFFFFF" cx="254.755" cy="95.15" r="1.498"/>
				<path fill="#F29598" d="M259.347,93.837c2.906,2.906,2.906,7.62-0.001,10.523c-2.903,2.908-7.617,2.908-10.521,0.001
					L259.347,93.837z"/>
				<circle fill="#2E3F51" cx="254.755" cy="95.152" r="1.22"/>
				<path fill="#EB5E4E" d="M344.903,199.968c-0.583,0.585-0.583,1.532-0.003,2.117c0.586,0.584,1.532,0.584,2.115,0
					c0.584-0.585,0.584-1.531,0.002-2.117C346.433,199.387,345.486,199.387,344.903,199.968z"/>
				<circle fill="#F18A86" cx="344.003" cy="202.984" r="1.494"/>
				<g>
					<path fill="#F29598" d="M332.037,152.25c9.778-9.776,9.781-25.629,0-35.407l-2.169,2.171
						c7.789,9.827,8.924,22.375-1.936,33.233l-9.618,9.621l2.062,2.042L332.037,152.25z"/>
				</g>
				<polygon fill="#F18A86" points="332.475,186.572 340.588,184.003 336.435,179.851 328.396,182.454 				"/>
				<path fill="#F18A86" d="M289.606,145.072c-5.748,5.75-5.748,15.073,0,20.823c5.755,5.75,15.076,5.75,20.825,0L289.606,145.072z"
					/>
				<g>
					<path fill="#2E3F51" d="M324.45,144.661c9.776-9.777,9.776-25.629,0-35.407l-2.172,2.172
						c7.794,9.827,8.925,22.374-1.934,33.234l-15.569,15.57l2.062,2.042L324.45,144.661z"/>
				</g>
			</g>
		</g>
	</g>
	<path fill="#A4D8DF" d="M142.523,456.893c0,4.016-24.565,7.271-54.863,7.271c-30.304,0-54.865-3.256-54.865-7.271
		s24.562-7.269,54.865-7.269C117.958,449.624,142.523,452.877,142.523,456.893z"/>
	<path fill="#A4D8DF" d="M219.51,474.867c0,2.975-18.183,5.383-40.611,5.383c-22.433,0-40.613-2.408-40.613-5.383
		c0-2.972,18.181-5.379,40.613-5.379C201.327,469.488,219.51,471.896,219.51,474.867z"/>
	<path fill="#FFFFFF" d="M103.5,211.323c-0.875-5.062-5.276-8.915-10.587-8.915c-0.115,0-0.228,0.014-0.342,0.018
		c-1.183-4.656-5.389-8.106-10.414-8.106c-5.024,0-9.231,3.45-10.414,8.106c-0.115-0.004-0.227-0.018-0.342-0.018
		c-5.941,0-10.756,4.815-10.756,10.756c0,0-10.159-0.277-10.159,10.755h63.467C113.953,223.919,114.589,213.162,103.5,211.323z"/>
	<path fill="#FFFFFF" d="M406.186,167.103c0.015-0.178,0.027-0.356,0.027-0.537c0-3.657-2.965-6.624-6.622-6.624
		c-0.575,0-1.129,0.082-1.66,0.218c-0.621-4.62-4.57-8.186-9.358-8.186c-3.828,0-7.118,2.281-8.604,5.553
		c-1.183-0.643-2.537-1.008-3.979-1.008c-4.603,0-8.335,3.729-8.335,8.335c0,0.9,0.146,1.765,0.411,2.577
		c-2.408,1.012-4.882,2.777-4.882,5.758h47.048C410.232,173.189,409.683,168.996,406.186,167.103z"/>
	<path fill="#2E3F51" d="M104.656,121.05l0.13,0.13l-1.578,1.579l-0.523,0.521l0.907-0.137l1.32-0.215l0.812-0.809l0.562,0.562
		l0.354-0.352l-0.562-0.563l0.001-0.002l-0.176-0.175l13.953-13.951c0.245,0.023,0.499-0.055,0.686-0.243
		c0.187-0.187,0.266-0.44,0.242-0.686l13.132-13.132c1.026,0.568,2.298,0.515,3.271-0.172c4.435,1.745,9.676,0.832,13.26-2.753
		c3.752-3.752,4.572-9.314,2.486-13.871c-0.404-1.104-1.04-2.143-1.922-3.031l0.001-0.001l0.002,0.002l23.255-23.257
		c0.002-0.001,0.004-0.002,0.006-0.004c0.001-0.002,0.002-0.003,0.003-0.005l0.005-0.003l0,0c1.074-1.08,1.443-2.591,1.117-3.973
		l2.764-2.764l-0.492-0.493v-0.001l0.492,0.494l5.048-1.207l-3.251-3.249l-0.958-0.962l-1.455-1.452
		c-0.46-0.462-1.211-0.462-1.673-0.001l-2.29,2.291l0,0l-5.318,5.317c-1.575,1.576-1.651,4.082-0.233,5.75l-19.993,19.992
		l-16.962-16.962c-1.55,1.55-2.668,3.369-3.357,5.306l-0.974-0.974c-5.582,5.581-5.582,14.631,0,20.213l0.003,0.001
		c0.005,0.007,0.013,0.014,0.02,0.021l6.622,6.623L121.89,95.957l4.615,1.461l-7.443,7.442c-0.29-0.084-0.614-0.016-0.843,0.21
		c-0.228,0.229-0.295,0.554-0.21,0.843l-13.891,13.89l-0.638-0.638l-0.354,0.355l0.589,0.59l-1.576,1.579l-0.522,0.52l0.905-0.137
		l1.323-0.215L104.656,121.05z M119.676,105.68l13.13-13.13c0.089,0.139,0.198,0.268,0.312,0.393l-13.011,13.012
		c-0.166-0.032-0.34-0.015-0.498,0.052C119.653,105.902,119.676,105.791,119.676,105.68z M105.01,120.696L105.01,120.696
		l-0.175-0.177l13.993-13.991c0.111-0.001,0.223-0.022,0.326-0.067c-0.066,0.158-0.083,0.332-0.051,0.498l-13.915,13.913l0.69,0.691
		l-0.318-0.317L105.01,120.696z"/>
	<path fill="#FFFFFF" d="M211.821,69.784c-0.353-2.038-2.125-3.59-4.263-3.59c-0.047,0-0.093,0.006-0.138,0.007
		c-0.477-1.875-2.17-3.263-4.193-3.263c-2.023,0-3.716,1.389-4.193,3.263c-0.046,0-0.092-0.007-0.138-0.007
		c-2.391,0-4.33,1.939-4.33,4.331c0,0-4.09-0.112-4.09,4.331h25.552C216.029,74.855,216.286,70.523,211.821,69.784z"/>
	<path fill="none" stroke="#2E3F51" stroke-width="1.8488" stroke-linecap="round" stroke-miterlimit="10" d="M203.254,108.87
		c0-3.172-2.571-5.744-5.744-5.744c-3.172,0-5.743,2.571-5.743,5.744"/>
	<path fill="none" stroke="#2E3F51" stroke-width="1.3842" stroke-linecap="round" stroke-miterlimit="10" d="M158.423,166.287
		c0-2.375-1.924-4.3-4.3-4.3c-2.375,0-4.3,1.925-4.3,4.3"/>
	<path fill="none" stroke="#2E3F51" stroke-width="1.3842" stroke-linecap="round" stroke-miterlimit="10" d="M259.055,94.695
		c0-2.375-1.924-4.3-4.299-4.3c-2.376,0-4.301,1.925-4.301,4.3"/>
</g>
</svg>
