<?xml version="1.0" encoding="utf-8"?>
<!-- Generator: Adobe Illustrator 16.0.0, SVG Export Plug-In . SVG Version: 6.00 Build 0)  -->
<!DOCTYPE svg PUBLIC "-//W3C//DTD SVG 1.1//EN" "http://www.w3.org/Graphics/SVG/1.1/DTD/svg11.dtd">
<svg version="1.1" id="Capa_1" xmlns="http://www.w3.org/2000/svg" xmlns:xlink="http://www.w3.org/1999/xlink" x="0px" y="0px"
	 width="100px" height="100px" viewBox="0 0 100 100" enable-background="new 0 0 100 100" xml:space="preserve">
<g id="qiXwry.tif">
	<g>
		<path fill-rule="evenodd" clip-rule="evenodd" fill="#3B599C" d="M84.505,29.199c0-4.531,0-9.029,0-13.562
			c-0.29-0.038-0.576-0.09-0.864-0.112c-1.237-0.094-2.475-0.191-3.713-0.264c-1.154-0.068-2.309-0.127-3.464-0.154
			c-1.555-0.037-3.111-0.091-4.664-0.044c-3.436,0.103-6.713,0.858-9.714,2.596c-3.382,1.958-5.723,4.81-7.153,8.426
			c-0.663,1.675-1.082,3.413-1.312,5.199c-0.168,1.303-0.251,2.608-0.25,3.921c0,3.517,0,7.034,0,10.55
			c0,0.369-0.001,0.37-0.368,0.37c-4.079,0-8.157,0-12.236,0c-0.439,0-0.44,0.001-0.44,0.443c0,4.77,0,9.539,0,14.309
			c0,0.096-0.015,0.197,0.014,0.283c0.022,0.065,0.095,0.136,0.161,0.157c0.086,0.028,0.188,0.012,0.283,0.012
			c4.07,0,8.14,0,12.209,0c0.377,0,0.377,0.001,0.377,0.386c0,12.633,0,25.266,0,37.898c0,0.375,0,0.375-0.388,0.375
			c-15.795,0-31.591-0.011-47.387,0.012c-2.493,0.004-4.604-1.586-5.292-3.7c-0.166-0.51-0.204-1.061-0.294-1.593
			c-0.016-0.093-0.004-0.19-0.004-0.285C0.004,64.81,0.005,35.198,0,5.585c0-1.37,0.399-2.584,1.276-3.629
			c0.896-1.068,2.041-1.711,3.428-1.898c0.323-0.044,0.653-0.054,0.98-0.054C35.228,0.001,64.771,0.002,94.315,0
			c2.371,0,4.096,1.048,5.169,3.156c0.323,0.636,0.488,1.324,0.5,2.043c0.004,0.182,0.009,0.363,0.009,0.544
			c0,29.5-0.002,59,0.007,88.5c0.001,1.393-0.338,2.649-1.229,3.726c-1.031,1.247-2.357,1.938-3.986,2.014
			c-0.164,0.008-0.329,0.006-0.493,0.006c-8.252,0.001-16.504,0-24.756,0c-0.095,0-0.199,0.023-0.282-0.008
			c-0.075-0.028-0.147-0.107-0.184-0.182c-0.03-0.063-0.007-0.152-0.007-0.23c0-12.607,0-25.214,0-37.821
			c0-0.418,0-0.418,0.423-0.418c4.052,0,8.104,0,12.157,0c0.388,0,0.4,0.001,0.452-0.364c0.123-0.887,0.233-1.775,0.349-2.663
			c0.131-0.998,0.262-1.997,0.391-2.996c0.113-0.87,0.224-1.741,0.335-2.612c0.11-0.862,0.221-1.725,0.332-2.587
			c0.13-1.008,0.262-2.015,0.394-3.022c0.027-0.213,0.051-0.427,0.085-0.64c0.045-0.278,0.021-0.312-0.271-0.318
			c-0.086-0.002-0.173-0.001-0.259-0.001c-4.658,0-9.315,0-13.973,0c-0.415,0-0.415,0-0.415-0.401
			c0.002-3.371-0.01-6.74,0.014-10.11c0.007-1.001,0.17-1.99,0.527-2.937c0.62-1.648,1.859-2.591,3.506-3.059
			c0.798-0.227,1.617-0.358,2.446-0.366c2.86-0.026,5.72-0.036,8.579-0.053C84.247,29.198,84.359,29.199,84.505,29.199z"/>
	</g>
</g>
</svg>
