<?xml version="1.0" encoding="utf-8"?>
<!-- Generator: Adobe Illustrator 16.0.0, SVG Export Plug-In . SVG Version: 6.00 Build 0)  -->
<!DOCTYPE svg PUBLIC "-//W3C//DTD SVG 1.1//EN" "http://www.w3.org/Graphics/SVG/1.1/DTD/svg11.dtd">
<svg version="1.1" id="Capa_1" xmlns="http://www.w3.org/2000/svg" xmlns:xlink="http://www.w3.org/1999/xlink" x="0px" y="0px"
	 width="500px" height="350px" viewBox="0 75 500 350" enable-background="new 0 75 500 350" xml:space="preserve">
<g>
	<path fill="#2E3F51" d="M490.762,192.46l-3.508-0.001v-0.291l1.799-0.003l1.709-1.232l1.156-0.851l-1.158,0.001l-3.506-0.002
		v-1.312h-0.787v1.417h-30.863c-0.229-0.415-0.664-0.701-1.172-0.702c-0.508,0.002-0.941,0.287-1.17,0.703h-16.535l3.504-6.75
		l-25.562-0.001v-14.715c0-0.012-0.002-0.025-0.002-0.036v-0.014c0.002-12.402-10.053-22.457-22.455-22.456v2.163
		c-2.918-1.386-6.18-2.164-9.625-2.164v0.049l0,0v2.757l0,0l0.002,34.884l-44.426,0.001c-0.273-3.429-3.143-6.128-6.645-6.128
		h-11.816l0,0l-5.088-0.001c-1.027,0.001-1.861,0.835-1.859,1.862l-0.002,3.228l0.002,2.133l-0.002,7.223l6.949-4.268l-0.002-1.094
		h0.002v1.094h6.143c1.174,1.897,3.264,3.167,5.656,3.172l0,0l0,0c0.006,0,0.014,0.001,0.02,0.001s0.012-0.001,0.018-0.001
		l51.666,0.002v-0.006h0.004c0.008,1.966,0.453,3.826,1.23,5.5c2.744,7.381,9.834,12.65,18.172,12.65
		c7.963,0,14.801-4.806,17.789-11.672c1.844-0.319,3.314-1.672,3.826-3.443l29.178-0.001c0.246,0.299,0.615,0.495,1.031,0.495
		c0.418,0,0.787-0.195,1.033-0.495h31.002l-0.002,0.39h0.002v1.251l0.785-0.002v-1.25l1.801-0.002l1.707-1.23l1.16-0.854
		L490.762,192.46z M453.93,192.069c-0.25,0.101-0.463,0.274-0.609,0.494l-28.912,0.001c-0.016-0.267-0.035-0.531-0.092-0.783
		l29.176-0.001C453.615,191.903,453.766,192.002,453.93,192.069z M486.467,194.134v-1.572l-30.918,0.001
		c-0.146-0.22-0.359-0.394-0.609-0.494c0.164-0.067,0.312-0.167,0.438-0.29h31.092v0.39l0,0v1.264L486.467,194.134z"/>
	
		<radialGradient id="SVGID_1_" cx="303.7949" cy="90.4014" r="157.1052" gradientTransform="matrix(1 0 0 -1 -56 355)" gradientUnits="userSpaceOnUse">
		<stop  offset="0" style="stop-color:#AADCF6"/>
		<stop  offset="1" style="stop-color:#AADCF6;stop-opacity:0"/>
	</radialGradient>
	<path opacity="0.8" fill="url(#SVGID_1_)" enable-background="new    " d="M90.689,264.598
		c0,86.768,70.339,157.105,157.106,157.105c86.768,0,157.105-70.338,157.105-157.105c0-86.765-70.34-157.104-157.105-157.104
		C161.029,107.494,90.689,177.833,90.689,264.598z"/>
	<path fill="#20B4B0" d="M103.848,354.191c2.557,0,4.632,2.072,4.632,4.629l0,0c0,2.561-2.076,4.633-4.632,4.633H12.708
		c-2.557,0-4.631-2.072-4.631-4.633l0,0c0-2.557,2.074-4.629,4.631-4.629H103.848z"/>
	<path fill="#007080" d="M75.167,355.684c1.732,0,3.137,1.404,3.137,3.137l0,0c0,1.734-1.405,3.139-3.137,3.139h-61.74
		c-1.733,0-3.138-1.404-3.138-3.139l0,0c0-1.73,1.405-3.137,3.138-3.137H75.167z"/>
	<path fill="#DCDCDC" d="M124.97,333.428c-11.651,0-14.378,7.379-16.731,9.732c-2.331,2.33-9.445,6.059-9.575,6.127
		c-17.19,4.912-44.286,4.703-44.286,4.703v4.83v4.83c0,0,27.095-0.209,44.286,4.705c0.13,0.068,7.245,3.795,9.575,6.127
		c2.353,2.354,5.08,9.73,16.731,9.73c0.227,0,0.441-0.01,0.651-0.027c0.254,0.02,0.504,0.027,0.743,0.027h16.23h72.382h181.95
		v-0.023h4.084c9.355,0,16.939-7.584,16.939-16.938v-16.863c0-9.355-7.584-16.938-16.939-16.938h-4.084v-0.023h-181.95h-72.382
		h-16.23c-0.239,0-0.489,0.012-0.743,0.027C125.411,333.439,125.197,333.428,124.97,333.428z"/>
	<path fill="#CECECE" d="M129.469,338.504c-9.14,0-11.278,5.789-13.123,7.635c-1.83,1.828-7.409,4.752-7.511,4.805
		c-13.484,3.854-34.738,3.691-34.738,3.691v3.787v3.791c0,0,21.253-0.166,34.738,3.688c0.102,0.055,5.681,2.977,7.511,4.807
		c1.845,1.846,3.983,7.633,13.123,7.633c0.178,0,0.346-0.008,0.51-0.021c0.201,0.014,0.396,0.021,0.583,0.021h12.729h97.804h142.714
		v-0.02h3.205c7.338,0,23.502-5.947,23.502-13.287v-13.225c0-7.338-16.164-13.287-23.502-13.287h-3.205v-0.02H241.096h-97.804
		h-12.729c-0.188,0-0.382,0.012-0.583,0.023C129.815,338.514,129.647,338.504,129.469,338.504z"/>
	<rect x="128.48" y="338.555" fill="#FFFFFF" width="219.315" height="39.834"/>
	<path fill="#F1F1F1" d="M347.795,351.402h50.791c4.043,0,7.32,3.277,7.32,7.318l0,0c0,4.043-3.277,7.32-7.32,7.32h-50.791"/>
	<circle fill="#A4D8DF" cx="13.366" cy="358.82" r="3.076"/>
	<polygon fill="#EB5E4E" points="343.275,346.82 340.795,341.246 345.684,341.246 	"/>
	<polygon fill="#EB5E4E" points="299.492,346.82 297.01,341.246 301.898,341.246 	"/>
	<polygon fill="#EB5E4E" points="255.707,346.82 253.227,341.246 258.117,341.246 	"/>
	<polygon fill="#EB5E4E" points="211.925,346.82 209.444,341.246 214.332,341.246 	"/>
	<polygon fill="#EB5E4E" points="168.14,346.82 165.66,341.246 170.548,341.246 	"/>
	<g>
		<g>
			<g>
				<rect x="342.66" y="341.246" fill="#2E3F51" width="1.23" height="34.654"/>
				<rect x="331.705" y="341.246" fill="#2E3F51" width="1.23" height="34.654"/>
			</g>
			<rect x="340.416" y="347.816" fill="#2E3F51" width="0.756" height="21.709"/>
			<rect x="338.314" y="347.816" fill="#2E3F51" width="0.754" height="21.709"/>
			<rect x="336.211" y="347.816" fill="#2E3F51" width="0.756" height="21.709"/>
			<rect x="334.107" y="347.816" fill="#2E3F51" width="0.756" height="21.709"/>
		</g>
		<g>
			<g>
				<rect x="331.705" y="341.246" fill="#2E3F51" width="1.23" height="34.654"/>
				<rect x="320.75" y="341.246" fill="#2E3F51" width="1.23" height="34.654"/>
			</g>
			<rect x="329.463" y="347.816" fill="#2E3F51" width="0.754" height="21.709"/>
			<rect x="327.357" y="347.816" fill="#2E3F51" width="0.758" height="21.709"/>
			<rect x="325.256" y="347.816" fill="#2E3F51" width="0.756" height="21.709"/>
			<rect x="323.152" y="347.816" fill="#2E3F51" width="0.756" height="21.709"/>
		</g>
		<g>
			<g>
				<rect x="320.75" y="341.246" fill="#2E3F51" width="1.23" height="34.654"/>
				<rect x="309.795" y="341.246" fill="#2E3F51" width="1.23" height="34.654"/>
			</g>
			<rect x="318.506" y="347.816" fill="#2E3F51" width="0.754" height="21.709"/>
			<rect x="316.404" y="347.816" fill="#2E3F51" width="0.754" height="21.709"/>
			<rect x="314.301" y="347.816" fill="#2E3F51" width="0.754" height="21.709"/>
			<rect x="312.197" y="347.816" fill="#2E3F51" width="0.754" height="21.709"/>
		</g>
		<g>
			<g>
				<rect x="309.795" y="341.246" fill="#2E3F51" width="1.23" height="34.654"/>
				<rect x="298.84" y="341.246" fill="#2E3F51" width="1.23" height="34.654"/>
			</g>
			<rect x="307.551" y="347.816" fill="#2E3F51" width="0.758" height="21.709"/>
			<rect x="305.449" y="347.816" fill="#2E3F51" width="0.754" height="21.709"/>
			<rect x="303.344" y="347.816" fill="#2E3F51" width="0.756" height="21.709"/>
			<rect x="301.242" y="347.816" fill="#2E3F51" width="0.756" height="21.709"/>
		</g>
		<g>
			<g>
				<rect x="298.84" y="341.246" fill="#2E3F51" width="1.23" height="34.654"/>
				<rect x="287.885" y="341.246" fill="#2E3F51" width="1.23" height="34.654"/>
			</g>
			<rect x="296.596" y="347.816" fill="#2E3F51" width="0.754" height="21.709"/>
			<rect x="294.492" y="347.816" fill="#2E3F51" width="0.756" height="21.709"/>
			<rect x="292.389" y="347.816" fill="#2E3F51" width="0.756" height="21.709"/>
			<rect x="290.287" y="347.816" fill="#2E3F51" width="0.754" height="21.709"/>
		</g>
		<g>
			<g>
				<rect x="287.885" y="341.246" fill="#2E3F51" width="1.23" height="34.654"/>
				<rect x="276.93" y="341.246" fill="#2E3F51" width="1.229" height="34.654"/>
			</g>
			<rect x="285.641" y="347.816" fill="#2E3F51" width="0.756" height="21.709"/>
			<rect x="283.537" y="347.816" fill="#2E3F51" width="0.756" height="21.709"/>
			<rect x="281.434" y="347.816" fill="#2E3F51" width="0.756" height="21.709"/>
			<rect x="279.332" y="347.816" fill="#2E3F51" width="0.756" height="21.709"/>
		</g>
		<g>
			<g>
				<rect x="276.93" y="341.246" fill="#2E3F51" width="1.229" height="34.654"/>
				<rect x="265.975" y="341.246" fill="#2E3F51" width="1.229" height="34.654"/>
			</g>
			<rect x="274.686" y="347.816" fill="#2E3F51" width="0.756" height="21.709"/>
			<rect x="272.582" y="347.816" fill="#2E3F51" width="0.756" height="21.709"/>
			<rect x="270.48" y="347.816" fill="#2E3F51" width="0.754" height="21.709"/>
			<rect x="268.377" y="347.816" fill="#2E3F51" width="0.754" height="21.709"/>
		</g>
		<g>
			<g>
				<rect x="265.975" y="341.246" fill="#2E3F51" width="1.229" height="34.654"/>
				<rect x="255.02" y="341.246" fill="#2E3F51" width="1.23" height="34.654"/>
			</g>
			<rect x="263.73" y="347.816" fill="#2E3F51" width="0.756" height="21.709"/>
			<rect x="261.627" y="347.816" fill="#2E3F51" width="0.758" height="21.709"/>
			<rect x="259.525" y="347.816" fill="#2E3F51" width="0.754" height="21.709"/>
			<rect x="257.422" y="347.816" fill="#2E3F51" width="0.754" height="21.709"/>
		</g>
		<g>
			<g>
				<rect x="255.02" y="341.246" fill="#2E3F51" width="1.23" height="34.654"/>
				<rect x="244.064" y="341.246" fill="#2E3F51" width="1.23" height="34.654"/>
			</g>
			<rect x="252.775" y="347.816" fill="#2E3F51" width="0.756" height="21.709"/>
			<rect x="250.672" y="347.816" fill="#2E3F51" width="0.756" height="21.709"/>
			<rect x="248.57" y="347.816" fill="#2E3F51" width="0.755" height="21.709"/>
			<rect x="246.466" y="347.816" fill="#2E3F51" width="0.756" height="21.709"/>
		</g>
		<g>
			<g>
				<rect x="244.064" y="341.246" fill="#2E3F51" width="1.23" height="34.654"/>
				<rect x="233.111" y="341.246" fill="#2E3F51" width="1.23" height="34.654"/>
			</g>
			<rect x="241.821" y="347.816" fill="#2E3F51" width="0.755" height="21.709"/>
			<rect x="239.719" y="347.816" fill="#2E3F51" width="0.753" height="21.709"/>
			<rect x="237.615" y="347.816" fill="#2E3F51" width="0.755" height="21.709"/>
			<rect x="235.512" y="347.816" fill="#2E3F51" width="0.754" height="21.709"/>
		</g>
		<g>
			<g>
				<rect x="233.111" y="341.246" fill="#2E3F51" width="1.23" height="34.654"/>
				<rect x="222.155" y="341.246" fill="#2E3F51" width="1.229" height="34.654"/>
			</g>
			<rect x="230.866" y="347.816" fill="#2E3F51" width="0.755" height="21.709"/>
			<rect x="228.762" y="347.816" fill="#2E3F51" width="0.756" height="21.709"/>
			<rect x="226.659" y="347.816" fill="#2E3F51" width="0.756" height="21.709"/>
			<rect x="224.558" y="347.816" fill="#2E3F51" width="0.754" height="21.709"/>
		</g>
		<g>
			<g>
				<rect x="222.155" y="341.246" fill="#2E3F51" width="1.229" height="34.654"/>
				<rect x="211.199" y="341.246" fill="#2E3F51" width="1.23" height="34.654"/>
			</g>
			<rect x="219.91" y="347.816" fill="#2E3F51" width="0.755" height="21.709"/>
			<rect x="217.806" y="347.816" fill="#2E3F51" width="0.756" height="21.709"/>
			<rect x="215.705" y="347.816" fill="#2E3F51" width="0.754" height="21.709"/>
			<rect x="213.601" y="347.816" fill="#2E3F51" width="0.755" height="21.709"/>
		</g>
		<g>
			<g>
				<rect x="211.199" y="341.246" fill="#2E3F51" width="1.23" height="34.654"/>
				<rect x="200.245" y="341.246" fill="#2E3F51" width="1.229" height="34.654"/>
			</g>
			<rect x="208.955" y="347.816" fill="#2E3F51" width="0.756" height="21.709"/>
			<rect x="206.853" y="347.816" fill="#2E3F51" width="0.754" height="21.709"/>
			<rect x="204.749" y="347.816" fill="#2E3F51" width="0.755" height="21.709"/>
			<rect x="202.647" y="347.816" fill="#2E3F51" width="0.755" height="21.709"/>
		</g>
		<g>
			<g>
				<rect x="200.245" y="341.246" fill="#2E3F51" width="1.229" height="34.654"/>
				<rect x="189.29" y="341.246" fill="#2E3F51" width="1.229" height="34.654"/>
			</g>
			<rect x="198" y="347.816" fill="#2E3F51" width="0.755" height="21.709"/>
			<rect x="195.898" y="347.816" fill="#2E3F51" width="0.755" height="21.709"/>
			<rect x="193.794" y="347.816" fill="#2E3F51" width="0.755" height="21.709"/>
			<rect x="191.691" y="347.816" fill="#2E3F51" width="0.755" height="21.709"/>
		</g>
		<g>
			<g>
				<rect x="189.29" y="341.246" fill="#2E3F51" width="1.229" height="34.654"/>
				<rect x="178.335" y="341.246" fill="#2E3F51" width="1.229" height="34.654"/>
			</g>
			<rect x="187.046" y="347.816" fill="#2E3F51" width="0.755" height="21.709"/>
			<rect x="184.942" y="347.816" fill="#2E3F51" width="0.755" height="21.709"/>
			<rect x="182.839" y="347.816" fill="#2E3F51" width="0.755" height="21.709"/>
			<rect x="180.737" y="347.816" fill="#2E3F51" width="0.755" height="21.709"/>
		</g>
		<g>
			<g>
				<rect x="178.335" y="341.246" fill="#2E3F51" width="1.229" height="34.654"/>
				<rect x="167.378" y="341.246" fill="#2E3F51" width="1.229" height="34.654"/>
			</g>
			<rect x="176.089" y="347.816" fill="#2E3F51" width="0.756" height="21.709"/>
			<rect x="173.987" y="347.816" fill="#2E3F51" width="0.756" height="21.709"/>
			<rect x="171.884" y="347.816" fill="#2E3F51" width="0.755" height="21.709"/>
			<rect x="169.781" y="347.816" fill="#2E3F51" width="0.755" height="21.709"/>
		</g>
		<g>
			<g>
				<rect x="167.378" y="341.246" fill="#2E3F51" width="1.229" height="34.654"/>
				<rect x="156.425" y="341.246" fill="#2E3F51" width="1.229" height="34.654"/>
			</g>
			<rect x="165.135" y="347.816" fill="#2E3F51" width="0.756" height="21.709"/>
			<rect x="163.032" y="347.816" fill="#2E3F51" width="0.755" height="21.709"/>
			<rect x="160.929" y="347.816" fill="#2E3F51" width="0.754" height="21.709"/>
			<rect x="158.826" y="347.816" fill="#2E3F51" width="0.754" height="21.709"/>
		</g>
		<g>
			<g>
				<rect x="156.425" y="341.246" fill="#2E3F51" width="1.229" height="34.654"/>
				<rect x="145.469" y="341.246" fill="#2E3F51" width="1.229" height="34.654"/>
			</g>
			<rect x="154.179" y="347.816" fill="#2E3F51" width="0.756" height="21.709"/>
			<rect x="152.076" y="347.816" fill="#2E3F51" width="0.756" height="21.709"/>
			<rect x="149.974" y="347.816" fill="#2E3F51" width="0.754" height="21.709"/>
			<rect x="147.87" y="347.816" fill="#2E3F51" width="0.756" height="21.709"/>
		</g>
		<g>
			<g>
				<rect x="145.469" y="341.246" fill="#2E3F51" width="1.229" height="34.654"/>
				<rect x="134.514" y="341.246" fill="#2E3F51" width="1.229" height="34.654"/>
			</g>
			<rect x="143.224" y="347.816" fill="#2E3F51" width="0.756" height="21.709"/>
			<rect x="141.121" y="347.816" fill="#2E3F51" width="0.755" height="21.709"/>
			<rect x="139.018" y="347.816" fill="#2E3F51" width="0.755" height="21.709"/>
			<rect x="136.915" y="347.816" fill="#2E3F51" width="0.755" height="21.709"/>
		</g>
	</g>
	<path fill="#2E3F51" d="M101.685,358.166c0.278,0,0.504,0.227,0.504,0.506l0,0c0,0.277-0.226,0.504-0.504,0.504H52.7
		c-0.279,0-0.504-0.227-0.504-0.504l0,0c0-0.279,0.225-0.506,0.504-0.506H101.685z"/>
	<rect x="52.196" y="353.99" fill="#2E3F51" width="2.182" height="9.66"/>
	
		<linearGradient id="SVGID_2_" gradientUnits="userSpaceOnUse" x1="267.5576" y1="131.9902" x2="527.6699" y2="131.9902" gradientTransform="matrix(1 0 0 -1 -56 355)">
		<stop  offset="0" style="stop-color:#FFFFFF"/>
		<stop  offset="1" style="stop-color:#FFFFFF;stop-opacity:0"/>
	</linearGradient>
	<polygon opacity="0.4" fill="url(#SVGID_2_)" enable-background="new    " points="211.558,150.79 233.111,163.007 
		233.111,150.907 471.67,150.907 471.67,295.23 257.67,295.23 	"/>
	<g>
		<path fill="#F18A86" d="M233.725,150.794l0.004,103.43l51.715-0.262l-0.002-51.452
			C285.445,173.949,262.287,150.79,233.725,150.794z"/>
		<rect x="302.336" y="252.064" fill="#EB5E4E" width="67.139" height="3.664"/>
		<rect x="302.334" y="257.533" fill="#F18A86" width="75.035" height="3.666"/>
		<path fill="#F18A86" d="M296.727,269.324c6.191,0.004,11.211-5.018,11.207-11.209c0.004-6.186-5.014-11.203-11.199-11.198
			L296.727,269.324z"/>
		<path fill="#EB5E4E" d="M296.727,263.854c6.193,0.004,11.213-5.02,11.213-11.203c0-6.191-5.018-11.205-11.207-11.205
			L296.727,263.854z"/>
		<polygon fill="#F29598" points="93.904,254.221 212.978,254.225 212.979,237.591 93.895,237.596 		"/>
		<path fill="#F29598" d="M211.558,150.79l0.005,103.431l51.71-0.26v-51.454C263.273,173.949,240.12,150.794,211.558,150.79z"/>
		<path fill="#F29598" d="M212.983,251.33c-0.005,24.676,20.006,44.684,44.687,44.686c24.672-0.002,44.68-20.01,44.68-44.686"/>
		<polygon fill="#F29598" points="260.299,236.516 344.314,236.516 336.219,252.119 257.666,252.119 		"/>
		<path fill="#2E3F51" d="M67.359,223.483l-12.345-0.006c-2.365,0.004-4.286,1.925-4.285,4.29l-0.004,7.433l0.004,4.913
			l-0.001,16.635l16-9.83l-0.002-2.521l0.633-0.002c2.361,0,4.282-1.921,4.284-4.286l-0.002-12.34
			C71.646,225.403,69.722,223.486,67.359,223.483z"/>
		<rect x="66.727" y="223.481" fill="#FFFFFF" width="27.218" height="23.437"/>
		<path fill="#F3A8A0" d="M93.947,254.221c-8.492,0.008-15.378-6.88-15.374-15.371c0-8.481,6.88-15.37,15.371-15.368L93.947,254.221
			z"/>
		<path fill="#FFFFFF" d="M86.06,232.104c0,1.71,1.384,3.096,3.093,3.096c1.709,0.002,3.1-1.382,3.096-3.096
			c0.004-1.706-1.385-3.094-3.096-3.094C87.446,229.009,86.058,230.398,86.06,232.104z"/>
		<path fill="#F29598" d="M93.944,223.481c8.488,0,15.374,6.887,15.368,15.371c0.006,8.49-6.879,15.374-15.365,15.368
			L93.944,223.481z"/>
		<path fill="#2E3F51" d="M86.633,232.104c0.002,1.396,1.127,2.522,2.525,2.523c1.395-0.005,2.515-1.126,2.52-2.519
			c-0.002-1.399-1.128-2.526-2.525-2.522C87.763,229.587,86.639,230.711,86.633,232.104z"/>
		<path fill="#EB5E4E" d="M366.385,253.531c0.006,1.709,1.389,3.09,3.09,3.098c1.707-0.004,3.09-1.387,3.09-3.092
			c0-1.707-1.383-3.087-3.09-3.091C367.77,250.45,366.391,251.83,366.385,253.531z"/>
		<path fill="#F18A86" d="M373.941,259.256c-0.006,1.701,1.387,3.084,3.086,3.084c1.703,0.004,3.088-1.381,3.088-3.088
			c0.006-1.703-1.379-3.09-3.084-3.086C375.32,256.166,373.936,257.549,373.941,259.256z"/>
		<g>
			<path fill="#F29598" d="M285.443,202.626c0.002-28.565-23.15-51.725-51.718-51.719l0.003,6.34
				c25.729,2.977,45.719,19.646,45.717,51.37l0.002,28.105l5.996-0.033V202.626L285.443,202.626z"/>
		</g>
		<polygon fill="#F18A86" points="336.219,252.119 344.314,236.516 332.184,236.521 324.242,252.062 		"/>
		<path fill="#F18A86" d="M212.979,254.119c0.004,16.793,13.623,30.41,30.418,30.412c16.802-0.004,30.419-13.619,30.417-30.416
			L212.979,254.119z"/>
		<g>
			<path fill="#2E3F51" d="M263.275,202.623c0-28.561-23.156-51.716-51.718-51.719v6.348c25.74,2.97,45.72,19.643,45.722,51.367
				l0.002,45.487l5.992-0.029L263.275,202.623z"/>
		</g>
		<polygon fill="#EB5E4E" points="358.223,328.652 354.48,328.652 367.631,254.115 371.242,254.752 		"/>
		
			<rect x="368.792" y="258.015" transform="matrix(-0.9849 -0.173 0.173 -0.9849 684.5271 650.7349)" fill="#F18A86" width="3.669" height="75.035"/>
		<g>
			<polygon fill="#2E3F51" points="348.342,333.42 348.338,331.463 352.271,328.627 358.229,328.615 358.221,333.428 			"/>
			<polygon fill="#FFFFFF" points="348.338,331.463 348.342,333.42 345.672,333.422 			"/>
		</g>
		<g>
			<polygon fill="#2E3F51" points="356.82,333.42 356.816,331.463 360.75,328.627 366.707,328.615 366.699,333.428 			"/>
			<polygon fill="#FFFFFF" points="356.816,331.463 356.82,333.42 354.152,333.422 			"/>
		</g>
	</g>
	<path fill="#FFFFFF" d="M163.318,176.893c0.025-0.318,0.049-0.638,0.049-0.963c0-6.766-5.486-12.251-12.252-12.251
		c-1.062,0-2.086,0.149-3.068,0.404c-1.149-8.544-8.453-15.141-17.311-15.141c-7.081,0-13.165,4.217-15.913,10.27
		c-2.187-1.188-4.694-1.865-7.359-1.865c-8.514,0-15.418,6.9-15.418,15.418c0,1.665,0.271,3.264,0.76,4.765
		c-4.452,1.874-9.029,5.137-9.029,10.653h87.025C170.802,188.18,169.803,180.391,163.318,176.893z"/>
	<path fill="#2E3F51" d="M271.25,119.633h-2.189v-0.181l1.123-0.002l1.066-0.77l0.721-0.531h-0.723h-2.188v-0.819h-0.49v0.884
		h-19.255c-0.142-0.259-0.415-0.437-0.731-0.438c-0.316,0.001-0.587,0.179-0.729,0.439h-10.317l2.186-4.212l-15.948-0.001v-9.18
		c0-0.008,0-0.016,0-0.023v-0.009c0.001-7.737-6.272-14.009-14.009-14.009v1.351c-1.821-0.866-3.856-1.351-6.005-1.351v0.03l0,0
		v1.72l0,0l0.001,21.764l-27.716,0.001c-0.172-2.139-1.96-3.823-4.146-3.823h-7.373l0,0l-3.174-0.001
		c-0.64,0.001-1.16,0.521-1.16,1.161v2.015v1.33v4.506l4.334-2.663v-0.683l0,0v0.683h3.833c0.731,1.184,2.035,1.976,3.528,1.979l0,0
		l0,0c0.005,0,0.008,0,0.013,0c0.004,0,0.007,0,0.011,0h32.234v-0.003h0.002c0.005,1.227,0.283,2.388,0.768,3.432
		c1.713,4.604,6.135,7.893,11.338,7.893c4.968,0,9.234-2.999,11.098-7.283c1.15-0.198,2.069-1.042,2.386-2.147h18.205
		c0.153,0.187,0.384,0.308,0.643,0.308c0.262,0,0.491-0.121,0.645-0.308h19.34v0.243h0.002v0.779h0.49v-0.78l1.123-0.001
		l1.062-0.767l0.727-0.533L271.25,119.633z M248.271,119.388c-0.157,0.063-0.29,0.172-0.382,0.309h-18.037
		c-0.009-0.166-0.021-0.331-0.056-0.488l18.201-0.002C248.074,119.287,248.168,119.347,248.271,119.388z M268.568,120.677v-0.981
		l-19.289,0.001c-0.092-0.137-0.225-0.246-0.38-0.309c0.102-0.041,0.194-0.104,0.273-0.181h19.397l-0.002,0.244h0.002v0.789
		L268.568,120.677z"/>
	<g>
		<circle fill="#FFFFFF" cx="317.984" cy="90.661" r="12.365"/>
		<circle fill="#FFFFFF" cx="304.242" cy="97.713" r="5.313"/>
		<circle fill="#FFFFFF" cx="326.625" cy="94.386" r="8.64"/>
		<path fill="#FFFFFF" d="M342.238,103.024c0,0.828-45.932,0-45.932,0s-0.889-5.312,7.936-5.312s29.928-3.327,29.928-3.327
			S342.238,95.277,342.238,103.024z"/>
	</g>
	<path fill="#E9E9E9" d="M197.324,295.223c-0.744-4.307-4.491-7.586-9.012-7.586c-0.098,0-0.193,0.01-0.291,0.014
		c-1.007-3.963-4.588-6.898-8.864-6.898s-7.857,2.938-8.864,6.898c-0.098-0.004-0.192-0.014-0.291-0.014
		c-5.057,0-9.155,4.098-9.155,9.154c0,0-8.646-0.236-8.646,9.152h54.021C206.221,305.943,206.762,296.789,197.324,295.223z"/>
	<path fill="none" stroke="#2E3F51" stroke-width="2.1314" stroke-linecap="round" stroke-miterlimit="10" d="M95.778,225.468
		c0-3.658-2.964-6.623-6.622-6.623s-6.622,2.964-6.622,6.623"/>
	<g>
		<path fill="#E62A2C" d="M137.955,361.623c-1.571,0-2.85-1.551-2.85-3.455c0-1.906,1.279-3.457,2.85-3.457h223.762
			c1.572,0,2.854,1.551,2.854,3.457c0,1.904-1.279,3.455-2.854,3.455H137.955z"/>
		<path fill="#2D3E50" d="M361.717,355.578c1.1,0,1.986,1.158,1.986,2.59c0,1.43-0.887,2.588-1.986,2.588H137.955
			c-1.097,0-1.983-1.158-1.983-2.588c0-1.432,0.886-2.59,1.983-2.59H361.717 M361.717,353.844H137.955
			c-2.084,0-3.717,1.898-3.717,4.324c0,2.424,1.633,4.322,3.717,4.322h223.762c2.086,0,3.721-1.898,3.721-4.322
			C365.438,355.742,363.803,353.844,361.717,353.844L361.717,353.844z"/>
	</g>
</g>
</svg>
