<?xml version="1.0" encoding="utf-8"?>
<!-- Generator: Adobe Illustrator 16.0.0, SVG Export Plug-In . SVG Version: 6.00 Build 0)  -->
<!DOCTYPE svg PUBLIC "-//W3C//DTD SVG 1.1//EN" "http://www.w3.org/Graphics/SVG/1.1/DTD/svg11.dtd">
<svg version="1.1" id="Capa_1" xmlns="http://www.w3.org/2000/svg" xmlns:xlink="http://www.w3.org/1999/xlink" x="0px" y="0px"
	 width="500px" height="350px" viewBox="0 0 500 350" enable-background="new 0 0 500 350" xml:space="preserve">
<g>
	<path fill="#2E3F51" d="M490.763,117.461l-3.508-0.001v-0.291l1.799-0.003l1.709-1.232l1.156-0.851l-1.158,0.001l-3.505-0.002
		v-1.312h-0.788v1.417h-30.864c-0.227-0.415-0.663-0.701-1.171-0.702c-0.507,0.002-0.942,0.287-1.171,0.703h-16.535l3.504-6.75
		l-25.562-0.001V93.722c0-0.012-0.001-0.025-0.001-0.036v-0.014c0.002-12.402-10.054-22.457-22.456-22.456v2.163
		c-2.918-1.386-6.18-2.164-9.624-2.164v0.049l0,0v2.757l0,0l0.002,34.884l-44.426,0.001c-0.275-3.429-3.144-6.128-6.646-6.128
		h-11.815l0,0l-5.088-0.001c-1.027,0.001-1.861,0.835-1.86,1.862l-0.001,3.228l0.001,2.133l-0.001,7.223l6.948-4.268l-0.001-1.094
		h0.001v1.094h6.143c1.173,1.897,3.264,3.167,5.656,3.172l0,0l0,0c0.007,0,0.013,0.001,0.019,0.001c0.007,0,0.012-0.001,0.019-0.001
		l51.666,0.002v-0.006h0.004c0.007,1.966,0.453,3.826,1.23,5.5c2.743,7.381,9.833,12.65,18.171,12.65
		c7.964,0,14.802-4.806,17.79-11.672c1.844-0.319,3.315-1.672,3.825-3.443l29.179-0.001c0.246,0.299,0.614,0.495,1.03,0.495
		c0.418,0,0.787-0.195,1.033-0.495h31.002l-0.001,0.39h0.002v1.251l0.785-0.002v-1.25l1.801-0.002l1.706-1.23l1.161-0.854
		L490.763,117.461z M453.931,117.07c-0.25,0.101-0.462,0.274-0.61,0.494l-28.912,0.001c-0.015-0.267-0.035-0.531-0.091-0.783
		l29.175-0.001C453.616,116.904,453.766,117.002,453.931,117.07z M486.468,119.135l-0.001-1.572l-30.918,0.001
		c-0.147-0.22-0.36-0.394-0.609-0.494c0.164-0.067,0.313-0.167,0.438-0.29h31.091v0.39l0,0l0.001,1.264L486.468,119.135z"/>
	<radialGradient id="SVGID_1_" cx="247.7949" cy="189.5986" r="157.1055" gradientUnits="userSpaceOnUse">
		<stop  offset="0" style="stop-color:#AADCF6"/>
		<stop  offset="1" style="stop-color:#AADCF6;stop-opacity:0"/>
	</radialGradient>
	<path opacity="0.8" fill="url(#SVGID_1_)" d="M90.689,189.598c0,86.769,70.339,157.106,157.106,157.106
		S404.9,276.366,404.9,189.598c0-86.765-70.339-157.104-157.105-157.104S90.689,102.833,90.689,189.598z"/>
	<path fill="#20B4B0" d="M103.848,279.191c2.557,0,4.632,2.072,4.632,4.63l0,0c0,2.559-2.076,4.632-4.632,4.632H12.709
		c-2.557,0-4.631-2.073-4.631-4.632l0,0c0-2.558,2.074-4.63,4.631-4.63H103.848z"/>
	<path fill="#007080" d="M75.167,280.685c1.732,0,3.137,1.404,3.137,3.137l0,0c0,1.733-1.405,3.138-3.137,3.138h-61.74
		c-1.733,0-3.138-1.404-3.138-3.138l0,0c0-1.732,1.405-3.137,3.138-3.137H75.167z"/>
	<path fill="#DCDCDC" d="M124.97,258.428c-11.651,0-14.378,7.38-16.731,9.733c-2.331,2.331-9.445,6.058-9.575,6.126
		c-17.19,4.914-44.286,4.704-44.286,4.704v4.83v4.831c0,0,27.095-0.209,44.286,4.704c0.13,0.068,7.245,3.796,9.575,6.127
		c2.353,2.353,5.08,9.731,16.731,9.731c0.227,0,0.441-0.01,0.651-0.027c0.254,0.018,0.504,0.027,0.743,0.027h16.23h72.382h181.95
		v-0.023h4.085c9.354,0,16.939-7.584,16.939-16.938v-16.863c0-9.355-7.585-16.938-16.939-16.938h-4.085v-0.024h-181.95h-72.382
		h-16.23c-0.239,0-0.489,0.012-0.743,0.028C125.411,258.439,125.197,258.428,124.97,258.428z"/>
	<path fill="#CECECE" d="M129.469,263.504c-9.14,0-11.278,5.79-13.123,7.636c-1.83,1.827-7.409,4.751-7.511,4.804
		c-13.484,3.854-34.738,3.691-34.738,3.691v3.788v3.79c0,0,21.253-0.165,34.738,3.688c0.102,0.055,5.681,2.977,7.511,4.806
		c1.845,1.846,3.983,7.633,13.123,7.633c0.178,0,0.346-0.008,0.51-0.021c0.201,0.013,0.396,0.021,0.583,0.021h12.729h97.804H383.81
		v-0.019h3.206c7.338,0,23.501-5.948,23.501-13.286V276.81c0-7.338-16.163-13.286-23.501-13.286h-3.206v-0.02H241.096h-97.804
		h-12.729c-0.188,0-0.382,0.011-0.583,0.023C129.815,263.515,129.647,263.504,129.469,263.504z"/>
	<rect x="128.48" y="263.555" fill="#FFFFFF" width="219.315" height="39.835"/>
	<path fill="#F1F1F1" d="M347.796,276.403h50.79c4.043,0,7.32,3.277,7.32,7.319l0,0c0,4.043-3.277,7.32-7.32,7.32h-50.79"/>
	<circle fill="#A4D8DF" cx="13.367" cy="283.821" r="3.077"/>
	<polygon fill="#EB5E4E" points="343.276,271.821 340.795,266.246 345.685,266.246 	"/>
	<polygon fill="#EB5E4E" points="299.492,271.821 297.011,266.246 301.899,266.246 	"/>
	<polygon fill="#EB5E4E" points="255.708,271.821 253.228,266.246 258.117,266.246 	"/>
	<polygon fill="#EB5E4E" points="211.925,271.821 209.444,266.246 214.332,266.246 	"/>
	<polygon fill="#EB5E4E" points="168.14,271.821 165.66,266.246 170.548,266.246 	"/>
	<g>
		<g>
			<g>
				<rect x="342.661" y="266.246" fill="#2E3F51" width="1.23" height="34.656"/>
				<rect x="331.706" y="266.246" fill="#2E3F51" width="1.23" height="34.656"/>
			</g>
			<rect x="340.417" y="272.817" fill="#2E3F51" width="0.755" height="21.71"/>
			<rect x="338.314" y="272.817" fill="#2E3F51" width="0.754" height="21.71"/>
			<rect x="336.211" y="272.817" fill="#2E3F51" width="0.756" height="21.71"/>
			<rect x="334.108" y="272.817" fill="#2E3F51" width="0.755" height="21.71"/>
		</g>
		<g>
			<g>
				<rect x="331.706" y="266.246" fill="#2E3F51" width="1.23" height="34.656"/>
				<rect x="320.751" y="266.246" fill="#2E3F51" width="1.229" height="34.656"/>
			</g>
			<rect x="329.463" y="272.817" fill="#2E3F51" width="0.754" height="21.71"/>
			<rect x="327.358" y="272.817" fill="#2E3F51" width="0.757" height="21.71"/>
			<rect x="325.256" y="272.817" fill="#2E3F51" width="0.756" height="21.71"/>
			<rect x="323.153" y="272.817" fill="#2E3F51" width="0.755" height="21.71"/>
		</g>
		<g>
			<g>
				<rect x="320.751" y="266.246" fill="#2E3F51" width="1.229" height="34.656"/>
				<rect x="309.796" y="266.246" fill="#2E3F51" width="1.229" height="34.656"/>
			</g>
			<rect x="318.507" y="272.817" fill="#2E3F51" width="0.754" height="21.71"/>
			<rect x="316.404" y="272.817" fill="#2E3F51" width="0.754" height="21.71"/>
			<rect x="314.302" y="272.817" fill="#2E3F51" width="0.753" height="21.71"/>
			<rect x="312.198" y="272.817" fill="#2E3F51" width="0.754" height="21.71"/>
		</g>
		<g>
			<g>
				<rect x="309.796" y="266.246" fill="#2E3F51" width="1.229" height="34.656"/>
				<rect x="298.84" y="266.246" fill="#2E3F51" width="1.23" height="34.656"/>
			</g>
			<rect x="307.552" y="272.817" fill="#2E3F51" width="0.757" height="21.71"/>
			<rect x="305.449" y="272.817" fill="#2E3F51" width="0.755" height="21.71"/>
			<rect x="303.346" y="272.817" fill="#2E3F51" width="0.756" height="21.71"/>
			<rect x="301.243" y="272.817" fill="#2E3F51" width="0.756" height="21.71"/>
		</g>
		<g>
			<g>
				<rect x="298.84" y="266.246" fill="#2E3F51" width="1.23" height="34.656"/>
				<rect x="287.886" y="266.246" fill="#2E3F51" width="1.229" height="34.656"/>
			</g>
			<rect x="296.597" y="272.817" fill="#2E3F51" width="0.755" height="21.71"/>
			<rect x="294.493" y="272.817" fill="#2E3F51" width="0.755" height="21.71"/>
			<rect x="292.39" y="272.817" fill="#2E3F51" width="0.756" height="21.71"/>
			<rect x="290.287" y="272.817" fill="#2E3F51" width="0.755" height="21.71"/>
		</g>
		<g>
			<g>
				<rect x="287.886" y="266.246" fill="#2E3F51" width="1.229" height="34.656"/>
				<rect x="276.932" y="266.246" fill="#2E3F51" width="1.228" height="34.656"/>
			</g>
			<rect x="285.642" y="272.817" fill="#2E3F51" width="0.756" height="21.71"/>
			<rect x="283.538" y="272.817" fill="#2E3F51" width="0.756" height="21.71"/>
			<rect x="281.436" y="272.817" fill="#2E3F51" width="0.755" height="21.71"/>
			<rect x="279.333" y="272.817" fill="#2E3F51" width="0.755" height="21.71"/>
		</g>
		<g>
			<g>
				<rect x="276.932" y="266.246" fill="#2E3F51" width="1.228" height="34.656"/>
				<rect x="265.976" y="266.246" fill="#2E3F51" width="1.229" height="34.656"/>
			</g>
			<rect x="274.687" y="272.817" fill="#2E3F51" width="0.755" height="21.71"/>
			<rect x="272.583" y="272.817" fill="#2E3F51" width="0.756" height="21.71"/>
			<rect x="270.48" y="272.817" fill="#2E3F51" width="0.755" height="21.71"/>
			<rect x="268.377" y="272.817" fill="#2E3F51" width="0.755" height="21.71"/>
		</g>
		<g>
			<g>
				<rect x="265.976" y="266.246" fill="#2E3F51" width="1.229" height="34.656"/>
				<rect x="255.021" y="266.246" fill="#2E3F51" width="1.23" height="34.656"/>
			</g>
			<rect x="263.731" y="272.817" fill="#2E3F51" width="0.756" height="21.71"/>
			<rect x="261.628" y="272.817" fill="#2E3F51" width="0.757" height="21.71"/>
			<rect x="259.525" y="272.817" fill="#2E3F51" width="0.755" height="21.71"/>
			<rect x="257.423" y="272.817" fill="#2E3F51" width="0.754" height="21.71"/>
		</g>
		<g>
			<g>
				<rect x="255.021" y="266.246" fill="#2E3F51" width="1.23" height="34.656"/>
				<rect x="244.064" y="266.246" fill="#2E3F51" width="1.23" height="34.656"/>
			</g>
			<rect x="252.776" y="272.817" fill="#2E3F51" width="0.755" height="21.71"/>
			<rect x="250.672" y="272.817" fill="#2E3F51" width="0.756" height="21.71"/>
			<rect x="248.57" y="272.817" fill="#2E3F51" width="0.755" height="21.71"/>
			<rect x="246.466" y="272.817" fill="#2E3F51" width="0.756" height="21.71"/>
		</g>
		<g>
			<g>
				<rect x="244.064" y="266.246" fill="#2E3F51" width="1.23" height="34.656"/>
				<rect x="233.111" y="266.246" fill="#2E3F51" width="1.23" height="34.656"/>
			</g>
			<rect x="241.821" y="272.817" fill="#2E3F51" width="0.755" height="21.71"/>
			<rect x="239.719" y="272.817" fill="#2E3F51" width="0.753" height="21.71"/>
			<rect x="237.615" y="272.817" fill="#2E3F51" width="0.755" height="21.71"/>
			<rect x="235.513" y="272.817" fill="#2E3F51" width="0.754" height="21.71"/>
		</g>
		<g>
			<g>
				<rect x="233.111" y="266.246" fill="#2E3F51" width="1.23" height="34.656"/>
				<rect x="222.155" y="266.246" fill="#2E3F51" width="1.229" height="34.656"/>
			</g>
			<rect x="230.866" y="272.817" fill="#2E3F51" width="0.755" height="21.71"/>
			<rect x="228.762" y="272.817" fill="#2E3F51" width="0.756" height="21.71"/>
			<rect x="226.66" y="272.817" fill="#2E3F51" width="0.756" height="21.71"/>
			<rect x="224.558" y="272.817" fill="#2E3F51" width="0.754" height="21.71"/>
		</g>
		<g>
			<g>
				<rect x="222.155" y="266.246" fill="#2E3F51" width="1.229" height="34.656"/>
				<rect x="211.2" y="266.246" fill="#2E3F51" width="1.23" height="34.656"/>
			</g>
			<rect x="219.911" y="272.817" fill="#2E3F51" width="0.755" height="21.71"/>
			<rect x="217.807" y="272.817" fill="#2E3F51" width="0.756" height="21.71"/>
			<rect x="215.705" y="272.817" fill="#2E3F51" width="0.754" height="21.71"/>
			<rect x="213.602" y="272.817" fill="#2E3F51" width="0.755" height="21.71"/>
		</g>
		<g>
			<g>
				<rect x="211.2" y="266.246" fill="#2E3F51" width="1.23" height="34.656"/>
				<rect x="200.245" y="266.246" fill="#2E3F51" width="1.229" height="34.656"/>
			</g>
			<rect x="208.955" y="272.817" fill="#2E3F51" width="0.756" height="21.71"/>
			<rect x="206.853" y="272.817" fill="#2E3F51" width="0.754" height="21.71"/>
			<rect x="204.75" y="272.817" fill="#2E3F51" width="0.755" height="21.71"/>
			<rect x="202.647" y="272.817" fill="#2E3F51" width="0.755" height="21.71"/>
		</g>
		<g>
			<g>
				<rect x="200.245" y="266.246" fill="#2E3F51" width="1.229" height="34.656"/>
				<rect x="189.291" y="266.246" fill="#2E3F51" width="1.229" height="34.656"/>
			</g>
			<rect x="198" y="272.817" fill="#2E3F51" width="0.755" height="21.71"/>
			<rect x="195.898" y="272.817" fill="#2E3F51" width="0.755" height="21.71"/>
			<rect x="193.794" y="272.817" fill="#2E3F51" width="0.755" height="21.71"/>
			<rect x="191.691" y="272.817" fill="#2E3F51" width="0.755" height="21.71"/>
		</g>
		<g>
			<g>
				<rect x="189.291" y="266.246" fill="#2E3F51" width="1.229" height="34.656"/>
				<rect x="178.335" y="266.246" fill="#2E3F51" width="1.229" height="34.656"/>
			</g>
			<rect x="187.046" y="272.817" fill="#2E3F51" width="0.755" height="21.71"/>
			<rect x="184.942" y="272.817" fill="#2E3F51" width="0.755" height="21.71"/>
			<rect x="182.839" y="272.817" fill="#2E3F51" width="0.755" height="21.71"/>
			<rect x="180.737" y="272.817" fill="#2E3F51" width="0.755" height="21.71"/>
		</g>
		<g>
			<g>
				<rect x="178.335" y="266.246" fill="#2E3F51" width="1.229" height="34.656"/>
				<rect x="167.378" y="266.246" fill="#2E3F51" width="1.229" height="34.656"/>
			</g>
			<rect x="176.089" y="272.817" fill="#2E3F51" width="0.756" height="21.71"/>
			<rect x="173.987" y="272.817" fill="#2E3F51" width="0.756" height="21.71"/>
			<rect x="171.884" y="272.817" fill="#2E3F51" width="0.755" height="21.71"/>
			<rect x="169.781" y="272.817" fill="#2E3F51" width="0.755" height="21.71"/>
		</g>
		<g>
			<g>
				<rect x="167.378" y="266.246" fill="#2E3F51" width="1.229" height="34.656"/>
				<rect x="156.425" y="266.246" fill="#2E3F51" width="1.229" height="34.656"/>
			</g>
			<rect x="165.135" y="272.817" fill="#2E3F51" width="0.756" height="21.71"/>
			<rect x="163.032" y="272.817" fill="#2E3F51" width="0.755" height="21.71"/>
			<rect x="160.93" y="272.817" fill="#2E3F51" width="0.754" height="21.71"/>
			<rect x="158.827" y="272.817" fill="#2E3F51" width="0.754" height="21.71"/>
		</g>
		<g>
			<g>
				<rect x="156.425" y="266.246" fill="#2E3F51" width="1.229" height="34.656"/>
				<rect x="145.469" y="266.246" fill="#2E3F51" width="1.229" height="34.656"/>
			</g>
			<rect x="154.18" y="272.817" fill="#2E3F51" width="0.756" height="21.71"/>
			<rect x="152.076" y="272.817" fill="#2E3F51" width="0.756" height="21.71"/>
			<rect x="149.975" y="272.817" fill="#2E3F51" width="0.754" height="21.71"/>
			<rect x="147.87" y="272.817" fill="#2E3F51" width="0.756" height="21.71"/>
		</g>
		<g>
			<g>
				<rect x="145.469" y="266.246" fill="#2E3F51" width="1.229" height="34.656"/>
				<rect x="134.514" y="266.246" fill="#2E3F51" width="1.229" height="34.656"/>
			</g>
			<rect x="143.224" y="272.817" fill="#2E3F51" width="0.756" height="21.71"/>
			<rect x="141.122" y="272.817" fill="#2E3F51" width="0.755" height="21.71"/>
			<rect x="139.018" y="272.817" fill="#2E3F51" width="0.755" height="21.71"/>
			<rect x="136.916" y="272.817" fill="#2E3F51" width="0.755" height="21.71"/>
		</g>
	</g>
	<path fill="#2E3F51" d="M101.686,283.167c0.278,0,0.504,0.226,0.504,0.505l0,0c0,0.278-0.226,0.505-0.504,0.505H52.7
		c-0.279,0-0.504-0.227-0.504-0.505l0,0c0-0.279,0.225-0.505,0.504-0.505H101.686z"/>
	<rect x="52.196" y="278.991" fill="#2E3F51" width="2.182" height="9.661"/>
	<linearGradient id="SVGID_2_" gradientUnits="userSpaceOnUse" x1="211.5586" y1="148.0098" x2="471.6699" y2="148.0098">
		<stop  offset="0" style="stop-color:#FFFFFF"/>
		<stop  offset="1" style="stop-color:#FFFFFF;stop-opacity:0"/>
	</linearGradient>
	<polygon opacity="0.4" fill="url(#SVGID_2_)" points="211.559,75.79 233.111,88.008 233.111,75.908 471.67,75.908 471.67,220.23 
		257.671,220.23 	"/>
	<g>
		<path fill="#F18A86" d="M233.726,75.795l0.004,103.431l51.715-0.263l-0.002-51.451C285.446,98.95,262.288,75.79,233.726,75.795z"
			/>
		<rect x="302.336" y="177.064" fill="#EB5E4E" width="67.139" height="3.665"/>
		<rect x="302.335" y="182.534" fill="#F18A86" width="75.035" height="3.667"/>
		<path fill="#F18A86" d="M296.728,194.325c6.191,0.003,11.211-5.017,11.207-11.209c0.004-6.186-5.013-11.203-11.2-11.198
			L296.728,194.325z"/>
		<path fill="#EB5E4E" d="M296.728,188.854c6.194,0.004,11.212-5.02,11.212-11.202c0-6.192-5.017-11.206-11.207-11.206
			L296.728,188.854z"/>
		<polygon fill="#F29598" points="93.904,179.222 212.978,179.226 212.979,162.592 93.895,162.597 		"/>
		<path fill="#F29598" d="M211.559,75.79l0.005,103.431l51.711-0.26v-51.453C263.274,98.95,240.121,75.795,211.559,75.79z"/>
		<path fill="#F29598" d="M212.983,176.331c-0.005,24.675,20.006,44.683,44.688,44.686c24.671-0.003,44.679-20.011,44.679-44.686"/>
		<polygon fill="#F29598" points="260.3,161.516 344.315,161.516 336.22,177.12 257.667,177.12 		"/>
		<path fill="#2E3F51" d="M67.359,148.484l-12.345-0.006c-2.365,0.004-4.286,1.925-4.285,4.29l-0.004,7.433l0.004,4.913
			l-0.001,16.634l16-9.829l-0.002-2.521l0.633-0.002c2.361,0,4.282-1.921,4.284-4.286l-0.002-12.34
			C71.646,150.404,69.723,148.487,67.359,148.484z"/>
		<rect x="66.727" y="148.482" fill="#FFFFFF" width="27.218" height="23.437"/>
		<path fill="#F3A8A0" d="M93.947,179.222c-8.492,0.008-15.378-6.881-15.374-15.372c0-8.481,6.88-15.37,15.371-15.368
			L93.947,179.222z"/>
		<path fill="#FFFFFF" d="M86.06,157.104c0,1.71,1.384,3.096,3.093,3.096c1.709,0.002,3.1-1.382,3.096-3.096
			c0.004-1.706-1.385-3.094-3.096-3.094C87.446,154.01,86.059,155.398,86.06,157.104z"/>
		<path fill="#F29598" d="M93.944,148.482c8.488,0,15.374,6.887,15.368,15.371c0.006,8.49-6.879,15.375-15.365,15.369
			L93.944,148.482z"/>
		<path fill="#2E3F51" d="M86.633,157.105c0.002,1.396,1.127,2.522,2.525,2.523c1.395-0.005,2.515-1.126,2.52-2.519
			c-0.002-1.399-1.128-2.526-2.525-2.522C87.763,154.587,86.64,155.711,86.633,157.105z"/>
		<path fill="#EB5E4E" d="M366.387,178.533c0.005,1.708,1.387,3.089,3.089,3.097c1.707-0.005,3.089-1.387,3.089-3.093
			s-1.382-3.086-3.089-3.091C367.771,175.451,366.391,176.831,366.387,178.533z"/>
		<path fill="#F18A86" d="M373.941,184.256c-0.006,1.702,1.387,3.084,3.086,3.084c1.703,0.005,3.088-1.38,3.088-3.088
			c0.006-1.703-1.378-3.089-3.084-3.086C375.321,181.166,373.937,182.549,373.941,184.256z"/>
		<g>
			<path fill="#F29598" d="M285.444,127.627c0.002-28.565-23.15-51.725-51.718-51.719l0.003,6.34
				c25.729,2.977,45.718,19.646,45.717,51.37l0.001,28.105l5.997-0.033V127.627z"/>
		</g>
		<polygon fill="#F18A86" points="336.22,177.12 344.315,161.516 332.184,161.521 324.243,177.062 		"/>
		<path fill="#F18A86" d="M212.979,179.12c0.004,16.793,13.623,30.41,30.418,30.413c16.803-0.005,30.42-13.62,30.418-30.417
			L212.979,179.12z"/>
		<g>
			<path fill="#2E3F51" d="M263.275,127.623c0-28.561-23.155-51.716-51.717-51.719v6.348c25.74,2.97,45.719,19.643,45.721,51.367
				l0.002,45.488l5.993-0.03L263.275,127.623z"/>
		</g>
		<polygon fill="#EB5E4E" points="358.224,253.653 354.48,253.653 367.631,179.116 371.242,179.752 		"/>
		
			<rect x="368.789" y="183.022" transform="matrix(0.9849 0.1731 -0.1731 0.9849 43.775 -60.831)" fill="#F18A86" width="3.667" height="75.035"/>
		<g>
			<polygon fill="#2E3F51" points="348.343,258.421 348.338,256.464 352.271,253.627 358.229,253.616 358.222,258.428 			"/>
			<polygon fill="#FFFFFF" points="348.338,256.464 348.343,258.421 345.673,258.423 			"/>
		</g>
		<g>
			<polygon fill="#2E3F51" points="356.821,258.421 356.816,256.464 360.751,253.627 366.708,253.616 366.7,258.428 			"/>
			<polygon fill="#FFFFFF" points="356.816,256.464 356.821,258.421 354.152,258.423 			"/>
		</g>
	</g>
	<path fill="#FFFFFF" d="M163.318,101.893c0.025-0.318,0.049-0.638,0.049-0.963c0-6.766-5.486-12.251-12.252-12.251
		c-1.062,0-2.086,0.149-3.068,0.404c-1.149-8.544-8.453-15.141-17.311-15.141c-7.081,0-13.165,4.217-15.913,10.27
		c-2.187-1.188-4.694-1.865-7.359-1.865c-8.514,0-15.418,6.9-15.418,15.418c0,1.665,0.271,3.264,0.76,4.765
		c-4.452,1.874-9.029,5.137-9.029,10.653h87.025C170.802,113.181,169.804,105.391,163.318,101.893z"/>
	<path fill="#2E3F51" d="M271.25,44.634h-2.188v-0.181l1.122-0.002l1.066-0.769l0.722-0.531h-0.724h-2.186v-0.819h-0.492v0.884
		h-19.255c-0.142-0.259-0.415-0.437-0.731-0.438c-0.316,0.001-0.587,0.179-0.729,0.439h-10.317l2.186-4.212l-15.948-0.001v-9.18
		c0-0.008,0-0.016,0-0.023v-0.009c0.001-7.737-6.272-14.009-14.009-14.009v1.351c-1.821-0.866-3.856-1.351-6.005-1.351v0.03l0,0
		v1.72l0,0l0.001,21.764l-27.716,0.001c-0.172-2.139-1.96-3.823-4.146-3.823h-7.373l0,0l-3.174-0.001
		c-0.64,0.001-1.16,0.521-1.16,1.161l0,2.015l0,1.33v4.506l4.334-2.663v-0.683l0,0v0.683h3.833c0.731,1.184,2.035,1.976,3.528,1.979
		l0,0l0,0c0.005,0,0.008,0,0.013,0c0.004,0,0.007,0,0.011,0h32.234v-0.003h0.002c0.005,1.227,0.283,2.388,0.768,3.432
		c1.713,4.604,6.135,7.893,11.338,7.893c4.968,0,9.234-2.999,11.098-7.283c1.15-0.198,2.069-1.042,2.386-2.147h18.205
		c0.153,0.187,0.384,0.308,0.643,0.308c0.262,0,0.491-0.121,0.645-0.308h19.341l-0.001,0.243h0.002v0.779l0.491,0v-0.78l1.123-0.001
		l1.063-0.767l0.726-0.533L271.25,44.634z M248.271,44.389c-0.157,0.063-0.29,0.172-0.382,0.309h-18.037
		c-0.009-0.166-0.021-0.331-0.056-0.488l18.201-0.002C248.075,44.287,248.168,44.348,248.271,44.389z M268.569,45.678l-0.001-0.981
		l-19.288,0.001c-0.092-0.137-0.225-0.246-0.38-0.309c0.102-0.041,0.194-0.104,0.273-0.181h19.397l-0.001,0.244h0.001v0.789
		L268.569,45.678z"/>
	<g>
		<circle fill="#FFFFFF" cx="317.984" cy="15.662" r="12.365"/>
		<circle fill="#FFFFFF" cx="304.243" cy="22.714" r="5.313"/>
		<circle fill="#FFFFFF" cx="326.625" cy="19.387" r="8.64"/>
		<path fill="#FFFFFF" d="M342.239,28.025c0,0.828-45.931,0-45.931,0s-0.889-5.312,7.935-5.312c8.824,0,29.927-3.327,29.927-3.327
			S342.239,20.278,342.239,28.025z"/>
	</g>
	<path fill="#E9E9E9" d="M197.324,220.224c-0.744-4.308-4.491-7.587-9.012-7.587c-0.098,0-0.193,0.011-0.291,0.014
		c-1.007-3.962-4.588-6.899-8.864-6.899s-7.857,2.938-8.864,6.899c-0.098-0.003-0.192-0.014-0.291-0.014
		c-5.057,0-9.155,4.098-9.155,9.154c0,0-8.646-0.235-8.646,9.154h54.021C206.222,230.945,206.763,221.789,197.324,220.224z"/>
	<path fill="none" stroke="#2E3F51" stroke-width="2.1314" stroke-linecap="round" stroke-miterlimit="10" d="M95.778,150.469
		c0-3.658-2.964-6.623-6.622-6.623s-6.622,2.964-6.622,6.623"/>
	<g>
		<path fill="#6D924E" d="M332.717,286.087c-0.246,0-0.617,0-0.617-2.919c0-2.92,0.371-2.92,0.617-2.92h32.41
			c0.246,0,0.617,0,0.617,2.92c0,2.919-0.371,2.919-0.617,2.919H332.717z"/>
		<path fill="#2D3E50" d="M365.127,280.578c0.158,0,0.287,1.16,0.287,2.59s-0.129,2.589-0.287,2.589h-32.41
			c-0.159,0-0.287-1.159-0.287-2.589s0.128-2.59,0.287-2.59H365.127 M365.127,279.918h-32.41c-0.628,0-0.947,0.503-0.947,3.25
			c0,2.746,0.319,3.249,0.947,3.249h32.41c0.628,0,0.947-0.503,0.947-3.249C366.074,280.421,365.755,279.918,365.127,279.918
			L365.127,279.918z"/>
	</g>
</g>
</svg>
