<?xml version="1.0" encoding="utf-8"?>
<!-- Generator: Adobe Illustrator 16.0.0, SVG Export Plug-In . SVG Version: 6.00 Build 0)  -->
<!DOCTYPE svg PUBLIC "-//W3C//DTD SVG 1.1//EN" "http://www.w3.org/Graphics/SVG/1.1/DTD/svg11.dtd">
<svg version="1.1" id="Capa_1" xmlns="http://www.w3.org/2000/svg" xmlns:xlink="http://www.w3.org/1999/xlink" x="0px" y="0px"
	 width="500px" height="500px" viewBox="0 0 500 500" enable-background="new 0 0 500 500" xml:space="preserve">
<path fill="#2E3F51" d="M490.355,193.415l-3.508-0.001v-0.291l1.799-0.003l1.709-1.232l1.156-0.851l-1.158,0.001l-3.505-0.002
	v-1.312h-0.788v1.417h-30.864c-0.227-0.415-0.663-0.701-1.171-0.702c-0.507,0.002-0.942,0.287-1.171,0.703h-16.535l3.504-6.75
	l-25.562-0.001v-14.715c0-0.012-0.001-0.025-0.001-0.036v-0.014c0.002-12.402-10.054-22.457-22.456-22.456v2.163
	c-2.918-1.386-6.18-2.164-9.624-2.164v0.049l0,0v2.757l0,0l0.002,34.884l-44.426,0.001c-0.275-3.429-3.144-6.128-6.646-6.128
	h-11.815l0,0l-5.088-0.001c-1.027,0.001-1.861,0.835-1.86,1.862l-0.001,3.228l0.001,2.133l-0.001,7.223l6.948-4.268l-0.001-1.094
	h0.001v1.094h6.143c1.173,1.897,3.264,3.167,5.656,3.172l0,0l0,0c0.007,0,0.013,0.001,0.019,0.001c0.007,0,0.012-0.001,0.019-0.001
	l51.666,0.002v-0.006h0.004c0.007,1.966,0.453,3.826,1.23,5.5c2.743,7.381,9.833,12.65,18.171,12.65
	c7.964,0,14.802-4.806,17.79-11.672c1.844-0.319,3.315-1.672,3.825-3.443l29.179-0.001c0.246,0.299,0.614,0.495,1.03,0.495
	c0.418,0,0.787-0.195,1.033-0.495h31.002l-0.001,0.39h0.002v1.251l0.785-0.002v-1.25l1.801-0.002l1.706-1.23l1.161-0.854
	L490.355,193.415z M453.523,193.024c-0.25,0.101-0.462,0.274-0.61,0.494l-28.912,0.001c-0.015-0.267-0.035-0.531-0.091-0.783
	l29.175-0.001C453.209,192.858,453.358,192.957,453.523,193.024z M486.061,195.089l-0.001-1.572l-30.918,0.001
	c-0.147-0.22-0.36-0.394-0.609-0.494c0.164-0.067,0.313-0.167,0.438-0.29h31.091v0.39l0,0l0.001,1.264L486.061,195.089z"/>
<radialGradient id="SVGID_1_" cx="247.3877" cy="265.5527" r="157.1055" gradientUnits="userSpaceOnUse">
	<stop  offset="0" style="stop-color:#AADCF6"/>
	<stop  offset="1" style="stop-color:#AADCF6;stop-opacity:0"/>
</radialGradient>
<path opacity="0.8" fill="url(#SVGID_1_)" d="M90.282,265.552c0,86.769,70.339,157.106,157.106,157.106
	s157.105-70.338,157.105-157.106c0-86.765-70.339-157.104-157.105-157.104S90.282,178.787,90.282,265.552z"/>
<path fill="#20B4B0" d="M103.441,355.146c2.557,0,4.632,2.072,4.632,4.63l0,0c0,2.559-2.076,4.632-4.632,4.632H12.302
	c-2.557,0-4.631-2.073-4.631-4.632l0,0c0-2.558,2.074-4.63,4.631-4.63H103.441z"/>
<path fill="#007080" d="M74.76,356.639c1.732,0,3.137,1.404,3.137,3.137l0,0c0,1.733-1.405,3.138-3.137,3.138h-61.74
	c-1.733,0-3.138-1.404-3.138-3.138l0,0c0-1.732,1.405-3.137,3.138-3.137H74.76z"/>
<path fill="#DCDCDC" d="M124.563,334.382c-11.651,0-14.378,7.38-16.731,9.733c-2.331,2.331-9.445,6.058-9.575,6.126
	c-17.19,4.914-44.286,4.704-44.286,4.704v4.83v4.831c0,0,27.095-0.209,44.286,4.704c0.13,0.068,7.245,3.796,9.575,6.127
	c2.353,2.353,5.08,9.731,16.731,9.731c0.227,0,0.441-0.01,0.651-0.027c0.254,0.018,0.504,0.027,0.743,0.027h16.23h72.382h181.95
	v-0.023h4.085c9.354,0,16.939-7.584,16.939-16.938v-16.863c0-9.355-7.585-16.938-16.939-16.938h-4.085v-0.024h-181.95h-72.382
	h-16.23c-0.239,0-0.489,0.012-0.743,0.028C125.004,334.394,124.79,334.382,124.563,334.382z"/>
<path fill="#CECECE" d="M129.062,339.458c-9.14,0-11.278,5.79-13.123,7.636c-1.83,1.827-7.409,4.751-7.511,4.804
	c-13.484,3.854-34.738,3.691-34.738,3.691v3.788v3.79c0,0,21.253-0.165,34.738,3.688c0.102,0.055,5.681,2.977,7.511,4.806
	c1.845,1.846,3.983,7.633,13.123,7.633c0.178,0,0.346-0.008,0.51-0.021c0.201,0.013,0.396,0.021,0.583,0.021h12.729h97.804h142.713
	v-0.019h3.206c7.338,0,23.501-5.948,23.501-13.286v-13.226c0-7.338-16.163-13.286-23.501-13.286h-3.206v-0.02H240.689h-97.804
	h-12.729c-0.188,0-0.382,0.011-0.583,0.023C129.408,339.469,129.24,339.458,129.062,339.458z"/>
<rect x="128.073" y="339.509" fill="#FFFFFF" width="219.315" height="39.835"/>
<path fill="#F1F1F1" d="M347.389,352.357h50.79c4.043,0,7.32,3.277,7.32,7.319l0,0c0,4.043-3.277,7.32-7.32,7.32h-50.79"/>
<circle fill="#A4D8DF" cx="12.959" cy="359.775" r="3.077"/>
<polygon fill="#EB5E4E" points="342.869,347.775 340.388,342.2 345.277,342.2 "/>
<polygon fill="#EB5E4E" points="299.085,347.775 296.604,342.2 301.492,342.2 "/>
<polygon fill="#EB5E4E" points="255.301,347.775 252.82,342.2 257.71,342.2 "/>
<polygon fill="#EB5E4E" points="211.518,347.775 209.037,342.2 213.925,342.2 "/>
<polygon fill="#EB5E4E" points="167.733,347.775 165.253,342.2 170.141,342.2 "/>
<g>
	<g>
		<g>
			<rect x="342.254" y="342.2" fill="#2E3F51" width="1.23" height="34.656"/>
			<rect x="331.299" y="342.2" fill="#2E3F51" width="1.23" height="34.656"/>
		</g>
		<rect x="340.01" y="348.771" fill="#2E3F51" width="0.755" height="21.71"/>
		<rect x="337.907" y="348.771" fill="#2E3F51" width="0.754" height="21.71"/>
		<rect x="335.804" y="348.771" fill="#2E3F51" width="0.756" height="21.71"/>
		<rect x="333.701" y="348.771" fill="#2E3F51" width="0.755" height="21.71"/>
	</g>
	<g>
		<g>
			<rect x="331.299" y="342.2" fill="#2E3F51" width="1.23" height="34.656"/>
			<rect x="320.344" y="342.2" fill="#2E3F51" width="1.229" height="34.656"/>
		</g>
		<rect x="329.056" y="348.771" fill="#2E3F51" width="0.754" height="21.71"/>
		<rect x="326.951" y="348.771" fill="#2E3F51" width="0.757" height="21.71"/>
		<rect x="324.849" y="348.771" fill="#2E3F51" width="0.756" height="21.71"/>
		<rect x="322.746" y="348.771" fill="#2E3F51" width="0.755" height="21.71"/>
	</g>
	<g>
		<g>
			<rect x="320.344" y="342.2" fill="#2E3F51" width="1.229" height="34.656"/>
			<rect x="309.389" y="342.2" fill="#2E3F51" width="1.229" height="34.656"/>
		</g>
		<rect x="318.1" y="348.771" fill="#2E3F51" width="0.754" height="21.71"/>
		<rect x="315.997" y="348.771" fill="#2E3F51" width="0.754" height="21.71"/>
		<rect x="313.895" y="348.771" fill="#2E3F51" width="0.753" height="21.71"/>
		<rect x="311.791" y="348.771" fill="#2E3F51" width="0.754" height="21.71"/>
	</g>
	<g>
		<g>
			<rect x="309.389" y="342.2" fill="#2E3F51" width="1.229" height="34.656"/>
			<rect x="298.433" y="342.2" fill="#2E3F51" width="1.23" height="34.656"/>
		</g>
		<rect x="307.145" y="348.771" fill="#2E3F51" width="0.757" height="21.71"/>
		<rect x="305.042" y="348.771" fill="#2E3F51" width="0.755" height="21.71"/>
		<rect x="302.938" y="348.771" fill="#2E3F51" width="0.756" height="21.71"/>
		<rect x="300.836" y="348.771" fill="#2E3F51" width="0.756" height="21.71"/>
	</g>
	<g>
		<g>
			<rect x="298.433" y="342.2" fill="#2E3F51" width="1.23" height="34.656"/>
			<rect x="287.479" y="342.2" fill="#2E3F51" width="1.229" height="34.656"/>
		</g>
		<rect x="296.189" y="348.771" fill="#2E3F51" width="0.755" height="21.71"/>
		<rect x="294.086" y="348.771" fill="#2E3F51" width="0.755" height="21.71"/>
		<rect x="291.982" y="348.771" fill="#2E3F51" width="0.756" height="21.71"/>
		<rect x="289.88" y="348.771" fill="#2E3F51" width="0.755" height="21.71"/>
	</g>
	<g>
		<g>
			<rect x="287.479" y="342.2" fill="#2E3F51" width="1.229" height="34.656"/>
			<rect x="276.524" y="342.2" fill="#2E3F51" width="1.228" height="34.656"/>
		</g>
		<rect x="285.234" y="348.771" fill="#2E3F51" width="0.756" height="21.71"/>
		<rect x="283.131" y="348.771" fill="#2E3F51" width="0.756" height="21.71"/>
		<rect x="281.028" y="348.771" fill="#2E3F51" width="0.755" height="21.71"/>
		<rect x="278.926" y="348.771" fill="#2E3F51" width="0.755" height="21.71"/>
	</g>
	<g>
		<g>
			<rect x="276.524" y="342.2" fill="#2E3F51" width="1.228" height="34.656"/>
			<rect x="265.568" y="342.2" fill="#2E3F51" width="1.229" height="34.656"/>
		</g>
		<rect x="274.279" y="348.771" fill="#2E3F51" width="0.755" height="21.71"/>
		<rect x="272.176" y="348.771" fill="#2E3F51" width="0.756" height="21.71"/>
		<rect x="270.073" y="348.771" fill="#2E3F51" width="0.755" height="21.71"/>
		<rect x="267.97" y="348.771" fill="#2E3F51" width="0.755" height="21.71"/>
	</g>
	<g>
		<g>
			<rect x="265.568" y="342.2" fill="#2E3F51" width="1.229" height="34.656"/>
			<rect x="254.613" y="342.2" fill="#2E3F51" width="1.23" height="34.656"/>
		</g>
		<rect x="263.324" y="348.771" fill="#2E3F51" width="0.756" height="21.71"/>
		<rect x="261.221" y="348.771" fill="#2E3F51" width="0.757" height="21.71"/>
		<rect x="259.118" y="348.771" fill="#2E3F51" width="0.755" height="21.71"/>
		<rect x="257.016" y="348.771" fill="#2E3F51" width="0.754" height="21.71"/>
	</g>
	<g>
		<g>
			<rect x="254.613" y="342.2" fill="#2E3F51" width="1.23" height="34.656"/>
			<rect x="243.657" y="342.2" fill="#2E3F51" width="1.23" height="34.656"/>
		</g>
		<rect x="252.369" y="348.771" fill="#2E3F51" width="0.755" height="21.71"/>
		<rect x="250.265" y="348.771" fill="#2E3F51" width="0.756" height="21.71"/>
		<rect x="248.163" y="348.771" fill="#2E3F51" width="0.755" height="21.71"/>
		<rect x="246.059" y="348.771" fill="#2E3F51" width="0.756" height="21.71"/>
	</g>
	<g>
		<g>
			<rect x="243.657" y="342.2" fill="#2E3F51" width="1.23" height="34.656"/>
			<rect x="232.704" y="342.2" fill="#2E3F51" width="1.23" height="34.656"/>
		</g>
		<rect x="241.414" y="348.771" fill="#2E3F51" width="0.755" height="21.71"/>
		<rect x="239.312" y="348.771" fill="#2E3F51" width="0.753" height="21.71"/>
		<rect x="237.208" y="348.771" fill="#2E3F51" width="0.755" height="21.71"/>
		<rect x="235.105" y="348.771" fill="#2E3F51" width="0.754" height="21.71"/>
	</g>
	<g>
		<g>
			<rect x="232.704" y="342.2" fill="#2E3F51" width="1.23" height="34.656"/>
			<rect x="221.748" y="342.2" fill="#2E3F51" width="1.229" height="34.656"/>
		</g>
		<rect x="230.459" y="348.771" fill="#2E3F51" width="0.755" height="21.71"/>
		<rect x="228.355" y="348.771" fill="#2E3F51" width="0.756" height="21.71"/>
		<rect x="226.252" y="348.771" fill="#2E3F51" width="0.756" height="21.71"/>
		<rect x="224.151" y="348.771" fill="#2E3F51" width="0.754" height="21.71"/>
	</g>
	<g>
		<g>
			<rect x="221.748" y="342.2" fill="#2E3F51" width="1.229" height="34.656"/>
			<rect x="210.792" y="342.2" fill="#2E3F51" width="1.23" height="34.656"/>
		</g>
		<rect x="219.503" y="348.771" fill="#2E3F51" width="0.755" height="21.71"/>
		<rect x="217.399" y="348.771" fill="#2E3F51" width="0.756" height="21.71"/>
		<rect x="215.298" y="348.771" fill="#2E3F51" width="0.754" height="21.71"/>
		<rect x="213.194" y="348.771" fill="#2E3F51" width="0.755" height="21.71"/>
	</g>
	<g>
		<g>
			<rect x="210.792" y="342.2" fill="#2E3F51" width="1.23" height="34.656"/>
			<rect x="199.838" y="342.2" fill="#2E3F51" width="1.229" height="34.656"/>
		</g>
		<rect x="208.548" y="348.771" fill="#2E3F51" width="0.756" height="21.71"/>
		<rect x="206.446" y="348.771" fill="#2E3F51" width="0.754" height="21.71"/>
		<rect x="204.342" y="348.771" fill="#2E3F51" width="0.755" height="21.71"/>
		<rect x="202.24" y="348.771" fill="#2E3F51" width="0.755" height="21.71"/>
	</g>
	<g>
		<g>
			<rect x="199.838" y="342.2" fill="#2E3F51" width="1.229" height="34.656"/>
			<rect x="188.883" y="342.2" fill="#2E3F51" width="1.229" height="34.656"/>
		</g>
		<rect x="197.593" y="348.771" fill="#2E3F51" width="0.755" height="21.71"/>
		<rect x="195.491" y="348.771" fill="#2E3F51" width="0.755" height="21.71"/>
		<rect x="193.387" y="348.771" fill="#2E3F51" width="0.755" height="21.71"/>
		<rect x="191.284" y="348.771" fill="#2E3F51" width="0.755" height="21.71"/>
	</g>
	<g>
		<g>
			<rect x="188.883" y="342.2" fill="#2E3F51" width="1.229" height="34.656"/>
			<rect x="177.928" y="342.2" fill="#2E3F51" width="1.229" height="34.656"/>
		</g>
		<rect x="186.639" y="348.771" fill="#2E3F51" width="0.755" height="21.71"/>
		<rect x="184.535" y="348.771" fill="#2E3F51" width="0.755" height="21.71"/>
		<rect x="182.432" y="348.771" fill="#2E3F51" width="0.755" height="21.71"/>
		<rect x="180.33" y="348.771" fill="#2E3F51" width="0.755" height="21.71"/>
	</g>
	<g>
		<g>
			<rect x="177.928" y="342.2" fill="#2E3F51" width="1.229" height="34.656"/>
			<rect x="166.971" y="342.2" fill="#2E3F51" width="1.229" height="34.656"/>
		</g>
		<rect x="175.682" y="348.771" fill="#2E3F51" width="0.756" height="21.71"/>
		<rect x="173.58" y="348.771" fill="#2E3F51" width="0.756" height="21.71"/>
		<rect x="171.477" y="348.771" fill="#2E3F51" width="0.755" height="21.71"/>
		<rect x="169.374" y="348.771" fill="#2E3F51" width="0.755" height="21.71"/>
	</g>
	<g>
		<g>
			<rect x="166.971" y="342.2" fill="#2E3F51" width="1.229" height="34.656"/>
			<rect x="156.018" y="342.2" fill="#2E3F51" width="1.229" height="34.656"/>
		</g>
		<rect x="164.728" y="348.771" fill="#2E3F51" width="0.756" height="21.71"/>
		<rect x="162.625" y="348.771" fill="#2E3F51" width="0.755" height="21.71"/>
		<rect x="160.522" y="348.771" fill="#2E3F51" width="0.754" height="21.71"/>
		<rect x="158.419" y="348.771" fill="#2E3F51" width="0.754" height="21.71"/>
	</g>
	<g>
		<g>
			<rect x="156.018" y="342.2" fill="#2E3F51" width="1.229" height="34.656"/>
			<rect x="145.062" y="342.2" fill="#2E3F51" width="1.229" height="34.656"/>
		</g>
		<rect x="153.772" y="348.771" fill="#2E3F51" width="0.756" height="21.71"/>
		<rect x="151.669" y="348.771" fill="#2E3F51" width="0.756" height="21.71"/>
		<rect x="149.567" y="348.771" fill="#2E3F51" width="0.754" height="21.71"/>
		<rect x="147.463" y="348.771" fill="#2E3F51" width="0.756" height="21.71"/>
	</g>
	<g>
		<g>
			<rect x="145.062" y="342.2" fill="#2E3F51" width="1.229" height="34.656"/>
			<rect x="134.107" y="342.2" fill="#2E3F51" width="1.229" height="34.656"/>
		</g>
		<rect x="142.817" y="348.771" fill="#2E3F51" width="0.756" height="21.71"/>
		<rect x="140.714" y="348.771" fill="#2E3F51" width="0.755" height="21.71"/>
		<rect x="138.611" y="348.771" fill="#2E3F51" width="0.755" height="21.71"/>
		<rect x="136.508" y="348.771" fill="#2E3F51" width="0.755" height="21.71"/>
	</g>
</g>
<path fill="#2E3F51" d="M101.278,359.121c0.278,0,0.504,0.226,0.504,0.505l0,0c0,0.278-0.226,0.505-0.504,0.505H52.293
	c-0.279,0-0.504-0.227-0.504-0.505l0,0c0-0.279,0.225-0.505,0.504-0.505H101.278z"/>
<rect x="51.789" y="354.945" fill="#2E3F51" width="2.182" height="9.661"/>
<linearGradient id="SVGID_2_" gradientUnits="userSpaceOnUse" x1="211.1514" y1="223.9639" x2="471.2627" y2="223.9639">
	<stop  offset="0" style="stop-color:#FFFFFF"/>
	<stop  offset="1" style="stop-color:#FFFFFF;stop-opacity:0"/>
</linearGradient>
<polygon opacity="0.4" fill="url(#SVGID_2_)" points="211.151,151.744 232.704,163.962 232.704,151.862 471.263,151.862 
	471.263,296.185 257.264,296.185 "/>
<g>
	<path fill="#F18A86" d="M233.318,151.749l0.004,103.431l51.715-0.263l-0.002-51.451
		C285.039,174.904,261.881,151.744,233.318,151.749z"/>
	<rect x="301.929" y="253.019" fill="#EB5E4E" width="67.139" height="3.665"/>
	<rect x="301.928" y="258.488" fill="#F18A86" width="75.035" height="3.667"/>
	<path fill="#F18A86" d="M296.32,270.279c6.191,0.003,11.211-5.017,11.207-11.209c0.004-6.186-5.013-11.203-11.2-11.198
		L296.32,270.279z"/>
	<path fill="#EB5E4E" d="M296.32,264.808c6.194,0.004,11.212-5.02,11.212-11.202c0-6.192-5.017-11.206-11.207-11.206L296.32,264.808
		z"/>
	<polygon fill="#F29598" points="93.497,255.176 212.571,255.18 212.572,238.546 93.488,238.551 	"/>
	<path fill="#F29598" d="M211.151,151.744l0.005,103.431l51.711-0.26v-51.453C262.867,174.904,239.713,151.749,211.151,151.744z"/>
	<path fill="#F29598" d="M212.576,252.285c-0.005,24.675,20.006,44.683,44.688,44.686c24.671-0.003,44.679-20.011,44.679-44.686"/>
	<polygon fill="#F29598" points="259.893,237.47 343.908,237.47 335.812,253.074 257.26,253.074 	"/>
	<path fill="#2E3F51" d="M66.952,224.438l-12.345-0.006c-2.365,0.004-4.286,1.925-4.285,4.29l-0.004,7.433l0.004,4.913
		l-0.001,16.634l16-9.829l-0.002-2.521l0.633-0.002c2.361,0,4.282-1.921,4.284-4.286l-0.002-12.34
		C71.239,226.358,69.315,224.441,66.952,224.438z"/>
	<rect x="66.32" y="224.436" fill="#FFFFFF" width="27.218" height="23.437"/>
	<path fill="#F3A8A0" d="M93.54,255.176c-8.492,0.008-15.378-6.881-15.374-15.372c0-8.481,6.88-15.37,15.371-15.368L93.54,255.176z"
		/>
	<path fill="#FFFFFF" d="M85.653,233.058c0,1.71,1.384,3.096,3.093,3.096c1.709,0.002,3.1-1.382,3.096-3.096
		c0.004-1.706-1.385-3.094-3.096-3.094C87.039,229.964,85.651,231.353,85.653,233.058z"/>
	<path fill="#F29598" d="M93.537,224.436c8.488,0,15.374,6.887,15.368,15.371c0.006,8.49-6.879,15.375-15.365,15.369L93.537,224.436
		z"/>
	<path fill="#2E3F51" d="M86.226,233.059c0.002,1.396,1.127,2.522,2.525,2.523c1.395-0.005,2.515-1.126,2.52-2.519
		c-0.002-1.399-1.128-2.526-2.525-2.522C87.356,230.542,86.232,231.666,86.226,233.059z"/>
	<path fill="#EB5E4E" d="M365.979,254.487c0.005,1.708,1.387,3.089,3.089,3.097c1.707-0.005,3.089-1.387,3.089-3.093
		s-1.382-3.086-3.089-3.091C367.363,251.405,365.983,252.785,365.979,254.487z"/>
	<path fill="#F18A86" d="M373.534,260.21c-0.006,1.702,1.387,3.084,3.086,3.084c1.703,0.005,3.088-1.38,3.088-3.088
		c0.006-1.703-1.378-3.089-3.084-3.086C374.914,257.12,373.529,258.503,373.534,260.21z"/>
	<g>
		<path fill="#F29598" d="M285.037,203.581c0.002-28.565-23.15-51.725-51.718-51.719l0.003,6.34
			c25.729,2.977,45.718,19.646,45.717,51.37l0.001,28.105l5.997-0.033V203.581z"/>
	</g>
	<polygon fill="#F18A86" points="335.812,253.074 343.908,237.47 331.776,237.475 323.836,253.017 	"/>
	<path fill="#F18A86" d="M212.572,255.074c0.004,16.793,13.623,30.41,30.418,30.413c16.803-0.005,30.42-13.62,30.418-30.417
		L212.572,255.074z"/>
	<g>
		<path fill="#2E3F51" d="M262.868,203.577c0-28.561-23.155-51.716-51.717-51.719v6.348c25.74,2.97,45.719,19.643,45.721,51.367
			l0.002,45.488l5.993-0.03L262.868,203.577z"/>
	</g>
	<polygon fill="#EB5E4E" points="357.816,329.607 354.073,329.607 367.224,255.07 370.835,255.706 	"/>
	
		<rect x="368.382" y="258.976" transform="matrix(0.9849 0.1731 -0.1731 0.9849 56.9178 -59.6137)" fill="#F18A86" width="3.667" height="75.035"/>
	<g>
		<polygon fill="#2E3F51" points="347.936,334.375 347.931,332.418 351.864,329.581 357.821,329.57 357.814,334.382 		"/>
		<polygon fill="#FFFFFF" points="347.931,332.418 347.936,334.375 345.266,334.377 		"/>
	</g>
	<g>
		<polygon fill="#2E3F51" points="356.414,334.375 356.409,332.418 360.344,329.581 366.301,329.57 366.293,334.382 		"/>
		<polygon fill="#FFFFFF" points="356.409,332.418 356.414,334.375 353.745,334.377 		"/>
	</g>
</g>
<path fill="#FFFFFF" d="M162.911,177.847c0.025-0.318,0.049-0.638,0.049-0.963c0-6.766-5.486-12.251-12.252-12.251
	c-1.062,0-2.086,0.149-3.068,0.404c-1.149-8.544-8.453-15.141-17.311-15.141c-7.081,0-13.165,4.217-15.913,10.27
	c-2.187-1.188-4.694-1.865-7.359-1.865c-8.514,0-15.418,6.9-15.418,15.418c0,1.665,0.271,3.264,0.76,4.765
	c-4.452,1.874-9.029,5.137-9.029,10.653h87.025C170.395,189.135,169.396,181.345,162.911,177.847z"/>
<path fill="#2E3F51" d="M270.843,120.588h-2.188v-0.181l1.122-0.002l1.066-0.769l0.722-0.531h-0.724h-2.186v-0.819h-0.492v0.884
	h-19.255c-0.142-0.259-0.415-0.437-0.731-0.438c-0.316,0.001-0.587,0.179-0.729,0.439h-10.317l2.186-4.212l-15.948-0.001v-9.18
	c0-0.008,0-0.016,0-0.023v-0.009c0.001-7.737-6.272-14.009-14.009-14.009v1.351c-1.821-0.866-3.856-1.351-6.005-1.351v0.03l0,0v1.72
	l0,0l0.001,21.764l-27.716,0.001c-0.172-2.139-1.96-3.823-4.146-3.823h-7.373l0,0l-3.174-0.001c-0.64,0.001-1.16,0.521-1.16,1.161
	l0,2.015l0,1.33v4.506l4.334-2.663v-0.683l0,0v0.683h3.833c0.731,1.184,2.035,1.976,3.528,1.979l0,0l0,0c0.005,0,0.008,0,0.013,0
	c0.004,0,0.007,0,0.011,0h32.234v-0.003h0.002c0.005,1.227,0.283,2.388,0.768,3.432c1.713,4.604,6.135,7.893,11.338,7.893
	c4.968,0,9.234-2.999,11.098-7.283c1.15-0.198,2.069-1.042,2.386-2.147h18.205c0.153,0.187,0.384,0.308,0.643,0.308
	c0.262,0,0.491-0.121,0.645-0.308h19.341l-0.001,0.243h0.002v0.779l0.491,0v-0.78l1.123-0.001l1.063-0.767l0.726-0.533
	L270.843,120.588z M247.864,120.343c-0.157,0.063-0.29,0.172-0.382,0.309h-18.037c-0.009-0.166-0.021-0.331-0.056-0.488
	l18.201-0.002C247.667,120.241,247.761,120.302,247.864,120.343z M268.162,121.632l-0.001-0.981l-19.288,0.001
	c-0.092-0.137-0.225-0.246-0.38-0.309c0.102-0.041,0.194-0.104,0.273-0.181h19.397l-0.001,0.244h0.001v0.789L268.162,121.632z"/>
<g>
	<circle fill="#FFFFFF" cx="317.577" cy="91.616" r="12.365"/>
	<circle fill="#FFFFFF" cx="303.836" cy="98.668" r="5.313"/>
	<circle fill="#FFFFFF" cx="326.218" cy="95.341" r="8.64"/>
	<path fill="#FFFFFF" d="M341.832,103.979c0,0.828-45.931,0-45.931,0s-0.889-5.312,7.935-5.312c8.824,0,29.927-3.327,29.927-3.327
		S341.832,96.232,341.832,103.979z"/>
</g>
<path fill="#E9E9E9" d="M196.917,296.178c-0.744-4.308-4.491-7.587-9.012-7.587c-0.098,0-0.193,0.011-0.291,0.014
	c-1.007-3.962-4.588-6.899-8.864-6.899s-7.857,2.938-8.864,6.899c-0.098-0.003-0.192-0.014-0.291-0.014
	c-5.057,0-9.155,4.098-9.155,9.154c0,0-8.646-0.235-8.646,9.154h54.021C205.814,306.899,206.355,297.743,196.917,296.178z"/>
<path fill="none" stroke="#2E3F51" stroke-width="2.1314" stroke-linecap="round" stroke-miterlimit="10" d="M95.371,226.423
	c0-3.658-2.964-6.623-6.622-6.623s-6.622,2.964-6.622,6.623"/>
<g>
	<path fill="#3995D2" d="M295.227,362.191c-0.947,0-1.089-1.923-1.089-3.069s0.142-3.07,1.089-3.07h68.663
		c0.983,0,1.09,2.147,1.09,3.07s-0.106,3.069-1.09,3.069H295.227z"/>
	<path fill="#2D3E50" d="M363.89,356.532c0.337,0,0.609,1.16,0.609,2.59s-0.272,2.589-0.609,2.589h-68.663
		c-0.337,0-0.608-1.159-0.608-2.589s0.271-2.59,0.608-2.59H363.89 M363.89,355.571h-68.663c-1.041,0-1.569,1.194-1.569,3.551
		c0,2.355,0.528,3.55,1.569,3.55h68.663c1.042,0,1.57-1.194,1.57-3.55C365.46,356.766,364.932,355.571,363.89,355.571
		L363.89,355.571z"/>
</g>
</svg>
