<?xml version="1.0" encoding="utf-8"?>
<!-- Generator: Adobe Illustrator 16.0.0, SVG Export Plug-In . SVG Version: 6.00 Build 0)  -->
<!DOCTYPE svg PUBLIC "-//W3C//DTD SVG 1.1//EN" "http://www.w3.org/Graphics/SVG/1.1/DTD/svg11.dtd">
<svg version="1.1" id="Capa_1" xmlns="http://www.w3.org/2000/svg" xmlns:xlink="http://www.w3.org/1999/xlink" x="0px" y="0px"
	 width="500px" height="500px" viewBox="0 0 500 500" enable-background="new 0 0 500 500" xml:space="preserve">
<rect opacity="0" fill="#FFFFFF" stroke="#000000" stroke-miterlimit="10" width="500" height="500"/>
<g>
	<radialGradient id="SVGID_1_" cx="261.9629" cy="230.2358" r="178.696" gradientUnits="userSpaceOnUse">
		<stop  offset="0" style="stop-color:#AADCF6"/>
		<stop  offset="1" style="stop-color:#AADCF6;stop-opacity:0"/>
	</radialGradient>
	<path opacity="0.8" fill="url(#SVGID_1_)" d="M83.267,230.234c0,98.693,80.006,178.697,178.697,178.697
		c98.69,0,178.695-80.004,178.695-178.697c0-98.688-80.005-178.694-178.695-178.694C163.273,51.54,83.267,131.546,83.267,230.234z"
		/>
	<linearGradient id="SVGID_2_" gradientUnits="userSpaceOnUse" x1="102.6099" y1="215.7603" x2="102.6099" y2="409.5372">
		<stop  offset="0" style="stop-color:#FFFFFF"/>
		<stop  offset="1" style="stop-color:#FFFFFF;stop-opacity:0"/>
	</linearGradient>
	<path opacity="0.2" fill="url(#SVGID_2_)" d="M66.485,213.768L47,405.092h111.22l-16.63-191.324c0,0-10.316,34.57-38.534,34.57
		C77.884,248.338,66.485,213.768,66.485,213.768z"/>
	<linearGradient id="SVGID_3_" gradientUnits="userSpaceOnUse" x1="227.6865" y1="210.6836" x2="414.3864" y2="210.6836">
		<stop  offset="0" style="stop-color:#FFFFFF"/>
		<stop  offset="1" style="stop-color:#FFFFFF;stop-opacity:0"/>
	</linearGradient>
	<polygon opacity="0.4" fill="url(#SVGID_3_)" points="243.165,168.163 453,168.163 453,253.205 209.632,253.205 	"/>
	<radialGradient id="SVGID_4_" cx="104.0371" cy="213.5493" r="46.9565" gradientUnits="userSpaceOnUse">
		<stop  offset="0" style="stop-color:#AADCF6"/>
		<stop  offset="1" style="stop-color:#AADCF6;stop-opacity:0"/>
	</radialGradient>
	<circle opacity="0.6" fill="url(#SVGID_4_)" cx="104.037" cy="213.549" r="46.957"/>
	<path fill="#20B4B0" d="M389.058,444.549c0,8.346-51.043,15.111-114.005,15.111c-62.973,0-114.014-6.766-114.014-15.111
		c0-8.344,51.042-15.105,114.014-15.105C338.015,429.443,389.058,436.205,389.058,444.549z"/>
	<polygon fill="#F18A86" points="227.111,253.205 131.468,253.205 198.314,188.572 	"/>
	<path fill="#F18A86" d="M254.492,212.233c0,18.267-14.808,33.076-33.077,33.076c-18.263,0-33.073-14.809-33.073-33.076
		c0-18.269,14.811-33.078,33.073-33.078C239.684,179.155,254.492,193.964,254.492,212.233z"/>
	<rect x="252.652" y="260.232" fill="#EB5E4E" width="4.282" height="173.383"/>
	<path fill="#F29598" d="M202.896,210.889c0,23.638,19.167,42.807,42.805,42.807c23.644,0,42.807-19.168,42.807-42.807
		c0-23.645-19.163-42.807-42.807-42.807C222.063,168.082,202.896,187.244,202.896,210.889z"/>
	<g>
		<path fill="#2E3F51" d="M108.465,128.168l-9.111,10.731c-1.75,2.06-1.497,5.142,0.563,6.891l6.461,5.486l4.271,3.627
			l14.463,12.279l3.268-21.171l-2.191-1.861l0.461-0.542c1.749-2.06,1.496-5.142-0.562-6.889l-10.731-9.112
			C113.296,125.858,110.214,126.108,108.465,128.168z"/>
		
			<rect x="112.717" y="112.166" transform="matrix(-0.6472 0.7623 -0.7623 -0.6472 306.9262 109.0232)" fill="#FFFFFF" width="31.039" height="26.731"/>
		<path fill="#F3A8A0" d="M154.825,127.748c-6.264,7.379-17.332,8.283-24.713,2.015c-7.382-6.268-8.284-17.333-2.02-24.713
			L154.825,127.748z"/>
		<circle fill="#FFFFFF" cx="132.056" cy="115.579" r="3.531"/>
		<path fill="#F29598" d="M128.092,105.05c6.271-7.385,17.336-8.29,24.718-2.021c7.381,6.268,8.286,17.333,2.015,24.719
			L128.092,105.05z"/>
		<path fill="#2E3F51" d="M130.828,117.881c0.801,0.679,1.995,0.579,2.671-0.217c0.679-0.8,0.583-1.993-0.218-2.671
			c-0.797-0.678-1.992-0.582-2.671,0.218C129.934,116.007,130.031,117.205,130.828,117.881z"/>
	</g>
	<polygon fill="#F29598" points="245.701,253.695 343.557,253.695 275.29,179.947 	"/>
	<polygon fill="#2E3F51" points="299.941,239.829 311.452,253.695 343.557,253.695 330.722,239.829 	"/>
	<path fill="#EB5E4E" d="M243.165,253.695c0,7.223,5.859,13.084,13.082,13.084c7.229,0,13.085-5.861,13.085-13.084H243.165z"/>
	<path fill="#F18A86" d="M261.964,253.695c0,7.223,5.854,13.084,13.086,13.084c7.223,0,13.084-5.861,13.084-13.084H261.964z"/>
	
		<rect x="288.836" y="253.96" transform="matrix(0.8967 -0.4426 0.4426 0.8967 -97.9552 158.6414)" fill="#F18A86" width="4.285" height="70.542"/>
	<path fill="#EB5E4E" d="M247.864,319.465c0,3.826,3.099,6.93,6.929,6.93c3.831,0,6.931-3.104,6.931-6.93
		c0-3.832-3.1-6.934-6.931-6.934C250.963,312.531,247.864,315.633,247.864,319.465z"/>
	<polygon fill="#2E3F51" points="234.693,444.307 234.693,439.943 243.446,433.615 256.715,433.615 256.715,444.307 	"/>
	<path fill="#2E3F51" d="M349.895,249.039h-3.317c0-2.543-2.062-4.606-4.605-4.606h-3.073c0-2.541-2.062-4.604-4.605-4.604h-15.604
		v4.604h7.68v4.606h7.925v4.604h11.002h4.6h4.601C354.495,251.1,352.437,249.039,349.895,249.039z"/>
	<polygon fill="#FFFFFF" points="234.693,439.943 234.693,444.307 228.757,444.307 	"/>
	<path fill="#F29598" d="M202.269,180.838c17.564-28.777,4.018-55.753,2.341-58.864c-6.133-12.05-16.578-21.006-29.429-25.23
		c-12.902-4.242-26.681-3.203-38.802,2.92l8.835,17.488c7.45-3.764,15.92-4.402,23.85-1.795c7.929,2.606,14.368,8.145,18.131,15.594
		l0.215,0.403c0.106,0.188,10.479,19.033-1.854,39.263l-0.001-0.001c-17.624,28.748-4.122,55.754-2.454,58.863
		c8.944,17.653,26.86,27.854,45.432,27.854c7.669,0,15.451-1.742,22.757-5.414l18.529-9.318l-8.801-17.505l-18.53,9.318
		c-15.389,7.741-34.214,1.515-41.955-13.879l-0.214-0.403c-0.106-0.188-10.45-19.064,1.94-39.274"/>
	<polygon fill="#F18A86" points="255.436,239.829 330.722,239.829 280.025,184.635 	"/>
	<path fill="#F18A86" d="M222.358,206.752c0,18.267,14.808,33.076,33.078,33.076c18.262,0,33.072-14.809,33.072-33.076
		c0-18.269-14.811-33.078-33.072-33.078C237.166,173.674,222.358,188.483,222.358,206.752z"/>
	<path fill="#F18A86" d="M256.935,228.725c15.103,0,27.347-12.246,27.347-27.347c0-15.107-12.244-27.351-27.347-27.351V228.725z"/>
	<path fill="none" stroke="#2E3F51" stroke-width="2.4856" stroke-linecap="round" stroke-miterlimit="10" d="M118.817,108.337
		c1.759-3.884,6.332-5.608,10.219-3.847"/>
	<g>
		<g>
			<circle fill="#F29598" cx="131.273" cy="92.351" r="2.236"/>
			<polygon fill="#F29598" points="133.506,92.222 131.858,102.4 129.041,92.48 			"/>
		</g>
		<path fill="#F29598" d="M134.725,95.747c0.499-0.689,1.462-0.843,2.15-0.341c0.686,0.498,0.84,1.461,0.341,2.149"/>
		<polygon fill="#F29598" points="134.725,95.747 131.901,102.257 137.217,97.555 		"/>
	</g>
	<g>
		<path fill="#2E3F51" d="M114.606,246.295l14.773-9.222l21.273,34.077c2.547,4.08,1.304,9.451-2.775,11.998
			c-1.434,0.895-3.028,1.322-4.603,1.322c-2.905,0-5.744-1.451-7.395-4.098L114.606,246.295"/>
		<path fill="#FFFFFF" d="M104.038,251.32c-20.707,0-37.552-16.846-37.552-37.552s16.846-37.552,37.552-37.552
			c20.706,0,37.552,16.846,37.552,37.552S124.744,251.32,104.038,251.32z M104.038,184.923c-15.905,0-28.845,12.939-28.845,28.845
			s12.939,28.845,28.845,28.845c15.905,0,28.844-12.939,28.844-28.845S119.942,184.923,104.038,184.923z"/>
	</g>
	<g>
		<path fill="#F18A86" d="M298.842,321.133c0.919,3.713,4.679,5.98,8.398,5.059c3.711-0.918,5.98-4.678,5.062-8.389
			c-0.921-3.721-4.681-5.984-8.393-5.066C300.189,313.656,297.922,317.412,298.842,321.133z"/>
		
			<rect x="305.59" y="319.995" transform="matrix(-0.9986 0.0524 -0.0524 -0.9986 634.7457 735.4117)" fill="#F18A86" width="4.287" height="112.061"/>
		<polygon fill="#2E3F51" points="291.049,442.365 290.979,438.002 299.631,431.537 312.898,431.326 313.068,442.016 		"/>
		<polygon fill="#FFFFFF" points="290.979,438.002 291.049,442.365 285.112,442.459 		"/>
	</g>
	<path fill="#FFFFFF" d="M329.019,124.337c0.027-0.362,0.055-0.726,0.055-1.096c0-7.696-6.239-13.936-13.935-13.936
		c-1.208,0-2.373,0.17-3.491,0.458c-1.306-9.718-9.613-17.22-19.688-17.22c-8.054,0-14.973,4.797-18.1,11.682
		c-2.487-1.353-5.34-2.123-8.371-2.123c-9.684,0-17.537,7.849-17.537,17.537c0,1.893,0.309,3.712,0.864,5.42
		c-5.064,2.131-10.27,5.843-10.27,12.117h98.984C337.53,137.176,336.396,128.315,329.019,124.337z"/>
	<path fill="#FFFFFF" d="M372.506,195.734c0.064-0.352,0.103-0.712,0.103-1.083c0-3.338-2.707-6.042-6.044-6.042
		c-0.612,0-1.203,0.092-1.761,0.263c0.118-0.732,0.196-1.478,0.196-2.242c0-7.768-6.298-14.065-14.065-14.065
		c-6.001,0-11.108,3.764-13.129,9.054c-3.8,1.358-6.525,4.979-6.525,9.248c0,0.083,0.011,0.164,0.013,0.247
		c-2.497,0.63-7.945,2.781-7.945,9.579c0,0.942,52.242,0,52.242,0S376.123,197.473,372.506,195.734z"/>
	<g>
		<linearGradient id="SVGID_5_" gradientUnits="userSpaceOnUse" x1="278.9531" y1="212.2759" x2="278.9531" y2="135.8979">
			<stop  offset="0" style="stop-color:#FFFFFF"/>
			<stop  offset="1" style="stop-color:#FFFFFF;stop-opacity:0"/>
		</linearGradient>
		<rect x="265.615" y="137.758" opacity="0.7" fill="url(#SVGID_5_)" width="26.677" height="74.518"/>
		<g>
			<circle fill="#F07F00" cx="278.954" cy="212.276" r="13.338"/>
			<g>
				<circle fill="#FCBF00" cx="278.953" cy="212.276" r="10.136"/>
				<path fill="#FFFFFF" d="M278.955,204.191c4.457,0,8.085,3.626,8.085,8.085c0,4.46-3.628,8.087-8.085,8.087
					c-4.46,0-8.087-3.627-8.087-8.087C270.868,207.817,274.495,204.191,278.955,204.191 M278.955,202.142
					c-5.6,0-10.138,4.537-10.138,10.134c0,5.6,4.538,10.136,10.138,10.136c5.598,0,10.134-4.537,10.134-10.136
					C289.089,206.678,284.553,202.142,278.955,202.142L278.955,202.142z"/>
			</g>
			<linearGradient id="SVGID_6_" gradientUnits="userSpaceOnUse" x1="278.7627" y1="212.0674" x2="266.2094" y2="219.5609">
				<stop  offset="0" style="stop-color:#EF7F05"/>
				<stop  offset="0.9963" style="stop-color:#EF7F05;stop-opacity:0.0037"/>
				<stop  offset="1" style="stop-color:#EF7F05;stop-opacity:0"/>
			</linearGradient>
			<path opacity="0.4" fill="url(#SVGID_6_)" d="M278.26,206.929l-12.414,7.819c0,0,0.165,1.526,1.524,4.139
				c1.054,2.024,2.919,3.525,2.919,3.525l8.844-5.13l-0.437-2.032l1.811-1.025v-1.622l-2.989-1.367l-0.598-1.707l1.197-0.77
				l0.579-0.17L278.26,206.929z"/>
			<path fill="#D7D7D7" d="M275.37,205.03 M275.37,205.03c3.995-1.975,8.855-0.332,10.831,3.667
				c1.975,3.997,0.332,8.854-3.665,10.83l0.908,1.839c5.018-2.481,7.074-8.559,4.595-13.579c-2.482-5.019-8.559-7.077-13.579-4.596
				l0,0"/>
			<g>
				<path fill="#FFFFFF" d="M279.133,217.282h-0.873v-1.514c-0.162,0-0.332-0.008-0.506-0.028c-0.176-0.019-0.342-0.044-0.502-0.076
					c-0.157-0.03-0.303-0.064-0.436-0.098c-0.131-0.036-0.24-0.07-0.325-0.1l-0.268-0.104v-1.86h0.814l0.233,1.069
					c0.286,0.155,0.651,0.231,1.093,0.231c0.232,0,0.447-0.023,0.646-0.07c0.196-0.045,0.373-0.115,0.523-0.204
					s0.27-0.198,0.354-0.33c0.086-0.132,0.128-0.287,0.128-0.466c0-0.272-0.093-0.484-0.28-0.64
					c-0.186-0.155-0.416-0.292-0.692-0.408c-0.275-0.115-0.573-0.226-0.895-0.33c-0.321-0.106-0.621-0.24-0.897-0.402
					c-0.274-0.164-0.505-0.374-0.69-0.636c-0.186-0.259-0.278-0.6-0.278-1.016c0-0.591,0.184-1.052,0.551-1.39
					c0.368-0.338,0.846-0.549,1.426-0.636v-1.348h0.873v1.313c0.581,0.047,1.116,0.16,1.604,0.338l0.257,0.092l-0.058,1.745h-0.697
					l-0.293-1.046c-0.355-0.155-0.739-0.234-1.149-0.234s-0.74,0.098-0.984,0.292c-0.243,0.193-0.366,0.425-0.366,0.699
					c0,0.27,0.091,0.487,0.272,0.646c0.183,0.157,0.415,0.295,0.693,0.417s0.577,0.236,0.895,0.344
					c0.319,0.108,0.618,0.24,0.896,0.4c0.278,0.162,0.511,0.363,0.692,0.612c0.183,0.247,0.273,0.565,0.273,0.955
					c0,0.612-0.188,1.103-0.564,1.478c-0.377,0.37-0.867,0.61-1.471,0.721V217.282z"/>
			</g>
		</g>
	</g>
	<g>
		<linearGradient id="SVGID_7_" gradientUnits="userSpaceOnUse" x1="396.667" y1="114.8594" x2="396.667" y2="38.4793">
			<stop  offset="0" style="stop-color:#FFFFFF"/>
			<stop  offset="1" style="stop-color:#FFFFFF;stop-opacity:0"/>
		</linearGradient>
		<rect x="383.328" y="40.339" opacity="0.7" fill="url(#SVGID_7_)" width="26.678" height="74.52"/>
		<g>
			<circle fill="#F07F00" cx="396.667" cy="114.859" r="13.339"/>
			<g>
				<circle fill="#FCBF00" cx="396.667" cy="114.859" r="10.136"/>
				<path fill="#FFFFFF" d="M396.668,106.773c4.457,0,8.085,3.628,8.085,8.086s-3.628,8.087-8.085,8.087
					c-4.46,0-8.088-3.629-8.088-8.087S392.208,106.773,396.668,106.773 M396.668,104.723c-5.6,0-10.137,4.539-10.137,10.136
					c0,5.6,4.537,10.137,10.137,10.137c5.597,0,10.135-4.537,10.135-10.137C406.803,109.262,402.265,104.723,396.668,104.723
					L396.668,104.723z"/>
			</g>
			<linearGradient id="SVGID_8_" gradientUnits="userSpaceOnUse" x1="396.4766" y1="114.6479" x2="383.9227" y2="122.1418">
				<stop  offset="0" style="stop-color:#EF7F05"/>
				<stop  offset="0.9963" style="stop-color:#EF7F05;stop-opacity:0.0037"/>
				<stop  offset="1" style="stop-color:#EF7F05;stop-opacity:0"/>
			</linearGradient>
			<path opacity="0.4" fill="url(#SVGID_8_)" d="M395.974,109.512l-12.415,7.82c0,0,0.165,1.526,1.524,4.137
				c1.055,2.023,2.918,3.527,2.918,3.527l8.845-5.132l-0.436-2.03l1.811-1.024v-1.625l-2.989-1.365l-0.599-1.709l1.198-0.768
				l0.579-0.172L395.974,109.512z"/>
			<path fill="#D7D7D7" d="M393.083,107.612 M393.083,107.612c3.995-1.975,8.855-0.33,10.83,3.667
				c1.977,3.997,0.333,8.857-3.663,10.832l0.907,1.837c5.019-2.479,7.075-8.559,4.595-13.578c-2.482-5.018-8.559-7.075-13.579-4.594
				l0,0"/>
			<g>
				<path fill="#FFFFFF" d="M396.846,119.864h-0.872v-1.514c-0.163,0-0.332-0.008-0.508-0.027c-0.174-0.017-0.341-0.045-0.5-0.077
					c-0.159-0.03-0.304-0.062-0.438-0.098c-0.129-0.034-0.239-0.068-0.324-0.098l-0.268-0.106v-1.86h0.815l0.231,1.069
					c0.286,0.155,0.651,0.232,1.094,0.232c0.232,0,0.448-0.021,0.646-0.068c0.196-0.046,0.373-0.115,0.523-0.204
					c0.15-0.089,0.27-0.2,0.354-0.332s0.129-0.287,0.129-0.465c0-0.27-0.094-0.485-0.281-0.638
					c-0.186-0.158-0.415-0.292-0.692-0.408c-0.274-0.115-0.573-0.228-0.896-0.332c-0.32-0.106-0.619-0.238-0.896-0.399
					c-0.275-0.164-0.505-0.376-0.691-0.636c-0.186-0.259-0.278-0.6-0.278-1.018c0-0.589,0.184-1.053,0.552-1.391
					s0.845-0.546,1.426-0.633v-1.349h0.872v1.313c0.582,0.049,1.116,0.159,1.604,0.34l0.256,0.092l-0.058,1.745h-0.698l-0.291-1.048
					c-0.356-0.153-0.741-0.232-1.151-0.232s-0.738,0.096-0.983,0.291c-0.243,0.194-0.365,0.425-0.365,0.698
					c0,0.272,0.09,0.487,0.271,0.646c0.183,0.157,0.415,0.298,0.693,0.419c0.278,0.119,0.577,0.236,0.896,0.342
					c0.318,0.11,0.617,0.242,0.896,0.402c0.278,0.159,0.512,0.361,0.693,0.61c0.182,0.247,0.272,0.568,0.272,0.955
					c0,0.612-0.188,1.105-0.564,1.478s-0.867,0.612-1.471,0.721V119.864z"/>
			</g>
		</g>
	</g>
	<g>
		<linearGradient id="SVGID_9_" gradientUnits="userSpaceOnUse" x1="154.189" y1="76.6973" x2="154.189" y2="46.3233">
			<stop  offset="0" style="stop-color:#FFFFFF"/>
			<stop  offset="1" style="stop-color:#FFFFFF;stop-opacity:0"/>
		</linearGradient>
		<rect x="148.885" y="47.063" opacity="0.6" fill="url(#SVGID_9_)" width="10.608" height="29.634"/>
		<g>
			<circle fill="#F07F00" cx="154.189" cy="76.697" r="5.304"/>
			<g>
				<circle fill="#FCBF00" cx="154.189" cy="76.697" r="4.031"/>
				<path fill="#FFFFFF" d="M154.189,73.481c1.773,0,3.215,1.443,3.215,3.216s-1.442,3.216-3.215,3.216s-3.216-1.443-3.216-3.216
					S152.416,73.481,154.189,73.481 M154.189,72.667c-2.226,0-4.031,1.805-4.031,4.031c0,2.226,1.805,4.031,4.031,4.031
					s4.031-1.805,4.031-4.031C158.22,74.471,156.415,72.667,154.189,72.667L154.189,72.667z"/>
			</g>
			<linearGradient id="SVGID_10_" gradientUnits="userSpaceOnUse" x1="154.1123" y1="76.6133" x2="149.1203" y2="79.5932">
				<stop  offset="0" style="stop-color:#EF7F05"/>
				<stop  offset="0.9963" style="stop-color:#EF7F05;stop-opacity:0.0037"/>
				<stop  offset="1" style="stop-color:#EF7F05;stop-opacity:0"/>
			</linearGradient>
			<path opacity="0.4" fill="url(#SVGID_10_)" d="M153.913,74.571l-4.938,3.11c0,0,0.067,0.605,0.607,1.645
				c0.42,0.804,1.161,1.401,1.161,1.401l3.517-2.041l-0.172-0.808l0.72-0.408v-0.645l-1.189-0.544l-0.238-0.678l0.478-0.305
				l0.23-0.069L153.913,74.571z"/>
			<path fill="#D7D7D7" d="M152.763,73.816 M152.763,73.816c1.589-0.787,3.522-0.132,4.307,1.457
				c0.786,1.59,0.132,3.522-1.457,4.307l0.362,0.732c1.997-0.985,2.812-3.402,1.826-5.401c-0.987-1.996-3.402-2.812-5.4-1.826l0,0"
				/>
			<g>
				<path fill="#FFFFFF" d="M154.259,78.687h-0.347v-0.602c-0.066,0-0.132-0.003-0.201-0.011c-0.069-0.007-0.136-0.019-0.199-0.03
					c-0.063-0.013-0.121-0.025-0.174-0.041c-0.052-0.013-0.095-0.025-0.129-0.039l-0.106-0.042v-0.74h0.325l0.093,0.425
					c0.114,0.063,0.258,0.093,0.435,0.093c0.09,0,0.178-0.01,0.255-0.028c0.079-0.018,0.149-0.044,0.208-0.08
					c0.06-0.036,0.108-0.081,0.142-0.132c0.033-0.052,0.052-0.115,0.052-0.186c0-0.107-0.037-0.192-0.111-0.254
					c-0.075-0.062-0.165-0.115-0.276-0.162c-0.109-0.047-0.229-0.091-0.355-0.132c-0.128-0.042-0.247-0.095-0.356-0.16
					c-0.109-0.066-0.202-0.148-0.274-0.253c-0.075-0.104-0.113-0.238-0.113-0.404c0-0.234,0.073-0.419,0.22-0.554
					c0.146-0.134,0.336-0.218,0.566-0.252v-0.536h0.347v0.522c0.231,0.018,0.444,0.062,0.639,0.134L155,75.264l-0.024,0.694h-0.276
					l-0.115-0.416c-0.144-0.064-0.295-0.094-0.459-0.094c-0.164,0-0.293,0.038-0.391,0.115c-0.097,0.079-0.145,0.17-0.145,0.278
					s0.035,0.194,0.107,0.257c0.072,0.063,0.165,0.119,0.276,0.167c0.109,0.046,0.229,0.092,0.355,0.135
					c0.127,0.044,0.247,0.098,0.356,0.159c0.112,0.064,0.204,0.146,0.276,0.245c0.072,0.098,0.108,0.224,0.108,0.378
					c0,0.244-0.074,0.44-0.225,0.589c-0.149,0.146-0.343,0.242-0.584,0.285V78.687z"/>
			</g>
		</g>
	</g>
	<g>
		<linearGradient id="SVGID_11_" gradientUnits="userSpaceOnUse" x1="191.8267" y1="337.8164" x2="191.8267" y2="251.5616">
			<stop  offset="0" style="stop-color:#FFFFFF"/>
			<stop  offset="1" style="stop-color:#FFFFFF;stop-opacity:0"/>
		</linearGradient>
		<rect x="176.763" y="253.662" opacity="0.7" fill="url(#SVGID_11_)" width="30.126" height="84.154"/>
		<g>
			<circle fill="#F07F00" cx="191.826" cy="337.816" r="15.063"/>
			<g>
				<circle fill="#FCBF00" cx="191.826" cy="337.816" r="11.447"/>
				<path fill="#FFFFFF" d="M191.827,328.686c5.033,0,9.131,4.098,9.131,9.131c0,5.037-4.098,9.133-9.131,9.133
					c-5.036,0-9.133-4.096-9.133-9.133C182.694,332.783,186.791,328.686,191.827,328.686 M191.827,326.369
					c-6.323,0-11.448,5.127-11.448,11.447c0,6.324,5.125,11.447,11.448,11.447c6.322,0,11.446-5.123,11.446-11.447
					C203.273,331.496,198.149,326.369,191.827,326.369L191.827,326.369z"/>
			</g>
			<linearGradient id="SVGID_12_" gradientUnits="userSpaceOnUse" x1="191.6113" y1="337.5781" x2="177.4345" y2="346.0408">
				<stop  offset="0" style="stop-color:#EF7F05"/>
				<stop  offset="0.9963" style="stop-color:#EF7F05;stop-opacity:0.0037"/>
				<stop  offset="1" style="stop-color:#EF7F05;stop-opacity:0"/>
			</linearGradient>
			<path opacity="0.4" fill="url(#SVGID_12_)" d="M191.044,331.777l-14.021,8.832c0,0,0.188,1.725,1.722,4.672
				c1.191,2.285,3.295,3.982,3.295,3.982l9.988-5.795l-0.491-2.295l2.044-1.156v-1.832l-3.375-1.543l-0.676-1.93l1.353-0.869
				l0.654-0.193L191.044,331.777z"/>
			<path fill="#D7D7D7" d="M187.777,329.635 M187.777,329.635c4.512-2.232,10.002-0.377,12.231,4.139
				c2.231,4.514,0.377,10.004-4.138,12.23l1.027,2.078c5.666-2.803,7.989-9.666,5.188-15.336c-2.802-5.666-9.666-7.988-15.333-5.188
				l0,0"/>
			<g>
				<path fill="#FFFFFF" d="M192.027,343.469h-0.983v-1.709c-0.186,0-0.377-0.01-0.574-0.033c-0.196-0.018-0.386-0.049-0.566-0.084
					c-0.177-0.035-0.341-0.07-0.491-0.111c-0.146-0.039-0.272-0.078-0.368-0.111l-0.301-0.119v-2.102h0.919l0.264,1.207
					c0.322,0.178,0.734,0.264,1.234,0.264c0.262,0,0.505-0.027,0.729-0.078c0.221-0.053,0.422-0.129,0.591-0.229
					c0.171-0.104,0.304-0.227,0.401-0.375s0.145-0.326,0.145-0.525c0-0.307-0.105-0.549-0.317-0.723
					c-0.21-0.176-0.47-0.328-0.782-0.459c-0.311-0.133-0.647-0.258-1.01-0.375c-0.364-0.121-0.7-0.27-1.014-0.451
					c-0.309-0.186-0.57-0.424-0.779-0.717c-0.209-0.297-0.313-0.68-0.313-1.15c0-0.666,0.208-1.189,0.622-1.568
					c0.416-0.383,0.953-0.619,1.611-0.719v-1.523h0.983v1.482c0.658,0.055,1.261,0.18,1.812,0.385l0.291,0.102l-0.066,1.971h-0.789
					l-0.328-1.182c-0.403-0.174-0.837-0.262-1.3-0.262s-0.835,0.109-1.112,0.33c-0.274,0.217-0.412,0.48-0.412,0.789
					c0,0.303,0.102,0.545,0.308,0.729c0.204,0.178,0.468,0.334,0.782,0.473c0.313,0.135,0.652,0.266,1.01,0.387
					c0.361,0.123,0.698,0.271,1.014,0.451c0.313,0.182,0.575,0.41,0.781,0.689s0.308,0.641,0.308,1.078
					c0,0.693-0.211,1.248-0.637,1.67c-0.427,0.418-0.98,0.689-1.662,0.812V343.469z"/>
			</g>
		</g>
	</g>
	<g>
		<linearGradient id="SVGID_13_" gradientUnits="userSpaceOnUse" x1="360.9297" y1="365.9648" x2="360.9297" y2="279.7141">
			<stop  offset="0" style="stop-color:#FFFFFF"/>
			<stop  offset="1" style="stop-color:#FFFFFF;stop-opacity:0"/>
		</linearGradient>
		<rect x="345.867" y="281.814" opacity="0.7" fill="url(#SVGID_13_)" width="30.126" height="84.15"/>
		<g>
			<circle fill="#F07F00" cx="360.93" cy="365.965" r="15.063"/>
			<g>
				<circle fill="#FCBF00" cx="360.93" cy="365.965" r="11.447"/>
				<path fill="#FFFFFF" d="M360.931,356.834c5.033,0,9.131,4.1,9.131,9.131c0,5.039-4.098,9.133-9.131,9.133
					c-5.036,0-9.132-4.094-9.132-9.133C351.799,360.934,355.895,356.834,360.931,356.834 M360.931,354.52
					c-6.322,0-11.447,5.125-11.447,11.445c0,6.324,5.125,11.447,11.447,11.447s11.446-5.123,11.446-11.447
					C372.377,359.645,367.253,354.52,360.931,354.52L360.931,354.52z"/>
			</g>
			<linearGradient id="SVGID_14_" gradientUnits="userSpaceOnUse" x1="360.7148" y1="365.7295" x2="346.5368" y2="374.1929">
				<stop  offset="0" style="stop-color:#EF7F05"/>
				<stop  offset="0.9963" style="stop-color:#EF7F05;stop-opacity:0.0037"/>
				<stop  offset="1" style="stop-color:#EF7F05;stop-opacity:0"/>
			</linearGradient>
			<path opacity="0.4" fill="url(#SVGID_14_)" d="M360.147,359.928l-14.021,8.83c0,0,0.187,1.725,1.721,4.674
				c1.191,2.285,3.295,3.98,3.295,3.98l9.989-5.793l-0.492-2.295l2.044-1.156v-1.834l-3.375-1.543l-0.676-1.928l1.353-0.869
				l0.654-0.191L360.147,359.928z"/>
			<path fill="#D7D7D7" d="M356.882,357.785 M356.882,357.785c4.511-2.232,10.001-0.377,12.231,4.139
				c2.231,4.514,0.376,10.002-4.14,12.23l1.027,2.076c5.667-2.801,7.989-9.666,5.188-15.336c-2.801-5.666-9.665-7.986-15.334-5.188
				l0,0"/>
			<g>
				<path fill="#FFFFFF" d="M361.132,371.619h-0.984v-1.711c-0.186,0-0.377-0.008-0.573-0.031c-0.197-0.02-0.387-0.049-0.566-0.086
					c-0.179-0.033-0.342-0.07-0.492-0.109c-0.146-0.041-0.271-0.08-0.368-0.113l-0.301-0.117v-2.102h0.92l0.264,1.207
					c0.323,0.176,0.735,0.264,1.233,0.264c0.263,0,0.505-0.027,0.73-0.078c0.222-0.055,0.421-0.131,0.59-0.23
					c0.172-0.102,0.306-0.225,0.401-0.375c0.097-0.148,0.146-0.324,0.146-0.523c0-0.307-0.106-0.549-0.318-0.723
					c-0.209-0.178-0.47-0.328-0.781-0.461c-0.311-0.129-0.648-0.256-1.01-0.373c-0.364-0.121-0.7-0.27-1.014-0.453
					c-0.311-0.186-0.57-0.424-0.78-0.717c-0.21-0.295-0.313-0.678-0.313-1.15c0-0.664,0.208-1.188,0.622-1.568
					c0.416-0.383,0.954-0.619,1.611-0.719v-1.521h0.984v1.48c0.656,0.057,1.261,0.182,1.812,0.385l0.29,0.104l-0.065,1.973h-0.789
					l-0.328-1.184c-0.402-0.176-0.838-0.262-1.3-0.262c-0.465,0-0.836,0.107-1.112,0.328c-0.275,0.217-0.412,0.48-0.412,0.789
					c0,0.305,0.103,0.547,0.309,0.73c0.204,0.178,0.468,0.332,0.781,0.471c0.313,0.137,0.651,0.266,1.01,0.387
					c0.362,0.123,0.698,0.273,1.014,0.453c0.313,0.182,0.575,0.41,0.781,0.689c0.206,0.277,0.309,0.639,0.309,1.078
					c0,0.691-0.212,1.248-0.637,1.668c-0.427,0.418-0.98,0.691-1.661,0.814V371.619z"/>
			</g>
		</g>
	</g>
</g>
</svg>
