<?xml version="1.0" encoding="utf-8"?>
<!-- Generator: Adobe Illustrator 16.0.0, SVG Export Plug-In . SVG Version: 6.00 Build 0)  -->
<!DOCTYPE svg PUBLIC "-//W3C//DTD SVG 1.1//EN" "http://www.w3.org/Graphics/SVG/1.1/DTD/svg11.dtd">
<svg version="1.1" id="Capa_1" xmlns="http://www.w3.org/2000/svg" xmlns:xlink="http://www.w3.org/1999/xlink" x="0px" y="0px"
	 width="500px" height="125px" viewBox="0 0 500 125" enable-background="new 0 0 500 125" xml:space="preserve">
<g>
	<g>
		<g>
			<path fill="#EB5E4E" d="M12.666,85.839l-0.33-1.392c-0.439-0.162-0.96-0.244-1.562-0.244c-0.831,0-1.465,0.302-1.905,0.903
				c-0.439,0.603-0.659,1.445-0.659,2.527c0,1.091,0.238,1.901,0.714,2.43c0.477,0.529,1.113,0.794,1.911,0.794
				c0.179,0,0.372-0.021,0.58-0.062c0.208-0.04,0.409-0.1,0.604-0.177s0.374-0.158,0.537-0.244c0.163-0.086,0.297-0.169,0.403-0.25
				l0.317-0.244l0.489,0.793c-0.179,0.18-0.385,0.347-0.617,0.501s-0.48,0.291-0.745,0.409c-0.265,0.118-0.54,0.209-0.824,0.274
				c-0.285,0.065-0.574,0.098-0.867,0.098c-1.246,0-2.208-0.36-2.888-1.08c-0.68-0.721-1.02-1.772-1.02-3.156
				c0-0.692,0.096-1.318,0.287-1.881c0.191-0.562,0.466-1.039,0.824-1.435c0.358-0.395,0.787-0.699,1.288-0.915
				c0.501-0.216,1.064-0.323,1.691-0.323c0.187,0,0.393,0.014,0.616,0.042c0.224,0.029,0.444,0.067,0.66,0.116
				c0.215,0.049,0.419,0.1,0.61,0.152c0.191,0.054,0.348,0.104,0.47,0.153l0.391,0.146l-0.062,2.062H12.666z"/>
			<path fill="#EB5E4E" d="M14.924,87.658c0-0.684,0.092-1.302,0.275-1.855s0.45-1.027,0.8-1.423
				c0.35-0.395,0.767-0.695,1.251-0.903c0.484-0.207,1.023-0.311,1.618-0.311c0.594,0,1.127,0.1,1.599,0.299s0.873,0.486,1.203,0.86
				c0.33,0.375,0.58,0.826,0.751,1.355s0.256,1.123,0.256,1.782s-0.098,1.264-0.293,1.813c-0.195,0.549-0.47,1.021-0.824,1.416
				s-0.779,0.704-1.276,0.928s-1.046,0.336-1.648,0.336c-1.197,0-2.115-0.37-2.753-1.111C15.243,90.104,14.924,89.042,14.924,87.658
				z M18.831,84.203c-1.669,0-2.503,1.119-2.503,3.357s0.793,3.357,2.381,3.357c0.813,0,1.444-0.284,1.892-0.854
				c0.448-0.569,0.671-1.424,0.671-2.563C21.272,85.302,20.458,84.203,18.831,84.203z"/>
			<path fill="#EB5E4E" d="M30.307,91.834v-0.732l1.16-0.244v-6.104l-0.366,0.915l-1.893,3.847l-0.977,0.061l-1.893-3.968
				l-0.305-0.854v6.104l1.16,0.244v0.732h-3.296v-0.732l1.038-0.244v-6.593l-1.038-0.244v-0.672l2.747-0.061l2.21,4.883l2.308-4.822
				l2.564-0.061v0.732l-1.038,0.244v6.593l1.038,0.244v0.732H30.307z"/>
			<path fill="#EB5E4E" d="M34.581,91.834v-0.732l1.038-0.244v-6.593l-1.038-0.244v-0.672l2.32-0.061h1.282
				c0.904,0,1.598,0.224,2.082,0.671c0.484,0.448,0.726,1.059,0.726,1.831c0,0.937-0.287,1.648-0.86,2.137
				c-0.574,0.488-1.386,0.732-2.436,0.732H36.9v2.198l1.038,0.244v0.732H34.581z M36.9,84.265v3.418h0.793
				c1.343,0,2.015-0.569,2.015-1.709c0-0.505-0.139-0.916-0.415-1.233c-0.277-0.317-0.667-0.476-1.172-0.476H36.9z"/>
			<path fill="#EB5E4E" d="M41.784,91.834v-0.732l1.038-0.244v-6.593l-1.038-0.244v-0.672l2.32-0.061h1.343
				c0.863,0,1.537,0.195,2.021,0.586c0.484,0.391,0.726,0.928,0.726,1.611c0,1.196-0.529,1.99-1.587,2.381
				c0.195,0.171,0.439,0.537,0.732,1.099l0.964,1.941l0.867,0.195v0.732h-1.832l-1.038-2.259c-0.285-0.61-0.531-1.007-0.739-1.19
				c-0.208-0.183-0.511-0.274-0.91-0.274h-0.549v2.747l1.038,0.244v0.732H41.784z M44.104,84.265v2.93h0.916
				c0.594,0,1.058-0.134,1.392-0.402c0.333-0.269,0.5-0.623,0.5-1.062c0-0.447-0.143-0.804-0.427-1.068
				c-0.285-0.265-0.651-0.396-1.099-0.396H44.104z"/>
			<path fill="#EB5E4E" d="M57.351,84.265v4.09c0,1.196-0.252,2.096-0.757,2.698c-0.505,0.603-1.355,0.903-2.552,0.903
				c-1.197,0-2.043-0.278-2.54-0.836c-0.497-0.558-0.745-1.419-0.745-2.583v-4.272l-1.038-0.244v-0.672l3.479-0.061v0.732
				l-1.16,0.244v4.272c0,0.896,0.154,1.517,0.464,1.862c0.309,0.346,0.834,0.519,1.575,0.519c0.74,0,1.257-0.188,1.55-0.567
				s0.439-1.044,0.439-1.996v-4.09l-1.16-0.244v-0.672l3.479-0.061v0.732L57.351,84.265z"/>
			<path fill="#EB5E4E" d="M64.554,84.265h-2.625v2.625h2.808v0.977h-2.808v2.991h2.808l0.244-1.221h0.793v2.197h-6.166v-0.732
				l1.038-0.244v-6.593l-1.038-0.244v-0.672l2.32-0.061h3.724v2.075h-0.793L64.554,84.265z"/>
			<path fill="#EB5E4E" d="M66.996,91.834v-0.732l1.038-0.244v-6.593l-1.038-0.244v-0.672l2.259-0.061h1.404
				c0.798,0,1.435,0.179,1.911,0.537c0.476,0.357,0.714,0.891,0.714,1.599c0,1.051-0.529,1.71-1.587,1.979
				c0.635,0.146,1.109,0.391,1.422,0.732c0.313,0.342,0.47,0.761,0.47,1.258c0,1.628-1.038,2.441-3.113,2.441H66.996z
				 M69.254,84.265v2.686h0.916c0.57,0,1.018-0.116,1.343-0.348c0.325-0.232,0.488-0.567,0.488-1.008
				c0-0.447-0.13-0.781-0.391-1.001c-0.261-0.22-0.598-0.329-1.014-0.329H69.254z M69.254,87.866v2.991h1.282
				c1.18,0,1.771-0.468,1.771-1.404c0-0.586-0.177-0.997-0.531-1.233c-0.354-0.235-0.889-0.354-1.605-0.354H69.254z"/>
			<path fill="#EB5E4E" d="M73.894,91.834v-0.742l1.001-0.234l2.784-7.509l1.221-0.061l2.71,7.569l1.013,0.234v0.742h-3.541v-0.742
				l1.135-0.234l-0.464-1.343H76.58l-0.476,1.343l1.147,0.234v0.742H73.894z M78.191,84.862l-1.282,3.675h2.515L78.191,84.862z"/>
			<path fill="#EB5E4E" d="M87.324,89.331l0.244,1.282c0.146,0.081,0.346,0.152,0.598,0.214c0.252,0.061,0.5,0.091,0.745,0.091
				s0.48-0.03,0.708-0.091c0.228-0.062,0.428-0.148,0.599-0.263s0.307-0.251,0.409-0.409c0.102-0.159,0.153-0.34,0.153-0.543
				c0-0.236-0.065-0.434-0.195-0.593c-0.13-0.158-0.299-0.297-0.507-0.415s-0.441-0.222-0.702-0.312
				c-0.26-0.089-0.525-0.183-0.793-0.28c-0.285-0.122-0.56-0.246-0.824-0.372c-0.265-0.127-0.5-0.281-0.708-0.465
				c-0.208-0.183-0.373-0.404-0.495-0.665s-0.183-0.582-0.183-0.965c0-0.406,0.08-0.761,0.238-1.062
				c0.159-0.302,0.37-0.55,0.635-0.745s0.574-0.34,0.928-0.434c0.354-0.093,0.727-0.14,1.117-0.14c0.179,0,0.371,0.012,0.574,0.036
				c0.204,0.024,0.403,0.055,0.599,0.092c0.195,0.036,0.378,0.077,0.549,0.122s0.317,0.083,0.439,0.116l0.391,0.122l-0.061,2.075
				h-0.793l-0.415-1.307c-0.228-0.073-0.454-0.126-0.678-0.158c-0.224-0.033-0.454-0.049-0.69-0.049c-0.236,0-0.45,0.03-0.641,0.091
				c-0.191,0.062-0.354,0.146-0.489,0.251s-0.238,0.224-0.311,0.354c-0.073,0.131-0.11,0.265-0.11,0.403
				c0.008,0.342,0.122,0.61,0.342,0.806s0.492,0.362,0.818,0.501c0.326,0.138,0.678,0.269,1.056,0.391s0.729,0.274,1.05,0.458
				c0.322,0.183,0.59,0.421,0.806,0.714c0.215,0.293,0.323,0.676,0.323,1.147c0,0.424-0.082,0.798-0.244,1.123
				c-0.163,0.326-0.387,0.601-0.671,0.824c-0.285,0.224-0.623,0.396-1.013,0.513c-0.391,0.118-0.81,0.178-1.258,0.178
				c-0.179,0-0.372-0.013-0.58-0.037c-0.208-0.024-0.411-0.055-0.61-0.092c-0.199-0.036-0.384-0.077-0.555-0.122
				c-0.171-0.044-0.313-0.087-0.428-0.128l-0.342-0.122v-2.137H87.324z"/>
			<path fill="#EB5E4E" d="M96.639,91.102v0.732h-3.357v-0.732l1.038-0.244v-6.593l-1.038-0.244v-0.672l3.357-0.061v0.732
				l-1.038,0.244v6.593L96.639,91.102z"/>
			<path fill="#EB5E4E" d="M105.246,91.102v0.732h-3.724v-0.732l1.221-0.244v-6.593h-1.587l-0.305,1.221h-0.793v-2.197h6.654v2.197
				h-0.793l-0.305-1.221h-1.587v6.593L105.246,91.102z"/>
			<path fill="#EB5E4E" d="M114.952,84.265v4.09c0,1.196-0.252,2.096-0.757,2.698c-0.505,0.603-1.355,0.903-2.552,0.903
				c-1.197,0-2.043-0.278-2.54-0.836c-0.497-0.558-0.745-1.419-0.745-2.583v-4.272l-1.038-0.244v-0.672l3.479-0.061v0.732
				l-1.16,0.244v4.272c0,0.896,0.154,1.517,0.464,1.862c0.309,0.346,0.834,0.519,1.575,0.519c0.74,0,1.257-0.188,1.55-0.567
				s0.439-1.044,0.439-1.996v-4.09l-1.16-0.244v-0.672l3.479-0.061v0.732L114.952,84.265z"/>
			<path fill="#EB5E4E" d="M119.774,91.834v-0.732l1.038-0.244v-6.593l-1.038-0.244v-0.672l2.259-0.061h1.404
				c0.798,0,1.435,0.179,1.911,0.537c0.476,0.357,0.714,0.891,0.714,1.599c0,1.051-0.529,1.71-1.587,1.979
				c0.635,0.146,1.109,0.391,1.422,0.732c0.313,0.342,0.47,0.761,0.47,1.258c0,1.628-1.038,2.441-3.113,2.441H119.774z
				 M122.033,84.265v2.686h0.916c0.57,0,1.018-0.116,1.343-0.348c0.325-0.232,0.488-0.567,0.488-1.008
				c0-0.447-0.13-0.781-0.391-1.001c-0.261-0.22-0.598-0.329-1.014-0.329H122.033z M122.033,87.866v2.991h1.282
				c1.18,0,1.771-0.468,1.771-1.404c0-0.586-0.177-0.997-0.531-1.233c-0.354-0.235-0.889-0.354-1.605-0.354H122.033z"/>
			<path fill="#EB5E4E" d="M127.71,87.658c0-0.684,0.092-1.302,0.275-1.855s0.45-1.027,0.8-1.423
				c0.35-0.395,0.767-0.695,1.251-0.903c0.484-0.207,1.023-0.311,1.618-0.311c0.594,0,1.127,0.1,1.599,0.299s0.873,0.486,1.203,0.86
				c0.33,0.375,0.58,0.826,0.751,1.355s0.256,1.123,0.256,1.782s-0.098,1.264-0.293,1.813c-0.195,0.549-0.47,1.021-0.824,1.416
				s-0.779,0.704-1.276,0.928s-1.046,0.336-1.648,0.336c-1.197,0-2.115-0.37-2.753-1.111
				C128.029,90.104,127.71,89.042,127.71,87.658z M131.617,84.203c-1.669,0-2.503,1.119-2.503,3.357s0.793,3.357,2.381,3.357
				c0.813,0,1.444-0.284,1.892-0.854c0.448-0.569,0.671-1.424,0.671-2.563C134.059,85.302,133.245,84.203,131.617,84.203z"/>
			<path fill="#EB5E4E" d="M138.942,84.265v6.593h2.503l0.244-1.404h0.854v2.381h-5.921v-0.732l1.038-0.244v-6.593l-1.038-0.244
				v-0.672l3.357-0.061v0.732L138.942,84.265z"/>
			<path fill="#EB5E4E" d="M144.498,89.331l0.244,1.282c0.146,0.081,0.346,0.152,0.598,0.214c0.252,0.061,0.5,0.091,0.745,0.091
				s0.48-0.03,0.708-0.091c0.228-0.062,0.428-0.148,0.599-0.263s0.307-0.251,0.409-0.409c0.102-0.159,0.153-0.34,0.153-0.543
				c0-0.236-0.065-0.434-0.195-0.593c-0.13-0.158-0.299-0.297-0.507-0.415s-0.441-0.222-0.702-0.312
				c-0.26-0.089-0.525-0.183-0.793-0.28c-0.285-0.122-0.56-0.246-0.824-0.372c-0.265-0.127-0.5-0.281-0.708-0.465
				c-0.208-0.183-0.373-0.404-0.495-0.665s-0.183-0.582-0.183-0.965c0-0.406,0.08-0.761,0.238-1.062
				c0.159-0.302,0.37-0.55,0.635-0.745s0.574-0.34,0.928-0.434c0.354-0.093,0.727-0.14,1.117-0.14c0.179,0,0.371,0.012,0.574,0.036
				c0.204,0.024,0.403,0.055,0.599,0.092c0.195,0.036,0.378,0.077,0.549,0.122s0.317,0.083,0.439,0.116l0.391,0.122l-0.061,2.075
				h-0.793l-0.415-1.307c-0.228-0.073-0.454-0.126-0.678-0.158c-0.224-0.033-0.454-0.049-0.69-0.049c-0.236,0-0.45,0.03-0.641,0.091
				c-0.191,0.062-0.354,0.146-0.489,0.251s-0.238,0.224-0.311,0.354c-0.073,0.131-0.11,0.265-0.11,0.403
				c0.008,0.342,0.122,0.61,0.342,0.806s0.492,0.362,0.818,0.501c0.326,0.138,0.678,0.269,1.056,0.391s0.729,0.274,1.05,0.458
				c0.322,0.183,0.59,0.421,0.806,0.714c0.215,0.293,0.323,0.676,0.323,1.147c0,0.424-0.082,0.798-0.244,1.123
				c-0.163,0.326-0.387,0.601-0.671,0.824c-0.285,0.224-0.623,0.396-1.013,0.513c-0.391,0.118-0.81,0.178-1.258,0.178
				c-0.179,0-0.372-0.013-0.58-0.037c-0.208-0.024-0.411-0.055-0.61-0.092c-0.199-0.036-0.384-0.077-0.555-0.122
				c-0.171-0.044-0.313-0.087-0.428-0.128l-0.342-0.122v-2.137H144.498z"/>
			<path fill="#EB5E4E" d="M153.813,91.102v0.732h-3.357v-0.732l1.038-0.244v-6.593l-1.038-0.244v-0.672l3.357-0.061v0.732
				l-1.038,0.244v6.593L153.813,91.102z"/>
			<path fill="#EB5E4E" d="M157.048,84.265v6.593h2.503l0.244-1.404h0.854v2.381h-5.921v-0.732l1.038-0.244v-6.593l-1.038-0.244
				v-0.672l3.357-0.061v0.732L157.048,84.265z"/>
			<path fill="#EB5E4E" d="M163.519,84.265v6.593h2.503l0.244-1.404h0.854v2.381h-5.921v-0.732l1.038-0.244v-6.593l-1.038-0.244
				v-0.672l3.357-0.061v0.732L163.519,84.265z"/>
			<path fill="#EB5E4E" d="M167.975,87.658c0-0.684,0.092-1.302,0.275-1.855s0.45-1.027,0.8-1.423
				c0.35-0.395,0.767-0.695,1.251-0.903c0.484-0.207,1.023-0.311,1.618-0.311c0.594,0,1.127,0.1,1.599,0.299s0.873,0.486,1.203,0.86
				c0.33,0.375,0.58,0.826,0.751,1.355s0.256,1.123,0.256,1.782s-0.098,1.264-0.293,1.813c-0.195,0.549-0.47,1.021-0.824,1.416
				s-0.779,0.704-1.276,0.928s-1.046,0.336-1.648,0.336c-1.197,0-2.115-0.37-2.753-1.111
				C168.294,90.104,167.975,89.042,167.975,87.658z M171.882,84.203c-1.669,0-2.503,1.119-2.503,3.357s0.793,3.357,2.381,3.357
				c0.813,0,1.444-0.284,1.892-0.854c0.448-0.569,0.671-1.424,0.671-2.563C174.324,85.302,173.51,84.203,171.882,84.203z"/>
			<path fill="#EB5E4E" d="M184.946,84.265h-2.625v2.625h2.808v0.977h-2.808v2.991h2.808l0.244-1.221h0.793v2.197h-6.166v-0.732
				l1.038-0.244v-6.593l-1.038-0.244v-0.672l2.32-0.061h3.724v2.075h-0.793L184.946,84.265z"/>
			<path fill="#EB5E4E" d="M188.731,89.331l0.244,1.282c0.146,0.081,0.346,0.152,0.598,0.214c0.252,0.061,0.5,0.091,0.745,0.091
				s0.48-0.03,0.708-0.091c0.228-0.062,0.428-0.148,0.599-0.263s0.307-0.251,0.409-0.409c0.102-0.159,0.153-0.34,0.153-0.543
				c0-0.236-0.065-0.434-0.195-0.593c-0.13-0.158-0.299-0.297-0.507-0.415s-0.441-0.222-0.702-0.312
				c-0.26-0.089-0.525-0.183-0.793-0.28c-0.285-0.122-0.56-0.246-0.824-0.372c-0.265-0.127-0.5-0.281-0.708-0.465
				c-0.208-0.183-0.373-0.404-0.495-0.665s-0.183-0.582-0.183-0.965c0-0.406,0.08-0.761,0.238-1.062
				c0.159-0.302,0.37-0.55,0.635-0.745s0.574-0.34,0.928-0.434c0.354-0.093,0.727-0.14,1.117-0.14c0.179,0,0.371,0.012,0.574,0.036
				c0.204,0.024,0.403,0.055,0.599,0.092c0.195,0.036,0.378,0.077,0.549,0.122s0.317,0.083,0.439,0.116l0.391,0.122l-0.061,2.075
				h-0.793l-0.415-1.307c-0.228-0.073-0.454-0.126-0.678-0.158c-0.224-0.033-0.454-0.049-0.69-0.049c-0.236,0-0.45,0.03-0.641,0.091
				c-0.191,0.062-0.354,0.146-0.489,0.251s-0.238,0.224-0.311,0.354c-0.073,0.131-0.11,0.265-0.11,0.403
				c0.008,0.342,0.122,0.61,0.342,0.806s0.492,0.362,0.818,0.501c0.326,0.138,0.678,0.269,1.056,0.391s0.729,0.274,1.05,0.458
				c0.322,0.183,0.59,0.421,0.806,0.714c0.215,0.293,0.323,0.676,0.323,1.147c0,0.424-0.082,0.798-0.244,1.123
				c-0.163,0.326-0.387,0.601-0.671,0.824c-0.285,0.224-0.623,0.396-1.013,0.513c-0.391,0.118-0.81,0.178-1.258,0.178
				c-0.179,0-0.372-0.013-0.58-0.037c-0.208-0.024-0.411-0.055-0.61-0.092c-0.199-0.036-0.384-0.077-0.555-0.122
				c-0.171-0.044-0.313-0.087-0.428-0.128l-0.342-0.122v-2.137H188.731z"/>
			<path fill="#EB5E4E" d="M199.511,91.102v0.732h-3.724v-0.732l1.221-0.244v-6.593h-1.587l-0.305,1.221h-0.793v-2.197h6.654v2.197
				h-0.793l-0.305-1.221h-1.587v6.593L199.511,91.102z"/>
			<path fill="#EB5E4E" d="M201.159,91.834v-0.742l1.001-0.234l2.784-7.509l1.221-0.061l2.71,7.569l1.013,0.234v0.742h-3.541v-0.742
				l1.135-0.234l-0.464-1.343h-3.174l-0.476,1.343l1.147,0.234v0.742H201.159z M205.457,84.862l-1.282,3.675h2.515L205.457,84.862z
				 M207.74,81.334l-2.381,1.526l-0.488-0.672l2.259-1.77L207.74,81.334z"/>
			<path fill="#EB5E4E" d="M219.656,91.834v-0.732l1.16-0.244v-6.104l-0.366,0.915l-1.893,3.847l-0.977,0.061l-1.893-3.968
				l-0.305-0.854v6.104l1.16,0.244v0.732h-3.296v-0.732l1.038-0.244v-6.593l-1.038-0.244v-0.672l2.747-0.061l2.21,4.883l2.308-4.822
				l2.564-0.061v0.732l-1.038,0.244v6.593l1.038,0.244v0.732H219.656z"/>
			<path fill="#EB5E4E" d="M223.501,91.834v-0.742l1.001-0.234l2.784-7.509l1.221-0.061l2.71,7.569l1.013,0.234v0.742h-3.541v-0.742
				l1.135-0.234l-0.464-1.343h-3.174l-0.476,1.343l1.147,0.234v0.742H223.501z M227.799,84.862l-1.282,3.675h2.515L227.799,84.862z
				 M230.082,81.334l-2.381,1.526l-0.488-0.672l2.259-1.77L230.082,81.334z"/>
			<path fill="#EB5E4E" d="M234.124,89.331l0.244,1.282c0.146,0.081,0.346,0.152,0.598,0.214c0.252,0.061,0.5,0.091,0.745,0.091
				s0.48-0.03,0.708-0.091c0.228-0.062,0.428-0.148,0.599-0.263s0.307-0.251,0.409-0.409c0.102-0.159,0.153-0.34,0.153-0.543
				c0-0.236-0.065-0.434-0.195-0.593c-0.13-0.158-0.299-0.297-0.507-0.415s-0.441-0.222-0.702-0.312
				c-0.26-0.089-0.525-0.183-0.793-0.28c-0.285-0.122-0.56-0.246-0.824-0.372c-0.265-0.127-0.5-0.281-0.708-0.465
				c-0.208-0.183-0.373-0.404-0.495-0.665s-0.183-0.582-0.183-0.965c0-0.406,0.08-0.761,0.238-1.062
				c0.159-0.302,0.37-0.55,0.635-0.745s0.574-0.34,0.928-0.434c0.354-0.093,0.727-0.14,1.117-0.14c0.179,0,0.371,0.012,0.574,0.036
				c0.204,0.024,0.403,0.055,0.599,0.092c0.195,0.036,0.378,0.077,0.549,0.122s0.317,0.083,0.439,0.116l0.391,0.122l-0.061,2.075
				h-0.793l-0.415-1.307c-0.228-0.073-0.454-0.126-0.678-0.158c-0.224-0.033-0.454-0.049-0.69-0.049c-0.236,0-0.45,0.03-0.641,0.091
				c-0.191,0.062-0.354,0.146-0.489,0.251s-0.238,0.224-0.311,0.354c-0.073,0.131-0.11,0.265-0.11,0.403
				c0.008,0.342,0.122,0.61,0.342,0.806s0.492,0.362,0.818,0.501c0.326,0.138,0.678,0.269,1.056,0.391s0.729,0.274,1.05,0.458
				c0.322,0.183,0.59,0.421,0.806,0.714c0.215,0.293,0.323,0.676,0.323,1.147c0,0.424-0.082,0.798-0.244,1.123
				c-0.163,0.326-0.387,0.601-0.671,0.824c-0.285,0.224-0.623,0.396-1.013,0.513c-0.391,0.118-0.81,0.178-1.258,0.178
				c-0.179,0-0.372-0.013-0.58-0.037c-0.208-0.024-0.411-0.055-0.61-0.092c-0.199-0.036-0.384-0.077-0.555-0.122
				c-0.171-0.044-0.313-0.087-0.428-0.128l-0.342-0.122v-2.137H234.124z"/>
			<path fill="#EB5E4E" d="M247.712,91.102v0.732h-3.724v-0.732l1.221-0.244v-6.593h-1.587l-0.305,1.221h-0.793v-2.197h6.654v2.197
				h-0.793l-0.305-1.221h-1.587v6.593L247.712,91.102z"/>
			<path fill="#EB5E4E" d="M253.145,91.102v0.732h-3.357v-0.732l1.038-0.244v-6.593l-1.038-0.244v-0.672l3.357-0.061v0.732
				l-1.038,0.244v6.593L253.145,91.102z"/>
			<path fill="#EB5E4E" d="M259.31,84.265h-2.624v2.625h2.808v0.977h-2.808v2.991h2.808l0.244-1.221h0.794v2.197h-6.166v-0.732
				l1.038-0.244v-6.593l-1.038-0.244v-0.672l2.32-0.061h3.724v2.075h-0.794L259.31,84.265z"/>
			<path fill="#EB5E4E" d="M263.095,89.331l0.244,1.282c0.146,0.081,0.347,0.152,0.599,0.214c0.252,0.061,0.501,0.091,0.745,0.091
				s0.479-0.03,0.708-0.091c0.228-0.062,0.427-0.148,0.598-0.263s0.308-0.251,0.409-0.409c0.102-0.159,0.152-0.34,0.152-0.543
				c0-0.236-0.064-0.434-0.195-0.593c-0.13-0.158-0.299-0.297-0.506-0.415c-0.208-0.118-0.442-0.222-0.702-0.312
				c-0.261-0.089-0.525-0.183-0.794-0.28c-0.285-0.122-0.56-0.246-0.824-0.372c-0.265-0.127-0.5-0.281-0.708-0.465
				c-0.208-0.183-0.372-0.404-0.494-0.665s-0.184-0.582-0.184-0.965c0-0.406,0.079-0.761,0.238-1.062
				c0.158-0.302,0.37-0.55,0.635-0.745s0.574-0.34,0.928-0.434c0.354-0.093,0.727-0.14,1.117-0.14c0.179,0,0.37,0.012,0.574,0.036
				c0.203,0.024,0.402,0.055,0.598,0.092c0.195,0.036,0.379,0.077,0.55,0.122s0.317,0.083,0.439,0.116l0.391,0.122l-0.061,2.075
				h-0.794l-0.415-1.307c-0.229-0.073-0.454-0.126-0.678-0.158c-0.224-0.033-0.454-0.049-0.689-0.049
				c-0.236,0-0.45,0.03-0.642,0.091c-0.191,0.062-0.354,0.146-0.488,0.251c-0.134,0.105-0.238,0.224-0.312,0.354
				c-0.073,0.131-0.109,0.265-0.109,0.403c0.008,0.342,0.122,0.61,0.342,0.806s0.492,0.362,0.818,0.501
				c0.325,0.138,0.677,0.269,1.056,0.391s0.729,0.274,1.05,0.458c0.321,0.183,0.59,0.421,0.806,0.714s0.324,0.676,0.324,1.147
				c0,0.424-0.082,0.798-0.244,1.123c-0.163,0.326-0.387,0.601-0.672,0.824s-0.623,0.396-1.014,0.513
				c-0.391,0.118-0.81,0.178-1.257,0.178c-0.18,0-0.373-0.013-0.58-0.037c-0.208-0.024-0.411-0.055-0.61-0.092
				c-0.2-0.036-0.385-0.077-0.556-0.122c-0.171-0.044-0.313-0.087-0.428-0.128l-0.342-0.122v-2.137H263.095z"/>
			<path fill="#EB5E4E" d="M269.297,87.658c0-0.684,0.092-1.302,0.274-1.855c0.184-0.554,0.45-1.027,0.8-1.423
				c0.351-0.395,0.768-0.695,1.252-0.903c0.484-0.207,1.023-0.311,1.617-0.311c0.595,0,1.128,0.1,1.6,0.299s0.873,0.486,1.203,0.86
				c0.329,0.375,0.579,0.826,0.75,1.355s0.257,1.123,0.257,1.782s-0.098,1.264-0.293,1.813c-0.195,0.549-0.47,1.021-0.824,1.416
				s-0.779,0.704-1.275,0.928c-0.497,0.224-1.047,0.336-1.648,0.336c-1.196,0-2.114-0.37-2.753-1.111
				C269.616,90.104,269.297,89.042,269.297,87.658z M273.204,84.203c-1.669,0-2.503,1.119-2.503,3.357s0.794,3.357,2.381,3.357
				c0.813,0,1.444-0.284,1.893-0.854c0.447-0.569,0.671-1.424,0.671-2.563C275.646,85.302,274.832,84.203,273.204,84.203z"/>
			<path fill="#EB5E4E" d="M290.175,92.628l0.488,0.732c-0.822,0.488-1.453,0.732-1.893,0.732c-0.317,0-0.847-0.224-1.587-0.672
				l-2.43-1.489c-1.115-0.09-1.966-0.498-2.552-1.227s-0.879-1.761-0.879-3.096c0-0.667,0.1-1.273,0.299-1.819
				c0.2-0.545,0.479-1.013,0.837-1.403c0.357-0.391,0.787-0.692,1.288-0.903c0.5-0.212,1.052-0.317,1.654-0.317
				s1.14,0.098,1.611,0.293s0.869,0.478,1.19,0.848c0.321,0.371,0.567,0.82,0.738,1.35s0.257,1.123,0.257,1.782
				c0,0.554-0.065,1.064-0.195,1.532c-0.13,0.469-0.315,0.89-0.556,1.264c-0.24,0.375-0.531,0.692-0.873,0.952
				c-0.342,0.261-0.729,0.456-1.16,0.586l1.319,0.794c0.545,0.325,0.973,0.488,1.281,0.488c0.236,0,0.558-0.105,0.965-0.317
				L290.175,92.628z M285.353,84.203c-0.871,0-1.536,0.277-1.996,0.83c-0.46,0.554-0.69,1.388-0.69,2.503
				c0,1.107,0.214,1.947,0.642,2.521c0.427,0.574,1.068,0.86,1.923,0.86c0.862,0,1.516-0.286,1.959-0.86
				c0.444-0.574,0.666-1.427,0.666-2.558C287.855,85.302,287.021,84.203,285.353,84.203z"/>
			<path fill="#EB5E4E" d="M297.928,84.265v4.09c0,1.196-0.253,2.096-0.757,2.698c-0.505,0.603-1.355,0.903-2.552,0.903
				s-2.043-0.278-2.54-0.836c-0.496-0.558-0.744-1.419-0.744-2.583v-4.272l-1.038-0.244v-0.672l3.479-0.061v0.732l-1.16,0.244v4.272
				c0,0.896,0.155,1.517,0.465,1.862c0.309,0.346,0.834,0.519,1.574,0.519c0.741,0,1.258-0.188,1.551-0.567s0.439-1.044,0.439-1.996
				v-4.09l-1.16-0.244v-0.672l3.48-0.061v0.732L297.928,84.265z"/>
			<path fill="#EB5E4E" d="M305.13,84.265h-2.624v2.625h2.808v0.977h-2.808v2.991h2.808l0.244-1.221h0.794v2.197h-6.166v-0.732
				l1.038-0.244v-6.593l-1.038-0.244v-0.672l2.32-0.061h3.724v2.075h-0.794L305.13,84.265z"/>
			<path fill="#EB5E4E" d="M312.639,84.265v6.593h2.503l0.244-1.404h0.854v2.381h-5.921v-0.732l1.037-0.244v-6.593l-1.037-0.244
				v-0.672l3.357-0.061v0.732L312.639,84.265z"/>
			<path fill="#EB5E4E" d="M316.425,91.834v-0.742l1.001-0.234l2.783-7.509l1.221-0.061l2.711,7.569l1.014,0.234v0.742h-3.541
				v-0.742l1.136-0.234l-0.464-1.343h-3.175l-0.477,1.343l1.148,0.234v0.742H316.425z M320.722,84.862l-1.281,3.675h2.515
				L320.722,84.862z"/>
			<path fill="#EB5E4E" d="M328.511,91.834v-0.732l1.038-0.244v-6.593l-1.038-0.244v-0.672l2.319-0.061h1.344
				c0.862,0,1.536,0.195,2.021,0.586s0.727,0.928,0.727,1.611c0,1.196-0.529,1.99-1.588,2.381c0.195,0.171,0.439,0.537,0.733,1.099
				l0.964,1.941l0.867,0.195v0.732h-1.831l-1.038-2.259c-0.285-0.61-0.531-1.007-0.739-1.19c-0.207-0.183-0.511-0.274-0.909-0.274
				h-0.55v2.747l1.038,0.244v0.732H328.511z M330.83,84.265v2.93h0.916c0.594,0,1.059-0.134,1.392-0.402
				c0.334-0.269,0.501-0.623,0.501-1.062c0-0.447-0.143-0.804-0.428-1.068c-0.284-0.265-0.651-0.396-1.099-0.396H330.83z"/>
			<path fill="#EB5E4E" d="M336.69,87.658c0-0.684,0.092-1.302,0.274-1.855c0.184-0.554,0.45-1.027,0.8-1.423
				c0.351-0.395,0.768-0.695,1.252-0.903c0.484-0.207,1.023-0.311,1.617-0.311c0.595,0,1.128,0.1,1.6,0.299s0.873,0.486,1.203,0.86
				c0.329,0.375,0.579,0.826,0.75,1.355s0.257,1.123,0.257,1.782s-0.098,1.264-0.293,1.813c-0.195,0.549-0.47,1.021-0.824,1.416
				s-0.779,0.704-1.275,0.928c-0.497,0.224-1.047,0.336-1.648,0.336c-1.196,0-2.114-0.37-2.753-1.111
				C337.01,90.104,336.69,89.042,336.69,87.658z M340.598,84.203c-1.669,0-2.503,1.119-2.503,3.357s0.794,3.357,2.381,3.357
				c0.813,0,1.444-0.284,1.893-0.854c0.447-0.569,0.671-1.424,0.671-2.563C343.039,85.302,342.226,84.203,340.598,84.203z"/>
			<path fill="#EB5E4E" d="M345.908,91.834v-0.732l1.038-0.244v-6.593l-1.038-0.244v-0.672l2.32-0.061h1.525
				c0.603,0,1.142,0.091,1.618,0.274c0.476,0.183,0.879,0.451,1.209,0.806c0.329,0.354,0.581,0.79,0.757,1.307
				c0.175,0.517,0.262,1.108,0.262,1.776c0,0.667-0.096,1.27-0.286,1.807c-0.191,0.537-0.462,0.997-0.812,1.38
				c-0.35,0.383-0.773,0.678-1.27,0.885c-0.496,0.208-1.05,0.312-1.66,0.312H345.908z M348.229,90.857h1.403
				c0.806,0,1.435-0.276,1.887-0.83c0.451-0.554,0.678-1.388,0.678-2.503c0-1.123-0.22-1.947-0.659-2.473
				c-0.439-0.524-1.055-0.787-1.844-0.787h-1.465V90.857z"/>
			<path fill="#EB5E4E" d="M357.934,91.102v0.732h-3.357v-0.732l1.038-0.244v-6.593l-1.038-0.244v-0.672l3.357-0.061v0.732
				l-1.038,0.244v6.593L357.934,91.102z"/>
			<path fill="#EB5E4E" d="M361.17,84.265v6.593h2.503l0.244-1.404h0.854v2.381h-5.921v-0.732l1.037-0.244v-6.593l-1.037-0.244
				v-0.672l3.357-0.061v0.732L361.17,84.265z"/>
			<path fill="#EB5E4E" d="M367.641,84.265v6.593h2.503l0.244-1.404h0.854v2.381h-5.921v-0.732l1.037-0.244v-6.593l-1.037-0.244
				v-0.672l3.357-0.061v0.732L367.641,84.265z"/>
			<path fill="#EB5E4E" d="M371.426,91.834v-0.742l1.001-0.234l2.783-7.509l1.221-0.061l2.711,7.569l1.014,0.234v0.742h-3.541
				v-0.742l1.136-0.234l-0.464-1.343h-3.175l-0.477,1.343l1.148,0.234v0.742H371.426z M375.723,84.862l-1.281,3.675h2.515
				L375.723,84.862z"/>
			<path fill="#EB5E4E" d="M383.756,91.834v-0.732l1.038-0.244v-6.593l-1.038-0.244v-0.672l2.32-0.061h1.525
				c0.603,0,1.142,0.091,1.618,0.274c0.476,0.183,0.879,0.451,1.209,0.806c0.329,0.354,0.581,0.79,0.757,1.307
				c0.175,0.517,0.262,1.108,0.262,1.776c0,0.667-0.096,1.27-0.286,1.807c-0.191,0.537-0.462,0.997-0.812,1.38
				c-0.35,0.383-0.773,0.678-1.27,0.885c-0.496,0.208-1.05,0.312-1.66,0.312H383.756z M386.076,90.857h1.403
				c0.806,0,1.435-0.276,1.887-0.83c0.451-0.554,0.678-1.388,0.678-2.503c0-1.123-0.22-1.947-0.659-2.473
				c-0.439-0.524-1.055-0.787-1.844-0.787h-1.465V90.857z"/>
			<path fill="#EB5E4E" d="M397.613,84.265h-2.624v2.625h2.808v0.977h-2.808v2.991h2.808l0.244-1.221h0.794v2.197h-6.166v-0.732
				l1.038-0.244v-6.593l-1.038-0.244v-0.672l2.32-0.061h3.724v2.075h-0.794L397.613,84.265z"/>
			<path fill="#EB5E4E" d="M410.494,84.265v4.09c0,1.196-0.253,2.096-0.757,2.698c-0.505,0.603-1.355,0.903-2.552,0.903
				s-2.043-0.278-2.54-0.836c-0.496-0.558-0.744-1.419-0.744-2.583v-4.272l-1.038-0.244v-0.672l3.479-0.061v0.732l-1.16,0.244v4.272
				c0,0.896,0.155,1.517,0.465,1.862c0.309,0.346,0.834,0.519,1.574,0.519c0.741,0,1.258-0.188,1.551-0.567s0.439-1.044,0.439-1.996
				v-4.09l-1.16-0.244v-0.672l3.48-0.061v0.732L410.494,84.265z"/>
			<path fill="#EB5E4E" d="M418.674,91.834l-4.029-6.728v5.751l1.16,0.244v0.732h-3.297v-0.732l1.038-0.244v-6.593l-1.038-0.244
				v-0.672l2.564-0.061l4.028,6.824v-5.848l-1.037-0.244v-0.672l3.174-0.061v0.732l-1.038,0.244v7.569H418.674z"/>
			<path fill="#EB5E4E" d="M424.961,91.834v-0.732l1.038-0.244v-6.593l-1.038-0.244v-0.672l2.319-0.061h1.282
				c0.903,0,1.598,0.224,2.082,0.671c0.484,0.448,0.727,1.059,0.727,1.831c0,0.937-0.287,1.648-0.861,2.137
				c-0.573,0.488-1.386,0.732-2.436,0.732h-0.794v2.198l1.038,0.244v0.732H424.961z M427.28,84.265v3.418h0.794
				c1.343,0,2.015-0.569,2.015-1.709c0-0.505-0.139-0.916-0.415-1.233c-0.277-0.317-0.668-0.476-1.172-0.476H427.28z"/>
			<path fill="#EB5E4E" d="M434.424,84.265v6.593h2.503l0.244-1.404h0.854v2.381h-5.921v-0.732l1.037-0.244v-6.593l-1.037-0.244
				v-0.672l3.357-0.061v0.732L434.424,84.265z"/>
			<path fill="#EB5E4E" d="M438.209,91.834v-0.742l1.001-0.234l2.783-7.509l1.221-0.061l2.711,7.569l1.014,0.234v0.742h-3.541
				v-0.742l1.136-0.234l-0.464-1.343h-3.175l-0.477,1.343l1.148,0.234v0.742H438.209z M442.506,84.862l-1.281,3.675h2.515
				L442.506,84.862z"/>
			<path fill="#EB5E4E" d="M449.258,91.834v-0.732l1.038-0.244v-2.182l-2.356-4.411l-0.818-0.235v-0.68l3.053-0.062v0.741
				l-0.831,0.247l1.624,3.406l1.795-3.406l-0.94-0.247v-0.68l2.931-0.062v0.741l-0.757,0.223l-2.418,4.399v2.206l1.038,0.244v0.732
				H449.258z"/>
			<path fill="#EB5E4E" d="M461.771,91.834v-0.732l1.159-0.244v-6.104l-0.366,0.915l-1.893,3.847l-0.977,0.061l-1.892-3.968
				l-0.306-0.854v6.104l1.16,0.244v0.732h-3.297v-0.732l1.038-0.244v-6.593l-1.038-0.244v-0.672l2.747-0.061l2.21,4.883l2.308-4.822
				l2.563-0.061v0.732l-1.037,0.244v6.593l1.037,0.244v0.732H461.771z"/>
			<path fill="#EB5E4E" d="M466.289,87.658c0-0.684,0.092-1.302,0.274-1.855c0.184-0.554,0.45-1.027,0.8-1.423
				c0.351-0.395,0.768-0.695,1.252-0.903c0.484-0.207,1.023-0.311,1.617-0.311c0.595,0,1.128,0.1,1.6,0.299s0.873,0.486,1.203,0.86
				c0.329,0.375,0.579,0.826,0.75,1.355s0.257,1.123,0.257,1.782s-0.098,1.264-0.293,1.813c-0.195,0.549-0.47,1.021-0.824,1.416
				s-0.779,0.704-1.275,0.928c-0.497,0.224-1.047,0.336-1.648,0.336c-1.196,0-2.114-0.37-2.753-1.111
				C466.608,90.104,466.289,89.042,466.289,87.658z M470.196,84.203c-1.669,0-2.503,1.119-2.503,3.357s0.794,3.357,2.381,3.357
				c0.813,0,1.444-0.284,1.893-0.854c0.447-0.569,0.671-1.424,0.671-2.563C472.638,85.302,471.824,84.203,470.196,84.203z"/>
			<path fill="#EB5E4E" d="M475.263,91.834v-0.732l1.038-0.244v-6.593l-1.038-0.244v-0.672l2.259-0.061h1.404
				c0.797,0,1.435,0.179,1.91,0.537c0.477,0.357,0.715,0.891,0.715,1.599c0,1.051-0.529,1.71-1.588,1.979
				c0.635,0.146,1.109,0.391,1.423,0.732s0.47,0.761,0.47,1.258c0,1.628-1.037,2.441-3.113,2.441H475.263z M477.521,84.265v2.686
				h0.916c0.569,0,1.017-0.116,1.343-0.348c0.325-0.232,0.488-0.567,0.488-1.008c0-0.447-0.13-0.781-0.391-1.001
				s-0.599-0.329-1.014-0.329H477.521z M477.521,87.866v2.991h1.282c1.18,0,1.77-0.468,1.77-1.404c0-0.586-0.177-0.997-0.53-1.233
				c-0.354-0.235-0.89-0.354-1.605-0.354H477.521z"/>
			<path fill="#EB5E4E" d="M486.312,91.102v0.732h-3.357v-0.732l1.038-0.244v-6.593l-1.038-0.244v-0.672l3.357-0.061v0.732
				l-1.038,0.244v6.593L486.312,91.102z"/>
			<path fill="#EB5E4E" d="M489.547,84.265v6.593h2.503l0.244-1.404h0.854v2.381h-5.921v-0.732l1.037-0.244v-6.593l-1.037-0.244
				v-0.672l3.357-0.061v0.732L489.547,84.265z"/>
		</g>
	</g>
	<g>
		<path fill="#2E3F51" d="M18.76,38.677v8.945h10.82v5.892H18.76v10.338h9.48l1.232-4.446H34.4v10.712H6.44v-4.66l4.018-1.339
			V38.677L6.44,37.07v-4.446l12.32-0.268h14.998v10.338h-4.981l-1.339-4.017H18.76z"/>
		<path fill="#2E3F51" d="M51.112,38.677v25.175h8.195l1.179-6.053h5.088v12.319H38.792v-4.66l4.018-1.339V38.677l-4.018-1.607
			v-4.446l16.337-0.268v4.714L51.112,38.677z"/>
		<path fill="#2E3F51" d="M73.501,70.118v-4.66l4.392-1.339V38.677h-5.088l-1.339,5.088h-4.928V32.517l31.066-0.161v11.409h-4.981
			l-1.339-5.088h-5.088v25.442l4.446,1.339v4.66H73.501z"/>
		<path fill="#2E3F51" d="M116.351,65.458v4.66h-16.337v-4.66l4.018-1.339V38.677l-4.018-1.607v-4.446l16.337-0.268v4.714
			l-4.017,1.607v25.442L116.351,65.458z"/>
		<path fill="#2E3F51" d="M133.491,38.677v8.945h10.82v5.892h-10.82v10.338h9.48l1.232-4.446h4.928v10.712h-27.96v-4.66l4.018-1.339
			V38.677l-4.018-1.607v-4.446l12.32-0.268h14.998v10.338h-4.981l-1.339-4.017H133.491z"/>
		<path fill="#2E3F51" d="M160.487,58.495l0.803,4.499c1.428,0.75,3.178,1.125,5.25,1.125c1.821,0,3.356-0.384,4.606-1.151
			c1.25-0.768,1.875-1.83,1.875-3.188c0-0.964-0.447-1.803-1.339-2.517c-0.893-0.714-2.009-1.267-3.348-1.661
			c-1.339-0.393-2.795-0.919-4.366-1.58c-1.572-0.66-3.026-1.374-4.365-2.143c-1.339-0.768-2.456-1.91-3.348-3.428
			c-0.893-1.517-1.339-3.312-1.339-5.383c0-3.606,1.259-6.401,3.776-8.383s5.793-2.973,9.829-2.973c1.785,0,3.66,0.179,5.624,0.536
			c1.963,0.357,3.481,0.715,4.553,1.071l1.607,0.536l-0.268,9.749h-4.928l-1.339-4.553c-1.607-0.536-3.179-0.804-4.713-0.804
			c-1.821,0-3.223,0.357-4.205,1.071c-0.982,0.715-1.473,1.625-1.473,2.732c0,0.964,0.446,1.803,1.339,2.517
			c0.892,0.715,2.009,1.277,3.348,1.688c1.339,0.411,2.785,0.938,4.339,1.58c1.553,0.643,3,1.339,4.338,2.089
			c1.339,0.75,2.455,1.857,3.348,3.321c0.892,1.465,1.339,3.179,1.339,5.142c0,3.893-1.349,6.937-4.044,9.133
			c-2.696,2.196-6.169,3.294-10.418,3.294c-1.786,0-3.678-0.17-5.678-0.509c-2-0.339-3.553-0.688-4.66-1.045l-1.607-0.481V58.495
			H160.487z"/>
		<path fill="#2E3F51" d="M204.783,31.713c5.356,0,9.508,1.67,12.454,5.008c2.946,3.339,4.419,8.007,4.419,14.007
			c0,6.035-1.652,10.892-4.955,14.569c-3.303,3.678-7.633,5.517-12.989,5.517c-5.356,0-9.463-1.642-12.32-4.928
			c-2.857-3.285-4.285-8.07-4.285-14.355c0-6.141,1.58-10.98,4.741-14.516C195.008,33.481,199.319,31.713,204.783,31.713z
			 M204.515,38.409c-2.785,0-4.893,0.991-6.32,2.973c-1.429,1.982-2.143,5.276-2.143,9.883c0,4.392,0.651,7.632,1.955,9.722
			c1.303,2.088,3.294,3.133,5.972,3.133c2.82,0,4.972-1.026,6.455-3.08c1.481-2.053,2.223-5.4,2.223-10.043
			c0-4.356-0.679-7.543-2.036-9.561C209.264,39.418,207.229,38.409,204.515,38.409z"/>
		<path fill="#2E3F51" d="M241.848,65.458v4.66h-15.266v-4.66l4.017-1.339V38.677l-4.017-1.607v-4.446l13.819-0.268l8.034,17.837
			l8.41-17.569l12.855-0.268v4.714l-3.857,1.607v25.442l4.018,1.339v4.66h-15.962v-4.66l4.178-1.339v-20.3
			c-0.643,1.679-1.384,3.419-2.223,5.222c-0.839,1.804-1.786,3.768-2.839,5.892c-1.054,2.125-1.866,3.794-2.437,5.008l-5.785,0.268
			l-6.16-12.694l-0.911-2.786v19.39L241.848,65.458z"/>
		<path fill="#2E3F51" d="M286.841,38.677v8.945h10.819v5.892h-10.819v10.338h9.48l1.232-4.446h4.928v10.712h-27.96v-4.66
			l4.017-1.339V38.677l-4.017-1.607v-4.446l12.319-0.268h14.997v10.338h-4.98l-1.34-4.017H286.841z"/>
		<path fill="#2E3F51" d="M312.658,70.118v-4.66l4.392-1.339V38.677h-5.088l-1.339,5.088h-4.929V32.517l31.067-0.161v11.409h-4.981
			l-1.339-5.088h-5.089v25.442l4.445,1.339v4.66H312.658z"/>
		<path fill="#2E3F51" d="M355.615,65.458v4.66h-16.176v-4.66l4.018-1.339V38.677l-4.018-1.607v-4.446l12.319-0.268h4.071
			c4.463,0,7.9,0.92,10.311,2.759c2.41,1.839,3.615,4.562,3.615,8.168c0,4.75-2.018,8.124-6.053,10.123
			c0.893,1.036,1.643,2.196,2.25,3.482l3.589,7.338l3.643,1.231v4.66h-9.909l-4.5-9.909c-0.964-2.143-1.723-3.499-2.276-4.071
			c-0.554-0.571-1.509-0.857-2.865-0.857h-1.875v8.838L355.615,65.458z M351.759,38.677v10.98h3.054
			c2.106,0,3.749-0.491,4.928-1.473c1.178-0.982,1.768-2.365,1.768-4.151c0-1.606-0.482-2.9-1.446-3.883
			c-0.965-0.981-2.269-1.473-3.91-1.473H351.759z"/>
		<path fill="#2E3F51" d="M394.342,31.713c5.356,0,9.507,1.67,12.453,5.008c2.946,3.339,4.419,8.007,4.419,14.007
			c0,6.035-1.652,10.892-4.954,14.569c-3.304,3.678-7.633,5.517-12.989,5.517s-9.463-1.642-12.319-4.928
			c-2.857-3.285-4.285-8.07-4.285-14.355c0-6.141,1.58-10.98,4.74-14.516S388.878,31.713,394.342,31.713z M394.073,38.409
			c-2.785,0-4.893,0.991-6.32,2.973c-1.429,1.982-2.143,5.276-2.143,9.883c0,4.392,0.651,7.632,1.955,9.722
			c1.304,2.088,3.295,3.133,5.973,3.133c2.82,0,4.972-1.026,6.454-3.08c1.481-2.053,2.223-5.4,2.223-10.043
			c0-4.356-0.679-7.543-2.035-9.561C398.822,39.418,396.787,38.409,394.073,38.409z"/>
		<path fill="#2E3F51" d="M417.641,65.94c0-1.464,0.455-2.633,1.366-3.509c0.91-0.875,1.99-1.312,3.24-1.312
			c1.464,0,2.579,0.42,3.348,1.258c0.768,0.84,1.151,2.027,1.151,3.562c0,1.5-0.446,2.688-1.339,3.562
			c-0.893,0.875-1.981,1.312-3.268,1.312c-1.464,0-2.58-0.42-3.348-1.259S417.641,67.512,417.641,65.94z"/>
		<path fill="#2E3F51" d="M445.493,38.677v8.945h10.819v5.892h-10.819v10.338h9.48l1.232-4.446h4.928v10.712h-27.96v-4.66
			l4.017-1.339V38.677l-4.017-1.607v-4.446l12.319-0.268h14.997v10.338h-4.98l-1.34-4.017H445.493z"/>
		<path fill="#2E3F51" d="M472.488,58.495l0.804,4.499c1.428,0.75,3.178,1.125,5.249,1.125c1.821,0,3.356-0.384,4.606-1.151
			s1.875-1.83,1.875-3.188c0-0.964-0.447-1.803-1.339-2.517c-0.894-0.714-2.009-1.267-3.348-1.661
			c-1.339-0.393-2.795-0.919-4.365-1.58c-1.572-0.66-3.026-1.374-4.366-2.143c-1.339-0.768-2.455-1.91-3.348-3.428
			c-0.893-1.517-1.339-3.312-1.339-5.383c0-3.606,1.259-6.401,3.776-8.383s5.793-2.973,9.829-2.973c1.785,0,3.659,0.179,5.624,0.536
			c1.963,0.357,3.481,0.715,4.553,1.071l1.606,0.536l-0.268,9.749h-4.928l-1.339-4.553c-1.607-0.536-3.179-0.804-4.714-0.804
			c-1.821,0-3.223,0.357-4.204,1.071c-0.982,0.715-1.474,1.625-1.474,2.732c0,0.964,0.446,1.803,1.34,2.517
			c0.892,0.715,2.008,1.277,3.348,1.688c1.339,0.411,2.785,0.938,4.338,1.58c1.554,0.643,3,1.339,4.339,2.089
			s2.455,1.857,3.348,3.321c0.893,1.465,1.339,3.179,1.339,5.142c0,3.893-1.348,6.937-4.044,9.133s-6.169,3.294-10.418,3.294
			c-1.786,0-3.678-0.17-5.678-0.509s-3.554-0.688-4.66-1.045l-1.606-0.481V58.495H472.488z"/>
	</g>
	<g>
		<line fill="#20B4B0" x1="8.633" y1="15.141" x2="491.026" y2="15.141"/>
		<rect x="8.633" y="11.478" fill="#20B4B0" width="482.393" height="7.327"/>
	</g>
	<g>
		<line fill="#20B4B0" x1="8.633" y1="110.399" x2="491.026" y2="110.399"/>
		<rect x="8.633" y="106.734" fill="#20B4B0" width="482.393" height="7.328"/>
	</g>
	<rect x="2.305" y="11.478" fill="#007080" width="6.328" height="7.327"/>
	<rect x="2.305" y="106.734" fill="#007080" width="6.328" height="7.328"/>
	<rect x="491.026" y="11.478" fill="#007080" width="6.327" height="7.327"/>
	<rect x="491.026" y="106.734" fill="#007080" width="6.327" height="7.328"/>
	<path opacity="0.4" fill="#007080" d="M478.418,14.981c0,0.867-0.704,1.57-1.57,1.57H7.039c-0.868,0-1.57-0.704-1.57-1.57l0,0
		c0-0.867,0.702-1.571,1.57-1.571h469.809C477.714,13.41,478.418,14.114,478.418,14.981L478.418,14.981z"/>
	<path opacity="0.4" fill="#007080" d="M493.05,111.969H243.206c-0.867,0-1.571-0.704-1.571-1.569l0,0
		c0-0.869,0.704-1.572,1.571-1.572H493.05"/>
	<g>
		<rect x="12.164" y="5.037" opacity="0.4" fill="#F29598" width="2.097" height="6.441"/>
		<rect x="17.481" y="5.037" opacity="0.4" fill="#F29598" width="2.096" height="6.441"/>
		<rect x="22.8" y="5.037" opacity="0.4" fill="#F29598" width="2.095" height="6.441"/>
		<rect x="28.119" y="5.037" opacity="0.4" fill="#F29598" width="2.095" height="6.441"/>
		<rect x="33.437" y="5.037" opacity="0.4" fill="#F29598" width="2.095" height="6.441"/>
		<rect x="38.754" y="5.037" opacity="0.4" fill="#F29598" width="2.096" height="6.441"/>
		<rect x="44.073" y="5.037" opacity="0.4" fill="#F29598" width="2.095" height="6.441"/>
		<rect x="49.393" y="5.037" opacity="0.4" fill="#F29598" width="2.094" height="6.441"/>
		<rect x="54.71" y="5.037" opacity="0.4" fill="#F29598" width="2.096" height="6.441"/>
		<rect x="60.027" y="5.037" opacity="0.4" fill="#F29598" width="2.096" height="6.441"/>
		<rect x="65.346" y="5.037" opacity="0.4" fill="#F29598" width="2.095" height="6.441"/>
		<rect x="70.665" y="5.037" opacity="0.4" fill="#F29598" width="2.095" height="6.441"/>
		<rect x="75.982" y="5.037" opacity="0.4" fill="#F29598" width="2.097" height="6.441"/>
		<rect x="81.301" y="5.037" opacity="0.4" fill="#F29598" width="2.096" height="6.441"/>
		<rect x="86.619" y="5.037" opacity="0.4" fill="#F29598" width="2.095" height="6.441"/>
		<rect x="91.938" y="5.037" opacity="0.4" fill="#F29598" width="2.095" height="6.441"/>
		<rect x="97.256" y="5.037" opacity="0.4" fill="#F29598" width="2.096" height="6.441"/>
		<rect x="102.573" y="5.037" opacity="0.4" fill="#F29598" width="2.096" height="6.441"/>
		<rect x="107.892" y="5.037" opacity="0.4" fill="#F29598" width="2.095" height="6.441"/>
		<rect x="113.211" y="5.037" opacity="0.4" fill="#F29598" width="2.094" height="6.441"/>
		<rect x="118.53" y="5.037" opacity="0.4" fill="#F29598" width="2.095" height="6.441"/>
		<rect x="123.847" y="5.037" opacity="0.4" fill="#F29598" width="2.096" height="6.441"/>
		<rect x="129.166" y="5.037" opacity="0.4" fill="#F29598" width="2.094" height="6.441"/>
		<rect x="134.485" y="5.037" opacity="0.4" fill="#F29598" width="2.094" height="6.441"/>
		<rect x="139.803" y="5.037" opacity="0.4" fill="#F29598" width="2.095" height="6.441"/>
		<rect x="145.12" y="5.037" opacity="0.4" fill="#F29598" width="2.096" height="6.441"/>
		<rect x="150.439" y="5.037" opacity="0.4" fill="#F29598" width="2.094" height="6.441"/>
		<rect x="155.757" y="5.037" opacity="0.4" fill="#F29598" width="2.094" height="6.441"/>
		<rect x="161.075" y="5.037" opacity="0.4" fill="#F29598" width="2.096" height="6.441"/>
		<rect x="166.394" y="5.037" opacity="0.4" fill="#F29598" width="2.096" height="6.441"/>
		<rect x="171.712" y="5.037" opacity="0.4" fill="#F29598" width="2.094" height="6.441"/>
		<rect x="177.03" y="5.037" opacity="0.4" fill="#F29598" width="2.095" height="6.441"/>
		<rect x="182.349" y="5.037" opacity="0.4" fill="#F29598" width="2.096" height="6.441"/>
		<rect x="187.666" y="5.037" opacity="0.4" fill="#F29598" width="2.097" height="6.441"/>
		<rect x="192.985" y="5.037" opacity="0.4" fill="#F29598" width="2.095" height="6.441"/>
		<rect x="198.304" y="5.037" opacity="0.4" fill="#F29598" width="2.094" height="6.441"/>
		<rect x="203.622" y="5.037" opacity="0.4" fill="#F29598" width="2.095" height="6.441"/>
		<rect x="208.939" y="5.037" opacity="0.4" fill="#F29598" width="2.096" height="6.441"/>
		<rect x="214.258" y="5.037" opacity="0.4" fill="#F29598" width="2.094" height="6.441"/>
		<rect x="219.577" y="5.037" opacity="0.4" fill="#F29598" width="2.095" height="6.441"/>
		<rect x="224.895" y="5.037" opacity="0.4" fill="#F29598" width="2.095" height="6.441"/>
		<rect x="230.212" y="5.037" opacity="0.4" fill="#F29598" width="2.096" height="6.441"/>
		<rect x="235.531" y="5.037" opacity="0.4" fill="#F29598" width="2.094" height="6.441"/>
		<rect x="240.85" y="5.037" opacity="0.4" fill="#F29598" width="2.095" height="6.441"/>
		<rect x="246.167" y="5.037" opacity="0.4" fill="#F29598" width="2.095" height="6.441"/>
		<rect x="251.485" y="5.037" opacity="0.4" fill="#F29598" width="2.095" height="6.441"/>
		<rect x="256.804" y="5.037" opacity="0.4" fill="#F29598" width="2.095" height="6.441"/>
		<rect x="262.121" y="5.037" opacity="0.4" fill="#F29598" width="2.096" height="6.441"/>
		<rect x="267.438" y="5.037" opacity="0.4" fill="#F29598" width="2.097" height="6.441"/>
		<rect x="272.757" y="5.037" opacity="0.4" fill="#F29598" width="2.095" height="6.441"/>
		<rect x="278.073" y="5.037" opacity="0.4" fill="#F29598" width="2.097" height="6.441"/>
		<rect x="283.392" y="5.037" opacity="0.4" fill="#F29598" width="2.097" height="6.441"/>
		<rect x="288.71" y="5.037" opacity="0.4" fill="#F29598" width="2.095" height="6.441"/>
		<rect x="294.028" y="5.037" opacity="0.4" fill="#F29598" width="2.095" height="6.441"/>
		<rect x="299.345" y="5.037" opacity="0.4" fill="#F29598" width="2.097" height="6.441"/>
		<rect x="304.662" y="5.037" opacity="0.4" fill="#F29598" width="2.096" height="6.441"/>
		<rect x="309.98" y="5.037" opacity="0.4" fill="#F29598" width="2.095" height="6.441"/>
		<rect x="315.298" y="5.037" opacity="0.4" fill="#F29598" width="2.096" height="6.441"/>
		<rect x="320.616" y="5.037" opacity="0.4" fill="#F29598" width="2.095" height="6.441"/>
		<rect x="325.934" y="5.037" opacity="0.4" fill="#F29598" width="2.096" height="6.441"/>
		<rect x="331.251" y="5.037" opacity="0.4" fill="#F29598" width="2.096" height="6.441"/>
		<rect x="336.569" y="5.037" opacity="0.4" fill="#F29598" width="2.096" height="6.441"/>
		<rect x="341.887" y="5.037" opacity="0.4" fill="#F29598" width="2.097" height="6.441"/>
		<rect x="347.205" y="5.037" opacity="0.4" fill="#F29598" width="2.097" height="6.441"/>
		<rect x="352.522" y="5.037" opacity="0.4" fill="#F29598" width="2.097" height="6.441"/>
		<rect x="357.841" y="5.037" opacity="0.4" fill="#F29598" width="2.096" height="6.441"/>
		<rect x="363.157" y="5.037" opacity="0.4" fill="#F29598" width="2.098" height="6.441"/>
		<rect x="368.476" y="5.037" opacity="0.4" fill="#F29598" width="2.098" height="6.441"/>
		<rect x="373.794" y="5.037" opacity="0.4" fill="#F29598" width="2.095" height="6.441"/>
		<rect x="379.113" y="5.037" opacity="0.4" fill="#F29598" width="2.094" height="6.441"/>
		<rect x="384.429" y="5.037" opacity="0.4" fill="#F29598" width="2.097" height="6.441"/>
		<rect x="389.747" y="5.037" opacity="0.4" fill="#F29598" width="2.095" height="6.441"/>
		<rect x="395.065" y="5.037" opacity="0.4" fill="#F29598" width="2.095" height="6.441"/>
		<rect x="400.383" y="5.037" opacity="0.4" fill="#F29598" width="2.096" height="6.441"/>
		<rect x="405.7" y="5.037" opacity="0.4" fill="#F29598" width="2.097" height="6.441"/>
		<rect x="411.019" y="5.037" opacity="0.4" fill="#F29598" width="2.095" height="6.441"/>
		<rect x="416.337" y="5.037" opacity="0.4" fill="#F29598" width="2.095" height="6.441"/>
		<rect x="421.654" y="5.037" opacity="0.4" fill="#F29598" width="2.096" height="6.441"/>
		<rect x="426.971" y="5.037" opacity="0.4" fill="#F29598" width="2.097" height="6.441"/>
		<rect x="432.289" y="5.037" opacity="0.4" fill="#F29598" width="2.095" height="6.441"/>
		<rect x="437.606" y="5.037" opacity="0.4" fill="#F29598" width="2.096" height="6.441"/>
		<rect x="442.924" y="5.037" opacity="0.4" fill="#F29598" width="2.096" height="6.441"/>
		<rect x="448.242" y="5.037" opacity="0.4" fill="#F29598" width="2.095" height="6.441"/>
		<rect x="453.56" y="5.037" opacity="0.4" fill="#F29598" width="2.096" height="6.441"/>
		<rect x="458.878" y="5.037" opacity="0.4" fill="#F29598" width="2.095" height="6.441"/>
		<rect x="464.195" y="5.037" opacity="0.4" fill="#F29598" width="2.096" height="6.441"/>
		<rect x="469.514" y="5.037" opacity="0.4" fill="#F29598" width="2.095" height="6.441"/>
		<rect x="474.831" y="5.037" opacity="0.4" fill="#F29598" width="2.096" height="6.441"/>
		<rect x="480.149" y="5.037" opacity="0.4" fill="#F29598" width="2.096" height="6.441"/>
		<rect x="485.467" y="5.037" opacity="0.4" fill="#F29598" width="2.097" height="6.441"/>
	</g>
	<g>
		<rect x="12.164" y="114.062" opacity="0.4" fill="#F29598" width="2.097" height="6.439"/>
		<rect x="17.481" y="114.062" opacity="0.4" fill="#F29598" width="2.096" height="6.439"/>
		<rect x="22.8" y="114.062" opacity="0.4" fill="#F29598" width="2.095" height="6.439"/>
		<rect x="28.119" y="114.062" opacity="0.4" fill="#F29598" width="2.095" height="6.439"/>
		<rect x="33.437" y="114.062" opacity="0.4" fill="#F29598" width="2.095" height="6.439"/>
		<rect x="38.754" y="114.062" opacity="0.4" fill="#F29598" width="2.096" height="6.439"/>
		<rect x="44.073" y="114.062" opacity="0.4" fill="#F29598" width="2.095" height="6.439"/>
		<rect x="49.393" y="114.062" opacity="0.4" fill="#F29598" width="2.094" height="6.439"/>
		<rect x="54.71" y="114.062" opacity="0.4" fill="#F29598" width="2.096" height="6.439"/>
		<rect x="60.027" y="114.062" opacity="0.4" fill="#F29598" width="2.096" height="6.439"/>
		<rect x="65.346" y="114.062" opacity="0.4" fill="#F29598" width="2.095" height="6.439"/>
		<rect x="70.665" y="114.062" opacity="0.4" fill="#F29598" width="2.095" height="6.439"/>
		<rect x="75.982" y="114.062" opacity="0.4" fill="#F29598" width="2.097" height="6.439"/>
		<rect x="81.301" y="114.062" opacity="0.4" fill="#F29598" width="2.096" height="6.439"/>
		<rect x="86.619" y="114.062" opacity="0.4" fill="#F29598" width="2.095" height="6.439"/>
		<rect x="91.938" y="114.062" opacity="0.4" fill="#F29598" width="2.095" height="6.439"/>
		<rect x="97.256" y="114.062" opacity="0.4" fill="#F29598" width="2.096" height="6.439"/>
		<rect x="102.573" y="114.062" opacity="0.4" fill="#F29598" width="2.096" height="6.439"/>
		<rect x="107.892" y="114.062" opacity="0.4" fill="#F29598" width="2.095" height="6.439"/>
		<rect x="113.211" y="114.062" opacity="0.4" fill="#F29598" width="2.094" height="6.439"/>
		<rect x="118.53" y="114.062" opacity="0.4" fill="#F29598" width="2.095" height="6.439"/>
		<rect x="123.847" y="114.062" opacity="0.4" fill="#F29598" width="2.096" height="6.439"/>
		<rect x="129.166" y="114.062" opacity="0.4" fill="#F29598" width="2.094" height="6.439"/>
		<rect x="134.485" y="114.062" opacity="0.4" fill="#F29598" width="2.094" height="6.439"/>
		<rect x="139.803" y="114.062" opacity="0.4" fill="#F29598" width="2.095" height="6.439"/>
		<rect x="145.12" y="114.062" opacity="0.4" fill="#F29598" width="2.096" height="6.439"/>
		<rect x="150.439" y="114.062" opacity="0.4" fill="#F29598" width="2.094" height="6.439"/>
		<rect x="155.757" y="114.062" opacity="0.4" fill="#F29598" width="2.094" height="6.439"/>
		<rect x="161.075" y="114.062" opacity="0.4" fill="#F29598" width="2.096" height="6.439"/>
		<rect x="166.394" y="114.062" opacity="0.4" fill="#F29598" width="2.096" height="6.439"/>
		<rect x="171.712" y="114.062" opacity="0.4" fill="#F29598" width="2.094" height="6.439"/>
		<rect x="177.03" y="114.062" opacity="0.4" fill="#F29598" width="2.095" height="6.439"/>
		<rect x="182.349" y="114.062" opacity="0.4" fill="#F29598" width="2.096" height="6.439"/>
		<rect x="187.666" y="114.062" opacity="0.4" fill="#F29598" width="2.097" height="6.439"/>
		<rect x="192.985" y="114.062" opacity="0.4" fill="#F29598" width="2.095" height="6.439"/>
		<rect x="198.304" y="114.062" opacity="0.4" fill="#F29598" width="2.094" height="6.439"/>
		<rect x="203.622" y="114.062" opacity="0.4" fill="#F29598" width="2.095" height="6.439"/>
		<rect x="208.939" y="114.062" opacity="0.4" fill="#F29598" width="2.096" height="6.439"/>
		<rect x="214.258" y="114.062" opacity="0.4" fill="#F29598" width="2.094" height="6.439"/>
		<rect x="219.577" y="114.062" opacity="0.4" fill="#F29598" width="2.095" height="6.439"/>
		<rect x="224.895" y="114.062" opacity="0.4" fill="#F29598" width="2.095" height="6.439"/>
		<rect x="230.212" y="114.062" opacity="0.4" fill="#F29598" width="2.096" height="6.439"/>
		<rect x="235.531" y="114.062" opacity="0.4" fill="#F29598" width="2.094" height="6.439"/>
		<rect x="240.85" y="114.062" opacity="0.4" fill="#F29598" width="2.095" height="6.439"/>
		<rect x="246.167" y="114.062" opacity="0.4" fill="#F29598" width="2.095" height="6.439"/>
		<rect x="251.485" y="114.062" opacity="0.4" fill="#F29598" width="2.095" height="6.439"/>
		<rect x="256.804" y="114.062" opacity="0.4" fill="#F29598" width="2.095" height="6.439"/>
		<rect x="262.121" y="114.062" opacity="0.4" fill="#F29598" width="2.096" height="6.439"/>
		<rect x="267.438" y="114.062" opacity="0.4" fill="#F29598" width="2.097" height="6.439"/>
		<rect x="272.757" y="114.062" opacity="0.4" fill="#F29598" width="2.095" height="6.439"/>
		<rect x="278.073" y="114.062" opacity="0.4" fill="#F29598" width="2.097" height="6.439"/>
		<rect x="283.392" y="114.062" opacity="0.4" fill="#F29598" width="2.097" height="6.439"/>
		<rect x="288.71" y="114.062" opacity="0.4" fill="#F29598" width="2.095" height="6.439"/>
		<rect x="294.028" y="114.062" opacity="0.4" fill="#F29598" width="2.095" height="6.439"/>
		<rect x="299.345" y="114.062" opacity="0.4" fill="#F29598" width="2.097" height="6.439"/>
		<rect x="304.662" y="114.062" opacity="0.4" fill="#F29598" width="2.096" height="6.439"/>
		<rect x="309.98" y="114.062" opacity="0.4" fill="#F29598" width="2.095" height="6.439"/>
		<rect x="315.298" y="114.062" opacity="0.4" fill="#F29598" width="2.096" height="6.439"/>
		<rect x="320.616" y="114.062" opacity="0.4" fill="#F29598" width="2.095" height="6.439"/>
		<rect x="325.934" y="114.062" opacity="0.4" fill="#F29598" width="2.096" height="6.439"/>
		<rect x="331.251" y="114.062" opacity="0.4" fill="#F29598" width="2.096" height="6.439"/>
		<rect x="336.569" y="114.062" opacity="0.4" fill="#F29598" width="2.096" height="6.439"/>
		<rect x="341.887" y="114.062" opacity="0.4" fill="#F29598" width="2.097" height="6.439"/>
		<rect x="347.205" y="114.062" opacity="0.4" fill="#F29598" width="2.097" height="6.439"/>
		<rect x="352.522" y="114.062" opacity="0.4" fill="#F29598" width="2.097" height="6.439"/>
		<rect x="357.841" y="114.062" opacity="0.4" fill="#F29598" width="2.096" height="6.439"/>
		<rect x="363.157" y="114.062" opacity="0.4" fill="#F29598" width="2.098" height="6.439"/>
		<rect x="368.476" y="114.062" opacity="0.4" fill="#F29598" width="2.098" height="6.439"/>
		<rect x="373.794" y="114.062" opacity="0.4" fill="#F29598" width="2.095" height="6.439"/>
		<rect x="379.113" y="114.062" opacity="0.4" fill="#F29598" width="2.094" height="6.439"/>
		<rect x="384.429" y="114.062" opacity="0.4" fill="#F29598" width="2.097" height="6.439"/>
		<rect x="389.747" y="114.062" opacity="0.4" fill="#F29598" width="2.095" height="6.439"/>
		<rect x="395.065" y="114.062" opacity="0.4" fill="#F29598" width="2.095" height="6.439"/>
		<rect x="400.383" y="114.062" opacity="0.4" fill="#F29598" width="2.096" height="6.439"/>
		<rect x="405.7" y="114.062" opacity="0.4" fill="#F29598" width="2.097" height="6.439"/>
		<rect x="411.019" y="114.062" opacity="0.4" fill="#F29598" width="2.095" height="6.439"/>
		<rect x="416.337" y="114.062" opacity="0.4" fill="#F29598" width="2.095" height="6.439"/>
		<rect x="421.654" y="114.062" opacity="0.4" fill="#F29598" width="2.096" height="6.439"/>
		<rect x="426.971" y="114.062" opacity="0.4" fill="#F29598" width="2.097" height="6.439"/>
		<rect x="432.289" y="114.062" opacity="0.4" fill="#F29598" width="2.095" height="6.439"/>
		<rect x="437.606" y="114.062" opacity="0.4" fill="#F29598" width="2.096" height="6.439"/>
		<rect x="442.924" y="114.062" opacity="0.4" fill="#F29598" width="2.096" height="6.439"/>
		<rect x="448.242" y="114.062" opacity="0.4" fill="#F29598" width="2.095" height="6.439"/>
		<rect x="453.56" y="114.062" opacity="0.4" fill="#F29598" width="2.096" height="6.439"/>
		<rect x="458.878" y="114.062" opacity="0.4" fill="#F29598" width="2.095" height="6.439"/>
		<rect x="464.195" y="114.062" opacity="0.4" fill="#F29598" width="2.096" height="6.439"/>
		<rect x="469.514" y="114.062" opacity="0.4" fill="#F29598" width="2.095" height="6.439"/>
		<rect x="474.831" y="114.062" opacity="0.4" fill="#F29598" width="2.096" height="6.439"/>
		<rect x="480.149" y="114.062" opacity="0.4" fill="#F29598" width="2.096" height="6.439"/>
		<rect x="485.467" y="114.062" opacity="0.4" fill="#F29598" width="2.097" height="6.439"/>
	</g>
</g>
</svg>
