<?xml version="1.0" encoding="utf-8"?>
<!-- Generator: Adobe Illustrator 16.0.0, SVG Export Plug-In . SVG Version: 6.00 Build 0)  -->
<!DOCTYPE svg PUBLIC "-//W3C//DTD SVG 1.1//EN" "http://www.w3.org/Graphics/SVG/1.1/DTD/svg11.dtd">
<svg version="1.1" id="Capa_1" xmlns="http://www.w3.org/2000/svg" xmlns:xlink="http://www.w3.org/1999/xlink" x="0px" y="0px"
	 width="500px" height="109.39px" viewBox="0 0 500 109.39" enable-background="new 0 0 500 109.39" xml:space="preserve">
<rect y="-0.39" opacity="0" fill="#FFFFFF" stroke="#000000" stroke-width="0.4686" stroke-miterlimit="10" width="500" height="109.78"/>
<g>
	<g>
		<path fill="#2E3F51" d="M21.791,42.281v8.834h10.686v5.819H21.791v10.211h9.363l1.217-4.392h4.867v10.58H9.624v-4.603l3.967-1.322
			V42.281l-3.967-1.587v-4.391l12.167-0.265h14.812V46.25h-4.92l-1.321-3.969H21.791z"/>
		<path fill="#2E3F51" d="M53.743,42.281v24.864h8.094L63,61.167h5.024v12.167H41.576v-4.603l3.966-1.322V42.281l-3.966-1.587
			v-4.391l16.134-0.265v4.655L53.743,42.281z"/>
		<path fill="#2E3F51" d="M75.854,73.334v-4.603l4.337-1.322V42.281h-5.025l-1.322,5.026h-4.868v-11.11l30.683-0.158v11.269h-4.92
			l-1.322-5.026h-5.025v25.128l4.391,1.322v4.603H75.854z"/>
		<path fill="#2E3F51" d="M118.174,68.731v4.603H102.04v-4.603l3.968-1.322V42.281l-3.968-1.587v-4.391l16.135-0.265v4.655
			l-3.968,1.587v25.128L118.174,68.731z"/>
		<path fill="#2E3F51" d="M135.102,42.281v8.834h10.686v5.819h-10.686v10.211h9.363l1.217-4.392h4.867v10.58h-27.613v-4.603
			l3.967-1.322V42.281l-3.967-1.587v-4.391l12.166-0.265h14.812V46.25h-4.92l-1.321-3.969H135.102z"/>
		<path fill="#2E3F51" d="M161.764,61.854l0.793,4.443c1.411,0.741,3.139,1.111,5.185,1.111c1.799,0,3.314-0.378,4.549-1.138
			c1.235-0.758,1.852-1.807,1.852-3.147c0-0.952-0.441-1.78-1.323-2.486c-0.881-0.705-1.984-1.251-3.305-1.64
			c-1.323-0.389-2.76-0.908-4.312-1.561s-2.988-1.357-4.312-2.115c-1.322-0.759-2.424-1.888-3.306-3.387
			c-0.882-1.498-1.322-3.271-1.322-5.316c0-3.562,1.243-6.321,3.729-8.279c2.486-1.956,5.721-2.936,9.707-2.936
			c1.763,0,3.615,0.177,5.555,0.528c1.938,0.354,3.438,0.706,4.496,1.059l1.587,0.529l-0.264,9.627h-4.867l-1.322-4.495
			c-1.587-0.529-3.14-0.794-4.655-0.794c-1.799,0-3.184,0.353-4.152,1.059c-0.971,0.705-1.455,1.604-1.455,2.697
			c0,0.952,0.44,1.781,1.322,2.486c0.881,0.706,1.984,1.262,3.307,1.666c1.321,0.406,2.75,0.926,4.284,1.561
			c1.534,0.636,2.962,1.323,4.285,2.063c1.323,0.741,2.424,1.834,3.307,3.28c0.88,1.446,1.322,3.139,1.322,5.078
			c0,3.845-1.331,6.85-3.994,9.02c-2.663,2.168-6.093,3.253-10.29,3.253c-1.764,0-3.632-0.168-5.607-0.503
			c-1.975-0.334-3.509-0.679-4.602-1.03l-1.587-0.477V61.854H161.764z"/>
		<path fill="#2E3F51" d="M205.512,35.404c5.291,0,9.39,1.649,12.299,4.945c2.91,3.299,4.364,7.91,4.364,13.834
			c0,5.961-1.631,10.757-4.893,14.39c-3.262,3.632-7.538,5.448-12.829,5.448c-5.29,0-9.346-1.621-12.166-4.866
			c-2.822-3.245-4.233-7.97-4.233-14.178c0-6.064,1.561-10.845,4.682-14.335C195.857,37.149,200.115,35.404,205.512,35.404z
			 M205.247,42.017c-2.751,0-4.832,0.979-6.242,2.937c-1.41,1.957-2.116,5.21-2.116,9.76c0,4.338,0.643,7.539,1.932,9.602
			c1.286,2.063,3.253,3.095,5.898,3.095c2.786,0,4.911-1.014,6.375-3.042c1.463-2.027,2.195-5.333,2.195-9.919
			c0-4.302-0.67-7.45-2.01-9.443C209.937,43.014,207.927,42.017,205.247,42.017z"/>
		<path fill="#2E3F51" d="M242.118,68.731v4.603h-15.077v-4.603l3.967-1.322V42.281l-3.967-1.587v-4.391l13.648-0.265l7.935,17.616
			l8.305-17.352l12.696-0.265v4.655l-3.809,1.587v25.128l3.968,1.322v4.603h-15.765v-4.603l4.126-1.322V47.36
			c-0.636,1.657-1.367,3.377-2.194,5.157c-0.829,1.781-1.765,3.722-2.805,5.818c-1.04,2.1-1.843,3.748-2.406,4.947l-5.713,0.265
			l-6.084-12.538l-0.899-2.75v19.149L242.118,68.731z"/>
		<path fill="#2E3F51" d="M286.555,42.281v8.834h10.686v5.819h-10.686v10.211h9.363l1.217-4.392h4.866v10.58h-27.613v-4.603
			l3.968-1.322V42.281l-3.968-1.587v-4.391l12.167-0.265h14.812V46.25h-4.92l-1.322-3.969H286.555z"/>
		<path fill="#2E3F51" d="M312.053,73.334v-4.603l4.336-1.322V42.281h-5.025l-1.32,5.026h-4.868v-11.11l30.682-0.158v11.269h-4.92
			l-1.323-5.026h-5.024v25.128l4.392,1.322v4.603H312.053z"/>
		<path fill="#2E3F51" d="M354.478,68.731v4.603h-15.976v-4.603l3.968-1.322V42.281l-3.968-1.587v-4.391l12.166-0.265h4.021
			c4.408,0,7.803,0.909,10.184,2.725c2.38,1.816,3.57,4.506,3.57,8.067c0,4.69-1.993,8.023-5.979,9.998
			c0.882,1.023,1.622,2.169,2.222,3.438l3.545,7.247l3.598,1.217v4.603h-9.786l-4.444-9.786c-0.952-2.116-1.701-3.456-2.249-4.021
			c-0.547-0.563-1.49-0.846-2.83-0.846h-1.852v8.729L354.478,68.731z M350.668,42.281v10.845h3.017c2.08,0,3.703-0.484,4.865-1.455
			c1.165-0.969,1.747-2.335,1.747-4.099c0-1.588-0.477-2.865-1.429-3.836c-0.952-0.97-2.24-1.455-3.861-1.455H350.668z"/>
		<path fill="#2E3F51" d="M392.725,35.404c5.29,0,9.39,1.649,12.299,4.945c2.91,3.299,4.364,7.91,4.364,13.834
			c0,5.961-1.632,10.757-4.894,14.39c-3.263,3.632-7.537,5.448-12.828,5.448c-5.29,0-9.346-1.621-12.167-4.866
			s-4.231-7.97-4.231-14.178c0-6.064,1.561-10.845,4.682-14.335C383.069,37.149,387.328,35.404,392.725,35.404z M392.46,42.017
			c-2.751,0-4.833,0.979-6.242,2.937c-1.411,1.957-2.116,5.21-2.116,9.76c0,4.338,0.643,7.539,1.931,9.602
			c1.287,2.063,3.253,3.095,5.899,3.095c2.785,0,4.909-1.014,6.374-3.042c1.463-2.027,2.194-5.333,2.194-9.919
			c0-4.302-0.67-7.45-2.01-9.443C397.149,43.014,395.14,42.017,392.46,42.017z"/>
		<path fill="#2E3F51" d="M415.735,69.208c0-1.446,0.449-2.602,1.349-3.465c0.899-0.864,1.966-1.297,3.2-1.297
			c1.446,0,2.548,0.415,3.307,1.244s1.138,2.002,1.138,3.518c0,1.48-0.442,2.653-1.323,3.518c-0.882,0.864-1.957,1.296-3.227,1.296
			c-1.447,0-2.548-0.415-3.307-1.243S415.735,70.761,415.735,69.208z"/>
		<path fill="#2E3F51" d="M443.242,42.281v8.834h10.687v5.819h-10.687v10.211h9.363l1.218-4.392h4.867v10.58h-27.614v-4.603
			l3.968-1.322V42.281l-3.968-1.587v-4.391l12.166-0.265h14.812V46.25h-4.92l-1.321-3.969H443.242z"/>
		<path fill="#2E3F51" d="M469.904,61.854l0.793,4.443c1.411,0.741,3.14,1.111,5.186,1.111c1.799,0,3.313-0.378,4.549-1.138
			c1.234-0.758,1.852-1.807,1.852-3.147c0-0.952-0.441-1.78-1.323-2.486c-0.881-0.705-1.983-1.251-3.305-1.64
			c-1.323-0.389-2.761-0.908-4.312-1.561c-1.553-0.652-2.989-1.357-4.312-2.115c-1.321-0.759-2.424-1.888-3.306-3.387
			c-0.882-1.498-1.323-3.271-1.323-5.316c0-3.562,1.244-6.321,3.73-8.279c2.486-1.956,5.721-2.936,9.707-2.936
			c1.763,0,3.615,0.177,5.555,0.528c1.938,0.354,3.438,0.706,4.495,1.059l1.588,0.529l-0.265,9.627h-4.866l-1.323-4.495
			c-1.587-0.529-3.139-0.794-4.654-0.794c-1.8,0-3.184,0.353-4.152,1.059c-0.971,0.705-1.455,1.604-1.455,2.697
			c0,0.952,0.44,1.781,1.322,2.486c0.881,0.706,1.984,1.262,3.307,1.666c1.321,0.406,2.75,0.926,4.284,1.561
			c1.534,0.636,2.963,1.323,4.285,2.063c1.323,0.741,2.425,1.834,3.307,3.28c0.881,1.446,1.322,3.139,1.322,5.078
			c0,3.845-1.331,6.85-3.994,9.02c-2.663,2.168-6.092,3.253-10.289,3.253c-1.764,0-3.633-0.168-5.608-0.503
			c-1.974-0.334-3.509-0.679-4.601-1.03l-1.587-0.477V61.854H469.904z"/>
	</g>
	<g>
		<g>
			<line fill="#20B4B0" x1="11.789" y1="19.036" x2="488.211" y2="19.036"/>
			<rect x="11.789" y="15.418" fill="#20B4B0" width="476.422" height="7.236"/>
		</g>
		<rect x="5.539" y="15.418" fill="#007080" width="6.25" height="7.236"/>
		<rect x="488.211" y="15.418" fill="#007080" width="6.25" height="7.236"/>
		<path opacity="0.4" fill="#007080" d="M475.76,18.878c0,0.856-0.694,1.551-1.55,1.551H10.215c-0.857,0-1.551-0.694-1.551-1.551
			l0,0c0-0.856,0.694-1.551,1.551-1.551H474.21C475.065,17.327,475.76,18.021,475.76,18.878L475.76,18.878z"/>
		<g>
			<rect x="15.276" y="9.057" opacity="0.4" fill="#F29598" width="2.069" height="6.361"/>
			<rect x="20.528" y="9.057" opacity="0.4" fill="#F29598" width="2.069" height="6.361"/>
			<rect x="25.781" y="9.057" opacity="0.4" fill="#F29598" width="2.069" height="6.361"/>
			<rect x="31.033" y="9.057" opacity="0.4" fill="#F29598" width="2.069" height="6.361"/>
			<rect x="36.286" y="9.057" opacity="0.4" fill="#F29598" width="2.069" height="6.361"/>
			<rect x="41.538" y="9.057" opacity="0.4" fill="#F29598" width="2.069" height="6.361"/>
			<rect x="46.791" y="9.057" opacity="0.4" fill="#F29598" width="2.069" height="6.361"/>
			<rect x="52.043" y="9.057" opacity="0.4" fill="#F29598" width="2.069" height="6.361"/>
			<rect x="57.295" y="9.057" opacity="0.4" fill="#F29598" width="2.069" height="6.361"/>
			<rect x="62.548" y="9.057" opacity="0.4" fill="#F29598" width="2.069" height="6.361"/>
			<rect x="67.8" y="9.057" opacity="0.4" fill="#F29598" width="2.069" height="6.361"/>
			<rect x="73.053" y="9.057" opacity="0.4" fill="#F29598" width="2.069" height="6.361"/>
			<rect x="78.305" y="9.057" opacity="0.4" fill="#F29598" width="2.069" height="6.361"/>
			<rect x="83.558" y="9.057" opacity="0.4" fill="#F29598" width="2.069" height="6.361"/>
			<rect x="88.81" y="9.057" opacity="0.4" fill="#F29598" width="2.069" height="6.361"/>
			<rect x="94.062" y="9.057" opacity="0.4" fill="#F29598" width="2.069" height="6.361"/>
			<rect x="99.315" y="9.057" opacity="0.4" fill="#F29598" width="2.069" height="6.361"/>
			<rect x="104.567" y="9.057" opacity="0.4" fill="#F29598" width="2.069" height="6.361"/>
			<rect x="109.82" y="9.057" opacity="0.4" fill="#F29598" width="2.069" height="6.361"/>
			<rect x="115.072" y="9.057" opacity="0.4" fill="#F29598" width="2.069" height="6.361"/>
			<rect x="120.325" y="9.057" opacity="0.4" fill="#F29598" width="2.069" height="6.361"/>
			<rect x="125.577" y="9.057" opacity="0.4" fill="#F29598" width="2.069" height="6.361"/>
			<rect x="130.83" y="9.057" opacity="0.4" fill="#F29598" width="2.069" height="6.361"/>
			<rect x="136.082" y="9.057" opacity="0.4" fill="#F29598" width="2.069" height="6.361"/>
			<rect x="141.334" y="9.057" opacity="0.4" fill="#F29598" width="2.069" height="6.361"/>
			<rect x="146.587" y="9.057" opacity="0.4" fill="#F29598" width="2.069" height="6.361"/>
			<rect x="151.839" y="9.057" opacity="0.4" fill="#F29598" width="2.069" height="6.361"/>
			<rect x="157.092" y="9.057" opacity="0.4" fill="#F29598" width="2.069" height="6.361"/>
			<rect x="162.344" y="9.057" opacity="0.4" fill="#F29598" width="2.069" height="6.361"/>
			<rect x="167.597" y="9.057" opacity="0.4" fill="#F29598" width="2.069" height="6.361"/>
			<rect x="172.849" y="9.057" opacity="0.4" fill="#F29598" width="2.069" height="6.361"/>
			<rect x="178.102" y="9.057" opacity="0.4" fill="#F29598" width="2.069" height="6.361"/>
			<rect x="183.354" y="9.057" opacity="0.4" fill="#F29598" width="2.069" height="6.361"/>
			<rect x="188.606" y="9.057" opacity="0.4" fill="#F29598" width="2.069" height="6.361"/>
			<rect x="193.859" y="9.057" opacity="0.4" fill="#F29598" width="2.069" height="6.361"/>
			<rect x="199.111" y="9.057" opacity="0.4" fill="#F29598" width="2.069" height="6.361"/>
			<rect x="204.364" y="9.057" opacity="0.4" fill="#F29598" width="2.069" height="6.361"/>
			<rect x="209.616" y="9.057" opacity="0.4" fill="#F29598" width="2.069" height="6.361"/>
			<rect x="214.869" y="9.057" opacity="0.4" fill="#F29598" width="2.069" height="6.361"/>
			<rect x="220.121" y="9.057" opacity="0.4" fill="#F29598" width="2.069" height="6.361"/>
			<rect x="225.374" y="9.057" opacity="0.4" fill="#F29598" width="2.069" height="6.361"/>
			<rect x="230.626" y="9.057" opacity="0.4" fill="#F29598" width="2.069" height="6.361"/>
			<rect x="235.878" y="9.057" opacity="0.4" fill="#F29598" width="2.069" height="6.361"/>
			<rect x="241.131" y="9.057" opacity="0.4" fill="#F29598" width="2.069" height="6.361"/>
			<rect x="246.384" y="9.057" opacity="0.4" fill="#F29598" width="2.069" height="6.361"/>
			<rect x="251.636" y="9.057" opacity="0.4" fill="#F29598" width="2.069" height="6.361"/>
			<rect x="256.888" y="9.057" opacity="0.4" fill="#F29598" width="2.07" height="6.361"/>
			<rect x="262.14" y="9.057" opacity="0.4" fill="#F29598" width="2.07" height="6.361"/>
			<rect x="267.392" y="9.057" opacity="0.4" fill="#F29598" width="2.07" height="6.361"/>
			<rect x="272.644" y="9.057" opacity="0.4" fill="#F29598" width="2.07" height="6.361"/>
			<rect x="277.896" y="9.057" opacity="0.4" fill="#F29598" width="2.07" height="6.361"/>
			<rect x="283.147" y="9.057" opacity="0.4" fill="#F29598" width="2.07" height="6.361"/>
			<rect x="288.399" y="9.057" opacity="0.4" fill="#F29598" width="2.07" height="6.361"/>
			<rect x="293.651" y="9.057" opacity="0.4" fill="#F29598" width="2.07" height="6.361"/>
			<rect x="298.903" y="9.057" opacity="0.4" fill="#F29598" width="2.07" height="6.361"/>
			<rect x="304.155" y="9.057" opacity="0.4" fill="#F29598" width="2.07" height="6.361"/>
			<rect x="309.407" y="9.057" opacity="0.4" fill="#F29598" width="2.07" height="6.361"/>
			<rect x="314.659" y="9.057" opacity="0.4" fill="#F29598" width="2.07" height="6.361"/>
			<rect x="319.911" y="9.057" opacity="0.4" fill="#F29598" width="2.07" height="6.361"/>
			<rect x="325.163" y="9.057" opacity="0.4" fill="#F29598" width="2.07" height="6.361"/>
			<rect x="330.415" y="9.057" opacity="0.4" fill="#F29598" width="2.07" height="6.361"/>
			<rect x="335.667" y="9.057" opacity="0.4" fill="#F29598" width="2.07" height="6.361"/>
			<rect x="340.919" y="9.057" opacity="0.4" fill="#F29598" width="2.07" height="6.361"/>
			<rect x="346.171" y="9.057" opacity="0.4" fill="#F29598" width="2.07" height="6.361"/>
			<rect x="351.423" y="9.057" opacity="0.4" fill="#F29598" width="2.07" height="6.361"/>
			<rect x="356.675" y="9.057" opacity="0.4" fill="#F29598" width="2.07" height="6.361"/>
			<rect x="361.927" y="9.057" opacity="0.4" fill="#F29598" width="2.07" height="6.361"/>
			<rect x="367.179" y="9.057" opacity="0.4" fill="#F29598" width="2.07" height="6.361"/>
			<rect x="372.431" y="9.057" opacity="0.4" fill="#F29598" width="2.07" height="6.361"/>
			<rect x="377.683" y="9.057" opacity="0.4" fill="#F29598" width="2.07" height="6.361"/>
			<rect x="382.935" y="9.057" opacity="0.4" fill="#F29598" width="2.07" height="6.361"/>
			<rect x="388.187" y="9.057" opacity="0.4" fill="#F29598" width="2.07" height="6.361"/>
			<rect x="393.438" y="9.057" opacity="0.4" fill="#F29598" width="2.07" height="6.361"/>
			<rect x="398.69" y="9.057" opacity="0.4" fill="#F29598" width="2.07" height="6.361"/>
			<rect x="403.941" y="9.057" opacity="0.4" fill="#F29598" width="2.071" height="6.361"/>
			<rect x="409.193" y="9.057" opacity="0.4" fill="#F29598" width="2.071" height="6.361"/>
			<rect x="414.445" y="9.057" opacity="0.4" fill="#F29598" width="2.07" height="6.361"/>
			<rect x="419.697" y="9.057" opacity="0.4" fill="#F29598" width="2.07" height="6.361"/>
			<rect x="424.949" y="9.057" opacity="0.4" fill="#F29598" width="2.07" height="6.361"/>
			<rect x="430.201" y="9.057" opacity="0.4" fill="#F29598" width="2.07" height="6.361"/>
			<rect x="435.453" y="9.057" opacity="0.4" fill="#F29598" width="2.069" height="6.361"/>
			<rect x="440.705" y="9.057" opacity="0.4" fill="#F29598" width="2.069" height="6.361"/>
			<rect x="445.957" y="9.057" opacity="0.4" fill="#F29598" width="2.069" height="6.361"/>
			<rect x="451.209" y="9.057" opacity="0.4" fill="#F29598" width="2.069" height="6.361"/>
			<rect x="456.461" y="9.057" opacity="0.4" fill="#F29598" width="2.069" height="6.361"/>
			<rect x="461.713" y="9.057" opacity="0.4" fill="#F29598" width="2.069" height="6.361"/>
			<rect x="466.965" y="9.057" opacity="0.4" fill="#F29598" width="2.069" height="6.361"/>
			<rect x="472.217" y="9.057" opacity="0.4" fill="#F29598" width="2.069" height="6.361"/>
			<rect x="477.469" y="9.057" opacity="0.4" fill="#F29598" width="2.069" height="6.361"/>
			<rect x="482.721" y="9.057" opacity="0.4" fill="#F29598" width="2.069" height="6.361"/>
		</g>
	</g>
	<g>
		<g>
			<line fill="#20B4B0" x1="11.789" y1="90.354" x2="488.211" y2="90.354"/>
			<rect x="11.789" y="86.735" fill="#20B4B0" width="476.422" height="7.237"/>
		</g>
		<rect x="5.539" y="86.735" fill="#007080" width="6.25" height="7.237"/>
		<rect x="488.211" y="86.735" fill="#007080" width="6.25" height="7.237"/>
		<path opacity="0.4" fill="#007080" d="M490.211,91.905H243.458c-0.856,0-1.551-0.694-1.551-1.551l0,0
			c0-0.856,0.694-1.551,1.551-1.551h246.753"/>
		<g>
			<rect x="15.276" y="93.973" opacity="0.4" fill="#F29598" width="2.069" height="6.36"/>
			<rect x="20.528" y="93.973" opacity="0.4" fill="#F29598" width="2.069" height="6.36"/>
			<rect x="25.781" y="93.973" opacity="0.4" fill="#F29598" width="2.069" height="6.36"/>
			<rect x="31.033" y="93.973" opacity="0.4" fill="#F29598" width="2.069" height="6.36"/>
			<rect x="36.286" y="93.973" opacity="0.4" fill="#F29598" width="2.069" height="6.36"/>
			<rect x="41.538" y="93.973" opacity="0.4" fill="#F29598" width="2.069" height="6.36"/>
			<rect x="46.791" y="93.973" opacity="0.4" fill="#F29598" width="2.069" height="6.36"/>
			<rect x="52.043" y="93.973" opacity="0.4" fill="#F29598" width="2.069" height="6.36"/>
			<rect x="57.295" y="93.973" opacity="0.4" fill="#F29598" width="2.069" height="6.36"/>
			<rect x="62.548" y="93.973" opacity="0.4" fill="#F29598" width="2.069" height="6.36"/>
			<rect x="67.8" y="93.973" opacity="0.4" fill="#F29598" width="2.069" height="6.36"/>
			<rect x="73.053" y="93.973" opacity="0.4" fill="#F29598" width="2.069" height="6.36"/>
			<rect x="78.305" y="93.973" opacity="0.4" fill="#F29598" width="2.069" height="6.36"/>
			<rect x="83.558" y="93.973" opacity="0.4" fill="#F29598" width="2.069" height="6.36"/>
			<rect x="88.81" y="93.973" opacity="0.4" fill="#F29598" width="2.069" height="6.36"/>
			<rect x="94.062" y="93.973" opacity="0.4" fill="#F29598" width="2.069" height="6.36"/>
			<rect x="99.315" y="93.973" opacity="0.4" fill="#F29598" width="2.069" height="6.36"/>
			<rect x="104.567" y="93.973" opacity="0.4" fill="#F29598" width="2.069" height="6.36"/>
			<rect x="109.82" y="93.973" opacity="0.4" fill="#F29598" width="2.069" height="6.36"/>
			<rect x="115.072" y="93.973" opacity="0.4" fill="#F29598" width="2.069" height="6.36"/>
			<rect x="120.325" y="93.973" opacity="0.4" fill="#F29598" width="2.069" height="6.36"/>
			<rect x="125.577" y="93.973" opacity="0.4" fill="#F29598" width="2.069" height="6.36"/>
			<rect x="130.83" y="93.973" opacity="0.4" fill="#F29598" width="2.069" height="6.36"/>
			<rect x="136.082" y="93.973" opacity="0.4" fill="#F29598" width="2.069" height="6.36"/>
			<rect x="141.334" y="93.973" opacity="0.4" fill="#F29598" width="2.069" height="6.36"/>
			<rect x="146.587" y="93.973" opacity="0.4" fill="#F29598" width="2.069" height="6.36"/>
			<rect x="151.839" y="93.973" opacity="0.4" fill="#F29598" width="2.069" height="6.36"/>
			<rect x="157.092" y="93.973" opacity="0.4" fill="#F29598" width="2.069" height="6.36"/>
			<rect x="162.344" y="93.973" opacity="0.4" fill="#F29598" width="2.069" height="6.36"/>
			<rect x="167.597" y="93.973" opacity="0.4" fill="#F29598" width="2.069" height="6.36"/>
			<rect x="172.849" y="93.973" opacity="0.4" fill="#F29598" width="2.069" height="6.36"/>
			<rect x="178.102" y="93.973" opacity="0.4" fill="#F29598" width="2.069" height="6.36"/>
			<rect x="183.354" y="93.973" opacity="0.4" fill="#F29598" width="2.069" height="6.36"/>
			<rect x="188.606" y="93.973" opacity="0.4" fill="#F29598" width="2.069" height="6.36"/>
			<rect x="193.859" y="93.973" opacity="0.4" fill="#F29598" width="2.069" height="6.36"/>
			<rect x="199.111" y="93.973" opacity="0.4" fill="#F29598" width="2.069" height="6.36"/>
			<rect x="204.364" y="93.973" opacity="0.4" fill="#F29598" width="2.069" height="6.36"/>
			<rect x="209.616" y="93.973" opacity="0.4" fill="#F29598" width="2.069" height="6.36"/>
			<rect x="214.869" y="93.973" opacity="0.4" fill="#F29598" width="2.069" height="6.36"/>
			<rect x="220.121" y="93.973" opacity="0.4" fill="#F29598" width="2.069" height="6.36"/>
			<rect x="225.374" y="93.973" opacity="0.4" fill="#F29598" width="2.069" height="6.36"/>
			<rect x="230.626" y="93.973" opacity="0.4" fill="#F29598" width="2.069" height="6.36"/>
			<rect x="235.878" y="93.973" opacity="0.4" fill="#F29598" width="2.069" height="6.36"/>
			<rect x="241.131" y="93.973" opacity="0.4" fill="#F29598" width="2.069" height="6.36"/>
			<rect x="246.384" y="93.973" opacity="0.4" fill="#F29598" width="2.069" height="6.36"/>
			<rect x="251.636" y="93.973" opacity="0.4" fill="#F29598" width="2.069" height="6.36"/>
			<rect x="256.888" y="93.973" opacity="0.4" fill="#F29598" width="2.07" height="6.36"/>
			<rect x="262.14" y="93.973" opacity="0.4" fill="#F29598" width="2.07" height="6.36"/>
			<rect x="267.392" y="93.973" opacity="0.4" fill="#F29598" width="2.07" height="6.36"/>
			<rect x="272.644" y="93.973" opacity="0.4" fill="#F29598" width="2.07" height="6.36"/>
			<rect x="277.896" y="93.973" opacity="0.4" fill="#F29598" width="2.07" height="6.36"/>
			<rect x="283.147" y="93.973" opacity="0.4" fill="#F29598" width="2.07" height="6.36"/>
			<rect x="288.399" y="93.973" opacity="0.4" fill="#F29598" width="2.07" height="6.36"/>
			<rect x="293.651" y="93.973" opacity="0.4" fill="#F29598" width="2.07" height="6.36"/>
			<rect x="298.903" y="93.973" opacity="0.4" fill="#F29598" width="2.07" height="6.36"/>
			<rect x="304.155" y="93.973" opacity="0.4" fill="#F29598" width="2.07" height="6.36"/>
			<rect x="309.407" y="93.973" opacity="0.4" fill="#F29598" width="2.07" height="6.36"/>
			<rect x="314.659" y="93.973" opacity="0.4" fill="#F29598" width="2.07" height="6.36"/>
			<rect x="319.911" y="93.973" opacity="0.4" fill="#F29598" width="2.07" height="6.36"/>
			<rect x="325.163" y="93.973" opacity="0.4" fill="#F29598" width="2.07" height="6.36"/>
			<rect x="330.415" y="93.973" opacity="0.4" fill="#F29598" width="2.07" height="6.36"/>
			<rect x="335.667" y="93.973" opacity="0.4" fill="#F29598" width="2.07" height="6.36"/>
			<rect x="340.919" y="93.973" opacity="0.4" fill="#F29598" width="2.07" height="6.36"/>
			<rect x="346.171" y="93.973" opacity="0.4" fill="#F29598" width="2.07" height="6.36"/>
			<rect x="351.423" y="93.973" opacity="0.4" fill="#F29598" width="2.07" height="6.36"/>
			<rect x="356.675" y="93.973" opacity="0.4" fill="#F29598" width="2.07" height="6.36"/>
			<rect x="361.927" y="93.973" opacity="0.4" fill="#F29598" width="2.07" height="6.36"/>
			<rect x="367.179" y="93.973" opacity="0.4" fill="#F29598" width="2.07" height="6.36"/>
			<rect x="372.431" y="93.973" opacity="0.4" fill="#F29598" width="2.07" height="6.36"/>
			<rect x="377.683" y="93.973" opacity="0.4" fill="#F29598" width="2.07" height="6.36"/>
			<rect x="382.935" y="93.973" opacity="0.4" fill="#F29598" width="2.07" height="6.36"/>
			<rect x="388.187" y="93.973" opacity="0.4" fill="#F29598" width="2.07" height="6.36"/>
			<rect x="393.438" y="93.973" opacity="0.4" fill="#F29598" width="2.07" height="6.36"/>
			<rect x="398.69" y="93.973" opacity="0.4" fill="#F29598" width="2.07" height="6.36"/>
			<rect x="403.941" y="93.973" opacity="0.4" fill="#F29598" width="2.071" height="6.36"/>
			<rect x="409.193" y="93.973" opacity="0.4" fill="#F29598" width="2.071" height="6.36"/>
			<rect x="414.445" y="93.973" opacity="0.4" fill="#F29598" width="2.07" height="6.36"/>
			<rect x="419.697" y="93.973" opacity="0.4" fill="#F29598" width="2.07" height="6.36"/>
			<rect x="424.949" y="93.973" opacity="0.4" fill="#F29598" width="2.07" height="6.36"/>
			<rect x="430.201" y="93.973" opacity="0.4" fill="#F29598" width="2.07" height="6.36"/>
			<rect x="435.453" y="93.973" opacity="0.4" fill="#F29598" width="2.069" height="6.36"/>
			<rect x="440.705" y="93.973" opacity="0.4" fill="#F29598" width="2.069" height="6.36"/>
			<rect x="445.957" y="93.973" opacity="0.4" fill="#F29598" width="2.069" height="6.36"/>
			<rect x="451.209" y="93.973" opacity="0.4" fill="#F29598" width="2.069" height="6.36"/>
			<rect x="456.461" y="93.973" opacity="0.4" fill="#F29598" width="2.069" height="6.36"/>
			<rect x="461.713" y="93.973" opacity="0.4" fill="#F29598" width="2.069" height="6.36"/>
			<rect x="466.965" y="93.973" opacity="0.4" fill="#F29598" width="2.069" height="6.36"/>
			<rect x="472.217" y="93.973" opacity="0.4" fill="#F29598" width="2.069" height="6.36"/>
			<rect x="477.469" y="93.973" opacity="0.4" fill="#F29598" width="2.069" height="6.36"/>
			<rect x="482.721" y="93.973" opacity="0.4" fill="#F29598" width="2.069" height="6.36"/>
		</g>
	</g>
</g>
</svg>
