<?xml version="1.0" encoding="utf-8"?>
<!-- Generator: Adobe Illustrator 16.0.0, SVG Export Plug-In . SVG Version: 6.00 Build 0)  -->
<!DOCTYPE svg PUBLIC "-//W3C//DTD SVG 1.1//EN" "http://www.w3.org/Graphics/SVG/1.1/DTD/svg11.dtd">
<svg version="1.1" id="Capa_1" xmlns="http://www.w3.org/2000/svg" xmlns:xlink="http://www.w3.org/1999/xlink" x="0px" y="0px"
	 width="500px" height="123.026px" viewBox="0 0 500 123.026" enable-background="new 0 0 500 123.026" xml:space="preserve">
<g>
	<g>
		<path fill="#EB5E4E" d="M11.851,85.803l-0.39-1.646c-0.52-0.192-1.136-0.288-1.848-0.288c-0.981,0-1.732,0.355-2.252,1.068
			c-0.52,0.712-0.779,1.708-0.779,2.988c0,1.289,0.281,2.247,0.844,2.872c0.563,0.626,1.316,0.938,2.259,0.938
			c0.212,0,0.44-0.023,0.686-0.072c0.245-0.048,0.483-0.117,0.714-0.209c0.231-0.091,0.443-0.188,0.635-0.289
			c0.192-0.101,0.351-0.199,0.477-0.296l0.375-0.288l0.578,0.938c-0.212,0.212-0.455,0.409-0.729,0.592s-0.568,0.344-0.88,0.483
			c-0.313,0.14-0.638,0.248-0.975,0.325c-0.337,0.076-0.679,0.115-1.025,0.115c-1.473,0-2.611-0.426-3.415-1.277
			c-0.804-0.853-1.205-2.096-1.205-3.732c0-0.817,0.113-1.559,0.339-2.223s0.551-1.229,0.975-1.696s0.931-0.828,1.523-1.083
			s1.258-0.383,2-0.383c0.221,0,0.464,0.018,0.729,0.051c0.265,0.034,0.524,0.079,0.78,0.137c0.255,0.058,0.496,0.118,0.722,0.181
			s0.412,0.123,0.556,0.181l0.462,0.173l-0.072,2.44H11.851z"/>
		<path fill="#EB5E4E" d="M14.521,87.954c0-0.809,0.108-1.539,0.325-2.194c0.217-0.654,0.532-1.215,0.946-1.682
			c0.414-0.467,0.907-0.823,1.479-1.068s1.21-0.368,1.913-0.368c0.702,0,1.333,0.118,1.891,0.354
			c0.558,0.236,1.032,0.575,1.422,1.019c0.39,0.442,0.686,0.977,0.888,1.602c0.202,0.626,0.303,1.328,0.303,2.108
			c0,0.779-0.115,1.494-0.346,2.144s-0.556,1.208-0.975,1.675c-0.419,0.467-0.922,0.832-1.509,1.097s-1.237,0.397-1.949,0.397
			c-1.415,0-2.5-0.438-3.255-1.313C14.899,90.846,14.521,89.59,14.521,87.954z M19.141,83.869c-1.973,0-2.959,1.323-2.959,3.97
			s0.938,3.97,2.815,3.97c0.962,0,1.708-0.337,2.238-1.011c0.529-0.673,0.794-1.684,0.794-3.031
			C22.028,85.167,21.066,83.869,19.141,83.869z"/>
		<path fill="#EB5E4E" d="M32.711,92.891v-0.866l1.371-0.289v-7.218l-0.433,1.083l-2.237,4.547l-1.155,0.072l-2.237-4.691
			l-0.361-1.011v7.218l1.371,0.289v0.866h-3.897v-0.866l1.227-0.289v-7.795l-1.227-0.289v-0.794l3.248-0.072l2.613,5.774
			l2.729-5.702l3.032-0.072v0.866l-1.227,0.289v7.795l1.227,0.289v0.866H32.711z"/>
		<path fill="#EB5E4E" d="M37.764,92.891v-0.866l1.227-0.289v-7.795l-1.227-0.289v-0.794l2.743-0.072h1.516
			c1.068,0,1.889,0.265,2.461,0.794c0.573,0.529,0.859,1.251,0.859,2.165c0,1.107-0.339,1.949-1.018,2.526
			c-0.678,0.578-1.638,0.866-2.88,0.866h-0.938v2.599l1.227,0.289v0.866H37.764z M40.506,83.941v4.042h0.938
			c1.588,0,2.382-0.674,2.382-2.021c0-0.597-0.164-1.082-0.491-1.458c-0.327-0.375-0.789-0.562-1.386-0.562H40.506z"/>
		<path fill="#EB5E4E" d="M46.281,92.891v-0.866l1.227-0.289v-7.795l-1.227-0.289v-0.794l2.743-0.072h1.588
			c1.02,0,1.817,0.231,2.389,0.693c0.573,0.462,0.859,1.097,0.859,1.905c0,1.415-0.626,2.354-1.877,2.815
			c0.231,0.202,0.52,0.635,0.866,1.299l1.141,2.296l1.025,0.23v0.866H52.85l-1.227-2.671c-0.337-0.722-0.628-1.19-0.874-1.407
			c-0.245-0.217-0.604-0.325-1.075-0.325h-0.65v3.248l1.227,0.289v0.866H46.281z M49.024,83.941v3.465h1.083
			c0.702,0,1.251-0.159,1.646-0.477c0.395-0.318,0.592-0.736,0.592-1.256c0-0.529-0.168-0.951-0.505-1.264s-0.77-0.469-1.299-0.469
			H49.024z"/>
		<path fill="#EB5E4E" d="M64.687,83.941v4.836c0,1.415-0.298,2.479-0.895,3.19s-1.603,1.068-3.017,1.068
			c-1.415,0-2.416-0.33-3.003-0.989s-0.88-1.677-0.88-3.053v-5.053l-1.227-0.289v-0.794l4.114-0.072v0.866l-1.372,0.289v5.053
			c0,1.059,0.183,1.792,0.549,2.201c0.365,0.409,0.986,0.613,1.862,0.613c0.875,0,1.487-0.224,1.833-0.671
			c0.347-0.447,0.52-1.234,0.52-2.36v-4.836L61.8,83.652v-0.794l4.114-0.072v0.866L64.687,83.941z"/>
		<path fill="#EB5E4E" d="M73.205,83.941h-3.104v3.104h3.321V88.2h-3.321v3.536h3.321l0.289-1.443h0.938v2.599h-7.291v-0.866
			l1.227-0.289v-7.795l-1.227-0.289v-0.794l2.743-0.072h4.403v2.454h-0.938L73.205,83.941z"/>
		<path fill="#EB5E4E" d="M76.092,92.891v-0.866l1.227-0.289v-7.795l-1.227-0.289v-0.794l2.67-0.072h1.66
			c0.943,0,1.696,0.212,2.259,0.635c0.563,0.424,0.845,1.055,0.845,1.892c0,1.241-0.626,2.021-1.877,2.339
			c0.751,0.173,1.312,0.462,1.682,0.866c0.37,0.404,0.556,0.899,0.556,1.486c0,1.926-1.227,2.888-3.681,2.888H76.092z
			 M78.763,83.941v3.176h1.083c0.673,0,1.203-0.138,1.588-0.411c0.385-0.274,0.578-0.672,0.578-1.191
			c0-0.529-0.154-0.924-0.462-1.184s-0.707-0.39-1.198-0.39H78.763z M78.763,88.2v3.536h1.516c1.395,0,2.093-0.553,2.093-1.66
			c0-0.692-0.209-1.179-0.628-1.458c-0.419-0.278-1.052-0.418-1.898-0.418H78.763z"/>
		<path fill="#EB5E4E" d="M84.249,92.891v-0.877l1.184-0.278l3.292-8.878l1.444-0.072l3.205,8.95l1.198,0.278v0.877h-4.187v-0.877
			l1.343-0.278l-0.549-1.588h-3.753l-0.563,1.588l1.357,0.278v0.877H84.249z M89.33,84.648l-1.516,4.346h2.974L89.33,84.648z"/>
		<path fill="#EB5E4E" d="M100.128,89.932l0.289,1.516c0.173,0.096,0.409,0.181,0.708,0.252c0.298,0.072,0.592,0.108,0.88,0.108
			c0.289,0,0.568-0.036,0.837-0.108c0.27-0.071,0.505-0.175,0.708-0.31s0.363-0.296,0.483-0.484
			c0.121-0.188,0.181-0.401,0.181-0.642c0-0.279-0.077-0.513-0.231-0.7c-0.154-0.188-0.354-0.352-0.599-0.491
			s-0.522-0.262-0.83-0.368c-0.308-0.105-0.621-0.217-0.938-0.332c-0.337-0.145-0.662-0.291-0.975-0.44
			c-0.312-0.149-0.592-0.332-0.837-0.549c-0.246-0.216-0.44-0.479-0.585-0.786c-0.144-0.309-0.216-0.688-0.216-1.141
			c0-0.481,0.094-0.9,0.281-1.256c0.188-0.356,0.438-0.65,0.751-0.881c0.312-0.231,0.678-0.401,1.097-0.513
			c0.418-0.11,0.859-0.166,1.321-0.166c0.211,0,0.438,0.015,0.679,0.044c0.24,0.028,0.476,0.064,0.707,0.107
			c0.231,0.044,0.448,0.092,0.65,0.145c0.202,0.054,0.375,0.099,0.52,0.138l0.462,0.144l-0.072,2.455h-0.938l-0.491-1.545
			c-0.27-0.087-0.537-0.149-0.801-0.188c-0.265-0.039-0.537-0.058-0.815-0.058c-0.279,0-0.532,0.035-0.758,0.107
			c-0.227,0.072-0.419,0.171-0.578,0.296c-0.159,0.126-0.281,0.266-0.368,0.419c-0.086,0.154-0.13,0.312-0.13,0.477
			c0.01,0.404,0.145,0.722,0.404,0.953c0.26,0.23,0.582,0.428,0.967,0.592c0.385,0.163,0.801,0.317,1.249,0.462
			c0.448,0.145,0.861,0.324,1.242,0.541c0.38,0.217,0.698,0.498,0.953,0.845s0.383,0.799,0.383,1.357c0,0.5-0.096,0.942-0.289,1.328
			c-0.192,0.385-0.457,0.709-0.794,0.974c-0.337,0.266-0.736,0.468-1.198,0.606c-0.462,0.14-0.958,0.21-1.487,0.21
			c-0.212,0-0.44-0.015-0.686-0.044c-0.246-0.028-0.486-0.064-0.722-0.108c-0.236-0.043-0.455-0.091-0.657-0.144
			s-0.371-0.104-0.505-0.152l-0.404-0.144v-2.526H100.128z"/>
		<path fill="#EB5E4E" d="M111.143,92.025v0.866h-3.97v-0.866l1.227-0.289v-7.795l-1.227-0.289v-0.794l3.97-0.072v0.866
			l-1.227,0.289v7.795L111.143,92.025z"/>
		<path fill="#EB5E4E" d="M121.753,83.941h-3.104v3.104h3.321V88.2h-3.321v3.536h3.321l0.289-1.443h0.938v2.599h-7.291v-0.866
			l1.227-0.289v-7.795l-1.227-0.289v-0.794l2.743-0.072h4.403v2.454h-0.938L121.753,83.941z"/>
		<path fill="#EB5E4E" d="M126.229,89.932l0.289,1.516c0.173,0.096,0.409,0.181,0.708,0.252c0.298,0.072,0.592,0.108,0.88,0.108
			c0.289,0,0.568-0.036,0.837-0.108c0.27-0.071,0.505-0.175,0.708-0.31s0.363-0.296,0.483-0.484
			c0.121-0.188,0.181-0.401,0.181-0.642c0-0.279-0.077-0.513-0.231-0.7c-0.154-0.188-0.354-0.352-0.599-0.491
			s-0.522-0.262-0.83-0.368c-0.308-0.105-0.621-0.217-0.938-0.332c-0.337-0.145-0.662-0.291-0.975-0.44
			c-0.312-0.149-0.592-0.332-0.837-0.549c-0.246-0.216-0.44-0.479-0.585-0.786c-0.144-0.309-0.216-0.688-0.216-1.141
			c0-0.481,0.094-0.9,0.281-1.256c0.188-0.356,0.438-0.65,0.751-0.881c0.312-0.231,0.678-0.401,1.097-0.513
			c0.418-0.11,0.859-0.166,1.321-0.166c0.211,0,0.438,0.015,0.679,0.044c0.24,0.028,0.476,0.064,0.707,0.107
			c0.231,0.044,0.448,0.092,0.65,0.145c0.202,0.054,0.375,0.099,0.52,0.138l0.462,0.144l-0.072,2.455h-0.938l-0.491-1.545
			c-0.27-0.087-0.537-0.149-0.801-0.188c-0.265-0.039-0.537-0.058-0.815-0.058c-0.279,0-0.532,0.035-0.758,0.107
			c-0.227,0.072-0.419,0.171-0.578,0.296c-0.159,0.126-0.281,0.266-0.368,0.419c-0.086,0.154-0.13,0.312-0.13,0.477
			c0.01,0.404,0.145,0.722,0.404,0.953c0.26,0.23,0.582,0.428,0.967,0.592c0.385,0.163,0.801,0.317,1.249,0.462
			c0.448,0.145,0.861,0.324,1.242,0.541c0.38,0.217,0.698,0.498,0.953,0.845s0.383,0.799,0.383,1.357c0,0.5-0.096,0.942-0.289,1.328
			c-0.192,0.385-0.457,0.709-0.794,0.974c-0.337,0.266-0.736,0.468-1.198,0.606c-0.462,0.14-0.958,0.21-1.487,0.21
			c-0.212,0-0.44-0.015-0.686-0.044c-0.246-0.028-0.486-0.064-0.722-0.108c-0.236-0.043-0.455-0.091-0.657-0.144
			s-0.371-0.104-0.505-0.152l-0.404-0.144v-2.526H126.229z"/>
		<path fill="#EB5E4E" d="M138.976,92.025v0.866h-4.403v-0.866l1.443-0.289v-7.795h-1.876l-0.361,1.443h-0.938v-2.599h7.868v2.599
			h-0.938l-0.361-1.443h-1.876v7.795L138.976,92.025z"/>
		<path fill="#EB5E4E" d="M140.925,92.891v-0.877l1.184-0.278l3.292-8.878l1.444-0.072l3.205,8.95l1.198,0.278v0.877h-4.187v-0.877
			l1.343-0.278l-0.549-1.588h-3.753l-0.563,1.588l1.357,0.278v0.877H140.925z M146.006,84.648l-1.516,4.346h2.974L146.006,84.648z
			 M148.706,80.476l-2.815,1.805l-0.577-0.794l2.67-2.094L148.706,80.476z"/>
		<path fill="#EB5E4E" d="M153.484,89.932l0.289,1.516c0.173,0.096,0.409,0.181,0.708,0.252c0.298,0.072,0.592,0.108,0.88,0.108
			c0.289,0,0.568-0.036,0.837-0.108c0.27-0.071,0.505-0.175,0.708-0.31s0.363-0.296,0.483-0.484
			c0.121-0.188,0.181-0.401,0.181-0.642c0-0.279-0.077-0.513-0.231-0.7c-0.154-0.188-0.354-0.352-0.599-0.491
			s-0.522-0.262-0.83-0.368c-0.308-0.105-0.621-0.217-0.938-0.332c-0.337-0.145-0.662-0.291-0.975-0.44
			c-0.312-0.149-0.592-0.332-0.837-0.549c-0.246-0.216-0.44-0.479-0.585-0.786c-0.144-0.309-0.216-0.688-0.216-1.141
			c0-0.481,0.094-0.9,0.281-1.256c0.188-0.356,0.438-0.65,0.751-0.881c0.312-0.231,0.678-0.401,1.097-0.513
			c0.418-0.11,0.859-0.166,1.321-0.166c0.211,0,0.438,0.015,0.679,0.044c0.24,0.028,0.476,0.064,0.707,0.107
			c0.231,0.044,0.448,0.092,0.65,0.145c0.202,0.054,0.375,0.099,0.52,0.138l0.462,0.144l-0.072,2.455h-0.938l-0.491-1.545
			c-0.27-0.087-0.537-0.149-0.801-0.188c-0.265-0.039-0.537-0.058-0.815-0.058c-0.279,0-0.532,0.035-0.758,0.107
			c-0.227,0.072-0.419,0.171-0.578,0.296c-0.159,0.126-0.281,0.266-0.368,0.419c-0.086,0.154-0.13,0.312-0.13,0.477
			c0.01,0.404,0.145,0.722,0.404,0.953c0.26,0.23,0.582,0.428,0.967,0.592c0.385,0.163,0.801,0.317,1.249,0.462
			c0.448,0.145,0.861,0.324,1.242,0.541c0.38,0.217,0.698,0.498,0.953,0.845s0.383,0.799,0.383,1.357c0,0.5-0.096,0.942-0.289,1.328
			c-0.192,0.385-0.457,0.709-0.794,0.974c-0.337,0.266-0.736,0.468-1.198,0.606c-0.462,0.14-0.958,0.21-1.487,0.21
			c-0.212,0-0.44-0.015-0.686-0.044c-0.246-0.028-0.486-0.064-0.722-0.108c-0.236-0.043-0.455-0.091-0.657-0.144
			s-0.371-0.104-0.505-0.152l-0.404-0.144v-2.526H153.484z"/>
		<path fill="#EB5E4E" d="M171.429,92.891v-0.866l1.371-0.289v-7.218l-0.433,1.083l-2.237,4.547l-1.155,0.072l-2.237-4.691
			l-0.361-1.011v7.218l1.371,0.289v0.866h-3.897v-0.866l1.227-0.289v-7.795l-1.227-0.289v-0.794l3.248-0.072l2.613,5.774
			l2.729-5.702l3.032-0.072v0.866l-1.227,0.289v7.795l1.227,0.289v0.866H171.429z"/>
		<path fill="#EB5E4E" d="M175.976,92.891v-0.877l1.184-0.278l3.292-8.878l1.444-0.072l3.205,8.95l1.198,0.278v0.877h-4.187v-0.877
			l1.343-0.278l-0.549-1.588h-3.753l-0.563,1.588l1.357,0.278v0.877H175.976z M181.058,84.648l-1.516,4.346h2.974L181.058,84.648z
			 M183.757,80.476l-2.815,1.805l-0.577-0.794l2.67-2.094L183.757,80.476z"/>
		<path fill="#EB5E4E" d="M188.536,89.932l0.289,1.516c0.173,0.096,0.409,0.181,0.708,0.252c0.298,0.072,0.592,0.108,0.88,0.108
			c0.289,0,0.568-0.036,0.837-0.108c0.27-0.071,0.505-0.175,0.708-0.31s0.363-0.296,0.483-0.484
			c0.121-0.188,0.181-0.401,0.181-0.642c0-0.279-0.077-0.513-0.231-0.7c-0.154-0.188-0.354-0.352-0.599-0.491
			s-0.522-0.262-0.83-0.368c-0.308-0.105-0.621-0.217-0.938-0.332c-0.337-0.145-0.662-0.291-0.975-0.44
			c-0.312-0.149-0.592-0.332-0.837-0.549c-0.246-0.216-0.44-0.479-0.585-0.786c-0.144-0.309-0.216-0.688-0.216-1.141
			c0-0.481,0.094-0.9,0.281-1.256c0.188-0.356,0.438-0.65,0.751-0.881c0.312-0.231,0.678-0.401,1.097-0.513
			c0.418-0.11,0.859-0.166,1.321-0.166c0.211,0,0.438,0.015,0.679,0.044c0.24,0.028,0.476,0.064,0.707,0.107
			c0.231,0.044,0.448,0.092,0.65,0.145c0.202,0.054,0.375,0.099,0.52,0.138l0.462,0.144l-0.072,2.455h-0.938l-0.491-1.545
			c-0.27-0.087-0.537-0.149-0.801-0.188c-0.265-0.039-0.537-0.058-0.815-0.058c-0.279,0-0.532,0.035-0.758,0.107
			c-0.227,0.072-0.419,0.171-0.578,0.296c-0.159,0.126-0.281,0.266-0.368,0.419c-0.086,0.154-0.13,0.312-0.13,0.477
			c0.01,0.404,0.145,0.722,0.404,0.953c0.26,0.23,0.582,0.428,0.967,0.592c0.385,0.163,0.801,0.317,1.249,0.462
			c0.448,0.145,0.861,0.324,1.242,0.541c0.38,0.217,0.698,0.498,0.953,0.845s0.383,0.799,0.383,1.357c0,0.5-0.096,0.942-0.289,1.328
			c-0.192,0.385-0.457,0.709-0.794,0.974c-0.337,0.266-0.736,0.468-1.198,0.606c-0.462,0.14-0.958,0.21-1.487,0.21
			c-0.212,0-0.44-0.015-0.686-0.044c-0.246-0.028-0.486-0.064-0.722-0.108c-0.236-0.043-0.455-0.091-0.657-0.144
			s-0.371-0.104-0.505-0.152l-0.404-0.144v-2.526H188.536z"/>
		<path fill="#EB5E4E" d="M204.603,92.025v0.866H200.2v-0.866l1.443-0.289v-7.795h-1.876l-0.361,1.443h-0.938v-2.599h7.868v2.599
			h-0.938l-0.361-1.443h-1.876v7.795L204.603,92.025z"/>
		<path fill="#EB5E4E" d="M211.027,92.025v0.866h-3.97v-0.866l1.227-0.289v-7.795l-1.227-0.289v-0.794l3.97-0.072v0.866
			l-1.227,0.289v7.795L211.027,92.025z"/>
		<path fill="#EB5E4E" d="M218.317,83.941h-3.104v3.104h3.321V88.2h-3.321v3.536h3.321l0.289-1.443h0.938v2.599h-7.291v-0.866
			l1.227-0.289v-7.795l-1.227-0.289v-0.794l2.743-0.072h4.403v2.454h-0.938L218.317,83.941z"/>
		<path fill="#EB5E4E" d="M222.792,89.932l0.289,1.516c0.173,0.096,0.409,0.181,0.708,0.252c0.298,0.072,0.592,0.108,0.88,0.108
			c0.289,0,0.568-0.036,0.837-0.108c0.27-0.071,0.505-0.175,0.708-0.31s0.363-0.296,0.483-0.484
			c0.121-0.188,0.181-0.401,0.181-0.642c0-0.279-0.077-0.513-0.231-0.7c-0.154-0.188-0.354-0.352-0.599-0.491
			s-0.522-0.262-0.83-0.368c-0.308-0.105-0.621-0.217-0.938-0.332c-0.337-0.145-0.662-0.291-0.975-0.44
			c-0.312-0.149-0.592-0.332-0.837-0.549c-0.246-0.216-0.44-0.479-0.585-0.786c-0.144-0.309-0.216-0.688-0.216-1.141
			c0-0.481,0.094-0.9,0.281-1.256c0.188-0.356,0.438-0.65,0.751-0.881c0.312-0.231,0.678-0.401,1.097-0.513
			c0.418-0.11,0.859-0.166,1.321-0.166c0.211,0,0.438,0.015,0.679,0.044c0.24,0.028,0.476,0.064,0.707,0.107
			c0.231,0.044,0.448,0.092,0.65,0.145c0.202,0.054,0.375,0.099,0.52,0.138l0.462,0.144l-0.072,2.455h-0.938l-0.491-1.545
			c-0.27-0.087-0.537-0.149-0.801-0.188c-0.265-0.039-0.537-0.058-0.815-0.058c-0.279,0-0.532,0.035-0.758,0.107
			c-0.227,0.072-0.419,0.171-0.578,0.296c-0.159,0.126-0.281,0.266-0.368,0.419c-0.086,0.154-0.13,0.312-0.13,0.477
			c0.01,0.404,0.145,0.722,0.404,0.953c0.26,0.23,0.582,0.428,0.967,0.592c0.385,0.163,0.801,0.317,1.249,0.462
			c0.448,0.145,0.861,0.324,1.242,0.541c0.38,0.217,0.698,0.498,0.953,0.845s0.383,0.799,0.383,1.357c0,0.5-0.096,0.942-0.289,1.328
			c-0.192,0.385-0.457,0.709-0.794,0.974c-0.337,0.266-0.736,0.468-1.198,0.606c-0.462,0.14-0.958,0.21-1.487,0.21
			c-0.212,0-0.44-0.015-0.686-0.044c-0.246-0.028-0.486-0.064-0.722-0.108c-0.236-0.043-0.455-0.091-0.657-0.144
			s-0.371-0.104-0.505-0.152l-0.404-0.144v-2.526H222.792z"/>
		<path fill="#EB5E4E" d="M230.126,87.954c0-0.809,0.108-1.539,0.325-2.194c0.217-0.654,0.532-1.215,0.946-1.682
			c0.414-0.467,0.907-0.823,1.479-1.068s1.21-0.368,1.913-0.368c0.702,0,1.333,0.118,1.891,0.354
			c0.558,0.236,1.032,0.575,1.422,1.019c0.39,0.442,0.686,0.977,0.888,1.602c0.202,0.626,0.303,1.328,0.303,2.108
			c0,0.779-0.115,1.494-0.346,2.144s-0.556,1.208-0.975,1.675c-0.419,0.467-0.922,0.832-1.509,1.097s-1.237,0.397-1.949,0.397
			c-1.415,0-2.5-0.438-3.255-1.313C230.503,90.846,230.126,89.59,230.126,87.954z M234.746,83.869c-1.973,0-2.959,1.323-2.959,3.97
			s0.938,3.97,2.815,3.97c0.962,0,1.708-0.337,2.238-1.011c0.529-0.673,0.794-1.684,0.794-3.031
			C237.633,85.167,236.67,83.869,234.746,83.869z"/>
		<path fill="#EB5E4E" d="M254.812,93.83l0.577,0.866c-0.973,0.577-1.718,0.866-2.237,0.866c-0.376,0-1.002-0.265-1.877-0.794
			l-2.873-1.762c-1.319-0.105-2.324-0.589-3.017-1.45s-1.04-2.081-1.04-3.66c0-0.789,0.118-1.506,0.354-2.151
			c0.236-0.645,0.565-1.197,0.989-1.66c0.423-0.462,0.931-0.817,1.523-1.067c0.592-0.251,1.244-0.376,1.956-0.376
			c0.712,0,1.347,0.115,1.906,0.347c0.558,0.23,1.027,0.565,1.407,1.003c0.38,0.438,0.672,0.97,0.873,1.596
			c0.202,0.626,0.304,1.328,0.304,2.107c0,0.654-0.077,1.259-0.231,1.812c-0.153,0.554-0.373,1.052-0.656,1.494
			c-0.284,0.443-0.628,0.818-1.032,1.127c-0.404,0.308-0.862,0.539-1.372,0.692l1.559,0.938c0.645,0.385,1.15,0.577,1.516,0.577
			c0.279,0,0.659-0.125,1.141-0.375L254.812,93.83z M249.11,83.869c-1.03,0-1.817,0.327-2.36,0.981
			c-0.544,0.654-0.816,1.641-0.816,2.959c0,1.31,0.253,2.303,0.758,2.981c0.505,0.679,1.263,1.018,2.274,1.018
			c1.02,0,1.792-0.339,2.317-1.018s0.787-1.687,0.787-3.024C252.069,85.167,251.082,83.869,249.11,83.869z"/>
		<path fill="#EB5E4E" d="M263.979,83.941v4.836c0,1.415-0.299,2.479-0.896,3.19s-1.603,1.068-3.018,1.068
			c-1.414,0-2.415-0.33-3.002-0.989c-0.588-0.659-0.881-1.677-0.881-3.053v-5.053l-1.228-0.289v-0.794l4.114-0.072v0.866
			l-1.371,0.289v5.053c0,1.059,0.183,1.792,0.549,2.201c0.365,0.409,0.986,0.613,1.862,0.613c0.875,0,1.486-0.224,1.833-0.671
			s0.52-1.234,0.52-2.36v-4.836l-1.371-0.289v-0.794l4.114-0.072v0.866L263.979,83.941z"/>
		<path fill="#EB5E4E" d="M272.496,83.941h-3.104v3.104h3.32V88.2h-3.32v3.536h3.32l0.288-1.443h0.938v2.599h-7.29v-0.866
			l1.228-0.289v-7.795l-1.228-0.289v-0.794l2.743-0.072h4.402v2.454h-0.938L272.496,83.941z"/>
		<path fill="#EB5E4E" d="M281.375,83.941v7.795h2.96l0.288-1.66h1.011v2.815h-7.002v-0.866l1.228-0.289v-7.795l-1.228-0.289v-0.794
			l3.971-0.072v0.866L281.375,83.941z"/>
		<path fill="#EB5E4E" d="M285.85,92.891v-0.877l1.184-0.278l3.292-8.878l1.443-0.072l3.205,8.95l1.198,0.278v0.877h-4.187v-0.877
			l1.342-0.278l-0.548-1.588h-3.754l-0.562,1.588l1.356,0.278v0.877H285.85z M290.931,84.648l-1.516,4.346h2.975L290.931,84.648z"/>
		<path fill="#EB5E4E" d="M300.142,92.891v-0.866l1.228-0.289v-7.795l-1.228-0.289v-0.794l2.743-0.072h1.588
			c1.021,0,1.816,0.231,2.39,0.693c0.572,0.462,0.858,1.097,0.858,1.905c0,1.415-0.625,2.354-1.876,2.815
			c0.23,0.202,0.52,0.635,0.866,1.299l1.14,2.296l1.025,0.23v0.866h-2.165l-1.228-2.671c-0.337-0.722-0.628-1.19-0.873-1.407
			c-0.246-0.217-0.604-0.325-1.076-0.325h-0.649v3.248l1.228,0.289v0.866H300.142z M302.885,83.941v3.465h1.083
			c0.702,0,1.251-0.159,1.646-0.477c0.395-0.318,0.592-0.736,0.592-1.256c0-0.529-0.168-0.951-0.505-1.264s-0.771-0.469-1.3-0.469
			H302.885z"/>
		<path fill="#EB5E4E" d="M309.814,87.954c0-0.809,0.108-1.539,0.325-2.194c0.216-0.654,0.531-1.215,0.945-1.682
			c0.413-0.467,0.907-0.823,1.479-1.068s1.21-0.368,1.913-0.368c0.702,0,1.333,0.118,1.891,0.354
			c0.559,0.236,1.032,0.575,1.422,1.019c0.391,0.442,0.687,0.977,0.889,1.602c0.202,0.626,0.303,1.328,0.303,2.108
			c0,0.779-0.115,1.494-0.347,2.144c-0.23,0.649-0.556,1.208-0.975,1.675c-0.418,0.467-0.921,0.832-1.508,1.097
			c-0.588,0.265-1.237,0.397-1.949,0.397c-1.415,0-2.5-0.438-3.256-1.313C310.192,90.846,309.814,89.59,309.814,87.954z
			 M314.434,83.869c-1.973,0-2.959,1.323-2.959,3.97s0.938,3.97,2.815,3.97c0.962,0,1.708-0.337,2.237-1.011
			c0.529-0.673,0.794-1.684,0.794-3.031C317.321,85.167,316.358,83.869,314.434,83.869z"/>
		<path fill="#EB5E4E" d="M320.713,92.891v-0.866l1.228-0.289v-7.795l-1.228-0.289v-0.794l2.743-0.072h1.805
			c0.712,0,1.35,0.108,1.912,0.325c0.563,0.216,1.04,0.534,1.43,0.952c0.39,0.419,0.688,0.934,0.895,1.545s0.311,1.312,0.311,2.101
			s-0.113,1.501-0.339,2.137c-0.227,0.635-0.547,1.179-0.96,1.631c-0.414,0.453-0.915,0.802-1.502,1.047s-1.241,0.368-1.963,0.368
			H320.713z M323.456,91.736h1.66c0.952,0,1.696-0.327,2.23-0.981s0.801-1.641,0.801-2.959c0-1.328-0.26-2.303-0.779-2.924
			s-1.247-0.931-2.18-0.931h-1.732V91.736z"/>
		<path fill="#EB5E4E" d="M334.934,92.025v0.866h-3.971v-0.866l1.228-0.289v-7.795l-1.228-0.289v-0.794l3.971-0.072v0.866
			l-1.228,0.289v7.795L334.934,92.025z"/>
		<path fill="#EB5E4E" d="M338.759,83.941v7.795h2.96l0.288-1.66h1.011v2.815h-7.002v-0.866l1.228-0.289v-7.795l-1.228-0.289v-0.794
			l3.971-0.072v0.866L338.759,83.941z"/>
		<path fill="#EB5E4E" d="M346.41,83.941v7.795h2.96l0.288-1.66h1.011v2.815h-7.002v-0.866l1.228-0.289v-7.795l-1.228-0.289v-0.794
			l3.971-0.072v0.866L346.41,83.941z"/>
		<path fill="#EB5E4E" d="M350.885,92.891v-0.877l1.184-0.278l3.292-8.878l1.443-0.072l3.205,8.95l1.198,0.278v0.877h-4.187v-0.877
			l1.342-0.278l-0.548-1.588h-3.754l-0.562,1.588l1.356,0.278v0.877H350.885z M355.966,84.648l-1.516,4.346h2.975L355.966,84.648z"
			/>
		<path fill="#EB5E4E" d="M365.466,92.891v-0.866l1.228-0.289v-7.795l-1.228-0.289v-0.794l2.743-0.072h1.805
			c0.712,0,1.35,0.108,1.912,0.325c0.563,0.216,1.04,0.534,1.43,0.952c0.39,0.419,0.688,0.934,0.895,1.545s0.311,1.312,0.311,2.101
			s-0.113,1.501-0.339,2.137c-0.227,0.635-0.547,1.179-0.96,1.631c-0.414,0.453-0.915,0.802-1.502,1.047s-1.241,0.368-1.963,0.368
			H365.466z M368.209,91.736h1.66c0.952,0,1.696-0.327,2.23-0.981s0.801-1.641,0.801-2.959c0-1.328-0.26-2.303-0.779-2.924
			s-1.247-0.931-2.18-0.931h-1.732V91.736z"/>
		<path fill="#EB5E4E" d="M381.851,83.941h-3.104v3.104h3.32V88.2h-3.32v3.536h3.32l0.288-1.443h0.938v2.599h-7.29v-0.866
			l1.228-0.289v-7.795l-1.228-0.289v-0.794l2.743-0.072h4.402v2.454h-0.938L381.851,83.941z"/>
		<path fill="#EB5E4E" d="M397.082,83.941v4.836c0,1.415-0.299,2.479-0.896,3.19s-1.603,1.068-3.018,1.068
			c-1.414,0-2.415-0.33-3.002-0.989c-0.588-0.659-0.881-1.677-0.881-3.053v-5.053l-1.228-0.289v-0.794l4.114-0.072v0.866
			l-1.371,0.289v5.053c0,1.059,0.183,1.792,0.549,2.201c0.365,0.409,0.986,0.613,1.862,0.613c0.875,0,1.486-0.224,1.833-0.671
			s0.52-1.234,0.52-2.36v-4.836l-1.371-0.289v-0.794l4.114-0.072v0.866L397.082,83.941z"/>
		<path fill="#EB5E4E" d="M406.754,92.891l-4.765-7.954v6.799l1.372,0.289v0.866h-3.898v-0.866l1.228-0.289v-7.795l-1.228-0.289
			v-0.794l3.032-0.072l4.764,8.07v-6.915l-1.227-0.289v-0.794l3.753-0.072v0.866l-1.227,0.289v8.95H406.754z"/>
		<path fill="#EB5E4E" d="M414.188,92.891v-0.866l1.228-0.289v-7.795l-1.228-0.289v-0.794l2.743-0.072h1.516
			c1.068,0,1.889,0.265,2.462,0.794c0.572,0.529,0.858,1.251,0.858,2.165c0,1.107-0.339,1.949-1.018,2.526
			c-0.679,0.578-1.639,0.866-2.88,0.866h-0.938v2.599l1.228,0.289v0.866H414.188z M416.931,83.941v4.042h0.938
			c1.588,0,2.382-0.674,2.382-2.021c0-0.597-0.164-1.082-0.491-1.458c-0.327-0.375-0.789-0.562-1.386-0.562H416.931z"/>
		<path fill="#EB5E4E" d="M425.376,83.941v7.795h2.96l0.288-1.66h1.011v2.815h-7.002v-0.866l1.228-0.289v-7.795l-1.228-0.289v-0.794
			l3.971-0.072v0.866L425.376,83.941z"/>
		<path fill="#EB5E4E" d="M429.852,92.891v-0.877l1.184-0.278l3.292-8.878l1.443-0.072l3.205,8.95l1.198,0.278v0.877h-4.187v-0.877
			l1.342-0.278l-0.548-1.588h-3.754l-0.562,1.588l1.356,0.278v0.877H429.852z M434.933,84.648l-1.516,4.346h2.975L434.933,84.648z"
			/>
		<path fill="#EB5E4E" d="M442.916,92.891v-0.866l1.227-0.289v-2.579l-2.786-5.216l-0.967-0.278v-0.804l3.609-0.073v0.877
			l-0.982,0.292l1.92,4.028l2.123-4.028l-1.112-0.292v-0.804l3.465-0.073v0.877l-0.895,0.264l-2.858,5.202v2.607l1.227,0.289v0.866
			H442.916z"/>
		<path fill="#EB5E4E" d="M457.713,92.891v-0.866l1.372-0.289v-7.218l-0.434,1.083l-2.237,4.547l-1.155,0.072l-2.237-4.691
			l-0.361-1.011v7.218l1.372,0.289v0.866h-3.898v-0.866l1.228-0.289v-7.795l-1.228-0.289v-0.794l3.248-0.072l2.613,5.774
			l2.729-5.702l3.032-0.072v0.866l-1.228,0.289v7.795l1.228,0.289v0.866H457.713z"/>
		<path fill="#EB5E4E" d="M463.055,87.954c0-0.809,0.108-1.539,0.325-2.194c0.216-0.654,0.531-1.215,0.945-1.682
			c0.413-0.467,0.907-0.823,1.479-1.068s1.21-0.368,1.913-0.368c0.702,0,1.333,0.118,1.891,0.354
			c0.559,0.236,1.032,0.575,1.422,1.019c0.391,0.442,0.687,0.977,0.889,1.602c0.202,0.626,0.303,1.328,0.303,2.108
			c0,0.779-0.115,1.494-0.347,2.144c-0.23,0.649-0.556,1.208-0.975,1.675c-0.418,0.467-0.921,0.832-1.508,1.097
			c-0.588,0.265-1.237,0.397-1.949,0.397c-1.415,0-2.5-0.438-3.256-1.313C463.433,90.846,463.055,89.59,463.055,87.954z
			 M467.674,83.869c-1.973,0-2.959,1.323-2.959,3.97s0.938,3.97,2.815,3.97c0.962,0,1.708-0.337,2.237-1.011
			c0.529-0.673,0.794-1.684,0.794-3.031C470.562,85.167,469.599,83.869,467.674,83.869z"/>
		<path fill="#EB5E4E" d="M477.13,92.891l-3.075-8.95l-1.111-0.289v-0.794l4.042-0.072v0.866l-1.313,0.274l2.267,7.016l2.411-7.001
			l-1.343-0.289v-0.794l3.897-0.072v0.866l-1.126,0.289l-3.205,8.95H477.13z"/>
		<path fill="#EB5E4E" d="M487.524,92.025v0.866h-3.971v-0.866l1.228-0.289v-7.795l-1.228-0.289v-0.794l3.971-0.072v0.866
			l-1.228,0.289v7.795L487.524,92.025z"/>
		<path fill="#EB5E4E" d="M491.35,83.941v7.795h2.96l0.288-1.66h1.011v2.815h-7.002v-0.866l1.228-0.289v-7.795l-1.228-0.289v-0.794
			l3.971-0.072v0.866L491.35,83.941z"/>
	</g>
</g>
<g>
	<path fill="#2E3F51" d="M19.891,37.817v8.91h10.777v5.869H19.891v10.297h9.443l1.227-4.428h4.909v10.67H7.62v-4.642l4.001-1.334
		V37.817L7.62,36.216v-4.428l12.271-0.267H34.83v10.297h-4.962l-1.334-4.001H19.891z"/>
	<path fill="#2E3F51" d="M52.115,37.817v25.075h8.163l1.174-6.029h5.068v12.271H39.844v-4.642l4.001-1.334V37.817l-4.001-1.601
		v-4.428l16.272-0.267v4.695L52.115,37.817z"/>
	<path fill="#2E3F51" d="M74.416,69.134v-4.642l4.375-1.334V37.817h-5.068l-1.334,5.068H67.48V31.681l30.944-0.16v11.364h-4.961
		l-1.334-5.068h-5.068v25.342l4.428,1.334v4.642H74.416z"/>
	<path fill="#2E3F51" d="M117.097,64.493v4.642h-16.272v-4.642l4.001-1.334V37.817l-4.001-1.601v-4.428l16.272-0.267v4.695
		l-4.001,1.601v25.342L117.097,64.493z"/>
	<path fill="#2E3F51" d="M134.169,37.817v8.91h10.777v5.869h-10.777v10.297h9.443l1.227-4.428h4.909v10.67h-27.85v-4.642
		l4.001-1.334V37.817l-4.001-1.601v-4.428l12.271-0.267h14.939v10.297h-4.962l-1.334-4.001H134.169z"/>
	<path fill="#2E3F51" d="M161.059,57.557l0.8,4.481c1.422,0.747,3.165,1.12,5.229,1.12c1.814,0,3.343-0.382,4.588-1.146
		c1.245-0.765,1.867-1.822,1.867-3.175c0-0.96-0.445-1.796-1.334-2.508c-0.889-0.711-2-1.262-3.334-1.654
		c-1.333-0.391-2.783-0.915-4.348-1.574c-1.565-0.658-3.014-1.369-4.348-2.134c-1.334-0.764-2.446-1.902-3.334-3.415
		c-0.89-1.511-1.334-3.298-1.334-5.362c0-3.592,1.254-6.375,3.762-8.35c2.507-1.974,5.77-2.961,9.79-2.961
		c1.778,0,3.645,0.179,5.602,0.534c1.956,0.356,3.468,0.712,4.535,1.067l1.601,0.534l-0.267,9.71h-4.909l-1.333-4.535
		c-1.601-0.533-3.167-0.8-4.695-0.8c-1.814,0-3.21,0.356-4.188,1.067c-0.979,0.712-1.467,1.619-1.467,2.721
		c0,0.96,0.444,1.796,1.334,2.508c0.889,0.712,2,1.272,3.334,1.681c1.333,0.409,2.774,0.934,4.321,1.574
		c1.547,0.64,2.988,1.333,4.322,2.081c1.333,0.747,2.445,1.85,3.334,3.308c0.889,1.458,1.333,3.166,1.333,5.122
		c0,3.877-1.343,6.909-4.028,9.096c-2.686,2.188-6.145,3.281-10.377,3.281c-1.779,0-3.664-0.169-5.655-0.507
		c-1.992-0.338-3.54-0.685-4.642-1.04l-1.601-0.48V57.557H161.059z"/>
	<path fill="#2E3F51" d="M205.181,30.881c5.335,0,9.47,1.663,12.404,4.988c2.935,3.326,4.401,7.976,4.401,13.952
		c0,6.011-1.646,10.849-4.935,14.512c-3.29,3.664-7.603,5.495-12.938,5.495c-5.335,0-9.426-1.636-12.271-4.908
		c-2.846-3.271-4.268-8.038-4.268-14.298c0-6.117,1.574-10.937,4.721-14.458C195.444,32.642,199.739,30.881,205.181,30.881z
		 M204.914,37.55c-2.774,0-4.874,0.987-6.296,2.961c-1.423,1.974-2.134,5.255-2.134,9.844c0,4.375,0.648,7.603,1.947,9.683
		c1.298,2.081,3.281,3.121,5.949,3.121c2.809,0,4.953-1.021,6.429-3.067c1.476-2.045,2.214-5.379,2.214-10.004
		c0-4.339-0.676-7.513-2.027-9.523C209.644,38.555,207.617,37.55,204.914,37.55z"/>
	<path fill="#2E3F51" d="M242.1,64.493v4.642h-15.205v-4.642l4.001-1.334V37.817l-4.001-1.601v-4.428l13.765-0.267l8.003,17.767
		l8.377-17.5l12.803-0.267v4.695l-3.84,1.601v25.342l4,1.334v4.642h-15.898v-4.642l4.162-1.334v-20.22
		c-0.641,1.672-1.379,3.406-2.215,5.202c-0.836,1.796-1.779,3.753-2.828,5.869c-1.049,2.117-1.857,3.78-2.427,4.989l-5.762,0.267
		l-6.136-12.645l-0.907-2.774v19.313L242.1,64.493z"/>
	<path fill="#2E3F51" d="M286.915,37.817v8.91h10.777v5.869h-10.777v10.297h9.443l1.228-4.428h4.908v10.67h-27.85v-4.642
		l4.001-1.334V37.817l-4.001-1.601v-4.428l12.271-0.267h14.938v10.297h-4.962l-1.333-4.001H286.915z"/>
	<path fill="#2E3F51" d="M312.631,69.134v-4.642l4.374-1.334V37.817h-5.068l-1.333,5.068h-4.909V31.681l30.944-0.16v11.364h-4.962
		l-1.334-5.068h-5.068v25.342l4.429,1.334v4.642H312.631z"/>
	<path fill="#2E3F51" d="M355.418,64.493v4.642h-16.112v-4.642l4.002-1.334V37.817l-4.002-1.601v-4.428l12.271-0.267h4.055
		c4.445,0,7.869,0.917,10.271,2.748c2.4,1.833,3.601,4.544,3.601,8.136c0,4.731-2.01,8.092-6.028,10.083
		c0.889,1.032,1.636,2.188,2.24,3.468l3.575,7.309l3.628,1.228v4.642h-9.87l-4.481-9.87c-0.961-2.134-1.717-3.485-2.268-4.055
		c-0.552-0.568-1.503-0.854-2.854-0.854h-1.867v8.803L355.418,64.493z M351.577,37.817v10.937h3.041
		c2.098,0,3.734-0.489,4.908-1.467c1.174-0.978,1.761-2.356,1.761-4.135c0-1.601-0.48-2.889-1.44-3.868
		c-0.961-0.978-2.26-1.467-3.895-1.467H351.577z"/>
	<path fill="#2E3F51" d="M393.991,30.881c5.336,0,9.471,1.663,12.405,4.988c2.934,3.326,4.401,7.976,4.401,13.952
		c0,6.011-1.646,10.849-4.936,14.512c-3.29,3.664-7.603,5.495-12.938,5.495s-9.426-1.636-12.271-4.908
		c-2.846-3.271-4.268-8.038-4.268-14.298c0-6.117,1.573-10.937,4.722-14.458C384.255,32.642,388.55,30.881,393.991,30.881z
		 M393.725,37.55c-2.774,0-4.873,0.987-6.295,2.961c-1.423,1.974-2.135,5.255-2.135,9.844c0,4.375,0.649,7.603,1.947,9.683
		c1.299,2.081,3.281,3.121,5.949,3.121c2.81,0,4.952-1.021,6.429-3.067c1.476-2.045,2.214-5.379,2.214-10.004
		c0-4.339-0.676-7.513-2.027-9.523C398.455,38.555,396.428,37.55,393.725,37.55z"/>
	<path fill="#2E3F51" d="M417.199,64.973c0-1.458,0.453-2.623,1.36-3.495c0.907-0.871,1.982-1.307,3.228-1.307
		c1.458,0,2.569,0.418,3.335,1.254c0.765,0.836,1.147,2.019,1.147,3.548c0,1.493-0.445,2.677-1.334,3.548
		c-0.89,0.871-1.975,1.307-3.255,1.307c-1.459,0-2.57-0.418-3.334-1.254C417.581,67.739,417.199,66.539,417.199,64.973z"/>
	<path fill="#2E3F51" d="M444.941,37.817v8.91h10.777v5.869h-10.777v10.297h9.443l1.228-4.428h4.908v10.67h-27.85v-4.642
		l4.001-1.334V37.817l-4.001-1.601v-4.428l12.271-0.267h14.938v10.297h-4.962l-1.333-4.001H444.941z"/>
	<path fill="#2E3F51" d="M471.83,57.557l0.801,4.481c1.422,0.747,3.165,1.12,5.229,1.12c1.813,0,3.343-0.382,4.588-1.146
		s1.867-1.822,1.867-3.175c0-0.96-0.444-1.796-1.333-2.508c-0.89-0.711-2.001-1.262-3.335-1.654
		c-1.334-0.391-2.783-0.915-4.348-1.574c-1.566-0.658-3.015-1.369-4.349-2.134c-1.334-0.764-2.446-1.902-3.335-3.415
		c-0.889-1.511-1.333-3.298-1.333-5.362c0-3.592,1.254-6.375,3.761-8.35c2.508-1.974,5.771-2.961,9.79-2.961
		c1.778,0,3.646,0.179,5.603,0.534c1.955,0.356,3.468,0.712,4.534,1.067l1.601,0.534l-0.267,9.71h-4.908l-1.334-4.535
		c-1.601-0.533-3.166-0.8-4.694-0.8c-1.814,0-3.211,0.356-4.188,1.067c-0.979,0.712-1.467,1.619-1.467,2.721
		c0,0.96,0.444,1.796,1.333,2.508c0.889,0.712,2.001,1.272,3.335,1.681c1.334,0.409,2.774,0.934,4.321,1.574
		s2.988,1.333,4.321,2.081c1.334,0.747,2.445,1.85,3.335,3.308c0.889,1.458,1.334,3.166,1.334,5.122
		c0,3.877-1.343,6.909-4.028,9.096s-6.145,3.281-10.377,3.281c-1.779,0-3.664-0.169-5.655-0.507c-1.992-0.338-3.54-0.685-4.642-1.04
		l-1.601-0.48V57.557H471.83z"/>
</g>
<g>
	<line fill="#20B4B0" x1="9.803" y1="14.373" x2="490.294" y2="14.373"/>
	<rect x="9.803" y="10.724" fill="#20B4B0" width="480.491" height="7.298"/>
</g>
<g>
	<line fill="#20B4B0" x1="9.803" y1="109.254" x2="490.294" y2="109.254"/>
	<rect x="9.803" y="105.605" fill="#20B4B0" width="480.491" height="7.299"/>
</g>
<rect x="3.5" y="10.724" fill="#007080" width="6.303" height="7.298"/>
<rect x="3.5" y="105.605" fill="#007080" width="6.303" height="7.299"/>
<rect x="490.294" y="10.724" fill="#007080" width="6.303" height="7.298"/>
<rect x="490.294" y="105.605" fill="#007080" width="6.303" height="7.299"/>
<path opacity="0.4" fill="#007080" d="M477.736,14.213c0,0.864-0.701,1.564-1.564,1.564H8.215c-0.864,0-1.564-0.7-1.564-1.564l0,0
	c0-0.864,0.7-1.564,1.564-1.564h467.957C477.035,12.649,477.736,13.35,477.736,14.213L477.736,14.213z"/>
<path opacity="0.4" fill="#007080" d="M492.31,110.818H243.45c-0.863,0-1.564-0.7-1.564-1.563l0,0c0-0.863,0.701-1.564,1.564-1.564
	h248.86"/>
<g>
	<rect x="13.32" y="4.308" opacity="0.4" fill="#F29598" width="2.087" height="6.416"/>
	<rect x="18.617" y="4.308" opacity="0.4" fill="#F29598" width="2.087" height="6.416"/>
	<rect x="23.915" y="4.308" opacity="0.4" fill="#F29598" width="2.086" height="6.416"/>
	<rect x="29.211" y="4.308" opacity="0.4" fill="#F29598" width="2.087" height="6.416"/>
	<rect x="34.509" y="4.308" opacity="0.4" fill="#F29598" width="2.087" height="6.416"/>
	<rect x="39.806" y="4.308" opacity="0.4" fill="#F29598" width="2.087" height="6.416"/>
	<rect x="45.104" y="4.308" opacity="0.4" fill="#F29598" width="2.087" height="6.416"/>
	<rect x="50.401" y="4.308" opacity="0.4" fill="#F29598" width="2.087" height="6.416"/>
	<rect x="55.698" y="4.308" opacity="0.4" fill="#F29598" width="2.087" height="6.416"/>
	<rect x="60.996" y="4.308" opacity="0.4" fill="#F29598" width="2.087" height="6.416"/>
	<rect x="66.293" y="4.308" opacity="0.4" fill="#F29598" width="2.086" height="6.416"/>
	<rect x="71.59" y="4.308" opacity="0.4" fill="#F29598" width="2.087" height="6.416"/>
	<rect x="76.887" y="4.308" opacity="0.4" fill="#F29598" width="2.087" height="6.416"/>
	<rect x="82.185" y="4.308" opacity="0.4" fill="#F29598" width="2.087" height="6.416"/>
	<rect x="87.482" y="4.308" opacity="0.4" fill="#F29598" width="2.087" height="6.416"/>
	<rect x="92.779" y="4.308" opacity="0.4" fill="#F29598" width="2.087" height="6.416"/>
	<rect x="98.077" y="4.308" opacity="0.4" fill="#F29598" width="2.087" height="6.416"/>
	<rect x="103.374" y="4.308" opacity="0.4" fill="#F29598" width="2.087" height="6.416"/>
	<rect x="108.671" y="4.308" opacity="0.4" fill="#F29598" width="2.086" height="6.416"/>
	<rect x="113.968" y="4.308" opacity="0.4" fill="#F29598" width="2.087" height="6.416"/>
	<rect x="119.266" y="4.308" opacity="0.4" fill="#F29598" width="2.087" height="6.416"/>
	<rect x="124.563" y="4.308" opacity="0.4" fill="#F29598" width="2.087" height="6.416"/>
	<rect x="129.86" y="4.308" opacity="0.4" fill="#F29598" width="2.087" height="6.416"/>
	<rect x="135.158" y="4.308" opacity="0.4" fill="#F29598" width="2.087" height="6.416"/>
	<rect x="140.455" y="4.308" opacity="0.4" fill="#F29598" width="2.087" height="6.416"/>
	<rect x="145.752" y="4.308" opacity="0.4" fill="#F29598" width="2.087" height="6.416"/>
	<rect x="151.05" y="4.308" opacity="0.4" fill="#F29598" width="2.086" height="6.416"/>
	<rect x="156.347" y="4.308" opacity="0.4" fill="#F29598" width="2.087" height="6.416"/>
	<rect x="161.644" y="4.308" opacity="0.4" fill="#F29598" width="2.087" height="6.416"/>
	<rect x="166.941" y="4.308" opacity="0.4" fill="#F29598" width="2.087" height="6.416"/>
	<rect x="172.239" y="4.308" opacity="0.4" fill="#F29598" width="2.087" height="6.416"/>
	<rect x="177.536" y="4.308" opacity="0.4" fill="#F29598" width="2.087" height="6.416"/>
	<rect x="182.833" y="4.308" opacity="0.4" fill="#F29598" width="2.087" height="6.416"/>
	<rect x="188.131" y="4.308" opacity="0.4" fill="#F29598" width="2.087" height="6.416"/>
	<rect x="193.428" y="4.308" opacity="0.4" fill="#F29598" width="2.086" height="6.416"/>
	<rect x="198.726" y="4.308" opacity="0.4" fill="#F29598" width="2.086" height="6.416"/>
	<rect x="204.022" y="4.308" opacity="0.4" fill="#F29598" width="2.087" height="6.416"/>
	<rect x="209.32" y="4.308" opacity="0.4" fill="#F29598" width="2.087" height="6.416"/>
	<rect x="214.617" y="4.308" opacity="0.4" fill="#F29598" width="2.087" height="6.416"/>
	<rect x="219.915" y="4.308" opacity="0.4" fill="#F29598" width="2.087" height="6.416"/>
	<rect x="225.212" y="4.308" opacity="0.4" fill="#F29598" width="2.087" height="6.416"/>
	<rect x="230.509" y="4.308" opacity="0.4" fill="#F29598" width="2.087" height="6.416"/>
	<rect x="235.807" y="4.308" opacity="0.4" fill="#F29598" width="2.087" height="6.416"/>
	<rect x="241.104" y="4.308" opacity="0.4" fill="#F29598" width="2.087" height="6.416"/>
	<rect x="246.401" y="4.308" opacity="0.4" fill="#F29598" width="2.087" height="6.416"/>
	<rect x="251.698" y="4.308" opacity="0.4" fill="#F29598" width="2.087" height="6.416"/>
	<rect x="256.994" y="4.308" opacity="0.4" fill="#F29598" width="2.088" height="6.416"/>
	<rect x="262.291" y="4.308" opacity="0.4" fill="#F29598" width="2.088" height="6.416"/>
	<rect x="267.588" y="4.308" opacity="0.4" fill="#F29598" width="2.088" height="6.416"/>
	<rect x="272.885" y="4.308" opacity="0.4" fill="#F29598" width="2.088" height="6.416"/>
	<rect x="278.182" y="4.308" opacity="0.4" fill="#F29598" width="2.088" height="6.416"/>
	<rect x="283.479" y="4.308" opacity="0.4" fill="#F29598" width="2.088" height="6.416"/>
	<rect x="288.775" y="4.308" opacity="0.4" fill="#F29598" width="2.087" height="6.416"/>
	<rect x="294.072" y="4.308" opacity="0.4" fill="#F29598" width="2.087" height="6.416"/>
	<rect x="299.369" y="4.308" opacity="0.4" fill="#F29598" width="2.087" height="6.416"/>
	<rect x="304.666" y="4.308" opacity="0.4" fill="#F29598" width="2.087" height="6.416"/>
	<rect x="309.963" y="4.308" opacity="0.4" fill="#F29598" width="2.087" height="6.416"/>
	<rect x="315.26" y="4.308" opacity="0.4" fill="#F29598" width="2.087" height="6.416"/>
	<rect x="320.557" y="4.308" opacity="0.4" fill="#F29598" width="2.087" height="6.416"/>
	<rect x="325.853" y="4.308" opacity="0.4" fill="#F29598" width="2.088" height="6.416"/>
	<rect x="331.149" y="4.308" opacity="0.4" fill="#F29598" width="2.088" height="6.416"/>
	<rect x="336.446" y="4.308" opacity="0.4" fill="#F29598" width="2.088" height="6.416"/>
	<rect x="341.743" y="4.308" opacity="0.4" fill="#F29598" width="2.088" height="6.416"/>
	<rect x="347.04" y="4.308" opacity="0.4" fill="#F29598" width="2.088" height="6.416"/>
	<rect x="352.337" y="4.308" opacity="0.4" fill="#F29598" width="2.087" height="6.416"/>
	<rect x="357.634" y="4.308" opacity="0.4" fill="#F29598" width="2.087" height="6.416"/>
	<rect x="362.931" y="4.308" opacity="0.4" fill="#F29598" width="2.087" height="6.416"/>
	<rect x="368.228" y="4.308" opacity="0.4" fill="#F29598" width="2.087" height="6.416"/>
	<rect x="373.524" y="4.308" opacity="0.4" fill="#F29598" width="2.087" height="6.416"/>
	<rect x="378.821" y="4.308" opacity="0.4" fill="#F29598" width="2.087" height="6.416"/>
	<rect x="384.117" y="4.308" opacity="0.4" fill="#F29598" width="2.088" height="6.416"/>
	<rect x="389.414" y="4.308" opacity="0.4" fill="#F29598" width="2.088" height="6.416"/>
	<rect x="394.711" y="4.308" opacity="0.4" fill="#F29598" width="2.088" height="6.416"/>
	<rect x="400.008" y="4.308" opacity="0.4" fill="#F29598" width="2.088" height="6.416"/>
	<rect x="405.305" y="4.308" opacity="0.4" fill="#F29598" width="2.088" height="6.416"/>
	<rect x="410.602" y="4.308" opacity="0.4" fill="#F29598" width="2.088" height="6.416"/>
	<rect x="415.898" y="4.308" opacity="0.4" fill="#F29598" width="2.087" height="6.416"/>
	<rect x="421.195" y="4.308" opacity="0.4" fill="#F29598" width="2.087" height="6.416"/>
	<rect x="426.492" y="4.308" opacity="0.4" fill="#F29598" width="2.087" height="6.416"/>
	<rect x="431.789" y="4.308" opacity="0.4" fill="#F29598" width="2.087" height="6.416"/>
	<rect x="437.086" y="4.308" opacity="0.4" fill="#F29598" width="2.087" height="6.416"/>
	<rect x="442.383" y="4.308" opacity="0.4" fill="#F29598" width="2.087" height="6.416"/>
	<rect x="447.68" y="4.308" opacity="0.4" fill="#F29598" width="2.087" height="6.416"/>
	<rect x="452.976" y="4.308" opacity="0.4" fill="#F29598" width="2.088" height="6.416"/>
	<rect x="458.272" y="4.308" opacity="0.4" fill="#F29598" width="2.088" height="6.416"/>
	<rect x="463.569" y="4.308" opacity="0.4" fill="#F29598" width="2.088" height="6.416"/>
	<rect x="468.866" y="4.308" opacity="0.4" fill="#F29598" width="2.088" height="6.416"/>
	<rect x="474.163" y="4.308" opacity="0.4" fill="#F29598" width="2.088" height="6.416"/>
	<rect x="479.46" y="4.308" opacity="0.4" fill="#F29598" width="2.087" height="6.416"/>
	<rect x="484.757" y="4.308" opacity="0.4" fill="#F29598" width="2.087" height="6.416"/>
</g>
<g>
	<rect x="13.32" y="112.904" opacity="0.4" fill="#F29598" width="2.087" height="6.415"/>
	<rect x="18.617" y="112.904" opacity="0.4" fill="#F29598" width="2.087" height="6.415"/>
	<rect x="23.915" y="112.904" opacity="0.4" fill="#F29598" width="2.086" height="6.415"/>
	<rect x="29.211" y="112.904" opacity="0.4" fill="#F29598" width="2.087" height="6.415"/>
	<rect x="34.509" y="112.904" opacity="0.4" fill="#F29598" width="2.087" height="6.415"/>
	<rect x="39.806" y="112.904" opacity="0.4" fill="#F29598" width="2.087" height="6.415"/>
	<rect x="45.104" y="112.904" opacity="0.4" fill="#F29598" width="2.087" height="6.415"/>
	<rect x="50.401" y="112.904" opacity="0.4" fill="#F29598" width="2.087" height="6.415"/>
	<rect x="55.698" y="112.904" opacity="0.4" fill="#F29598" width="2.087" height="6.415"/>
	<rect x="60.996" y="112.904" opacity="0.4" fill="#F29598" width="2.087" height="6.415"/>
	<rect x="66.293" y="112.904" opacity="0.4" fill="#F29598" width="2.086" height="6.415"/>
	<rect x="71.59" y="112.904" opacity="0.4" fill="#F29598" width="2.087" height="6.415"/>
	<rect x="76.887" y="112.904" opacity="0.4" fill="#F29598" width="2.087" height="6.415"/>
	<rect x="82.185" y="112.904" opacity="0.4" fill="#F29598" width="2.087" height="6.415"/>
	<rect x="87.482" y="112.904" opacity="0.4" fill="#F29598" width="2.087" height="6.415"/>
	<rect x="92.779" y="112.904" opacity="0.4" fill="#F29598" width="2.087" height="6.415"/>
	<rect x="98.077" y="112.904" opacity="0.4" fill="#F29598" width="2.087" height="6.415"/>
	<rect x="103.374" y="112.904" opacity="0.4" fill="#F29598" width="2.087" height="6.415"/>
	<rect x="108.671" y="112.904" opacity="0.4" fill="#F29598" width="2.086" height="6.415"/>
	<rect x="113.968" y="112.904" opacity="0.4" fill="#F29598" width="2.087" height="6.415"/>
	<rect x="119.266" y="112.904" opacity="0.4" fill="#F29598" width="2.087" height="6.415"/>
	<rect x="124.563" y="112.904" opacity="0.4" fill="#F29598" width="2.087" height="6.415"/>
	<rect x="129.86" y="112.904" opacity="0.4" fill="#F29598" width="2.087" height="6.415"/>
	<rect x="135.158" y="112.904" opacity="0.4" fill="#F29598" width="2.087" height="6.415"/>
	<rect x="140.455" y="112.904" opacity="0.4" fill="#F29598" width="2.087" height="6.415"/>
	<rect x="145.752" y="112.904" opacity="0.4" fill="#F29598" width="2.087" height="6.415"/>
	<rect x="151.05" y="112.904" opacity="0.4" fill="#F29598" width="2.086" height="6.415"/>
	<rect x="156.347" y="112.904" opacity="0.4" fill="#F29598" width="2.087" height="6.415"/>
	<rect x="161.644" y="112.904" opacity="0.4" fill="#F29598" width="2.087" height="6.415"/>
	<rect x="166.941" y="112.904" opacity="0.4" fill="#F29598" width="2.087" height="6.415"/>
	<rect x="172.239" y="112.904" opacity="0.4" fill="#F29598" width="2.087" height="6.415"/>
	<rect x="177.536" y="112.904" opacity="0.4" fill="#F29598" width="2.087" height="6.415"/>
	<rect x="182.833" y="112.904" opacity="0.4" fill="#F29598" width="2.087" height="6.415"/>
	<rect x="188.131" y="112.904" opacity="0.4" fill="#F29598" width="2.087" height="6.415"/>
	<rect x="193.428" y="112.904" opacity="0.4" fill="#F29598" width="2.086" height="6.415"/>
	<rect x="198.726" y="112.904" opacity="0.4" fill="#F29598" width="2.086" height="6.415"/>
	<rect x="204.022" y="112.904" opacity="0.4" fill="#F29598" width="2.087" height="6.415"/>
	<rect x="209.32" y="112.904" opacity="0.4" fill="#F29598" width="2.087" height="6.415"/>
	<rect x="214.617" y="112.904" opacity="0.4" fill="#F29598" width="2.087" height="6.415"/>
	<rect x="219.915" y="112.904" opacity="0.4" fill="#F29598" width="2.087" height="6.415"/>
	<rect x="225.212" y="112.904" opacity="0.4" fill="#F29598" width="2.087" height="6.415"/>
	<rect x="230.509" y="112.904" opacity="0.4" fill="#F29598" width="2.087" height="6.415"/>
	<rect x="235.807" y="112.904" opacity="0.4" fill="#F29598" width="2.087" height="6.415"/>
	<rect x="241.104" y="112.904" opacity="0.4" fill="#F29598" width="2.087" height="6.415"/>
	<rect x="246.401" y="112.904" opacity="0.4" fill="#F29598" width="2.087" height="6.415"/>
	<rect x="251.698" y="112.904" opacity="0.4" fill="#F29598" width="2.087" height="6.415"/>
	<rect x="256.994" y="112.904" opacity="0.4" fill="#F29598" width="2.088" height="6.415"/>
	<rect x="262.291" y="112.904" opacity="0.4" fill="#F29598" width="2.088" height="6.415"/>
	<rect x="267.588" y="112.904" opacity="0.4" fill="#F29598" width="2.088" height="6.415"/>
	<rect x="272.885" y="112.904" opacity="0.4" fill="#F29598" width="2.088" height="6.415"/>
	<rect x="278.182" y="112.904" opacity="0.4" fill="#F29598" width="2.088" height="6.415"/>
	<rect x="283.479" y="112.904" opacity="0.4" fill="#F29598" width="2.088" height="6.415"/>
	<rect x="288.775" y="112.904" opacity="0.4" fill="#F29598" width="2.087" height="6.415"/>
	<rect x="294.072" y="112.904" opacity="0.4" fill="#F29598" width="2.087" height="6.415"/>
	<rect x="299.369" y="112.904" opacity="0.4" fill="#F29598" width="2.087" height="6.415"/>
	<rect x="304.666" y="112.904" opacity="0.4" fill="#F29598" width="2.087" height="6.415"/>
	<rect x="309.963" y="112.904" opacity="0.4" fill="#F29598" width="2.087" height="6.415"/>
	<rect x="315.26" y="112.904" opacity="0.4" fill="#F29598" width="2.087" height="6.415"/>
	<rect x="320.557" y="112.904" opacity="0.4" fill="#F29598" width="2.087" height="6.415"/>
	<rect x="325.853" y="112.904" opacity="0.4" fill="#F29598" width="2.088" height="6.415"/>
	<rect x="331.149" y="112.904" opacity="0.4" fill="#F29598" width="2.088" height="6.415"/>
	<rect x="336.446" y="112.904" opacity="0.4" fill="#F29598" width="2.088" height="6.415"/>
	<rect x="341.743" y="112.904" opacity="0.4" fill="#F29598" width="2.088" height="6.415"/>
	<rect x="347.04" y="112.904" opacity="0.4" fill="#F29598" width="2.088" height="6.415"/>
	<rect x="352.337" y="112.904" opacity="0.4" fill="#F29598" width="2.087" height="6.415"/>
	<rect x="357.634" y="112.904" opacity="0.4" fill="#F29598" width="2.087" height="6.415"/>
	<rect x="362.931" y="112.904" opacity="0.4" fill="#F29598" width="2.087" height="6.415"/>
	<rect x="368.228" y="112.904" opacity="0.4" fill="#F29598" width="2.087" height="6.415"/>
	<rect x="373.524" y="112.904" opacity="0.4" fill="#F29598" width="2.087" height="6.415"/>
	<rect x="378.821" y="112.904" opacity="0.4" fill="#F29598" width="2.087" height="6.415"/>
	<rect x="384.117" y="112.904" opacity="0.4" fill="#F29598" width="2.088" height="6.415"/>
	<rect x="389.414" y="112.904" opacity="0.4" fill="#F29598" width="2.088" height="6.415"/>
	<rect x="394.711" y="112.904" opacity="0.4" fill="#F29598" width="2.088" height="6.415"/>
	<rect x="400.008" y="112.904" opacity="0.4" fill="#F29598" width="2.088" height="6.415"/>
	<rect x="405.305" y="112.904" opacity="0.4" fill="#F29598" width="2.088" height="6.415"/>
	<rect x="410.602" y="112.904" opacity="0.4" fill="#F29598" width="2.088" height="6.415"/>
	<rect x="415.898" y="112.904" opacity="0.4" fill="#F29598" width="2.087" height="6.415"/>
	<rect x="421.195" y="112.904" opacity="0.4" fill="#F29598" width="2.087" height="6.415"/>
	<rect x="426.492" y="112.904" opacity="0.4" fill="#F29598" width="2.087" height="6.415"/>
	<rect x="431.789" y="112.904" opacity="0.4" fill="#F29598" width="2.087" height="6.415"/>
	<rect x="437.086" y="112.904" opacity="0.4" fill="#F29598" width="2.087" height="6.415"/>
	<rect x="442.383" y="112.904" opacity="0.4" fill="#F29598" width="2.087" height="6.415"/>
	<rect x="447.68" y="112.904" opacity="0.4" fill="#F29598" width="2.087" height="6.415"/>
	<rect x="452.976" y="112.904" opacity="0.4" fill="#F29598" width="2.088" height="6.415"/>
	<rect x="458.272" y="112.904" opacity="0.4" fill="#F29598" width="2.088" height="6.415"/>
	<rect x="463.569" y="112.904" opacity="0.4" fill="#F29598" width="2.088" height="6.415"/>
	<rect x="468.866" y="112.904" opacity="0.4" fill="#F29598" width="2.088" height="6.415"/>
	<rect x="474.163" y="112.904" opacity="0.4" fill="#F29598" width="2.088" height="6.415"/>
	<rect x="479.46" y="112.904" opacity="0.4" fill="#F29598" width="2.087" height="6.415"/>
	<rect x="484.757" y="112.904" opacity="0.4" fill="#F29598" width="2.087" height="6.415"/>
</g>
</svg>
