<?xml version="1.0" encoding="utf-8"?>
<!-- Generator: Adobe Illustrator 16.0.0, SVG Export Plug-In . SVG Version: 6.00 Build 0)  -->
<!DOCTYPE svg PUBLIC "-//W3C//DTD SVG 1.1//EN" "http://www.w3.org/Graphics/SVG/1.1/DTD/svg11.dtd">
<svg version="1.1" id="Capa_1" xmlns="http://www.w3.org/2000/svg" xmlns:xlink="http://www.w3.org/1999/xlink" x="0px" y="0px"
	 width="500px" height="500px" viewBox="0 0 500 500" enable-background="new 0 0 500 500" xml:space="preserve">
<rect opacity="0" fill="#FFFFFF" stroke="#000000" stroke-miterlimit="10" width="500" height="500"/>
<g>
	<radialGradient id="SVGID_1_" cx="250" cy="223.3447" r="209.1924" gradientUnits="userSpaceOnUse">
		<stop  offset="0" style="stop-color:#AADCF6"/>
		<stop  offset="1" style="stop-color:#AADCF6;stop-opacity:0"/>
	</radialGradient>
	<path opacity="0.8" fill="url(#SVGID_1_)" d="M40.808,223.344c0,115.535,93.66,209.193,209.193,209.193
		c115.533,0,209.191-93.658,209.191-209.193c0-115.531-93.658-209.191-209.191-209.191
		C134.467,14.153,40.808,107.812,40.808,223.344z"/>
	<g>
		<rect x="298.521" y="294.465" fill="#20B4B0" width="82.231" height="168.422"/>
		<rect x="308.013" y="271.387" fill="#007080" width="61.145" height="23.078"/>
		<g>
			<rect x="311.439" y="301.557" fill="#007080" width="7.907" height="15.822"/>
			<rect x="326.729" y="301.557" fill="#007080" width="7.907" height="15.822"/>
			<rect x="342.542" y="301.557" fill="#007080" width="7.904" height="15.822"/>
			<rect x="357.826" y="301.557" fill="#007080" width="7.909" height="15.822"/>
		</g>
		<g>
			<rect x="311.439" y="321.414" fill="#007080" width="7.907" height="15.822"/>
			<rect x="326.729" y="321.414" fill="#007080" width="7.907" height="15.822"/>
			<rect x="342.542" y="321.414" fill="#007080" width="7.904" height="15.822"/>
			<rect x="357.826" y="321.414" fill="#007080" width="7.909" height="15.822"/>
		</g>
		<g>
			<rect x="311.439" y="341.273" fill="#007080" width="7.907" height="15.82"/>
			<rect x="326.729" y="341.273" fill="#007080" width="7.907" height="15.82"/>
			<rect x="342.542" y="341.273" fill="#007080" width="7.904" height="15.82"/>
			<rect x="357.826" y="341.273" fill="#007080" width="7.909" height="15.82"/>
		</g>
		<g>
			<rect x="311.439" y="361.133" fill="#007080" width="7.907" height="15.818"/>
			<rect x="326.729" y="361.133" fill="#007080" width="7.907" height="15.818"/>
			<rect x="342.542" y="361.133" fill="#007080" width="7.904" height="15.818"/>
			<rect x="357.826" y="361.133" fill="#007080" width="7.909" height="15.818"/>
		</g>
		<g>
			<rect x="311.439" y="380.99" fill="#007080" width="7.907" height="15.822"/>
			<rect x="326.729" y="380.99" fill="#007080" width="7.907" height="15.822"/>
			<rect x="342.542" y="380.99" fill="#007080" width="7.904" height="15.822"/>
			<rect x="357.826" y="380.99" fill="#007080" width="7.909" height="15.822"/>
		</g>
		<g>
			<rect x="311.439" y="400.85" fill="#007080" width="7.907" height="15.82"/>
			<rect x="326.729" y="400.85" fill="#007080" width="7.907" height="15.82"/>
			<rect x="342.542" y="400.85" fill="#007080" width="7.904" height="15.82"/>
			<rect x="357.826" y="400.85" fill="#007080" width="7.909" height="15.82"/>
		</g>
		<g>
			<rect x="311.439" y="420.707" fill="#007080" width="7.907" height="15.82"/>
			<rect x="326.729" y="420.707" fill="#007080" width="7.907" height="15.82"/>
			<rect x="342.542" y="420.707" fill="#007080" width="7.904" height="15.82"/>
			<rect x="357.826" y="420.707" fill="#007080" width="7.909" height="15.82"/>
		</g>
		<g>
			<rect x="311.439" y="440.564" fill="#007080" width="7.907" height="15.822"/>
			<rect x="326.729" y="440.564" fill="#007080" width="7.907" height="15.822"/>
			<rect x="342.542" y="440.564" fill="#007080" width="7.904" height="15.822"/>
			<rect x="357.826" y="440.564" fill="#007080" width="7.909" height="15.822"/>
		</g>
	</g>
	<rect x="193.327" y="314.598" fill="#2E3F51" width="105.194" height="148.289"/>
	<g>
		<rect x="298.521" y="378.383" fill="#007080" width="48.855" height="84.504"/>
		<g>
			<g>
				<rect x="304.503" y="386.416" fill="#FFFFFF" width="36.559" height="7.094"/>
				<rect x="304.503" y="393.332" fill="#2E3F51" width="36.559" height="7.092"/>
				<rect x="304.503" y="400.25" fill="#20B4B0" width="36.559" height="7.09"/>
				<rect x="304.503" y="407.164" fill="#A4D8DF" width="36.559" height="7.092"/>
			</g>
			<g>
				<rect x="304.503" y="414.256" fill="#FFFFFF" width="36.559" height="7.094"/>
				<rect x="304.503" y="421.172" fill="#2E3F51" width="36.559" height="7.092"/>
				<rect x="304.503" y="428.088" fill="#20B4B0" width="36.559" height="7.092"/>
				<rect x="304.503" y="435.004" fill="#A4D8DF" width="36.559" height="7.094"/>
			</g>
			<g>
				<rect x="304.503" y="442.098" fill="#FFFFFF" width="36.559" height="7.092"/>
				<rect x="304.503" y="449.014" fill="#2E3F51" width="36.559" height="7.092"/>
				<rect x="304.503" y="455.795" fill="#20B4B0" width="36.559" height="7.092"/>
			</g>
		</g>
	</g>
	<g>
		<rect x="353.358" y="330.646" fill="#A4D8DF" width="49.188" height="132.561"/>
		<rect x="347.376" y="341.852" fill="#20B4B0" width="12.962" height="121.035"/>
		<rect x="396.067" y="342.172" fill="#20B4B0" width="12.961" height="121.035"/>
		<polygon fill="#007080" points="353.358,330.646 377.954,314.918 402.547,330.646 		"/>
		<rect x="350.367" y="345.828" fill="#007080" width="6.98" height="19.838"/>
		<rect x="350.367" y="370.182" fill="#007080" width="6.98" height="19.838"/>
		<rect x="350.367" y="394.535" fill="#007080" width="6.98" height="19.84"/>
		<rect x="350.367" y="418.891" fill="#007080" width="6.98" height="19.838"/>
		<rect x="350.367" y="443.244" fill="#007080" width="6.98" height="19.838"/>
		<rect x="399.059" y="345.828" fill="#007080" width="6.979" height="19.838"/>
		<rect x="399.059" y="370.182" fill="#007080" width="6.979" height="19.838"/>
		<rect x="399.059" y="394.535" fill="#007080" width="6.979" height="19.84"/>
		<rect x="399.059" y="418.891" fill="#007080" width="6.979" height="19.838"/>
		<rect x="399.059" y="443.244" fill="#007080" width="6.979" height="19.838"/>
		<rect x="367.484" y="345.828" fill="#2E3F51" width="6.979" height="19.838"/>
		<rect x="367.484" y="370.182" fill="#2E3F51" width="6.979" height="19.838"/>
		<rect x="367.484" y="394.535" fill="#FCBF00" width="6.979" height="19.84"/>
		<rect x="367.484" y="418.891" fill="#2E3F51" width="6.979" height="19.838"/>
		<rect x="367.484" y="443.244" fill="#FFFFFF" width="6.979" height="19.838"/>
		<rect x="381.443" y="345.828" fill="#FCBF00" width="6.979" height="19.838"/>
		<rect x="381.443" y="370.182" fill="#2E3F51" width="6.979" height="19.838"/>
		<rect x="381.443" y="394.535" fill="#FFFFFF" width="6.979" height="19.84"/>
		<rect x="381.443" y="418.891" fill="#2E3F51" width="6.979" height="19.838"/>
		<rect x="381.443" y="443.244" fill="#2E3F51" width="6.979" height="19.838"/>
	</g>
	
		<rect x="321.129" y="122.931" transform="matrix(0.8172 -0.5763 0.5763 0.8172 -23.5857 212.5921)" fill="#EB5E4E" width="4.501" height="41.1"/>
	<path fill="#EB5E4E" d="M297.594,128.11c4.373,6.202,12.952,7.689,19.157,3.315c6.209-4.378,7.689-12.956,3.317-19.158
		L297.594,128.11z"/>
	<path fill="#EB5E4E" d="M328.682,163.688c2.316,3.286,6.862,4.07,10.153,1.751c3.283-2.315,4.073-6.862,1.757-10.146
		c-2.319-3.291-6.866-4.074-10.15-1.76C327.151,155.851,326.362,160.397,328.682,163.688z"/>
	<g>
		<polygon fill="#2E3F51" points="313.503,294.547 313.477,289.961 322.637,283.262 336.581,283.184 336.644,294.418 		"/>
		<polygon fill="#FFFFFF" points="313.477,289.961 313.503,294.547 307.264,294.582 		"/>
	</g>
	<g>
		<polygon fill="#2E3F51" points="332.611,294.547 332.585,289.961 341.745,283.262 355.688,283.184 355.752,294.418 		"/>
		<polygon fill="#FFFFFF" points="332.585,289.961 332.611,294.547 326.372,294.582 		"/>
	</g>
	<g>
		<rect x="100.642" y="239.467" fill="#2E3F51" width="88.544" height="223.419"/>
		<rect x="165.7" y="259.926" fill="#007080" width="45.536" height="202.961"/>
		<rect x="77.873" y="259.926" fill="#007080" width="45.538" height="202.961"/>
		<g>
			<g>
				<rect x="172.903" y="271.707" fill="#FFFFFF" width="12.895" height="12.895"/>
				<rect x="191.105" y="271.707" fill="#FFFFFF" width="12.896" height="12.895"/>
			</g>
			<g>
				<rect x="172.903" y="290.51" fill="#FFFFFF" width="12.895" height="12.896"/>
				<rect x="191.105" y="290.51" fill="#FCBF00" width="12.896" height="12.896"/>
			</g>
			<g>
				<rect x="172.903" y="309.314" fill="#FFFFFF" width="12.895" height="12.896"/>
				<rect x="191.105" y="309.314" fill="#FFFFFF" width="12.896" height="12.896"/>
			</g>
			<g>
				<rect x="172.903" y="328.119" fill="#FCBF00" width="12.895" height="12.896"/>
				<rect x="191.105" y="328.119" fill="#FFFFFF" width="12.896" height="12.896"/>
			</g>
			<g>
				<rect x="172.903" y="346.924" fill="#FFFFFF" width="12.895" height="12.896"/>
				<rect x="191.105" y="346.924" fill="#FFFFFF" width="12.896" height="12.896"/>
			</g>
			<g>
				<rect x="172.903" y="365.729" fill="#FFFFFF" width="12.895" height="12.896"/>
				<rect x="191.105" y="365.729" fill="#FFFFFF" width="12.896" height="12.896"/>
			</g>
			<g>
				<rect x="172.903" y="384.533" fill="#FFFFFF" width="12.895" height="12.895"/>
				<rect x="191.105" y="384.533" fill="#FCBF00" width="12.896" height="12.895"/>
			</g>
			<g>
				<rect x="172.903" y="403.338" fill="#FCBF00" width="12.895" height="12.895"/>
				<rect x="191.105" y="403.338" fill="#FFFFFF" width="12.896" height="12.895"/>
			</g>
			<g>
				<rect x="172.903" y="422.143" fill="#FFFFFF" width="12.895" height="12.895"/>
				<rect x="191.105" y="422.143" fill="#FFFFFF" width="12.896" height="12.895"/>
			</g>
			<g>
				<rect x="172.903" y="440.945" fill="#FFFFFF" width="12.895" height="12.896"/>
				<rect x="191.105" y="440.945" fill="#FCBF00" width="12.896" height="12.896"/>
			</g>
		</g>
		<g>
			<g>
				<rect x="85.091" y="271.707" fill="#FFFFFF" width="12.896" height="12.895"/>
				<rect x="103.294" y="271.707" fill="#FCBF00" width="12.897" height="12.895"/>
			</g>
			<g>
				<rect x="85.091" y="290.51" fill="#FFFFFF" width="12.896" height="12.896"/>
				<rect x="103.294" y="290.51" fill="#FFFFFF" width="12.897" height="12.896"/>
			</g>
			<g>
				<rect x="85.091" y="309.314" fill="#FCBF00" width="12.896" height="12.896"/>
				<rect x="103.294" y="309.314" fill="#FFFFFF" width="12.897" height="12.896"/>
			</g>
			<g>
				<rect x="85.091" y="328.119" fill="#FFFFFF" width="12.896" height="12.896"/>
				<rect x="103.294" y="328.119" fill="#FFFFFF" width="12.897" height="12.896"/>
			</g>
			<g>
				<rect x="85.091" y="346.924" fill="#FCBF00" width="12.896" height="12.896"/>
				<rect x="103.294" y="346.924" fill="#FFFFFF" width="12.897" height="12.896"/>
			</g>
			<g>
				<rect x="85.091" y="365.729" fill="#FCBF00" width="12.896" height="12.896"/>
				<rect x="103.294" y="365.729" fill="#FFFFFF" width="12.897" height="12.896"/>
			</g>
			<g>
				<rect x="85.091" y="384.533" fill="#FFFFFF" width="12.896" height="12.895"/>
				<rect x="103.294" y="384.533" fill="#FFFFFF" width="12.897" height="12.895"/>
			</g>
			<g>
				<rect x="85.091" y="403.338" fill="#FFFFFF" width="12.896" height="12.895"/>
				<rect x="103.294" y="403.338" fill="#FFFFFF" width="12.897" height="12.895"/>
			</g>
			<g>
				<rect x="85.091" y="422.143" fill="#FFFFFF" width="12.896" height="12.895"/>
				<rect x="103.294" y="422.143" fill="#FCBF00" width="12.897" height="12.895"/>
			</g>
			<g>
				<rect x="85.091" y="440.945" fill="#FCBF00" width="12.896" height="12.896"/>
				<rect x="103.294" y="440.945" fill="#FFFFFF" width="12.897" height="12.896"/>
			</g>
		</g>
		<rect x="123.41" y="188.625" fill="#2E3F51" width="42.29" height="54.164"/>
		<rect x="136.939" y="145.484" fill="#2E3F51" width="14.86" height="49.852"/>
	</g>
	<rect x="211.235" y="306.004" fill="#A4D8DF" width="87.285" height="8.914"/>
	<rect x="217.724" y="322.461" fill="#007080" width="74.308" height="140.426"/>
	<g>
		<rect x="217.724" y="322.461" fill="#FCBF00" width="24.77" height="7.623"/>
		<rect x="242.493" y="322.461" fill="#A4D8DF" width="24.769" height="7.623"/>
		<rect x="267.262" y="322.461" fill="#FFFFFF" width="24.77" height="7.623"/>
		<rect x="242.493" y="330.084" fill="#20B4B0" width="24.769" height="7.623"/>
		<rect x="267.262" y="330.084" fill="#2E3F51" width="24.77" height="7.623"/>
		<rect x="217.724" y="337.707" fill="#A4D8DF" width="24.77" height="7.623"/>
		<rect x="242.493" y="337.707" fill="#FFFFFF" width="24.769" height="7.623"/>
		<rect x="267.262" y="337.707" fill="#A4D8DF" width="24.77" height="7.623"/>
		<rect x="217.724" y="345.33" fill="#2E3F51" width="24.77" height="7.623"/>
		<rect x="242.493" y="345.33" fill="#007080" width="24.769" height="7.623"/>
		<rect x="267.262" y="345.33" fill="#FCBF00" width="24.77" height="7.623"/>
	</g>
	<g>
		<rect x="267.262" y="375.82" fill="#FCBF00" width="24.77" height="7.623"/>
		<rect x="242.493" y="375.82" fill="#007080" width="24.769" height="7.623"/>
		<rect x="217.724" y="375.82" fill="#FFFFFF" width="24.77" height="7.623"/>
		<rect x="242.493" y="368.197" fill="#20B4B0" width="24.769" height="7.623"/>
		<rect x="217.724" y="368.197" fill="#2E3F51" width="24.77" height="7.623"/>
		<rect x="267.262" y="360.574" fill="#A4D8DF" width="24.77" height="7.623"/>
		<rect x="242.493" y="360.574" fill="#FFFFFF" width="24.769" height="7.623"/>
		<rect x="217.724" y="360.574" fill="#A4D8DF" width="24.77" height="7.623"/>
		<rect x="267.262" y="352.953" fill="#2E3F51" width="24.77" height="7.621"/>
		<rect x="242.493" y="352.953" fill="#A4D8DF" width="24.769" height="7.621"/>
		<rect x="217.724" y="352.953" fill="#FCBF00" width="24.77" height="7.621"/>
	</g>
	<g>
		<rect x="217.724" y="382.65" fill="#FCBF00" width="24.77" height="7.623"/>
		<rect x="242.493" y="382.65" fill="#A4D8DF" width="24.769" height="7.623"/>
		<rect x="267.262" y="382.65" fill="#FFFFFF" width="24.77" height="7.623"/>
		<rect x="242.493" y="390.273" fill="#20B4B0" width="24.769" height="7.623"/>
		<rect x="267.262" y="390.273" fill="#2E3F51" width="24.77" height="7.623"/>
		<rect x="217.724" y="397.896" fill="#A4D8DF" width="24.77" height="7.621"/>
		<rect x="242.493" y="397.896" fill="#FFFFFF" width="24.769" height="7.621"/>
		<rect x="267.262" y="397.896" fill="#A4D8DF" width="24.77" height="7.621"/>
		<rect x="217.724" y="405.518" fill="#2E3F51" width="24.77" height="7.623"/>
		<rect x="242.493" y="405.518" fill="#FCBF00" width="24.769" height="7.623"/>
		<rect x="267.262" y="405.518" fill="#007080" width="24.77" height="7.623"/>
	</g>
	<g>
		<rect x="267.262" y="436.01" fill="#FCBF00" width="24.77" height="7.621"/>
		<rect x="242.493" y="436.01" fill="#2E3F51" width="24.769" height="7.621"/>
		<rect x="217.724" y="436.01" fill="#FFFFFF" width="24.77" height="7.621"/>
		<rect x="242.493" y="428.387" fill="#20B4B0" width="24.769" height="7.623"/>
		<rect x="217.724" y="428.387" fill="#2E3F51" width="24.77" height="7.623"/>
		<rect x="267.262" y="420.764" fill="#A4D8DF" width="24.77" height="7.623"/>
		<rect x="242.493" y="420.764" fill="#FFFFFF" width="24.769" height="7.623"/>
		<rect x="217.724" y="420.764" fill="#A4D8DF" width="24.77" height="7.623"/>
		<rect x="267.262" y="413.141" fill="#2E3F51" width="24.77" height="7.623"/>
		<rect x="242.493" y="413.141" fill="#007080" width="24.769" height="7.623"/>
		<rect x="217.724" y="413.141" fill="#FCBF00" width="24.77" height="7.623"/>
	</g>
	<path opacity="0.6" fill="#FFFFFF" d="M298.473,280.41c-0.496-13.654-7.118-25.703-17.392-33.333
		c-0.53-15.865-9.454-28.486-26.019-28.486c-17.07,0-25.561,12.689-26.022,28.613c-10.178,7.636-16.881,19.628-17.387,33.207h-0.418
		v26.844h87.285V280.41H298.473z"/>
	<path opacity="0.6" fill="#FFFFFF" d="M308.289,271.973c0-16.809,13.625-30.434,30.434-30.434c16.81,0,30.435,13.625,30.435,30.434
		"/>
	
		<rect x="332.365" y="160.524" transform="matrix(1 0.0052 -0.0052 1 1.1596 -1.739)" fill="#EB5E4E" width="4.502" height="122.719"/>
	
		<rect x="339.958" y="111.75" transform="matrix(0.8173 -0.5762 0.5762 0.8173 -13.7086 221.3681)" fill="#F18A86" width="4.501" height="41.1"/>
	<path fill="#F18A86" d="M316.422,116.929c4.374,6.202,12.953,7.689,19.157,3.316c6.21-4.378,7.69-12.957,3.317-19.159
		L316.422,116.929z"/>
	<path fill="#F18A86" d="M347.51,152.506c2.316,3.286,6.863,4.07,10.153,1.751c3.283-2.315,4.073-6.862,1.757-10.147
		c-2.319-3.291-6.866-4.074-10.149-1.76C345.979,144.67,345.19,149.216,347.51,152.506z"/>
	<polygon fill="#F18A86" points="355.352,282.936 350.85,282.91 351.476,149.333 355.978,149.352 	"/>
	<g>
		<path fill="#F29598" d="M237.022,114.179c13.184,21.048,40.945,27.427,61.997,14.238c21.055-13.188,27.425-40.948,14.24-61.998
			c-13.19-21.057-40.946-27.431-62.001-14.241C230.209,65.365,223.832,93.121,237.022,114.179z"/>
		<g>
			<path fill="#2E3F51" d="M236.488,280.777l0.497,14.785c0.098,2.84,2.471,5.059,5.309,4.963l8.901-0.301l5.886-0.199l19.923-0.67
				l-12.419-18.775l-3.02,0.104l-0.023-0.75c-0.096-2.838-2.47-5.057-5.306-4.961l-14.786,0.498
				C238.61,275.566,236.392,277.939,236.488,280.777z"/>
			
				<rect x="233.692" y="250.711" transform="matrix(0.0337 0.9994 -0.9994 0.0337 506.1744 5.9706)" fill="#FFFFFF" width="32.615" height="28.087"/>
			<path fill="#F3A8A0" d="M253.346,232.581c10.166-0.342,18.689,7.625,19.033,17.794c0.342,10.17-7.625,18.692-17.793,19.036
				L253.346,232.581z"/>
			<path fill="#F29598" d="M254.586,269.41c-10.173,0.342-18.694-7.623-19.037-17.795c-0.343-10.168,7.624-18.693,17.797-19.035
				L254.586,269.41z"/>
			<circle fill="#FFFFFF" cx="244.62" cy="256.787" r="3.71"/>
			<circle fill="#2E3F51" cx="244.62" cy="258.122" r="1.727"/>
			
				<rect x="232.841" y="90.869" transform="matrix(0.9994 -0.0337 0.0337 0.9994 -5.6254 8.2491)" fill="#F29598" width="18.427" height="160.481"/>
		</g>
		<polygon fill="#F29598" points="299.02,128.417 386.16,73.83 284.228,46.238 		"/>
		<polygon fill="#F18A86" points="299.95,110.64 366.994,68.641 291.06,47.771 		"/>
		<path fill="#F18A86" d="M252.043,99.638c10.188,16.266,31.639,21.192,47.907,11.002c16.264-10.188,21.191-31.638,11.001-47.905
			c-10.192-16.27-31.641-21.194-47.905-11.006C246.778,61.918,241.852,83.368,252.043,99.638z"/>
		<path fill="#F29598" d="M295.093,99.916c13.449-8.425,17.521-26.161,9.097-39.608c-8.428-13.455-26.16-17.528-39.609-9.102
			L295.093,99.916z"/>
		<polygon fill="#2E3F51" points="339.585,85.811 357.569,91.74 386.16,73.83 366.994,68.641 		"/>
		<path fill="#2E3F51" d="M389.208,66.146l-2.955,1.85c-1.42-2.265-4.407-2.952-6.671-1.532l-2.736,1.714
			c-1.418-2.263-4.405-2.949-6.67-1.531l-13.897,8.705l2.569,4.101l6.838-4.284l2.569,4.101l7.059-4.421l2.567,4.101l9.796-6.136
			l4.098-2.568l4.097-2.567C394.454,65.417,391.47,64.729,389.208,66.146z"/>
	</g>
	<path fill="#20B4B0" d="M421.526,462.033c0,13.15-80.432,23.814-179.649,23.814c-99.232,0-179.659-10.664-179.659-23.814H421.526z"
		/>
	<path fill="none" stroke="#2E3F51" stroke-width="2.1476" stroke-linecap="round" stroke-miterlimit="10" d="M241.737,249.108
		c-3.604,0.782-5.885,4.337-5.097,7.941"/>
	<circle fill="#FCBF00" cx="195.385" cy="156.06" r="24.433"/>
	<path fill="#FFFFFF" d="M176.588,101.674c-0.698-4.042-4.211-7.117-8.451-7.117c-0.093,0-0.182,0.011-0.273,0.013
		c-0.944-3.716-4.302-6.47-8.312-6.47c-4.011,0-7.368,2.754-8.313,6.47c-0.091-0.002-0.181-0.013-0.272-0.013
		c-4.743,0-8.586,3.844-8.586,8.585c0,0-8.109-0.221-8.109,8.586h50.66C184.931,111.729,185.439,103.142,176.588,101.674z"/>
	<path fill="#FFFFFF" d="M397.011,220.527c0.001-0.055,0.008-0.108,0.008-0.164c0-2.835-1.81-5.239-4.332-6.14
		c-1.341-3.512-4.732-6.013-8.717-6.013c-5.159,0-9.339,4.182-9.339,9.339c0,0.515,0.052,1.016,0.133,1.508
		c-0.374-0.115-0.763-0.195-1.173-0.195c-2.214,0-4.013,1.795-4.013,4.011c0,0.248,0.029,0.49,0.072,0.725
		c-2.396,1.155-2.052,3.287-2.052,3.287s34.688,0.626,34.688,0C402.286,222.373,398.669,220.946,397.011,220.527z"/>
	<path fill="#CECECE" d="M78.784,472.029h326.177c10.625-3.039,16.565-6.426,16.565-9.996H62.218
		C62.218,465.604,68.159,468.99,78.784,472.029z"/>
	<g>
		<path fill="#FFFFFF" d="M81.301,467.59h-6.688c-0.308,0-0.558-0.25-0.558-0.559c0-0.307,0.25-0.557,0.558-0.557h6.688
			c0.308,0,0.557,0.25,0.557,0.557C81.858,467.34,81.609,467.59,81.301,467.59z"/>
		<path fill="#FFFFFF" d="M384.352,467.59h-13.774c-0.309,0-0.558-0.25-0.558-0.559c0-0.307,0.249-0.557,0.558-0.557h13.774
			c0.309,0,0.558,0.25,0.558,0.557C384.909,467.34,384.66,467.59,384.352,467.59z M356.803,467.59h-13.775
			c-0.308,0-0.557-0.25-0.557-0.559c0-0.307,0.249-0.557,0.557-0.557h13.775c0.308,0,0.557,0.25,0.557,0.557
			C357.359,467.34,357.11,467.59,356.803,467.59z M329.252,467.59h-13.774c-0.309,0-0.558-0.25-0.558-0.559
			c0-0.307,0.249-0.557,0.558-0.557h13.774c0.308,0,0.558,0.25,0.558,0.557C329.81,467.34,329.56,467.59,329.252,467.59z
			 M301.702,467.59h-13.775c-0.309,0-0.558-0.25-0.558-0.559c0-0.307,0.249-0.557,0.558-0.557h13.775
			c0.309,0,0.558,0.25,0.558,0.557C302.26,467.34,302.011,467.59,301.702,467.59z M274.151,467.59h-13.774
			c-0.308,0-0.558-0.25-0.558-0.559c0-0.307,0.25-0.557,0.558-0.557h13.774c0.309,0,0.558,0.25,0.558,0.557
			C274.709,467.34,274.46,467.59,274.151,467.59z M246.602,467.59h-13.775c-0.308,0-0.557-0.25-0.557-0.559
			c0-0.307,0.249-0.557,0.557-0.557h13.775c0.308,0,0.557,0.25,0.557,0.557C247.158,467.34,246.909,467.59,246.602,467.59z
			 M219.052,467.59h-13.776c-0.308,0-0.557-0.25-0.557-0.559c0-0.307,0.249-0.557,0.557-0.557h13.776
			c0.308,0,0.558,0.25,0.558,0.557C219.609,467.34,219.36,467.59,219.052,467.59z M191.501,467.59h-13.775
			c-0.308,0-0.557-0.25-0.557-0.559c0-0.307,0.249-0.557,0.557-0.557h13.775c0.308,0,0.557,0.25,0.557,0.557
			C192.059,467.34,191.81,467.59,191.501,467.59z M163.952,467.59h-13.776c-0.308,0-0.557-0.25-0.557-0.559
			c0-0.307,0.25-0.557,0.557-0.557h13.776c0.308,0,0.558,0.25,0.558,0.557C164.509,467.34,164.26,467.59,163.952,467.59z
			 M136.401,467.59h-13.775c-0.308,0-0.557-0.25-0.557-0.559c0-0.307,0.249-0.557,0.557-0.557h13.775
			c0.308,0,0.557,0.25,0.557,0.557C136.958,467.34,136.709,467.59,136.401,467.59z M108.851,467.59H95.076
			c-0.308,0-0.558-0.25-0.558-0.559c0-0.307,0.25-0.557,0.558-0.557h13.774c0.308,0,0.558,0.25,0.558,0.557
			C109.408,467.34,109.159,467.59,108.851,467.59z"/>
		<path fill="#FFFFFF" d="M404.815,467.59h-6.688c-0.309,0-0.558-0.25-0.558-0.559c0-0.307,0.249-0.557,0.558-0.557h6.688
			c0.308,0,0.557,0.25,0.557,0.557C405.372,467.34,405.123,467.59,404.815,467.59z"/>
	</g>
</g>
</svg>
