<?xml version="1.0" encoding="utf-8"?>
<!-- Generator: Adobe Illustrator 16.0.0, SVG Export Plug-In . SVG Version: 6.00 Build 0)  -->
<!DOCTYPE svg PUBLIC "-//W3C//DTD SVG 1.1//EN" "http://www.w3.org/Graphics/SVG/1.1/DTD/svg11.dtd">
<svg version="1.1" id="Capa_1" xmlns="http://www.w3.org/2000/svg" xmlns:xlink="http://www.w3.org/1999/xlink" x="0px" y="0px"
	 width="500px" height="500px" viewBox="0 0 500 500" enable-background="new 0 0 500 500" xml:space="preserve">
<rect opacity="0" fill="#FFFFFF" stroke="#000000" stroke-miterlimit="10" width="500" height="500"/>
<g>
	<radialGradient id="SVGID_1_" cx="250.0571" cy="261.4854" r="164.1711" gradientUnits="userSpaceOnUse">
		<stop  offset="0" style="stop-color:#AADCF6"/>
		<stop  offset="1" style="stop-color:#AADCF6;stop-opacity:0"/>
	</radialGradient>
	<circle opacity="0.8" fill="url(#SVGID_1_)" cx="250.057" cy="261.484" r="164.171"/>
	<linearGradient id="SVGID_2_" gradientUnits="userSpaceOnUse" x1="293.0029" y1="143.9478" x2="335.0833" y2="304.4305">
		<stop  offset="0" style="stop-color:#FFFFFF"/>
		<stop  offset="1" style="stop-color:#FFFFFF;stop-opacity:0"/>
	</linearGradient>
	<path opacity="0.4" fill="url(#SVGID_2_)" d="M310.779,352.613c11.782,0,60.927-48.086,42.471-119.766
		c-18.39-71.418-76.94-87.216-92.417-87.216L310.779,352.613z"/>
	<polygon fill="#F29598" points="284.397,206.184 263.867,226.844 287.153,251.184 296.153,219.517 	"/>
	<path fill="#20B4B0" d="M313.679,476.389c0,4.48-27.407,8.113-61.214,8.113c-33.812,0-61.219-3.633-61.219-8.113
		s27.406-8.111,61.219-8.111C286.271,468.277,313.679,471.908,313.679,476.389z"/>
	<g>
		<path fill="#2E3F51" d="M264.435,329.701h-4.591h-4.588h-4.59h-4.592h-4.588h-4.589v7.982c0,1.48,1.027,2.678,2.294,2.678
			s2.295-1.197,2.295-2.678c0,1.48,1.026,2.678,2.294,2.678c1.269,0,2.294-1.197,2.294-2.678c0,1.48,1.028,2.678,2.296,2.678
			c1.269,0,2.296-1.197,2.296-2.678c0,1.48,1.025,2.678,2.294,2.678c1.268,0,2.296-1.197,2.296-2.678
			c0,1.48,1.025,2.678,2.293,2.678s2.295-1.197,2.295-2.678c0,1.48,1.028,2.678,2.296,2.678c1.267,0,2.295-1.197,2.295-2.678
			c0,1.48,1.026,2.678,2.293,2.678s2.295-1.197,2.295-2.678v-7.982H264.435z"/>
		<rect x="236.897" y="293.447" fill="#F3A8A0" width="32.121" height="37.568"/>
	</g>
	<g>
		<g>
			<rect x="240.32" y="306.184" fill="#EB5E4E" width="3.904" height="158.031"/>
			<path fill="#EB5E4E" d="M230.347,299.34c0,6.582,5.341,11.924,11.925,11.924c6.589,0,11.926-5.342,11.926-11.924"/>
			<rect x="237.595" y="464.215" fill="#2E3F51" width="9.498" height="9.498"/>
			<polygon fill="#FFFFFF" points="239.522,473.713 242.344,468.963 245.132,473.713 			"/>
			<path fill="#EB5E4E" d="M235.645,378.268c0,3.66,2.964,6.627,6.627,6.627c3.664,0,6.629-2.967,6.629-6.627
				c0-3.664-2.965-6.631-6.629-6.631C238.608,371.637,235.645,374.604,235.645,378.268z"/>
		</g>
		<g>
			<rect x="261.519" y="306.184" fill="#F18A86" width="3.904" height="158.031"/>
			<path fill="#F18A86" d="M251.545,299.34c0,6.582,5.341,11.924,11.925,11.924c6.59,0,11.926-5.342,11.926-11.924"/>
			<rect x="258.793" y="464.215" fill="#2E3F51" width="9.498" height="9.498"/>
			<polygon fill="#FFFFFF" points="260.721,473.713 263.543,468.963 266.331,473.713 			"/>
			<path fill="#F18A86" d="M256.844,378.268c0,3.66,2.964,6.627,6.626,6.627s6.629-2.967,6.629-6.627
				c0-3.664-2.967-6.631-6.629-6.631S256.844,374.604,256.844,378.268z"/>
		</g>
	</g>
	<rect x="244.549" y="140.326" fill="#F3A8A0" width="15.826" height="105.055"/>
	<circle fill="#F29598" cx="252.431" cy="264.256" r="42.292"/>
	<g>
		<path fill="#F29598" d="M233.535,119.812c-3.004,10.256,2.874,21.002,13.127,24.006c10.258,3.004,21.006-2.874,24.009-13.129
			c3.004-10.254-2.875-21.002-13.13-24.005C247.288,103.68,236.54,109.558,233.535,119.812z"/>
		<path fill="#FFFFFF" d="M238.905,136.946c-1.208,4.116,1.152,8.434,5.27,9.639l3.163,0.926c4.118,1.207,8.433-1.153,9.64-5.27
			l4.233-14.457c1.205-4.118-1.154-8.433-5.271-9.639l-3.162-0.928c-4.117-1.205-8.432,1.156-9.638,5.272L238.905,136.946z"/>
		<polygon fill="#2E3F51" points="243.14,122.49 261.211,127.784 254.07,152.161 241.613,161.191 235.999,146.867 		"/>
		<g>
			<circle fill="#FFFFFF" cx="246.701" cy="113.935" r="2.756"/>
			<circle fill="#2E3F51" cx="246.702" cy="113.935" r="0.888"/>
		</g>
		<g>
			<circle fill="#F29598" cx="256.518" cy="97.452" r="2.055"/>
			<polygon fill="#F29598" points="258.569,97.333 257.056,106.685 254.467,97.57 			"/>
		</g>
		<g>
			<circle fill="#F29598" cx="260.834" cy="101.402" r="1.414"/>
			<polygon fill="#F29598" points="259.689,100.571 257.095,106.553 261.979,102.232 			"/>
		</g>
		<path fill="none" stroke="#2E3F51" stroke-width="2.2836" stroke-linecap="round" stroke-miterlimit="10" d="M250.908,99.985
			c-3.832-0.816-7.598,1.627-8.417,5.46"/>
		<path fill="none" stroke="#2E3F51" stroke-width="2.2836" stroke-linecap="round" stroke-miterlimit="10" d="M264.422,106.61
			c3.666,1.38,5.521,5.469,4.14,9.138"/>
		<g>
			<circle fill="#FFFFFF" cx="262.875" cy="118.472" r="2.756"/>
		</g>
	</g>
	<g>
		<g>
			<path fill="#007080" d="M281.658,81.112c1.772-2.04,3.823-3.117,6.152-3.234c2.328-0.116,4.363,0.582,6.105,2.096
				c2.039,1.773,3.086,3.711,3.141,5.811c0.053,2.099-0.851,4.219-2.71,6.357c-1.817,2.09-3.89,3.193-6.218,3.31
				c-2.328,0.115-4.389-0.604-6.18-2.161C277.818,89.698,277.721,85.64,281.658,81.112z M303.61,77.263l-10.315-8.18
				c2.363-3.624,4.258-6.258,5.686-7.899c1.384-1.592,3.459-2.648,6.229-3.169c2.766-0.521,5.443-0.684,8.027-0.491
				c2.582,0.193,5.225,0.066,7.93-0.38c2.701-0.446,4.724-1.439,6.064-2.982c2.855-3.285,2.044-6.873-2.435-10.766
				c-0.946-0.822-2.043-1.645-3.292-2.469c-1.25-0.824-2.242-1.468-2.975-1.93l-1.09-0.555l5.328-8.996
				c5.169,2.396,9.396,5.021,12.68,7.877c2.687,2.334,4.807,4.769,6.363,7.301c1.556,2.531,2.302,5.342,2.237,8.431
				c-0.063,3.089-1.308,6.026-3.73,8.813c-1.86,2.14-4.071,3.754-6.636,4.845c-2.565,1.091-5.112,1.76-7.641,2.007
				c-2.53,0.247-4.996,0.42-7.395,0.518c-2.4,0.098-4.634,0.406-6.7,0.924c-2.067,0.518-3.642,1.4-4.722,2.644L303.61,77.263z"/>
		</g>
		<g>
			<path fill="#20B4B0" d="M209.463,55.524c1.077,1.09,1.598,2.296,1.563,3.617c-0.034,1.322-0.517,2.441-1.447,3.361
				c-1.09,1.076-2.229,1.584-3.418,1.525c-1.189-0.061-2.349-0.662-3.478-1.805c-1.104-1.117-1.639-2.336-1.603-3.657
				c0.034-1.321,0.529-2.454,1.486-3.399C204.774,52.985,207.073,53.105,209.463,55.524z M210.694,68.099l5.067-5.479
				c1.947,1.49,3.354,2.676,4.221,3.553c0.84,0.852,1.348,2.07,1.523,3.656c0.176,1.587,0.152,3.106-0.067,4.56
				c-0.22,1.45-0.263,2.951-0.126,4.497c0.135,1.547,0.611,2.732,1.425,3.557c1.733,1.755,3.797,1.451,6.189-0.912
				c0.506-0.5,1.017-1.084,1.536-1.755s0.927-1.204,1.219-1.599l0.36-0.592l4.855,3.398c-1.576,2.817-3.242,5.094-4.996,6.826
				c-1.437,1.42-2.903,2.514-4.401,3.285c-1.497,0.77-3.117,1.07-4.861,0.901c-1.743-0.171-3.35-0.999-4.82-2.487
				c-1.13-1.144-1.947-2.463-2.453-3.96c-0.507-1.496-0.775-2.964-0.806-4.405c-0.031-1.44-0.022-2.842,0.024-4.201
				c0.049-1.361-0.029-2.637-0.233-3.826c-0.204-1.191-0.636-2.118-1.292-2.782L210.694,68.099z"/>
		</g>
		<g>
			<path fill="#EB5E4E" d="M262.973,50.424l-8.97,1.256c-0.683-2.896-1.095-5.09-1.235-6.58c-0.136-1.444,0.323-2.979,1.377-4.605
				c1.054-1.624,2.242-3.035,3.563-4.229c1.322-1.194,2.514-2.571,3.573-4.129s1.525-3.037,1.394-4.438
				c-0.281-2.979-2.453-4.276-6.517-3.894c-0.858,0.081-1.788,0.236-2.791,0.468c-1.004,0.23-1.795,0.421-2.373,0.564l-0.794,0.28
				l-1.95-6.922c3.645-1.437,6.958-2.296,9.938-2.576c2.438-0.23,4.656-0.132,6.655,0.296c1.998,0.426,3.753,1.388,5.261,2.885
				c1.507,1.498,2.38,3.512,2.618,6.039c0.183,1.941-0.062,3.81-0.735,5.604c-0.675,1.796-1.55,3.382-2.626,4.758
				c-1.078,1.377-2.162,2.687-3.251,3.928c-1.09,1.241-1.997,2.5-2.719,3.775c-0.724,1.275-1.03,2.478-0.924,3.605L262.973,50.424z
				 M254.473,63.182c-0.175-1.851,0.263-3.383,1.309-4.599c1.047-1.214,2.36-1.896,3.941-2.045c1.851-0.175,3.311,0.223,4.383,1.192
				c1.07,0.97,1.697,2.426,1.88,4.366c0.179,1.896-0.255,3.452-1.302,4.667c-1.047,1.214-2.384,1.898-4.009,2.052
				C256.927,69.169,254.86,67.291,254.473,63.182z"/>
		</g>
		<g>
			<path fill="#EB5E4E" d="M210.377,122.236l-1.246,4.235c-1.424-0.279-2.481-0.538-3.171-0.775
				c-0.669-0.23-1.257-0.743-1.768-1.538c-0.51-0.795-0.896-1.606-1.161-2.434s-0.637-1.633-1.113-2.417
				c-0.479-0.783-1.043-1.288-1.689-1.511c-1.381-0.475-2.394,0.229-3.041,2.109c-0.137,0.397-0.255,0.843-0.353,1.333
				c-0.1,0.493-0.176,0.882-0.228,1.168l-0.035,0.408l-3.466-0.526c0.096-1.907,0.38-3.551,0.854-4.931
				c0.389-1.129,0.879-2.094,1.471-2.896s1.371-1.387,2.34-1.755s2.038-0.351,3.208,0.053c0.898,0.309,1.679,0.794,2.339,1.453
				c0.662,0.661,1.19,1.369,1.584,2.124c0.396,0.755,0.759,1.5,1.091,2.233c0.333,0.733,0.709,1.39,1.128,1.966
				c0.422,0.578,0.894,0.956,1.416,1.136L210.377,122.236z M214.331,128.577c-0.856-0.295-1.449-0.797-1.778-1.507
				c-0.328-0.709-0.367-1.43-0.115-2.161c0.295-0.856,0.766-1.425,1.411-1.705c0.646-0.281,1.419-0.267,2.317,0.043
				c0.877,0.302,1.481,0.808,1.81,1.517c0.328,0.71,0.362,1.44,0.104,2.192C217.482,128.691,216.233,129.231,214.331,128.577z"/>
		</g>
		<g>
			<path fill="#A4D8DF" d="M295.093,122.076l1.396,3.077c-0.964,0.551-1.706,0.93-2.224,1.138c-0.503,0.201-1.101,0.198-1.794-0.007
				c-0.692-0.205-1.323-0.482-1.89-0.828c-0.567-0.348-1.186-0.629-1.855-0.844c-0.669-0.215-1.248-0.226-1.734-0.03
				c-1.037,0.415-1.272,1.33-0.706,2.744c0.12,0.298,0.273,0.614,0.463,0.948c0.188,0.336,0.339,0.599,0.452,0.79l0.184,0.255
				l-2.271,1.43c-0.899-1.153-1.557-2.248-1.972-3.285c-0.34-0.849-0.539-1.653-0.598-2.413c-0.059-0.761,0.102-1.489,0.479-2.187
				c0.376-0.698,1.005-1.223,1.885-1.575c0.675-0.271,1.369-0.381,2.083-0.328c0.713,0.051,1.373,0.196,1.979,0.437
				s1.189,0.491,1.749,0.75s1.105,0.45,1.638,0.573c0.533,0.124,0.996,0.106,1.388-0.05L295.093,122.076z M300.557,123.771
				c-0.645,0.258-1.238,0.263-1.784,0.017c-0.545-0.246-0.928-0.645-1.147-1.193c-0.259-0.645-0.27-1.21-0.036-1.695
				c0.233-0.484,0.688-0.864,1.363-1.135c0.66-0.264,1.263-0.272,1.808-0.025c0.546,0.246,0.932,0.652,1.158,1.218
				C302.439,122.261,301.986,123.199,300.557,123.771z"/>
		</g>
	</g>
	<path fill="#F29598" d="M294.104,270.127c7.133,0,36.883-29.11,25.71-72.503c-11.132-43.234-46.577-52.798-55.946-52.798
		L294.104,270.127z"/>
	<path fill="#2E3F51" d="M260.401,146.666c0.124,0.521,0.649,0.842,1.17,0.718c-0.521,0.124-0.841,0.647-0.716,1.17
		c0.126,0.521,0.648,0.842,1.171,0.716c-0.522,0.126-0.842,0.65-0.716,1.171c0.125,0.521,0.648,0.842,1.17,0.718
		c-0.521,0.124-0.842,0.648-0.715,1.169c0.125,0.523,0.648,0.844,1.17,0.719c-0.521,0.125-0.842,0.647-0.716,1.17
		c0.125,0.521,0.648,0.842,1.171,0.715c-0.522,0.127-0.843,0.651-0.716,1.172c0.125,0.521,0.648,0.843,1.17,0.718
		c-0.521,0.125-0.841,0.648-0.716,1.171c0.126,0.521,0.648,0.841,1.171,0.714c-0.522,0.127-0.843,0.65-0.716,1.172
		c0.124,0.521,0.647,0.841,1.17,0.716c-0.522,0.125-0.842,0.65-0.716,1.171c0.126,0.522,0.648,0.843,1.17,0.718
		c-0.521,0.125-0.842,0.648-0.715,1.171c0.126,0.521,0.647,0.842,1.17,0.716c-0.522,0.126-0.842,0.65-0.716,1.171
		c0.125,0.521,0.648,0.842,1.171,0.717c-0.522,0.125-0.843,0.649-0.716,1.17c0.126,0.522,0.647,0.843,1.17,0.717
		c-0.522,0.126-0.842,0.65-0.716,1.171c0.125,0.521,0.648,0.842,1.171,0.717c-0.522,0.125-0.842,0.649-0.716,1.17
		c0.126,0.521,0.647,0.844,1.171,0.717c-0.523,0.127-0.843,0.65-0.717,1.172c0.124,0.52,0.648,0.842,1.171,0.716
		c-0.522,0.126-0.843,0.648-0.718,1.17c0.127,0.521,0.649,0.842,1.171,0.716c-0.521,0.126-0.841,0.65-0.715,1.173
		c0.126,0.521,0.648,0.842,1.171,0.716c-0.522,0.126-0.843,0.649-0.717,1.17c0.126,0.522,0.65,0.844,1.172,0.719
		c-0.521,0.125-0.842,0.648-0.717,1.17c0.125,0.52,0.648,0.841,1.172,0.716c-0.523,0.125-0.844,0.651-0.718,1.171
		c0.126,0.522,0.649,0.845,1.172,0.718c-0.522,0.127-0.843,0.648-0.718,1.169c0.126,0.522,0.649,0.843,1.172,0.717
		c-0.522,0.126-0.843,0.65-0.717,1.172c0.125,0.52,0.648,0.841,1.172,0.715c-0.523,0.126-0.843,0.649-0.718,1.171
		c0.126,0.523,0.649,0.843,1.172,0.717c-0.522,0.126-0.843,0.65-0.717,1.172c0.126,0.521,0.649,0.842,1.172,0.717
		c-0.522,0.125-0.843,0.647-0.718,1.171c0.126,0.52,0.65,0.842,1.172,0.716c-0.521,0.126-0.844,0.649-0.718,1.17
		c0.127,0.521,0.65,0.843,1.171,0.718c-0.521,0.125-0.841,0.65-0.715,1.171c0.125,0.521,0.649,0.843,1.171,0.716
		c-0.521,0.127-0.843,0.649-0.718,1.171c0.127,0.522,0.65,0.843,1.172,0.716c-0.521,0.127-0.842,0.65-0.716,1.171
		c0.124,0.521,0.649,0.843,1.171,0.718c-0.521,0.125-0.843,0.648-0.718,1.17c0.127,0.521,0.649,0.842,1.172,0.715
		c-0.522,0.127-0.843,0.651-0.717,1.173s0.65,0.842,1.171,0.716c-0.521,0.126-0.842,0.649-0.717,1.171
		c0.127,0.521,0.65,0.843,1.172,0.717c-0.521,0.126-0.842,0.649-0.717,1.172c0.126,0.52,0.65,0.84,1.172,0.715
		c-0.521,0.125-0.843,0.651-0.717,1.171c0.126,0.521,0.649,0.843,1.171,0.718c-0.521,0.125-0.842,0.649-0.717,1.17
		c0.126,0.521,0.649,0.843,1.172,0.716l2.812-0.677l-0.455-1.888l-0.454-1.887l-0.455-1.888l-0.454-1.887l-0.455-1.889l-0.453-1.887
		l-0.456-1.886l-0.454-1.889l-0.455-1.887l-0.454-1.887l-0.454-1.889l-0.455-1.887l-0.454-1.888l-0.455-1.887l-0.454-1.887
		l-0.454-1.888l-0.456-1.887l-0.453-1.889l-0.456-1.888l-0.453-1.887l-0.456-1.887l-0.453-1.888l-0.456-1.887l-0.454-1.887
		l-0.454-1.889l-0.455-1.888l-0.454-1.887l-0.454-1.888l-0.454-1.886l-0.455-1.889l-0.455-1.887l-0.454-1.888l-0.455-1.888
		l-0.454-1.887l-0.455-1.887l-2.812,0.676C260.595,145.62,260.275,146.146,260.401,146.666z"/>
	<polygon fill="#F29598" points="305.977,261.486 293.082,275.941 288.487,261.486 	"/>
	<circle fill="#F3A8A0" cx="252.537" cy="248.628" r="7.848"/>
	<rect x="244.549" y="216.472" fill="#F3A8A0" width="15.867" height="32.379"/>
	<path fill="#F18A86" d="M235.999,233.105l-0.721,0.257c-5.31,4.024-15.748,11.725-22.706,16.841
		c-1.57,4.421-2.433,9.175-2.433,14.135c0,13.152,6.003,24.9,15.417,32.656C248.605,273.947,235.999,233.105,235.999,233.105z"/>
	<g>
		<path fill="#007080" d="M119.971,223.23c0.269,2.688-0.354,4.92-1.867,6.695c-1.513,1.773-3.416,2.775-5.713,3.004
			c-2.689,0.268-4.817-0.3-6.382-1.7c-1.563-1.401-2.486-3.514-2.768-6.333c-0.273-2.756,0.346-5.021,1.857-6.795
			c1.514-1.772,3.451-2.778,5.812-3.014C116.358,214.546,119.378,217.26,119.971,223.23z M107.713,241.844l13.028-1.895
			c1.016,4.206,1.632,7.391,1.847,9.556c0.209,2.099-0.445,4.334-1.967,6.706c-1.518,2.37-3.236,4.43-5.149,6.178
			c-1.912,1.746-3.633,3.756-5.163,6.031c-1.528,2.271-2.193,4.424-1.99,6.457c0.432,4.332,3.599,6.203,9.503,5.615
			c1.248-0.125,2.598-0.359,4.055-0.703s2.606-0.623,3.444-0.84l1.151-0.412l2.891,10.047c-5.289,2.117-10.099,3.393-14.43,3.822
			c-3.541,0.354-6.767,0.227-9.677-0.377c-2.909-0.605-5.466-1.99-7.669-4.156c-2.204-2.166-3.488-5.086-3.854-8.76
			c-0.281-2.822,0.062-5.537,1.026-8.152c0.967-2.615,2.227-4.928,3.781-6.936c1.557-2.012,3.122-3.924,4.696-5.736
			c1.576-1.813,2.883-3.65,3.924-5.509c1.042-1.859,1.479-3.61,1.316-5.249L107.713,241.844z"/>
	</g>
	<g>
		<path fill="#20B4B0" d="M188.114,188.254c-1.531,0.036-2.766-0.412-3.704-1.344s-1.422-2.051-1.453-3.359
			c-0.035-1.531,0.377-2.708,1.235-3.533c0.859-0.823,2.093-1.255,3.698-1.292c1.57-0.036,2.824,0.41,3.761,1.343
			c0.938,0.932,1.422,2.068,1.453,3.413C193.179,186.584,191.514,188.175,188.114,188.254z M178.121,180.524l0.51,7.445
			c-2.42,0.395-4.247,0.604-5.48,0.634c-1.195,0.026-2.431-0.44-3.705-1.4c-1.275-0.96-2.365-2.02-3.271-3.177
			c-0.904-1.154-1.967-2.216-3.186-3.177c-1.218-0.963-2.407-1.43-3.565-1.403c-2.466,0.058-3.66,1.768-3.582,5.13
			c0.017,0.711,0.091,1.483,0.223,2.321s0.24,1.5,0.327,1.983l0.184,0.668l-5.804,1.202c-0.969-3.08-1.482-5.854-1.539-8.318
			c-0.048-2.02,0.162-3.837,0.629-5.456c0.467-1.617,1.359-3.002,2.679-4.155c1.32-1.151,3.024-1.752,5.116-1.801
			c1.607-0.038,3.128,0.272,4.564,0.932c1.437,0.657,2.688,1.469,3.758,2.436c1.07,0.965,2.083,1.933,3.04,2.899
			c0.957,0.97,1.938,1.788,2.944,2.455c1.007,0.669,1.978,0.99,2.91,0.969L178.121,180.524z"/>
	</g>
	<g>
		<path fill="#EB5E4E" d="M155.118,230.687l5.239-7.388c2.575,1.489,4.454,2.695,5.636,3.615c1.144,0.892,1.945,2.278,2.406,4.161
			c0.459,1.881,0.67,3.714,0.633,5.494c-0.038,1.781,0.146,3.593,0.553,5.433c0.406,1.839,1.164,3.193,2.272,4.058
			c2.36,1.839,4.795,1.148,7.304-2.07c0.53-0.681,1.055-1.463,1.574-2.352c0.521-0.889,0.925-1.595,1.217-2.114l0.341-0.77
			l6.374,3.329c-1.454,3.638-3.102,6.638-4.942,8.998c-1.505,1.933-3.098,3.479-4.78,4.64c-1.681,1.161-3.584,1.778-5.708,1.849
			c-2.124,0.068-4.188-0.678-6.19-2.238c-1.537-1.198-2.729-2.658-3.572-4.379c-0.844-1.723-1.397-3.447-1.66-5.174
			c-0.263-1.729-0.472-3.417-0.628-5.061c-0.155-1.645-0.449-3.168-0.882-4.568c-0.432-1.401-1.096-2.448-1.99-3.145
			L155.118,230.687z M151.667,215.75c1.466,1.143,2.281,2.512,2.448,4.107c0.165,1.594-0.24,3.018-1.216,4.271
			c-1.143,1.466-2.434,2.256-3.875,2.371c-1.439,0.113-2.929-0.43-4.466-1.628c-1.503-1.171-2.337-2.554-2.503-4.148
			c-0.165-1.595,0.254-3.037,1.257-4.324C145.627,213.429,148.411,213.214,151.667,215.75z"/>
	</g>
	<g>
		<path fill="#EB5E4E" d="M148.644,141.921l-2.228-3.812c1.181-0.845,2.094-1.437,2.739-1.775c0.627-0.329,1.403-0.404,2.332-0.231
			c0.928,0.175,1.784,0.45,2.567,0.825s1.625,0.656,2.522,0.848c0.898,0.189,1.652,0.125,2.258-0.192
			c1.293-0.68,1.476-1.898,0.552-3.66c-0.195-0.372-0.438-0.764-0.729-1.171c-0.29-0.41-0.521-0.732-0.693-0.967l-0.273-0.306
			l2.761-2.16c1.322,1.378,2.323,2.712,3.002,4.004c0.555,1.058,0.92,2.076,1.098,3.057s0.068,1.948-0.328,2.906
			c-0.396,0.957-1.144,1.724-2.239,2.298c-0.841,0.442-1.729,0.677-2.662,0.705c-0.935,0.028-1.812-0.073-2.632-0.305
			c-0.82-0.23-1.612-0.477-2.373-0.738c-0.763-0.261-1.498-0.438-2.204-0.528c-0.71-0.09-1.309-0.006-1.798,0.251L148.644,141.921z
			 M141.317,140.448c0.802-0.421,1.573-0.508,2.316-0.26c0.74,0.247,1.292,0.714,1.651,1.398c0.421,0.802,0.511,1.534,0.272,2.196
			c-0.238,0.663-0.779,1.216-1.621,1.657c-0.821,0.431-1.604,0.523-2.345,0.276c-0.742-0.249-1.297-0.725-1.667-1.429
			C139.072,142.663,139.536,141.384,141.317,140.448z"/>
	</g>
	<g>
		<path fill="#A4D8DF" d="M80.949,204.904l-3.196-1.095c0.26-1.079,0.493-1.88,0.697-2.398c0.198-0.504,0.61-0.938,1.235-1.301
			c0.624-0.363,1.259-0.632,1.899-0.807c0.642-0.175,1.271-0.432,1.887-0.771c0.615-0.34,1.02-0.753,1.211-1.241
			c0.41-1.039-0.095-1.838-1.512-2.396c-0.299-0.116-0.635-0.222-1.008-0.313c-0.373-0.094-0.668-0.164-0.885-0.213l-0.312-0.041
			l0.518-2.633c1.456,0.137,2.703,0.409,3.743,0.818c0.851,0.335,1.572,0.742,2.165,1.221c0.594,0.479,1.015,1.096,1.263,1.849
			c0.25,0.752,0.2,1.569-0.146,2.452c-0.266,0.676-0.662,1.257-1.19,1.74c-0.526,0.483-1.085,0.864-1.675,1.141
			c-0.592,0.276-1.174,0.528-1.746,0.758c-0.572,0.23-1.086,0.496-1.541,0.799s-0.76,0.651-0.915,1.044L80.949,204.904z
			 M75.968,207.717c0.255-0.646,0.658-1.081,1.212-1.31c0.553-0.228,1.105-0.233,1.655-0.017c0.646,0.254,1.065,0.634,1.258,1.137
			c0.193,0.502,0.157,1.094-0.109,1.771c-0.261,0.661-0.668,1.105-1.221,1.333c-0.554,0.228-1.114,0.229-1.681,0.007
			C75.775,210.123,75.403,209.149,75.968,207.717z"/>
	</g>
	<g>
		<path fill="#A4D8DF" d="M335.713,174.558c-0.079-2.7,0.698-4.883,2.331-6.549c1.633-1.662,3.602-2.529,5.908-2.597
			c2.702-0.079,4.786,0.636,6.248,2.142c1.462,1.507,2.234,3.68,2.318,6.512c0.08,2.768-0.695,4.984-2.328,6.648
			c-1.634,1.662-3.637,2.53-6.009,2.6C338.71,183.475,335.887,180.555,335.713,174.558z M349.242,156.848l-13.128,0.979
			c-0.72-4.268-1.111-7.487-1.175-9.662c-0.062-2.107,0.747-4.291,2.431-6.551c1.68-2.259,3.538-4.193,5.568-5.803
			c2.029-1.609,3.887-3.493,5.572-5.656c1.684-2.158,2.497-4.259,2.437-6.302c-0.128-4.351-3.156-6.439-9.088-6.266
			c-1.253,0.038-2.615,0.177-4.093,0.417c-1.479,0.241-2.645,0.44-3.495,0.598l-1.177,0.332l-2.182-10.227
			c5.424-1.741,10.311-2.677,14.662-2.803c3.557-0.106,6.766,0.246,9.626,1.052c2.86,0.808,5.313,2.368,7.36,4.683
			s3.124,5.316,3.231,9.008c0.083,2.834-0.448,5.52-1.594,8.06c-1.147,2.541-2.565,4.761-4.258,6.655
			c-1.692,1.897-3.389,3.695-5.085,5.394c-1.698,1.698-3.131,3.439-4.3,5.221c-1.169,1.782-1.728,3.498-1.68,5.144L349.242,156.848z
			"/>
	</g>
	<g>
		<path fill="#20B4B0" d="M340.043,298.225c1.11,1.055,1.668,2.246,1.674,3.566c0.007,1.324-0.441,2.457-1.345,3.406
			c-1.057,1.107-2.179,1.65-3.369,1.627c-1.189-0.023-2.369-0.59-3.53-1.695c-1.138-1.084-1.71-2.285-1.714-3.607
			c-0.006-1.322,0.455-2.469,1.381-3.443C335.279,295.83,337.581,295.881,340.043,298.225z M341.658,310.754l4.897-5.629
			c1.991,1.43,3.435,2.572,4.328,3.422c0.865,0.824,1.409,2.029,1.633,3.607c0.226,1.582,0.248,3.102,0.073,4.561
			c-0.177,1.455-0.173,2.957,0.011,4.498c0.183,1.543,0.695,2.713,1.533,3.512c1.785,1.703,3.84,1.334,6.158-1.1
			c0.49-0.516,0.982-1.115,1.481-1.801c0.498-0.688,0.89-1.232,1.171-1.635l0.342-0.604l4.957,3.248
			c-1.49,2.865-3.086,5.191-4.785,6.975c-1.394,1.465-2.826,2.604-4.3,3.42c-1.473,0.814-3.082,1.164-4.832,1.049
			c-1.747-0.117-3.378-0.896-4.894-2.34c-1.164-1.107-2.021-2.402-2.572-3.883c-0.553-1.479-0.866-2.938-0.94-4.379
			c-0.076-1.438-0.109-2.84-0.104-4.199c0.009-1.363-0.109-2.635-0.35-3.816c-0.24-1.186-0.7-2.098-1.375-2.742L341.658,310.754z"/>
	</g>
	<g>
		<path fill="#EB5E4E" d="M405.452,290.41l-8.766,10.691c-3.763-2.541-6.496-4.58-8.198-6.105c-1.645-1.48-2.718-3.678-3.22-6.594
			c-0.498-2.914-0.622-5.727-0.378-8.436c0.248-2.707,0.161-5.484-0.262-8.33c-0.421-2.844-1.432-4.988-3.026-6.424
			c-3.399-3.051-7.18-2.26-11.346,2.375c-0.879,0.979-1.762,2.115-2.646,3.412c-0.891,1.297-1.579,2.33-2.08,3.092l-0.601,1.135
			l-9.353-5.75c2.604-5.387,5.433-9.778,8.487-13.176c2.499-2.783,5.089-4.968,7.775-6.557c2.683-1.589,5.646-2.325,8.89-2.205
			c3.24,0.121,6.305,1.478,9.189,4.068c2.212,1.989,3.871,4.34,4.972,7.051c1.1,2.713,1.759,5.398,1.976,8.055
			c0.216,2.662,0.354,5.256,0.415,7.775c0.062,2.52,0.348,4.871,0.856,7.049c0.508,2.182,1.408,3.846,2.695,5.002L405.452,290.41z
			 M409.113,313.525c-2.109-1.896-3.205-4.068-3.288-6.518c-0.082-2.443,0.688-4.568,2.306-6.373
			c1.896-2.109,3.948-3.176,6.154-3.195c2.205-0.02,4.414,0.965,6.627,2.955c2.164,1.943,3.289,4.137,3.369,6.584
			c0.082,2.447-0.711,4.598-2.375,6.451C418.064,317.707,413.803,317.734,409.113,313.525z"/>
	</g>
	<g>
		<path fill="#F29598" d="M330.051,271.303l1.955,3.957c-1.237,0.76-2.188,1.285-2.856,1.578c-0.648,0.285-1.428,0.307-2.343,0.068
			c-0.913-0.238-1.749-0.572-2.504-1.002s-1.574-0.768-2.457-1.021c-0.883-0.252-1.639-0.24-2.266,0.033
			c-1.337,0.588-1.604,1.791-0.806,3.613c0.169,0.385,0.384,0.791,0.645,1.219c0.262,0.43,0.468,0.768,0.624,1.014l0.252,0.322
			l-2.905,1.963c-1.223-1.467-2.127-2.869-2.715-4.205c-0.479-1.092-0.771-2.135-0.881-3.125s0.067-1.949,0.53-2.875
			c0.462-0.928,1.261-1.641,2.395-2.137c0.869-0.383,1.772-0.555,2.704-0.518c0.935,0.037,1.804,0.199,2.605,0.488
			c0.801,0.287,1.574,0.588,2.314,0.902c0.743,0.312,1.465,0.541,2.162,0.682c0.702,0.139,1.306,0.096,1.812-0.125L330.051,271.303z
			 M337.256,273.283c-0.829,0.363-1.604,0.396-2.329,0.098c-0.721-0.299-1.239-0.803-1.55-1.512
			c-0.363-0.828-0.401-1.566-0.118-2.211c0.284-0.645,0.863-1.158,1.733-1.539c0.849-0.373,1.636-0.41,2.358-0.111
			c0.723,0.301,1.242,0.812,1.562,1.541C339.65,271.23,339.098,272.475,337.256,273.283z"/>
	</g>
	<g>
		<path fill="#A4D8DF" d="M374.515,192.696l5.78,2.44c-0.62,1.967-1.159,3.419-1.605,4.354c-0.43,0.908-1.251,1.657-2.456,2.25
			c-1.203,0.592-2.413,1.007-3.623,1.248c-1.212,0.241-2.41,0.635-3.597,1.185c-1.185,0.55-1.985,1.263-2.405,2.142
			c-0.894,1.872-0.061,3.417,2.49,4.636c0.539,0.256,1.148,0.493,1.827,0.713c0.68,0.222,1.217,0.39,1.612,0.508l0.571,0.116
			l-1.303,4.812c-2.677-0.442-4.953-1.11-6.826-2.004c-1.532-0.729-2.817-1.578-3.853-2.539c-1.039-0.967-1.737-2.164-2.1-3.589
			c-0.365-1.426-0.166-2.935,0.591-4.525c0.579-1.217,1.388-2.244,2.431-3.068c1.037-0.827,2.121-1.462,3.252-1.897
			c1.129-0.436,2.243-0.825,3.331-1.177c1.09-0.353,2.077-0.778,2.958-1.281c0.885-0.502,1.494-1.105,1.832-1.813L374.515,192.696z
			 M384.108,188.133c-0.557,1.161-1.359,1.917-2.415,2.268c-1.052,0.35-2.079,0.288-3.069-0.184
			c-1.164-0.557-1.892-1.313-2.184-2.271c-0.29-0.956-0.148-2.046,0.436-3.267c0.567-1.191,1.38-1.961,2.434-2.311
			c1.055-0.35,2.094-0.281,3.114,0.205C384.778,183.698,385.341,185.552,384.108,188.133z"/>
	</g>
	<g>
		<path fill="#EB5E4E" d="M160.286,444.223c-1.537-2.223-2.071-4.477-1.606-6.764c0.466-2.283,1.646-4.08,3.547-5.393
			c2.224-1.535,4.36-2.068,6.407-1.6c2.047,0.471,3.877,1.873,5.486,4.203c1.572,2.279,2.126,4.561,1.662,6.846
			c-0.467,2.283-1.676,4.102-3.629,5.449C167.649,450.076,163.692,449.162,160.286,444.223z M162.007,422.002l-10.485,7.963
			c-2.924-3.191-5.004-5.68-6.239-7.471c-1.199-1.734-1.708-4.008-1.523-6.82c0.181-2.809,0.688-5.441,1.518-7.896
			c0.828-2.453,1.361-5.045,1.6-7.777c0.238-2.727-0.221-4.932-1.383-6.613c-2.473-3.582-6.15-3.688-11.033-0.314
			c-1.031,0.713-2.1,1.57-3.208,2.576s-1.979,1.807-2.608,2.4l-0.808,0.918l-7.392-7.393c3.604-4.414,7.196-7.855,10.778-10.328
			c2.929-2.021,5.812-3.473,8.652-4.352c2.838-0.879,5.746-0.902,8.722-0.074c2.977,0.828,5.513,2.764,7.611,5.803
			c1.611,2.332,2.625,4.875,3.046,7.631c0.419,2.756,0.436,5.389,0.047,7.9c-0.39,2.512-0.834,4.943-1.335,7.291
			c-0.501,2.35-0.757,4.588-0.769,6.719s0.453,3.875,1.388,5.23L162.007,422.002z"/>
	</g>
	<g>
		<path fill="#20B4B0" d="M213.335,318.469c-1.37,0.686-2.677,0.807-3.924,0.365c-1.246-0.441-2.161-1.248-2.747-2.418
			c-0.686-1.369-0.814-2.609-0.391-3.723c0.426-1.111,1.357-2.027,2.793-2.746c1.405-0.703,2.729-0.834,3.975-0.391
			s2.168,1.264,2.771,2.467C217.202,314.797,216.375,316.947,213.335,318.469z M200.999,315.742l3.638,6.516
			c-2.021,1.391-3.584,2.359-4.686,2.912c-1.07,0.533-2.387,0.639-3.949,0.314s-3-0.816-4.313-1.477
			c-1.311-0.658-2.725-1.166-4.237-1.514c-1.512-0.352-2.787-0.266-3.823,0.252c-2.205,1.104-2.556,3.16-1.051,6.168
			c0.318,0.635,0.716,1.303,1.192,2.004s0.857,1.254,1.143,1.654l0.45,0.525l-4.735,3.564c-2.19-2.373-3.839-4.662-4.941-6.867
			c-0.905-1.807-1.49-3.539-1.76-5.203c-0.268-1.662-0.051-3.295,0.65-4.9c0.702-1.605,1.987-2.875,3.858-3.812
			c1.438-0.719,2.944-1.088,4.525-1.104c1.579-0.02,3.059,0.18,4.438,0.598c1.38,0.416,2.709,0.859,3.987,1.326
			c1.279,0.469,2.516,0.789,3.71,0.963c1.196,0.176,2.211,0.053,3.045-0.365L200.999,315.742z"/>
	</g>
	<g>
		<path fill="#007080" d="M184.924,376.145l4.662-7.766c2.681,1.289,4.646,2.35,5.895,3.176c1.208,0.803,2.113,2.125,2.716,3.967
			c0.601,1.84,0.95,3.652,1.049,5.43c0.098,1.779,0.419,3.572,0.964,5.375s1.403,3.096,2.574,3.873
			c2.494,1.654,4.869,0.781,7.126-2.619c0.477-0.719,0.94-1.539,1.39-2.465c0.453-0.926,0.801-1.66,1.054-2.201l0.281-0.793
			l6.608,2.834c-1.174,3.738-2.588,6.855-4.244,9.35c-1.353,2.041-2.824,3.703-4.413,4.988c-1.588,1.287-3.438,2.047-5.552,2.277
			c-2.112,0.23-4.227-0.355-6.342-1.76c-1.625-1.078-2.924-2.443-3.896-4.096s-1.655-3.33-2.049-5.031
			c-0.394-1.705-0.729-3.373-1.011-4.998c-0.279-1.629-0.688-3.125-1.227-4.488c-0.537-1.365-1.279-2.359-2.224-2.984
			L184.924,376.145z M180.347,361.514c1.549,1.027,2.466,2.33,2.754,3.908c0.285,1.578-0.011,3.027-0.888,4.352
			c-1.028,1.549-2.255,2.434-3.684,2.658c-1.427,0.223-2.953-0.205-4.577-1.283c-1.587-1.053-2.524-2.369-2.811-3.945
			c-0.286-1.578,0.022-3.049,0.924-4.408C174.147,359.658,176.908,359.232,180.347,361.514z"/>
	</g>
	<g>
		<path fill="#EB5E4E" d="M149.625,298.66l-3.641-2.496c0.707-1.27,1.281-2.193,1.72-2.775c0.427-0.564,1.097-0.965,2.011-1.205
			c0.914-0.236,1.806-0.354,2.674-0.348c0.868,0.004,1.75-0.102,2.643-0.311c0.894-0.213,1.548-0.592,1.961-1.137
			c0.879-1.168,0.523-2.348-1.063-3.547c-0.335-0.252-0.723-0.504-1.158-0.748c-0.438-0.246-0.783-0.439-1.04-0.578l-0.377-0.16
			l1.574-3.131c1.784,0.682,3.259,1.461,4.424,2.34c0.953,0.721,1.718,1.484,2.297,2.297c0.579,0.811,0.894,1.732,0.943,2.768
			s-0.299,2.047-1.045,3.033c-0.571,0.76-1.275,1.35-2.106,1.773c-0.833,0.426-1.671,0.707-2.511,0.848
			c-0.84,0.143-1.661,0.258-2.461,0.346c-0.801,0.09-1.541,0.242-2.219,0.463c-0.681,0.221-1.186,0.553-1.519,0.994L149.625,298.66z
			 M142.371,300.453c0.546-0.723,1.206-1.129,1.984-1.223c0.775-0.092,1.473,0.094,2.09,0.561c0.723,0.545,1.117,1.17,1.184,1.869
			c0.067,0.701-0.186,1.434-0.759,2.191c-0.559,0.74-1.227,1.158-2.003,1.25c-0.777,0.092-1.481-0.102-2.117-0.58
			C141.286,303.414,141.159,302.061,142.371,300.453z"/>
	</g>
	<g>
		<path fill="#A4D8DF" d="M139.815,347.236l-3.357,0.373c-0.226-1.086-0.356-1.91-0.393-2.467c-0.036-0.541,0.151-1.107,0.562-1.703
			c0.409-0.596,0.869-1.109,1.374-1.541c0.506-0.432,0.965-0.932,1.377-1.502c0.411-0.57,0.601-1.115,0.565-1.639
			c-0.072-1.115-0.87-1.623-2.39-1.523c-0.32,0.023-0.669,0.07-1.045,0.146c-0.378,0.074-0.674,0.137-0.892,0.186l-0.299,0.096
			l-0.655-2.602c1.375-0.498,2.619-0.783,3.734-0.857c0.912-0.061,1.738,0,2.479,0.18c0.742,0.182,1.386,0.559,1.932,1.133
			c0.547,0.574,0.851,1.334,0.913,2.281c0.049,0.725-0.062,1.418-0.334,2.082c-0.27,0.662-0.612,1.244-1.027,1.746
			c-0.418,0.502-0.837,0.979-1.256,1.43c-0.42,0.453-0.771,0.912-1.054,1.381c-0.282,0.467-0.408,0.912-0.382,1.334L139.815,347.236
			z M136.511,351.904c-0.045-0.691,0.134-1.258,0.537-1.701c0.402-0.441,0.9-0.684,1.49-0.721c0.692-0.047,1.233,0.117,1.622,0.49
			c0.39,0.371,0.609,0.922,0.657,1.648c0.046,0.709-0.133,1.285-0.536,1.727s-0.909,0.684-1.517,0.723
			C137.363,354.162,136.611,353.441,136.511,351.904z"/>
	</g>
	<g>
		<path fill="#A4D8DF" d="M304.45,401.646c-0.703-2.609-0.454-4.912,0.748-6.912c1.202-1.996,2.916-3.295,5.145-3.896
			c2.609-0.703,4.803-0.492,6.574,0.633c1.771,1.127,3.027,3.061,3.766,5.797c0.721,2.674,0.48,5.01-0.721,7.008
			c-1.204,1.994-2.951,3.305-5.242,3.922C309.435,409.623,306.011,407.439,304.45,401.646z M313.501,381.279l-12.543,3.998
			c-1.69-3.984-2.818-7.023-3.385-9.125c-0.549-2.035-0.27-4.348,0.845-6.936c1.109-2.588,2.468-4.9,4.069-6.938
			c1.601-2.035,2.97-4.299,4.107-6.795c1.137-2.49,1.44-4.721,0.908-6.695c-1.135-4.201-4.564-5.531-10.294-3.984
			c-1.21,0.326-2.503,0.777-3.885,1.355c-1.382,0.576-2.47,1.041-3.261,1.391l-1.067,0.598l-4.495-9.441
			c4.871-2.953,9.407-4.996,13.611-6.129c3.435-0.93,6.638-1.33,9.607-1.211c2.97,0.121,5.718,1.07,8.246,2.848
			c2.527,1.775,4.272,4.445,5.233,8.012c0.738,2.736,0.845,5.473,0.319,8.209c-0.526,2.738-1.391,5.227-2.597,7.461
			c-1.206,2.238-2.438,4.381-3.694,6.428c-1.258,2.045-2.247,4.072-2.971,6.076s-0.869,3.803-0.44,5.393L313.501,381.279z"/>
	</g>
	<g>
		<path fill="#A4D8DF" d="M201.95,436l1.308-3.113c1.059,0.33,1.842,0.617,2.346,0.855c0.49,0.232,0.895,0.672,1.215,1.32
			c0.32,0.646,0.546,1.299,0.677,1.949c0.131,0.652,0.346,1.297,0.644,1.936c0.297,0.637,0.682,1.066,1.156,1.291
			c1.01,0.479,1.84,0.029,2.492-1.348c0.137-0.289,0.265-0.617,0.381-0.982c0.119-0.367,0.209-0.656,0.272-0.869l0.062-0.309
			l2.591,0.693c-0.233,1.443-0.59,2.67-1.067,3.68c-0.393,0.826-0.847,1.52-1.364,2.078c-0.52,0.561-1.161,0.939-1.93,1.137
			c-0.767,0.197-1.579,0.094-2.437-0.312c-0.657-0.311-1.209-0.746-1.656-1.305s-0.789-1.141-1.025-1.748
			c-0.236-0.609-0.447-1.207-0.639-1.793c-0.19-0.586-0.422-1.117-0.692-1.592c-0.271-0.475-0.6-0.801-0.98-0.982L201.95,436z
			 M199.479,430.842c0.627,0.297,1.034,0.729,1.225,1.297c0.19,0.566,0.159,1.119-0.095,1.652c-0.297,0.627-0.703,1.021-1.219,1.178
			c-0.514,0.16-1.102,0.084-1.759-0.227c-0.643-0.305-1.058-0.742-1.247-1.309c-0.19-0.568-0.155-1.127,0.105-1.678
			C197.092,430.488,198.088,430.182,199.479,430.842z"/>
	</g>
	<g>
		<path fill="#F29598" d="M351.381,378.23l-4.257,1.164c-0.511-1.359-0.846-2.393-1.006-3.105c-0.156-0.689-0.028-1.459,0.38-2.312
			c0.408-0.85,0.896-1.607,1.461-2.268c0.565-0.658,1.055-1.398,1.472-2.215c0.416-0.82,0.549-1.564,0.399-2.23
			c-0.321-1.426-1.453-1.918-3.394-1.48c-0.409,0.092-0.851,0.225-1.318,0.4c-0.472,0.174-0.843,0.312-1.114,0.42l-0.365,0.184
			l-1.373-3.227c1.674-0.918,3.222-1.539,4.646-1.861c1.164-0.262,2.243-0.352,3.237-0.27c0.991,0.082,1.898,0.438,2.721,1.07
			c0.822,0.629,1.37,1.549,1.641,2.758c0.21,0.926,0.205,1.844-0.009,2.752c-0.215,0.91-0.539,1.732-0.977,2.465
			c-0.435,0.732-0.876,1.434-1.326,2.1c-0.449,0.67-0.811,1.334-1.081,1.994c-0.271,0.662-0.344,1.262-0.224,1.801L351.381,378.23z
			 M348.062,384.926c-0.199-0.883-0.083-1.65,0.349-2.305c0.43-0.65,1.024-1.064,1.778-1.234c0.883-0.199,1.614-0.096,2.192,0.307
			c0.579,0.402,0.973,1.068,1.181,1.994c0.204,0.904,0.09,1.684-0.34,2.338c-0.433,0.65-1.035,1.062-1.812,1.24
			C349.62,387.668,348.506,386.889,348.062,384.926z"/>
	</g>
	<g>
		<path fill="#20B4B0" d="M296.298,419.494c0.408,1.477,0.274,2.781-0.399,3.92c-0.675,1.137-1.642,1.879-2.903,2.229
			c-1.477,0.408-2.718,0.295-3.728-0.336c-1.008-0.633-1.728-1.725-2.156-3.271c-0.417-1.514-0.291-2.838,0.386-3.975
			c0.674-1.137,1.658-1.883,2.954-2.242C293.442,414.99,295.392,416.217,296.298,419.494z M291.24,431.07l7.096-2.311
			c0.974,2.25,1.622,3.973,1.952,5.16c0.316,1.152,0.166,2.465-0.454,3.936s-1.381,2.785-2.282,3.947
			c-0.899,1.158-1.67,2.447-2.304,3.863c-0.637,1.416-0.799,2.684-0.491,3.801c0.658,2.377,2.607,3.117,5.849,2.223
			c0.686-0.189,1.417-0.451,2.198-0.783c0.779-0.332,1.396-0.6,1.842-0.801l0.604-0.342l2.582,5.336
			c-2.75,1.689-5.314,2.865-7.691,3.521c-1.947,0.539-3.76,0.779-5.444,0.723c-1.683-0.059-3.243-0.588-4.683-1.586
			s-2.438-2.504-2.996-4.521c-0.428-1.549-0.498-3.1-0.209-4.652c0.286-1.555,0.768-2.967,1.443-4.24
			c0.675-1.273,1.367-2.49,2.07-3.656c0.707-1.164,1.262-2.314,1.663-3.453c0.403-1.141,0.478-2.16,0.229-3.059L291.24,431.07z"/>
	</g>
	<g>
		<path fill="#007080" d="M342.339,420.271l2.663,2.076c-0.597,0.936-1.078,1.617-1.44,2.041c-0.353,0.412-0.883,0.688-1.592,0.826
			c-0.708,0.141-1.396,0.188-2.059,0.145c-0.664-0.045-1.342-0.006-2.035,0.113c-0.692,0.121-1.209,0.379-1.549,0.779
			c-0.727,0.85-0.51,1.768,0.647,2.758c0.244,0.207,0.527,0.416,0.85,0.625c0.322,0.211,0.578,0.373,0.768,0.49l0.28,0.141
			l-1.347,2.318c-1.332-0.602-2.422-1.268-3.272-1.992c-0.694-0.596-1.244-1.215-1.647-1.859c-0.405-0.648-0.604-1.367-0.593-2.16
			c0.01-0.793,0.323-1.549,0.939-2.271c0.471-0.553,1.035-0.971,1.692-1.256c0.655-0.285,1.308-0.463,1.954-0.533
			c0.651-0.068,1.282-0.115,1.898-0.146s1.188-0.115,1.719-0.252c0.527-0.139,0.93-0.369,1.204-0.689L342.339,420.271z
			 M347.964,419.236c-0.451,0.527-0.975,0.809-1.571,0.844c-0.598,0.035-1.123-0.141-1.571-0.525
			c-0.527-0.449-0.801-0.945-0.818-1.484c-0.02-0.537,0.208-1.084,0.68-1.637c0.463-0.541,0.992-0.828,1.589-0.861
			c0.599-0.035,1.128,0.145,1.592,0.539C348.931,417.025,348.965,418.066,347.964,419.236z"/>
	</g>
	<circle fill="#2E3F51" cx="262.875" cy="118.473" r="0.888"/>
</g>
</svg>
