<?xml version="1.0" encoding="utf-8"?>
<!-- Generator: Adobe Illustrator 16.0.0, SVG Export Plug-In . SVG Version: 6.00 Build 0)  -->
<!DOCTYPE svg PUBLIC "-//W3C//DTD SVG 1.1//EN" "http://www.w3.org/Graphics/SVG/1.1/DTD/svg11.dtd">
<svg version="1.1" id="Capa_1" xmlns="http://www.w3.org/2000/svg" xmlns:xlink="http://www.w3.org/1999/xlink" x="0px" y="0px"
	 width="500px" height="500px" viewBox="0 0 500 500" enable-background="new 0 0 500 500" xml:space="preserve">
<g>
	
		<radialGradient id="SVGID_1_" cx="-1078.9258" cy="982.8018" r="109.565" gradientTransform="matrix(0.7205 0 0 3.823 1018.334 -3316.406)" gradientUnits="userSpaceOnUse">
		<stop  offset="0" style="stop-color:#AADCF6"/>
		<stop  offset="0.987" style="stop-color:#AADCF6;stop-opacity:0.013"/>
		<stop  offset="1" style="stop-color:#AADCF6;stop-opacity:0"/>
	</radialGradient>
	<path opacity="0.5" fill="url(#SVGID_1_)" d="M319.232,457.098c0-141.527-1.859-450.558-79.189-450.558
		c-78.67,0-79.189,309.031-79.189,450.558H319.232z"/>
	<rect x="247.203" y="285.826" fill="#EB5E4E" width="4.15" height="149.061"/>
	<path fill="#2E3F51" d="M328.89,73.185h13.631c2.621,0,4.741,2.124,4.741,4.736v8.214v5.421v18.368l-17.677-10.853V96.29h-0.695
		c-2.61,0-4.73-2.12-4.73-4.733V77.921C324.159,75.309,326.279,73.185,328.89,73.185z"/>
	<rect x="299.524" y="73.185" fill="#FFFFFF" width="30.061" height="25.887"/>
	<path fill="#F29598" d="M299.524,238.041c0,22.895-18.555,41.445-41.446,41.445c-22.896,0-41.45-18.551-41.45-41.445
		c0-22.896,18.555-41.452,41.45-41.452C280.97,196.589,299.524,215.145,299.524,238.041z"/>
	<path fill="#F3A8A0" d="M299.524,107.147c9.387,0,16.979-7.603,16.979-16.984c0-9.375-7.592-16.978-16.979-16.978V107.147z"/>
	<path fill="#FFFFFF" d="M308.237,82.71c0,1.888-1.534,3.419-3.424,3.419c-1.887,0-3.419-1.531-3.419-3.419
		c0-1.889,1.532-3.416,3.419-3.416C306.703,79.294,308.237,80.821,308.237,82.71z"/>
	<path fill="#F29598" d="M299.524,73.185c-9.377,0-16.977,7.603-16.977,16.978c0,9.382,7.6,16.984,16.977,16.984V73.185z"/>
	<path fill="#2E3F51" d="M307.604,82.71c0,1.544-1.256,2.786-2.791,2.786c-1.54,0-2.777-1.241-2.777-2.786
		c0-1.534,1.237-2.775,2.777-2.775C306.349,79.935,307.604,81.176,307.604,82.71z"/>
	<rect x="282.548" y="90.163" fill="#F29598" width="16.977" height="147.878"/>
	<polygon fill="#F29598" points="258.078,279.486 163.324,279.486 229.435,208.08 	"/>
	<polygon fill="#F18A86" points="248.66,266.059 175.759,266.059 224.846,212.619 	"/>
	<path fill="#F18A86" d="M280.686,234.032c0,17.687-14.336,32.026-32.025,32.026c-17.684,0-32.032-14.34-32.032-32.026
		s14.349-32.025,32.032-32.025C266.35,202.007,280.686,216.346,280.686,234.032z"/>
	<path fill="#F29598" d="M247.203,255.312c-14.627,0-26.479-11.858-26.479-26.478c0-14.635,11.853-26.487,26.479-26.487V255.312z"/>
	<polygon fill="#2E3F51" points="205.562,266.059 194.419,279.486 163.324,279.486 175.759,266.059 	"/>
	<path fill="#EB5E4E" d="M260.537,279.486c0,6.99-5.676,12.672-12.669,12.672c-6.998,0-12.672-5.682-12.672-12.672H260.537z"/>
	<path fill="#F18A86" d="M242.335,279.486c0,6.99-5.671,12.672-12.669,12.672c-6.994,0-12.67-5.682-12.67-12.672H242.335z"/>
	<path fill="#EB5E4E" d="M255.996,343.17c0,3.705-3.011,6.713-6.722,6.713c-3.704,0-6.706-3.008-6.706-6.713
		s3.002-6.713,6.706-6.713C252.985,336.457,255.996,339.465,255.996,343.17z"/>
	<path fill="#2E3F51" d="M157.192,274.977h3.21c0-2.459,1.995-4.459,4.459-4.459h2.979c0-2.459,1.991-4.459,4.459-4.459h15.113
		v4.459h-7.438v4.459H172.3v4.465h-10.656h-4.451h-4.454C152.738,276.975,154.733,274.977,157.192,274.977z"/>
	<rect x="228.71" y="285.826" fill="#F18A86" width="4.141" height="149.061"/>
	<path fill="#F18A86" d="M237.496,343.17c0,3.705-3.014,6.713-6.722,6.713c-3.696,0-6.709-3.008-6.709-6.713
		s3.013-6.713,6.709-6.713C234.482,336.457,237.496,339.465,237.496,343.17z"/>
	<g>
		<path fill="#A4D8DF" d="M317.206,434.439c-3.097-1.084-5.327-4.025-5.327-7.504c0-4.393-3.554-7.941-7.954-7.941
			c-4.385,0-7.943,3.549-7.943,7.941c0,3.479-2.225,6.42-5.326,7.504h-5.244c-3.104-1.084-5.33-4.025-5.33-7.504
			c0-4.393-3.558-7.941-7.943-7.941c-4.4,0-7.951,3.549-7.951,7.941c0,3.479-2.225,6.42-5.329,7.504h-5.241
			c-3.1-1.084-5.322-4.025-5.322-7.504c0-4.393-3.568-7.941-7.958-7.941c-4.389,0-7.943,3.549-7.943,7.941
			c0,3.479-2.229,6.42-5.33,7.504h-5.241c-3.1-1.084-5.326-4.025-5.326-7.504c0-4.393-3.557-7.941-7.95-7.941
			c-4.39,0-7.95,3.549-7.95,7.941c0,3.479-2.226,6.42-5.326,7.504h-5.249c-3.097-1.084-5.314-4.025-5.314-7.504
			c0-4.393-3.565-7.941-7.951-7.941c-4.399,0-7.958,3.549-7.958,7.941c0,3.479-2.226,6.42-5.322,7.504h-2.62v23.596h158.969v-23.596
			H317.206z"/>
		<path fill="#007080" d="M317.206,450.332c-3.097-1.082-5.327-4.018-5.327-7.494c0-4.395-3.554-7.951-7.954-7.951
			c-4.385,0-7.943,3.557-7.943,7.951c0,3.477-2.225,6.412-5.326,7.494h-5.244c-3.104-1.082-5.33-4.018-5.33-7.494
			c0-4.395-3.558-7.951-7.943-7.951c-4.4,0-7.951,3.557-7.951,7.951c0,3.477-2.225,6.412-5.329,7.494h-5.241
			c-3.1-1.082-5.322-4.018-5.322-7.494c0-4.395-3.568-7.951-7.958-7.951c-4.389,0-7.943,3.557-7.943,7.951
			c0,3.477-2.229,6.412-5.33,7.494h-5.241c-3.1-1.082-5.326-4.018-5.326-7.494c0-4.395-3.557-7.951-7.95-7.951
			c-4.39,0-7.95,3.557-7.95,7.951c0,3.477-2.226,6.412-5.326,7.494h-5.249c-3.097-1.082-5.314-4.018-5.314-7.494
			c0-4.395-3.565-7.951-7.951-7.951c-4.399,0-7.958,3.557-7.958,7.951c0,3.477-2.226,6.412-5.322,7.494h-2.62v23.605h158.969
			v-23.605H317.206z"/>
		<path fill="#20B4B0" d="M317.206,469.857c-3.097-1.084-5.327-4.025-5.327-7.494c0-4.395-3.554-7.951-7.954-7.951
			c-4.385,0-7.943,3.557-7.943,7.951c0,3.469-2.225,6.41-5.326,7.494h-5.244c-3.104-1.084-5.33-4.025-5.33-7.494
			c0-4.395-3.558-7.951-7.943-7.951c-4.4,0-7.951,3.557-7.951,7.951c0,3.469-2.225,6.41-5.329,7.494h-5.241
			c-3.1-1.084-5.322-4.025-5.322-7.494c0-4.395-3.568-7.951-7.958-7.951c-4.389,0-7.943,3.557-7.943,7.951
			c0,3.469-2.229,6.41-5.33,7.494h-5.241c-3.1-1.084-5.326-4.025-5.326-7.494c0-4.395-3.557-7.951-7.95-7.951
			c-4.39,0-7.95,3.557-7.95,7.951c0,3.469-2.226,6.41-5.326,7.494h-5.249c-3.097-1.084-5.314-4.025-5.314-7.494
			c0-4.395-3.565-7.951-7.951-7.951c-4.399,0-7.958,3.557-7.958,7.951c0,3.469-2.226,6.41-5.322,7.494h-2.62v23.604h158.969v-23.604
			H317.206z"/>
	</g>
	<path fill="#FFFFFF" d="M243.374,147.269c0-0.102,0.015-0.201,0.015-0.307c0-5.315-3.394-9.825-8.126-11.517
		c-2.519-6.584-8.877-11.278-16.348-11.278c-9.678,0-17.519,7.845-17.519,17.52c0,0.966,0.103,1.903,0.252,2.826
		c-0.699-0.216-1.431-0.362-2.2-0.362c-4.15,0-7.525,3.364-7.525,7.522c0,0.464,0.055,0.918,0.139,1.358
		c-4.499,2.167-3.851,6.167-3.851,6.167s65.054,1.172,65.054,0C253.265,150.732,246.481,148.056,243.374,147.269z"/>
	<path fill="#FFFFFF" d="M314.689,317.371c0.005-0.064,0.013-0.139,0.013-0.205c0-3.557-2.273-6.58-5.439-7.709
		c-1.688-4.414-5.944-7.555-10.946-7.555c-6.479,0-11.728,5.258-11.728,11.729c0,0.652,0.065,1.273,0.164,1.896
		c-0.467-0.146-0.955-0.242-1.471-0.242c-2.777,0-5.04,2.248-5.04,5.037c0,0.307,0.036,0.615,0.092,0.908
		c-3.009,1.449-2.574,4.127-2.574,4.127s43.556,0.785,43.556,0C321.315,319.686,316.773,317.898,314.689,317.371z"/>
</g>
</svg>
