<?xml version="1.0" encoding="utf-8"?>
<!-- Generator: Adobe Illustrator 16.0.0, SVG Export Plug-In . SVG Version: 6.00 Build 0)  -->
<!DOCTYPE svg PUBLIC "-//W3C//DTD SVG 1.1//EN" "http://www.w3.org/Graphics/SVG/1.1/DTD/svg11.dtd">
<svg version="1.1" id="Capa_1" xmlns="http://www.w3.org/2000/svg" xmlns:xlink="http://www.w3.org/1999/xlink" x="0px" y="0px"
	 width="500px" height="500px" viewBox="0 0 500 500" enable-background="new 0 0 500 500" xml:space="preserve">
<g>
	
		<radialGradient id="SVGID_1_" cx="-1078.9258" cy="982.8018" r="109.5654" gradientTransform="matrix(-0.7205 0 0 3.823 -518.334 -3316.406)" gradientUnits="userSpaceOnUse">
		<stop  offset="0" style="stop-color:#AADCF6"/>
		<stop  offset="0.987" style="stop-color:#AADCF6;stop-opacity:0.013"/>
		<stop  offset="1" style="stop-color:#AADCF6;stop-opacity:0"/>
	</radialGradient>
	<path opacity="0.5" fill="url(#SVGID_1_)" d="M180.768,457.098c0-141.527,1.859-450.558,79.189-450.558
		c78.67,0,79.189,309.031,79.189,450.558H180.768z"/>
	<rect x="248.646" y="285.826" fill="#EB5E4E" width="4.15" height="149.061"/>
	<path fill="#2E3F51" d="M171.11,73.185h-13.631c-2.621,0-4.741,2.124-4.741,4.736v8.214v5.421v18.368l17.677-10.853V96.29h0.695
		c2.61,0,4.73-2.12,4.73-4.733V77.921C175.841,75.309,173.721,73.185,171.11,73.185z"/>
	<rect x="170.415" y="73.185" fill="#FFFFFF" width="30.061" height="25.887"/>
	<path fill="#F29598" d="M200.476,238.041c0,22.895,18.555,41.445,41.446,41.445c22.896,0,41.45-18.551,41.45-41.445
		c0-22.896-18.555-41.452-41.45-41.452C219.03,196.589,200.476,215.145,200.476,238.041z"/>
	<path fill="#F3A8A0" d="M200.476,107.147c-9.387,0-16.979-7.603-16.979-16.984c0-9.375,7.592-16.978,16.979-16.978V107.147z"/>
	<path fill="#FFFFFF" d="M191.763,82.71c0,1.888,1.534,3.419,3.424,3.419c1.887,0,3.419-1.531,3.419-3.419
		c0-1.889-1.532-3.416-3.419-3.416C193.297,79.294,191.763,80.821,191.763,82.71z"/>
	<path fill="#F29598" d="M200.476,73.185c9.377,0,16.977,7.603,16.977,16.978c0,9.382-7.6,16.984-16.977,16.984V73.185z"/>
	<path fill="#2E3F51" d="M192.396,82.71c0,1.544,1.256,2.786,2.791,2.786c1.54,0,2.777-1.241,2.777-2.786
		c0-1.534-1.237-2.775-2.777-2.775C193.651,79.935,192.396,81.176,192.396,82.71z"/>
	<rect x="200.476" y="90.163" fill="#F29598" width="16.977" height="147.878"/>
	<polygon fill="#F29598" points="241.922,279.486 336.676,279.486 270.565,208.08 	"/>
	<polygon fill="#F18A86" points="251.34,266.059 324.241,266.059 275.154,212.619 	"/>
	<path fill="#F18A86" d="M219.314,234.032c0,17.687,14.336,32.026,32.025,32.026c17.684,0,32.032-14.34,32.032-32.026
		s-14.349-32.025-32.032-32.025C233.65,202.007,219.314,216.346,219.314,234.032z"/>
	<path fill="#F29598" d="M252.797,255.312c14.627,0,26.479-11.858,26.479-26.478c0-14.635-11.853-26.487-26.479-26.487V255.312z"/>
	<polygon fill="#2E3F51" points="294.438,266.059 305.581,279.486 336.676,279.486 324.241,266.059 	"/>
	<path fill="#EB5E4E" d="M239.463,279.486c0,6.99,5.676,12.672,12.669,12.672c6.998,0,12.672-5.682,12.672-12.672H239.463z"/>
	<path fill="#F18A86" d="M257.665,279.486c0,6.99,5.671,12.672,12.669,12.672c6.994,0,12.67-5.682,12.67-12.672H257.665z"/>
	<path fill="#EB5E4E" d="M244.004,343.17c0,3.705,3.011,6.713,6.722,6.713c3.704,0,6.706-3.008,6.706-6.713
		s-3.002-6.713-6.706-6.713C247.015,336.457,244.004,339.465,244.004,343.17z"/>
	<path fill="#2E3F51" d="M342.808,274.977h-3.21c0-2.459-1.995-4.459-4.459-4.459h-2.979c0-2.459-1.991-4.459-4.459-4.459h-15.113
		v4.459h7.438v4.459h7.675v4.465h10.656h4.451h4.454C347.262,276.975,345.267,274.977,342.808,274.977z"/>
	<rect x="267.149" y="285.826" fill="#F18A86" width="4.141" height="149.061"/>
	<path fill="#F18A86" d="M262.504,343.17c0,3.705,3.014,6.713,6.722,6.713c3.696,0,6.709-3.008,6.709-6.713
		s-3.013-6.713-6.709-6.713C265.518,336.457,262.504,339.465,262.504,343.17z"/>
	<g>
		<path fill="#A4D8DF" d="M182.794,434.439c3.097-1.084,5.327-4.025,5.327-7.504c0-4.393,3.554-7.941,7.954-7.941
			c4.385,0,7.943,3.549,7.943,7.941c0,3.479,2.225,6.42,5.326,7.504h5.244c3.104-1.084,5.33-4.025,5.33-7.504
			c0-4.393,3.558-7.941,7.943-7.941c4.4,0,7.951,3.549,7.951,7.941c0,3.479,2.225,6.42,5.329,7.504h5.241
			c3.1-1.084,5.322-4.025,5.322-7.504c0-4.393,3.568-7.941,7.958-7.941c4.389,0,7.943,3.549,7.943,7.941
			c0,3.479,2.229,6.42,5.33,7.504h5.241c3.1-1.084,5.326-4.025,5.326-7.504c0-4.393,3.557-7.941,7.95-7.941
			c4.39,0,7.95,3.549,7.95,7.941c0,3.479,2.226,6.42,5.326,7.504h5.249c3.097-1.084,5.314-4.025,5.314-7.504
			c0-4.393,3.565-7.941,7.951-7.941c4.399,0,7.958,3.549,7.958,7.941c0,3.479,2.226,6.42,5.322,7.504h2.62v23.596H180.178v-23.596
			H182.794z"/>
		<path fill="#007080" d="M182.794,450.332c3.097-1.082,5.327-4.018,5.327-7.494c0-4.395,3.554-7.951,7.954-7.951
			c4.385,0,7.943,3.557,7.943,7.951c0,3.477,2.225,6.412,5.326,7.494h5.244c3.104-1.082,5.33-4.018,5.33-7.494
			c0-4.395,3.558-7.951,7.943-7.951c4.4,0,7.951,3.557,7.951,7.951c0,3.477,2.225,6.412,5.329,7.494h5.241
			c3.1-1.082,5.322-4.018,5.322-7.494c0-4.395,3.568-7.951,7.958-7.951c4.389,0,7.943,3.557,7.943,7.951
			c0,3.477,2.229,6.412,5.33,7.494h5.241c3.1-1.082,5.326-4.018,5.326-7.494c0-4.395,3.557-7.951,7.95-7.951
			c4.39,0,7.95,3.557,7.95,7.951c0,3.477,2.226,6.412,5.326,7.494h5.249c3.097-1.082,5.314-4.018,5.314-7.494
			c0-4.395,3.565-7.951,7.951-7.951c4.399,0,7.958,3.557,7.958,7.951c0,3.477,2.226,6.412,5.322,7.494h2.62v23.605H180.178v-23.605
			H182.794z"/>
		<path fill="#20B4B0" d="M182.794,469.857c3.097-1.084,5.327-4.025,5.327-7.494c0-4.395,3.554-7.951,7.954-7.951
			c4.385,0,7.943,3.557,7.943,7.951c0,3.469,2.225,6.41,5.326,7.494h5.244c3.104-1.084,5.33-4.025,5.33-7.494
			c0-4.395,3.558-7.951,7.943-7.951c4.4,0,7.951,3.557,7.951,7.951c0,3.469,2.225,6.41,5.329,7.494h5.241
			c3.1-1.084,5.322-4.025,5.322-7.494c0-4.395,3.568-7.951,7.958-7.951c4.389,0,7.943,3.557,7.943,7.951
			c0,3.469,2.229,6.41,5.33,7.494h5.241c3.1-1.084,5.326-4.025,5.326-7.494c0-4.395,3.557-7.951,7.95-7.951
			c4.39,0,7.95,3.557,7.95,7.951c0,3.469,2.226,6.41,5.326,7.494h5.249c3.097-1.084,5.314-4.025,5.314-7.494
			c0-4.395,3.565-7.951,7.951-7.951c4.399,0,7.958,3.557,7.958,7.951c0,3.469,2.226,6.41,5.322,7.494h2.62v23.604H180.178v-23.604
			H182.794z"/>
	</g>
	<path fill="#FFFFFF" d="M256.626,147.269c0-0.102-0.015-0.201-0.015-0.307c0-5.315,3.394-9.825,8.126-11.517
		c2.519-6.584,8.877-11.278,16.348-11.278c9.678,0,17.519,7.845,17.519,17.52c0,0.966-0.103,1.903-0.252,2.826
		c0.699-0.216,1.431-0.362,2.2-0.362c4.15,0,7.525,3.364,7.525,7.522c0,0.464-0.055,0.918-0.139,1.358
		c4.499,2.167,3.851,6.167,3.851,6.167s-65.054,1.172-65.054,0C246.735,150.732,253.519,148.056,256.626,147.269z"/>
	<path fill="#FFFFFF" d="M185.311,317.371c-0.005-0.064-0.013-0.139-0.013-0.205c0-3.557,2.273-6.58,5.439-7.709
		c1.688-4.414,5.944-7.555,10.946-7.555c6.479,0,11.728,5.258,11.728,11.729c0,0.652-0.065,1.273-0.164,1.896
		c0.467-0.146,0.955-0.242,1.471-0.242c2.777,0,5.04,2.248,5.04,5.037c0,0.307-0.036,0.615-0.092,0.908
		c3.009,1.449,2.574,4.127,2.574,4.127s-43.556,0.785-43.556,0C178.685,319.686,183.227,317.898,185.311,317.371z"/>
</g>
</svg>
