<?xml version="1.0" encoding="utf-8"?>
<!-- Generator: Adobe Illustrator 16.0.0, SVG Export Plug-In . SVG Version: 6.00 Build 0)  -->
<!DOCTYPE svg PUBLIC "-//W3C//DTD SVG 1.1//EN" "http://www.w3.org/Graphics/SVG/1.1/DTD/svg11.dtd">
<svg version="1.1" id="Capa_1" xmlns="http://www.w3.org/2000/svg" xmlns:xlink="http://www.w3.org/1999/xlink" x="0px" y="0px"
	 width="500px" height="20.086px" viewBox="0 0 500 20.086" enable-background="new 0 0 500 20.086" xml:space="preserve">
<g>
	<g>
		<line fill="#20B4B0" x1="489.226" y1="13.366" x2="11.135" y2="13.366"/>
		<rect x="11.135" y="9.735" fill="#20B4B0" width="478.09" height="7.262"/>
	</g>
	<rect x="489.226" y="9.735" fill="#007080" width="6.271" height="7.262"/>
	<rect x="4.864" y="9.735" fill="#007080" width="6.271" height="7.262"/>
	<path opacity="0.4" fill="#007080" d="M9.13,11.809h247.616c0.858,0,1.556,0.697,1.556,1.557l0,0c0,0.859-0.697,1.557-1.556,1.557
		H9.13"/>
	<g>
		<rect x="483.649" y="3.352" opacity="0.4" fill="#F29598" width="2.077" height="6.383"/>
		<rect x="478.379" y="3.352" opacity="0.4" fill="#F29598" width="2.077" height="6.383"/>
		<rect x="473.108" y="3.352" opacity="0.4" fill="#F29598" width="2.076" height="6.383"/>
		<rect x="467.837" y="3.352" opacity="0.4" fill="#F29598" width="2.077" height="6.383"/>
		<rect x="462.566" y="3.352" opacity="0.4" fill="#F29598" width="2.077" height="6.383"/>
		<rect x="457.296" y="3.352" opacity="0.4" fill="#F29598" width="2.077" height="6.383"/>
		<rect x="452.025" y="3.352" opacity="0.4" fill="#F29598" width="2.076" height="6.383"/>
		<rect x="446.754" y="3.352" opacity="0.4" fill="#F29598" width="2.075" height="6.383"/>
		<rect x="441.482" y="3.352" opacity="0.4" fill="#F29598" width="2.077" height="6.383"/>
		<rect x="436.213" y="3.352" opacity="0.4" fill="#F29598" width="2.076" height="6.383"/>
		<rect x="430.942" y="3.352" opacity="0.4" fill="#F29598" width="2.075" height="6.383"/>
		<rect x="425.671" y="3.352" opacity="0.4" fill="#F29598" width="2.075" height="6.383"/>
		<rect x="420.399" y="3.352" opacity="0.4" fill="#F29598" width="2.077" height="6.383"/>
		<rect x="415.129" y="3.352" opacity="0.4" fill="#F29598" width="2.077" height="6.383"/>
		<rect x="409.859" y="3.352" opacity="0.4" fill="#F29598" width="2.075" height="6.383"/>
		<rect x="404.588" y="3.352" opacity="0.4" fill="#F29598" width="2.075" height="6.383"/>
		<rect x="399.316" y="3.352" opacity="0.4" fill="#F29598" width="2.076" height="6.383"/>
		<rect x="394.046" y="3.352" opacity="0.4" fill="#F29598" width="2.077" height="6.383"/>
		<rect x="388.775" y="3.352" opacity="0.4" fill="#F29598" width="2.076" height="6.383"/>
		<rect x="383.505" y="3.352" opacity="0.4" fill="#F29598" width="2.075" height="6.383"/>
		<rect x="378.233" y="3.352" opacity="0.4" fill="#F29598" width="2.076" height="6.383"/>
		<rect x="372.962" y="3.352" opacity="0.4" fill="#F29598" width="2.077" height="6.383"/>
		<rect x="367.691" y="3.352" opacity="0.4" fill="#F29598" width="2.077" height="6.383"/>
		<rect x="362.42" y="3.352" opacity="0.4" fill="#F29598" width="2.077" height="6.383"/>
		<rect x="357.149" y="3.352" opacity="0.4" fill="#F29598" width="2.077" height="6.383"/>
		<rect x="351.879" y="3.352" opacity="0.4" fill="#F29598" width="2.077" height="6.383"/>
		<rect x="346.608" y="3.352" opacity="0.4" fill="#F29598" width="2.076" height="6.383"/>
		<rect x="341.337" y="3.352" opacity="0.4" fill="#F29598" width="2.077" height="6.383"/>
		<rect x="336.066" y="3.352" opacity="0.4" fill="#F29598" width="2.077" height="6.383"/>
		<rect x="330.796" y="3.352" opacity="0.4" fill="#F29598" width="2.077" height="6.383"/>
		<rect x="325.525" y="3.352" opacity="0.4" fill="#F29598" width="2.076" height="6.383"/>
		<rect x="320.254" y="3.352" opacity="0.4" fill="#F29598" width="2.075" height="6.383"/>
		<rect x="314.982" y="3.352" opacity="0.4" fill="#F29598" width="2.077" height="6.383"/>
		<rect x="309.713" y="3.352" opacity="0.4" fill="#F29598" width="2.076" height="6.383"/>
		<rect x="304.442" y="3.352" opacity="0.4" fill="#F29598" width="2.075" height="6.383"/>
		<rect x="299.171" y="3.352" opacity="0.4" fill="#F29598" width="2.075" height="6.383"/>
		<rect x="293.899" y="3.352" opacity="0.4" fill="#F29598" width="2.077" height="6.383"/>
		<rect x="288.629" y="3.352" opacity="0.4" fill="#F29598" width="2.077" height="6.383"/>
		<rect x="283.359" y="3.352" opacity="0.4" fill="#F29598" width="2.075" height="6.383"/>
		<rect x="278.088" y="3.352" opacity="0.4" fill="#F29598" width="2.075" height="6.383"/>
		<rect x="272.816" y="3.352" opacity="0.4" fill="#F29598" width="2.076" height="6.383"/>
		<rect x="267.546" y="3.352" opacity="0.4" fill="#F29598" width="2.077" height="6.383"/>
		<rect x="262.275" y="3.352" opacity="0.4" fill="#F29598" width="2.076" height="6.383"/>
		<rect x="257.004" y="3.352" opacity="0.4" fill="#F29598" width="2.076" height="6.383"/>
		<rect x="251.732" y="3.352" opacity="0.4" fill="#F29598" width="2.077" height="6.383"/>
		<rect x="246.462" y="3.352" opacity="0.4" fill="#F29598" width="2.077" height="6.383"/>
		<rect x="241.192" y="3.352" opacity="0.4" fill="#F29598" width="2.077" height="6.383"/>
		<rect x="235.922" y="3.352" opacity="0.4" fill="#F29598" width="2.077" height="6.383"/>
		<rect x="230.651" y="3.352" opacity="0.4" fill="#F29598" width="2.077" height="6.383"/>
		<rect x="225.381" y="3.352" opacity="0.4" fill="#F29598" width="2.077" height="6.383"/>
		<rect x="220.111" y="3.352" opacity="0.4" fill="#F29598" width="2.077" height="6.383"/>
		<rect x="214.84" y="3.352" opacity="0.4" fill="#F29598" width="2.077" height="6.383"/>
		<rect x="209.57" y="3.352" opacity="0.4" fill="#F29598" width="2.077" height="6.383"/>
		<rect x="204.3" y="3.352" opacity="0.4" fill="#F29598" width="2.077" height="6.383"/>
		<rect x="199.029" y="3.352" opacity="0.4" fill="#F29598" width="2.077" height="6.383"/>
		<rect x="193.759" y="3.352" opacity="0.4" fill="#F29598" width="2.077" height="6.383"/>
		<rect x="188.489" y="3.352" opacity="0.4" fill="#F29598" width="2.077" height="6.383"/>
		<rect x="183.218" y="3.352" opacity="0.4" fill="#F29598" width="2.077" height="6.383"/>
		<rect x="177.948" y="3.352" opacity="0.4" fill="#F29598" width="2.077" height="6.383"/>
		<rect x="172.678" y="3.352" opacity="0.4" fill="#F29598" width="2.077" height="6.383"/>
		<rect x="167.408" y="3.352" opacity="0.4" fill="#F29598" width="2.077" height="6.383"/>
		<rect x="162.137" y="3.352" opacity="0.4" fill="#F29598" width="2.077" height="6.383"/>
		<rect x="156.867" y="3.352" opacity="0.4" fill="#F29598" width="2.077" height="6.383"/>
		<rect x="151.597" y="3.352" opacity="0.4" fill="#F29598" width="2.077" height="6.383"/>
		<rect x="146.326" y="3.352" opacity="0.4" fill="#F29598" width="2.077" height="6.383"/>
		<rect x="141.056" y="3.352" opacity="0.4" fill="#F29598" width="2.077" height="6.383"/>
		<rect x="135.785" y="3.352" opacity="0.4" fill="#F29598" width="2.077" height="6.383"/>
		<rect x="130.515" y="3.352" opacity="0.4" fill="#F29598" width="2.077" height="6.383"/>
		<rect x="125.245" y="3.352" opacity="0.4" fill="#F29598" width="2.077" height="6.383"/>
		<rect x="119.975" y="3.352" opacity="0.4" fill="#F29598" width="2.077" height="6.383"/>
		<rect x="114.704" y="3.352" opacity="0.4" fill="#F29598" width="2.077" height="6.383"/>
		<rect x="109.434" y="3.352" opacity="0.4" fill="#F29598" width="2.077" height="6.383"/>
		<rect x="104.164" y="3.352" opacity="0.4" fill="#F29598" width="2.077" height="6.383"/>
		<rect x="98.893" y="3.352" opacity="0.4" fill="#F29598" width="2.077" height="6.383"/>
		<rect x="93.623" y="3.352" opacity="0.4" fill="#F29598" width="2.077" height="6.383"/>
		<rect x="88.353" y="3.352" opacity="0.4" fill="#F29598" width="2.077" height="6.383"/>
		<rect x="83.083" y="3.352" opacity="0.4" fill="#F29598" width="2.077" height="6.383"/>
		<rect x="77.812" y="3.352" opacity="0.4" fill="#F29598" width="2.077" height="6.383"/>
		<rect x="72.542" y="3.352" opacity="0.4" fill="#F29598" width="2.077" height="6.383"/>
		<rect x="67.271" y="3.352" opacity="0.4" fill="#F29598" width="2.077" height="6.383"/>
		<rect x="62" y="3.352" opacity="0.4" fill="#F29598" width="2.077" height="6.383"/>
		<rect x="56.73" y="3.352" opacity="0.4" fill="#F29598" width="2.077" height="6.383"/>
		<rect x="51.46" y="3.352" opacity="0.4" fill="#F29598" width="2.077" height="6.383"/>
		<rect x="46.19" y="3.352" opacity="0.4" fill="#F29598" width="2.077" height="6.383"/>
		<rect x="40.919" y="3.352" opacity="0.4" fill="#F29598" width="2.077" height="6.383"/>
		<rect x="35.649" y="3.352" opacity="0.4" fill="#F29598" width="2.077" height="6.383"/>
		<rect x="30.379" y="3.352" opacity="0.4" fill="#F29598" width="2.077" height="6.383"/>
		<rect x="25.109" y="3.352" opacity="0.4" fill="#F29598" width="2.077" height="6.383"/>
		<rect x="19.838" y="3.352" opacity="0.4" fill="#F29598" width="2.077" height="6.383"/>
		<rect x="14.568" y="3.352" opacity="0.4" fill="#F29598" width="2.077" height="6.383"/>
	</g>
</g>
</svg>
