<?xml version="1.0" encoding="utf-8"?>
<!-- Generator: Adobe Illustrator 16.0.0, SVG Export Plug-In . SVG Version: 6.00 Build 0)  -->
<!DOCTYPE svg PUBLIC "-//W3C//DTD SVG 1.1//EN" "http://www.w3.org/Graphics/SVG/1.1/DTD/svg11.dtd">
<svg version="1.1" id="Capa_1" xmlns="http://www.w3.org/2000/svg" xmlns:xlink="http://www.w3.org/1999/xlink" x="0px" y="0px"
	 width="100px" height="100px" viewBox="0 0 100 100" enable-background="new 0 0 100 100" xml:space="preserve">
<g id="zX5ctG.tif">
	<g>
		<path fill="#25AAE2" d="M0,89.453c0-26.275,0-52.552,0-78.828c0.047-0.174,0.106-0.346,0.14-0.523
			c0.064-0.332,0.104-0.668,0.172-0.999c0.916-4.397,4.57-8.005,8.977-8.864C9.733,0.153,10.18,0.08,10.625,0
			c26.302,0,52.604,0,78.906,0c0.405,0.075,0.811,0.146,1.215,0.225c4.586,0.896,8.19,4.484,9.107,9.062
			c0.053,0.263,0.098,0.527,0.146,0.791c0,26.615,0,53.229,0,79.844c-0.037,0.229-0.066,0.459-0.11,0.687
			c-0.881,4.6-4.36,8.169-8.945,9.177c-0.341,0.074-0.682,0.143-1.022,0.215c-26.562,0-53.125,0-79.688,0
			c-0.24-0.049-0.479-0.104-0.719-0.147c-4.904-0.883-8.75-4.939-9.373-9.882C0.12,89.795,0.049,89.626,0,89.453z M49.38,36.816
			c-7.042-0.389-13.667-2.139-19.912-5.322c-6.242-3.182-11.56-7.514-16.018-12.93c-1.48,2.494-2.576,5.685-2.348,9.682
			c0.326,5.711,2.932,10.208,7.525,13.598c-2.733-0.089-5.271-0.825-7.705-2.151c0.008,4.22,1.247,7.929,3.835,11.165
			c2.59,3.238,5.944,5.271,9.979,6.221c-1.256,0.348-2.521,0.524-3.81,0.579c-1.283,0.055-2.548-0.088-3.809-0.28
			c-0.011,0.077-0.022,0.104-0.017,0.127c0.027,0.101,0.055,0.2,0.089,0.299c0.782,2.253,1.979,4.264,3.589,6.02
			c1.636,1.785,3.555,3.192,5.774,4.175c1.87,0.83,3.82,1.335,5.865,1.463c0.259,0.016,0.517,0.055,0.774,0.082
			c-7.571,5.801-16.092,8.164-25.547,7.25c0.063,0.078,0.125,0.122,0.188,0.162c1.684,1.062,3.423,2.022,5.223,2.875
			c2.411,1.143,4.896,2.092,7.459,2.83c2.174,0.626,4.381,1.098,6.622,1.425c1.8,0.263,3.608,0.433,5.423,0.489
			c1.338,0.041,2.68,0.004,4.019-0.045c1.127-0.041,2.254-0.135,3.378-0.229c1.775-0.148,3.528-0.445,5.271-0.805
			c1.872-0.385,3.714-0.881,5.524-1.491c2.033-0.686,4.013-1.5,5.936-2.457c2.075-1.032,4.067-2.204,5.966-3.533
			c2.726-1.907,5.236-4.065,7.488-6.515c0.853-0.928,1.688-1.873,2.48-2.853c2.016-2.493,3.76-5.169,5.262-8.003
			c1.285-2.429,2.379-4.938,3.277-7.535c1.39-4.022,2.267-8.154,2.631-12.393c0.092-1.073,0.134-2.152,0.158-3.229
			c0.02-0.831-0.016-1.664-0.047-2.495c-0.011-0.276,0.075-0.442,0.304-0.607c1.265-0.916,2.449-1.931,3.571-3.016
			c1.33-1.286,2.549-2.671,3.662-4.147c0.387-0.515,0.752-1.048,1.126-1.572c-0.014-0.022-0.028-0.044-0.042-0.066
			c-3.104,1.353-6.325,2.269-9.699,2.647c3.578-2.325,6.061-5.479,7.446-9.601c-0.192,0.106-0.303,0.167-0.413,0.227
			c-0.49,0.269-0.975,0.546-1.471,0.803c-1.748,0.903-3.555,1.67-5.437,2.239c-1.168,0.353-2.36,0.623-3.542,0.931
			c-0.146,0.039-0.26,0.033-0.381-0.098c-0.639-0.686-1.348-1.293-2.096-1.858c-2.662-2.01-5.664-3.159-8.977-3.445
			c-1.871-0.162-3.74-0.052-5.578,0.399c-3.086,0.758-5.78,2.216-8.072,4.425c-1.486,1.432-2.686,3.069-3.589,4.92
			c-0.681,1.396-1.166,2.858-1.452,4.388c-0.355,1.895-0.392,3.795-0.138,5.703C49.196,35.764,49.29,36.261,49.38,36.816z"/>
	</g>
</g>
</svg>
