<?xml version="1.0" encoding="utf-8"?>
<!-- Generator: Adobe Illustrator 16.0.0, SVG Export Plug-In . SVG Version: 6.00 Build 0)  -->
<!DOCTYPE svg PUBLIC "-//W3C//DTD SVG 1.1//EN" "http://www.w3.org/Graphics/SVG/1.1/DTD/svg11.dtd">
<svg version="1.1" id="Capa_1" xmlns="http://www.w3.org/2000/svg" xmlns:xlink="http://www.w3.org/1999/xlink" x="0px" y="0px"
	 width="500px" height="500px" viewBox="0 0 500 500" enable-background="new 0 0 500 500" xml:space="preserve">
<rect opacity="0" fill="#FFFFFF" stroke="#000000" stroke-miterlimit="10" width="500" height="500"/>
<g>
	<path fill="#2E3F51" d="M491.288,192.336l-3.515-0.001v-0.291l1.802-0.003l1.713-1.235l1.159-0.853l-1.161,0.001l-3.512-0.002
		v-1.314h-0.79v1.42h-30.932c-0.228-0.417-0.664-0.703-1.174-0.704c-0.507,0.002-0.943,0.287-1.173,0.705h-16.572l3.512-6.766
		l-25.618-0.001v-14.747c0-0.012-0.001-0.025-0.001-0.036v-0.014c0.002-12.429-10.075-22.506-22.505-22.505v2.169
		c-2.924-1.39-6.193-2.17-9.646-2.17v0.049l0,0v2.763l0,0l0.002,34.961l-44.521,0.001c-0.276-3.437-3.151-6.141-6.66-6.141h-11.842
		l0,0l-5.099-0.002c-1.03,0.002-1.865,0.837-1.864,1.865l-0.002,3.234l0.002,2.138l-0.001,7.238l6.963-4.277l-0.001-1.097h0.001
		v1.097h6.156c1.175,1.901,3.271,3.174,5.669,3.18l0,0l0,0c0.006,0,0.012,0.001,0.019,0.001c0.006,0,0.012-0.001,0.019-0.001
		L383.494,191v-0.006h0.004c0.007,1.971,0.454,3.834,1.232,5.513c2.75,7.396,9.855,12.677,18.212,12.677
		c7.981,0,14.833-4.815,17.828-11.697c1.849-0.319,3.323-1.676,3.833-3.451h29.242c0.247,0.299,0.617,0.495,1.033,0.495
		c0.419,0,0.789-0.195,1.035-0.495h31.069l-0.001,0.391h0.003v1.253l0.787-0.002v-1.252l1.804-0.003l1.71-1.233l1.164-0.855
		L491.288,192.336z M454.377,191.943c-0.252,0.102-0.464,0.274-0.613,0.495l-28.975,0.001c-0.014-0.268-0.035-0.531-0.091-0.784
		l29.237-0.002C454.062,191.777,454.211,191.876,454.377,191.943z M486.983,194.013l-0.001-1.575l-30.984,0.001
		c-0.147-0.221-0.361-0.394-0.61-0.495c0.164-0.067,0.313-0.167,0.438-0.29h31.159l-0.001,0.392h0.001l0.001,1.266L486.983,194.013z
		"/>
	<radialGradient id="SVGID_1_" cx="247.79" cy="264.6309" r="157.4482" gradientUnits="userSpaceOnUse">
		<stop  offset="0" style="stop-color:#AADCF6"/>
		<stop  offset="1" style="stop-color:#AADCF6;stop-opacity:0"/>
	</radialGradient>
	<circle opacity="0.8" fill="url(#SVGID_1_)" cx="247.79" cy="264.63" r="157.448"/>
	<g>
		<path fill="#20B4B0" d="M103.529,354.419c2.562,0,4.643,2.077,4.643,4.641l0,0c0,2.563-2.081,4.643-4.643,4.643H12.19
			c-2.562,0-4.641-2.079-4.641-4.643l0,0c0-2.563,2.078-4.641,4.641-4.641H103.529z"/>
		<path fill="#007080" d="M74.785,355.915c1.736,0,3.145,1.408,3.145,3.145l0,0c0,1.737-1.408,3.145-3.145,3.145H12.911
			c-1.736,0-3.144-1.407-3.144-3.145l0,0c0-1.736,1.407-3.145,3.144-3.145H74.785z"/>
		<path fill="#DCDCDC" d="M124.697,333.61c-11.677,0-14.409,7.396-16.768,9.756c-2.335,2.335-9.466,6.07-9.596,6.138
			c-17.229,4.926-44.383,4.715-44.383,4.715v4.841v4.841c0,0,27.154-0.209,44.383,4.716c0.13,0.066,7.261,3.803,9.596,6.139
			c2.358,2.358,5.091,9.753,16.768,9.753c0.227,0,0.442-0.009,0.653-0.026c0.254,0.018,0.504,0.026,0.744,0.026h16.266h72.54
			h182.347v-0.022h4.096c9.373,0,16.975-7.601,16.975-16.977V350.61c0-9.376-7.602-16.976-16.975-16.976h-4.096v-0.024H214.9h-72.54
			h-16.266c-0.24,0-0.49,0.011-0.744,0.028C125.14,333.621,124.924,333.61,124.697,333.61z"/>
		<path fill="#CECECE" d="M129.206,338.697c-9.159,0-11.303,5.804-13.151,7.652c-1.834,1.832-7.425,4.762-7.527,4.815
			c-13.514,3.861-34.813,3.698-34.813,3.698v3.797v3.798c0,0,21.3-0.165,34.813,3.696c0.103,0.055,5.693,2.984,7.527,4.816
			c1.849,1.849,3.992,7.649,13.151,7.649c0.179,0,0.347-0.007,0.512-0.021c0.201,0.014,0.396,0.021,0.584,0.021h12.758h98.018
			h143.025v-0.018h3.213c7.353,0,23.551-5.963,23.551-13.315v-13.256c0-7.353-16.198-13.314-23.551-13.314h-3.213v-0.02H241.077
			H143.06h-12.758c-0.188,0-0.383,0.011-0.584,0.023C129.553,338.708,129.385,338.697,129.206,338.697z"/>
		<rect x="128.215" y="338.748" fill="#FFFFFF" width="219.794" height="39.922"/>
		<path fill="#F1F1F1" d="M348.009,351.625h50.902c4.051,0,7.336,3.284,7.336,7.336l0,0c0,4.051-3.285,7.336-7.336,7.336h-50.902"/>
		<path fill="#FCBF00" d="M400.074,356.313c1.434,0,2.596,1.162,2.596,2.596l0,0c0,1.433-1.162,2.595-2.596,2.595H107.441
			c-1.434,0-2.595-1.162-2.595-2.595l0,0c0-1.434,1.161-2.596,2.595-2.596H400.074z"/>
		<path fill="#2E3F51" d="M398.874,357.675c0.661,0,1.198,0.537,1.198,1.197l0,0c0,0.662-0.537,1.198-1.198,1.198H109.812
			c-0.661,0-1.197-0.536-1.197-1.198l0,0c0-0.66,0.536-1.197,1.197-1.197H398.874z"/>
		<circle fill="#A4D8DF" cx="12.85" cy="359.06" r="3.084"/>
		<polygon fill="#EB5E4E" points="343.48,347.034 340.994,341.446 345.894,341.446 		"/>
		<polygon fill="#EB5E4E" points="299.601,347.034 297.113,341.446 302.014,341.446 		"/>
		<polygon fill="#EB5E4E" points="255.721,347.034 253.234,341.446 258.135,341.446 		"/>
		<polygon fill="#EB5E4E" points="211.842,347.034 209.355,341.446 214.254,341.446 		"/>
		<polygon fill="#EB5E4E" points="167.961,347.034 165.476,341.446 170.375,341.446 		"/>
		<g>
			<g>
				<g>
					<rect x="342.864" y="341.446" fill="#2E3F51" width="1.231" height="34.731"/>
					<rect x="331.886" y="341.446" fill="#2E3F51" width="1.231" height="34.731"/>
				</g>
				<rect x="340.615" y="348.03" fill="#2E3F51" width="0.756" height="21.758"/>
				<rect x="338.508" y="348.03" fill="#2E3F51" width="0.755" height="21.758"/>
				<rect x="336.399" y="348.03" fill="#2E3F51" width="0.758" height="21.758"/>
				<rect x="334.292" y="348.03" fill="#2E3F51" width="0.757" height="21.758"/>
			</g>
			<g>
				<g>
					<rect x="331.886" y="341.446" fill="#2E3F51" width="1.231" height="34.731"/>
					<rect x="320.905" y="341.446" fill="#2E3F51" width="1.231" height="34.731"/>
				</g>
				<rect x="329.636" y="348.03" fill="#2E3F51" width="0.756" height="21.758"/>
				<rect x="327.527" y="348.03" fill="#2E3F51" width="0.759" height="21.758"/>
				<rect x="325.42" y="348.03" fill="#2E3F51" width="0.758" height="21.758"/>
				<rect x="323.312" y="348.03" fill="#2E3F51" width="0.757" height="21.758"/>
			</g>
			<g>
				<g>
					<rect x="320.905" y="341.446" fill="#2E3F51" width="1.231" height="34.731"/>
					<rect x="309.927" y="341.446" fill="#2E3F51" width="1.232" height="34.731"/>
				</g>
				<rect x="318.656" y="348.03" fill="#2E3F51" width="0.756" height="21.758"/>
				<rect x="316.55" y="348.03" fill="#2E3F51" width="0.756" height="21.758"/>
				<rect x="314.442" y="348.03" fill="#2E3F51" width="0.755" height="21.758"/>
				<rect x="312.334" y="348.03" fill="#2E3F51" width="0.756" height="21.758"/>
			</g>
			<g>
				<g>
					<rect x="309.927" y="341.446" fill="#2E3F51" width="1.232" height="34.731"/>
					<rect x="298.946" y="341.446" fill="#2E3F51" width="1.234" height="34.731"/>
				</g>
				<rect x="307.678" y="348.03" fill="#2E3F51" width="0.758" height="21.758"/>
				<rect x="305.57" y="348.03" fill="#2E3F51" width="0.757" height="21.758"/>
				<rect x="303.462" y="348.03" fill="#2E3F51" width="0.758" height="21.758"/>
				<rect x="301.354" y="348.03" fill="#2E3F51" width="0.758" height="21.758"/>
			</g>
			<g>
				<g>
					<rect x="298.946" y="341.446" fill="#2E3F51" width="1.234" height="34.731"/>
					<rect x="287.969" y="341.446" fill="#2E3F51" width="1.232" height="34.731"/>
				</g>
				<rect x="296.699" y="348.03" fill="#2E3F51" width="0.756" height="21.758"/>
				<rect x="294.591" y="348.03" fill="#2E3F51" width="0.757" height="21.758"/>
				<rect x="292.482" y="348.03" fill="#2E3F51" width="0.758" height="21.758"/>
				<rect x="290.376" y="348.03" fill="#2E3F51" width="0.757" height="21.758"/>
			</g>
			<g>
				<g>
					<rect x="287.969" y="341.446" fill="#2E3F51" width="1.232" height="34.731"/>
					<rect x="276.99" y="341.446" fill="#2E3F51" width="1.231" height="34.731"/>
				</g>
				<rect x="285.72" y="348.03" fill="#2E3F51" width="0.757" height="21.758"/>
				<rect x="283.611" y="348.03" fill="#2E3F51" width="0.758" height="21.758"/>
				<rect x="281.504" y="348.03" fill="#2E3F51" width="0.757" height="21.758"/>
				<rect x="279.397" y="348.03" fill="#2E3F51" width="0.757" height="21.758"/>
			</g>
			<g>
				<g>
					<rect x="276.99" y="341.446" fill="#2E3F51" width="1.231" height="34.731"/>
					<rect x="266.011" y="341.446" fill="#2E3F51" width="1.232" height="34.731"/>
				</g>
				<rect x="274.74" y="348.03" fill="#2E3F51" width="0.757" height="21.758"/>
				<rect x="272.633" y="348.03" fill="#2E3F51" width="0.757" height="21.758"/>
				<rect x="270.526" y="348.03" fill="#2E3F51" width="0.757" height="21.758"/>
				<rect x="268.418" y="348.03" fill="#2E3F51" width="0.757" height="21.758"/>
			</g>
			<g>
				<g>
					<rect x="266.011" y="341.446" fill="#2E3F51" width="1.232" height="34.731"/>
					<rect x="255.032" y="341.446" fill="#2E3F51" width="1.232" height="34.731"/>
				</g>
				<rect x="263.762" y="348.03" fill="#2E3F51" width="0.757" height="21.758"/>
				<rect x="261.654" y="348.03" fill="#2E3F51" width="0.757" height="21.758"/>
				<rect x="259.547" y="348.03" fill="#2E3F51" width="0.756" height="21.758"/>
				<rect x="257.439" y="348.03" fill="#2E3F51" width="0.755" height="21.758"/>
			</g>
			<g>
				<g>
					<rect x="255.032" y="341.446" fill="#2E3F51" width="1.232" height="34.731"/>
					<rect x="244.051" y="341.446" fill="#2E3F51" width="1.233" height="34.731"/>
				</g>
				<rect x="252.782" y="348.03" fill="#2E3F51" width="0.757" height="21.758"/>
				<rect x="250.674" y="348.03" fill="#2E3F51" width="0.758" height="21.758"/>
				<rect x="248.566" y="348.03" fill="#2E3F51" width="0.757" height="21.758"/>
				<rect x="246.458" y="348.03" fill="#2E3F51" width="0.758" height="21.758"/>
			</g>
			<g>
				<g>
					<rect x="244.051" y="341.446" fill="#2E3F51" width="1.233" height="34.731"/>
					<rect x="233.073" y="341.446" fill="#2E3F51" width="1.233" height="34.731"/>
				</g>
				<rect x="241.804" y="348.03" fill="#2E3F51" width="0.757" height="21.758"/>
				<rect x="239.696" y="348.03" fill="#2E3F51" width="0.755" height="21.758"/>
				<rect x="237.588" y="348.03" fill="#2E3F51" width="0.757" height="21.758"/>
				<rect x="235.48" y="348.03" fill="#2E3F51" width="0.756" height="21.758"/>
			</g>
			<g>
				<g>
					<rect x="233.073" y="341.446" fill="#2E3F51" width="1.233" height="34.731"/>
					<rect x="222.095" y="341.446" fill="#2E3F51" width="1.231" height="34.731"/>
				</g>
				<rect x="230.824" y="348.03" fill="#2E3F51" width="0.757" height="21.758"/>
				<rect x="228.716" y="348.03" fill="#2E3F51" width="0.758" height="21.758"/>
				<rect x="226.608" y="348.03" fill="#2E3F51" width="0.758" height="21.758"/>
				<rect x="224.502" y="348.03" fill="#2E3F51" width="0.756" height="21.758"/>
			</g>
			<g>
				<g>
					<rect x="222.095" y="341.446" fill="#2E3F51" width="1.231" height="34.731"/>
					<rect x="211.115" y="341.446" fill="#2E3F51" width="1.232" height="34.731"/>
				</g>
				<rect x="219.845" y="348.03" fill="#2E3F51" width="0.757" height="21.758"/>
				<rect x="217.736" y="348.03" fill="#2E3F51" width="0.758" height="21.758"/>
				<rect x="215.63" y="348.03" fill="#2E3F51" width="0.756" height="21.758"/>
				<rect x="213.521" y="348.03" fill="#2E3F51" width="0.757" height="21.758"/>
			</g>
			<g>
				<g>
					<rect x="211.115" y="341.446" fill="#2E3F51" width="1.232" height="34.731"/>
					<rect x="200.137" y="341.446" fill="#2E3F51" width="1.231" height="34.731"/>
				</g>
				<rect x="208.865" y="348.03" fill="#2E3F51" width="0.758" height="21.758"/>
				<rect x="206.759" y="348.03" fill="#2E3F51" width="0.756" height="21.758"/>
				<rect x="204.65" y="348.03" fill="#2E3F51" width="0.757" height="21.758"/>
				<rect x="202.543" y="348.03" fill="#2E3F51" width="0.758" height="21.758"/>
			</g>
			<g>
				<g>
					<rect x="200.137" y="341.446" fill="#2E3F51" width="1.231" height="34.731"/>
					<rect x="189.158" y="341.446" fill="#2E3F51" width="1.231" height="34.731"/>
				</g>
				<rect x="197.887" y="348.03" fill="#2E3F51" width="0.757" height="21.758"/>
				<rect x="195.779" y="348.03" fill="#2E3F51" width="0.757" height="21.758"/>
				<rect x="193.671" y="348.03" fill="#2E3F51" width="0.757" height="21.758"/>
				<rect x="191.564" y="348.03" fill="#2E3F51" width="0.757" height="21.758"/>
			</g>
			<g>
				<g>
					<rect x="189.158" y="341.446" fill="#2E3F51" width="1.231" height="34.731"/>
					<rect x="178.179" y="341.446" fill="#2E3F51" width="1.231" height="34.731"/>
				</g>
				<rect x="186.908" y="348.03" fill="#2E3F51" width="0.757" height="21.758"/>
				<rect x="184.8" y="348.03" fill="#2E3F51" width="0.757" height="21.758"/>
				<rect x="182.693" y="348.03" fill="#2E3F51" width="0.757" height="21.758"/>
				<rect x="180.586" y="348.03" fill="#2E3F51" width="0.756" height="21.758"/>
			</g>
			<g>
				<g>
					<rect x="178.179" y="341.446" fill="#2E3F51" width="1.231" height="34.731"/>
					<rect x="167.198" y="341.446" fill="#2E3F51" width="1.232" height="34.731"/>
				</g>
				<rect x="175.928" y="348.03" fill="#2E3F51" width="0.758" height="21.758"/>
				<rect x="173.82" y="348.03" fill="#2E3F51" width="0.758" height="21.758"/>
				<rect x="171.714" y="348.03" fill="#2E3F51" width="0.756" height="21.758"/>
				<rect x="169.605" y="348.03" fill="#2E3F51" width="0.757" height="21.758"/>
			</g>
			<g>
				<g>
					<rect x="167.198" y="341.446" fill="#2E3F51" width="1.232" height="34.731"/>
					<rect x="156.221" y="341.446" fill="#2E3F51" width="1.231" height="34.731"/>
				</g>
				<rect x="164.949" y="348.03" fill="#2E3F51" width="0.758" height="21.758"/>
				<rect x="162.843" y="348.03" fill="#2E3F51" width="0.756" height="21.758"/>
				<rect x="160.734" y="348.03" fill="#2E3F51" width="0.756" height="21.758"/>
				<rect x="158.628" y="348.03" fill="#2E3F51" width="0.756" height="21.758"/>
			</g>
			<g>
				<g>
					<rect x="156.221" y="341.446" fill="#2E3F51" width="1.231" height="34.731"/>
					<rect x="145.24" y="341.446" fill="#2E3F51" width="1.232" height="34.731"/>
				</g>
				<rect x="153.971" y="348.03" fill="#2E3F51" width="0.757" height="21.758"/>
				<rect x="151.862" y="348.03" fill="#2E3F51" width="0.758" height="21.758"/>
				<rect x="149.756" y="348.03" fill="#2E3F51" width="0.756" height="21.758"/>
				<rect x="147.647" y="348.03" fill="#2E3F51" width="0.758" height="21.758"/>
			</g>
			<g>
				<g>
					<rect x="145.24" y="341.446" fill="#2E3F51" width="1.232" height="34.731"/>
					<rect x="134.262" y="341.446" fill="#2E3F51" width="1.232" height="34.731"/>
				</g>
				<rect x="142.991" y="348.03" fill="#2E3F51" width="0.757" height="21.758"/>
				<rect x="140.884" y="348.03" fill="#2E3F51" width="0.756" height="21.758"/>
				<rect x="138.776" y="348.03" fill="#2E3F51" width="0.757" height="21.758"/>
				<rect x="136.669" y="348.03" fill="#2E3F51" width="0.756" height="21.758"/>
			</g>
		</g>
		<path fill="#2E3F51" d="M101.361,358.403c0.278,0,0.505,0.228,0.505,0.506l0,0c0,0.279-0.227,0.506-0.505,0.506H52.27
			c-0.279,0-0.505-0.227-0.505-0.506l0,0c0-0.278,0.226-0.506,0.505-0.506H101.361z"/>
		<rect x="51.765" y="354.219" fill="#2E3F51" width="2.187" height="9.682"/>
	</g>
	<linearGradient id="SVGID_2_" gradientUnits="userSpaceOnUse" x1="211.4746" y1="222.9517" x2="472.1543" y2="222.9517">
		<stop  offset="0" style="stop-color:#FFFFFF"/>
		<stop  offset="1" style="stop-color:#FFFFFF;stop-opacity:0"/>
	</linearGradient>
	<polygon opacity="0.4" fill="url(#SVGID_2_)" points="211.475,150.573 233.073,162.817 233.073,150.692 472.154,150.692 
		472.154,295.33 257.687,295.33 	"/>
	<g>
		<path fill="#F18A86" d="M233.69,150.579l0.004,103.656l51.827-0.264l-0.002-51.563
			C285.523,173.784,262.315,150.573,233.69,150.579z"/>
		<rect x="302.45" y="252.07" fill="#EB5E4E" width="67.285" height="3.673"/>
		<rect x="302.449" y="257.552" fill="#F18A86" width="75.199" height="3.675"/>
		<path fill="#F18A86" d="M296.829,269.368c6.205,0.003,11.236-5.027,11.231-11.233c0.005-6.199-5.023-11.228-11.224-11.223
			L296.829,269.368z"/>
		<path fill="#EB5E4E" d="M296.829,263.885c6.208,0.004,11.237-5.031,11.237-11.228c0-6.205-5.027-11.23-11.231-11.23
			L296.829,263.885z"/>
		<polygon fill="#F29598" points="93.562,254.231 212.897,254.235 212.899,237.565 93.555,237.57 		"/>
		<path fill="#F29598" d="M211.475,150.573l0.005,103.657l51.824-0.261v-51.564C263.304,173.784,240.099,150.579,211.475,150.573z"
			/>
		<path fill="#F29598" d="M212.903,251.334c-0.006,24.73,20.049,44.78,44.783,44.783c24.726-0.003,44.777-20.053,44.777-44.783"/>
		<polygon fill="#F29598" points="260.322,236.486 344.521,236.486 336.407,252.125 257.683,252.125 		"/>
		<path fill="#2E3F51" d="M66.961,223.427l-12.372-0.006c-2.371,0.004-4.296,1.928-4.295,4.299l-0.004,7.448l0.004,4.924
			l-0.001,16.671l16.035-9.851l-0.002-2.526l0.635-0.002c2.365,0,4.291-1.926,4.293-4.295l-0.002-12.367
			C71.257,225.351,69.329,223.429,66.961,223.427z"/>
		<rect x="66.327" y="223.425" fill="#FFFFFF" width="27.277" height="23.487"/>
		<path fill="#F3A8A0" d="M93.605,254.231c-8.509,0.008-15.411-6.896-15.407-15.405c0-8.5,6.896-15.403,15.405-15.401
			L93.605,254.231z"/>
		<path fill="#FFFFFF" d="M85.702,232.065c0,1.714,1.387,3.103,3.1,3.103c1.713,0.002,3.106-1.385,3.103-3.103
			c0.004-1.709-1.388-3.102-3.103-3.102C87.091,228.964,85.7,230.356,85.702,232.065z"/>
		<path fill="#F29598" d="M93.604,223.425c8.507,0,15.407,6.901,15.4,15.404c0.007,8.509-6.894,15.408-15.398,15.402L93.604,223.425
			z"/>
		<path fill="#2E3F51" d="M86.276,232.066c0.002,1.398,1.13,2.527,2.53,2.528c1.397-0.006,2.521-1.13,2.525-2.524
			c-0.002-1.402-1.131-2.531-2.53-2.528C87.408,229.543,86.283,230.67,86.276,232.066z"/>
		<path fill="#EB5E4E" d="M366.641,253.542c0.005,1.711,1.39,3.095,3.096,3.103c1.711-0.005,3.096-1.39,3.096-3.099
			c0-1.71-1.385-3.094-3.096-3.099C368.028,250.452,366.645,251.836,366.641,253.542z"/>
		<path fill="#F18A86" d="M374.213,259.276c-0.006,1.706,1.39,3.091,3.092,3.091c1.707,0.005,3.095-1.383,3.095-3.095
			c0.006-1.707-1.381-3.096-3.092-3.093C375.595,256.18,374.208,257.565,374.213,259.276z"/>
		<g>
			<path fill="#F29598" d="M285.521,202.524c0.002-28.628-23.2-51.838-51.83-51.832l0.003,6.354
				c25.785,2.982,45.817,19.689,45.816,51.482l0.001,28.167l6.01-0.034V202.524z"/>
		</g>
		<polygon fill="#F18A86" points="336.407,252.125 344.521,236.486 332.362,236.491 324.405,252.068 		"/>
		<path fill="#F18A86" d="M212.899,254.129c0.004,16.83,13.652,30.478,30.484,30.481c16.84-0.007,30.486-13.651,30.485-30.484
			L212.899,254.129z"/>
		<g>
			<path fill="#2E3F51" d="M263.305,202.52c0-28.623-23.206-51.829-51.83-51.832v6.362c25.796,2.976,45.819,19.686,45.821,51.479
				l0.002,45.588l6.006-0.031L263.305,202.52z"/>
		</g>
		<polygon fill="#EB5E4E" points="358.459,328.826 354.708,328.826 367.889,254.126 371.508,254.763 		"/>
		
			<rect x="369.048" y="258.04" transform="matrix(0.9849 0.173 -0.173 0.9849 56.7259 -59.6949)" fill="#F18A86" width="3.676" height="75.199"/>
		<g>
			<polygon fill="#2E3F51" points="348.557,333.604 348.553,331.643 352.496,328.799 358.465,328.789 358.457,333.61 			"/>
			<polygon fill="#FFFFFF" points="348.553,331.643 348.557,333.604 345.882,333.606 			"/>
		</g>
		<g>
			<polygon fill="#2E3F51" points="357.055,333.604 357.05,331.643 360.992,328.799 366.962,328.789 366.955,333.61 			"/>
			<polygon fill="#FFFFFF" points="357.05,331.643 357.055,333.604 354.38,333.606 			"/>
		</g>
	</g>
	<path fill="#FFFFFF" d="M163.129,176.733c0.025-0.319,0.049-0.64,0.049-0.966c0-6.78-5.498-12.278-12.279-12.278
		c-1.063,0-2.09,0.149-3.074,0.404c-1.152-8.562-8.472-15.173-17.348-15.173c-7.097,0-13.193,4.227-15.948,10.292
		c-2.192-1.191-4.705-1.869-7.376-1.869c-8.532,0-15.451,6.915-15.451,15.451c0,1.668,0.271,3.271,0.761,4.775
		c-4.461,1.878-9.048,5.148-9.048,10.676h87.215C170.629,188.046,169.628,180.239,163.129,176.733z"/>
	<path fill="#2E3F51" d="M271.296,119.35h-2.193v-0.182l1.125-0.002l1.068-0.771l0.724-0.532h-0.726h-2.19v-0.821h-0.492v0.886
		h-19.299c-0.142-0.259-0.415-0.438-0.731-0.438c-0.316,0.001-0.588,0.18-0.731,0.439h-10.34l2.19-4.221l-15.982-0.001v-9.2
		c0-0.008-0.001-0.016-0.001-0.023v-0.009c0.002-7.754-6.285-14.04-14.039-14.04v1.354c-1.826-0.867-3.864-1.354-6.02-1.354v0.03
		l0,0v1.724l0,0L203.659,114l-27.776,0.001c-0.172-2.144-1.965-3.832-4.154-3.832h-7.389l0,0l-3.182-0.001
		c-0.642,0.001-1.162,0.523-1.162,1.164l-0.001,2.019l0.001,1.333v4.517l4.344-2.669v-0.685l0,0v0.685h3.841
		c0.733,1.187,2.04,1.98,3.536,1.984l0,0l0,0c0.005,0,0.008,0,0.013,0c0.004,0,0.008,0,0.011,0h32.305v-0.003h0.002
		c0.005,1.229,0.283,2.393,0.769,3.438c1.717,4.615,6.148,7.909,11.362,7.909c4.98,0,9.255-3.004,11.123-7.299
		c1.153-0.198,2.073-1.044,2.391-2.151h18.245c0.153,0.187,0.385,0.309,0.645,0.309c0.262,0,0.492-0.122,0.646-0.309h19.384v0.243
		h0.001v0.781l0.491-0.001v-0.781l1.126-0.002l1.065-0.769l0.728-0.534L271.296,119.35z M248.269,119.104
		c-0.158,0.063-0.291,0.172-0.384,0.31h-18.077c-0.008-0.166-0.021-0.331-0.056-0.489l18.241-0.001
		C248.07,119.001,248.164,119.063,248.269,119.104z M268.61,120.396v-0.981h-19.331c-0.093-0.138-0.226-0.246-0.382-0.31
		c0.103-0.041,0.195-0.104,0.273-0.181h19.44l-0.001,0.244h0.001v0.79L268.61,120.396z"/>
	<g>
		<circle fill="#FFFFFF" cx="318.133" cy="90.313" r="12.392"/>
		<circle fill="#FFFFFF" cx="304.361" cy="97.381" r="5.325"/>
		<circle fill="#FFFFFF" cx="326.792" cy="94.047" r="8.659"/>
		<path fill="#FFFFFF" d="M342.44,102.705c0,0.83-46.031,0-46.031,0s-0.891-5.324,7.953-5.324c8.843,0,29.992-3.334,29.992-3.334
			S342.44,94.94,342.44,102.705z"/>
	</g>
	<path fill="#FFFFFF" d="M197.209,295.323c-0.746-4.317-4.501-7.604-9.031-7.604c-0.099,0-0.194,0.012-0.292,0.015
		c-1.009-3.971-4.598-6.915-8.883-6.915c-4.286,0-7.875,2.944-8.884,6.915c-0.098-0.003-0.192-0.015-0.291-0.015
		c-5.067,0-9.175,4.107-9.175,9.176c0,0-8.666-0.237-8.666,9.174h54.139C206.126,306.068,206.668,296.893,197.209,295.323z"/>
	<path fill="none" stroke="#2E3F51" stroke-width="2.1361" stroke-linecap="round" stroke-miterlimit="10" d="M95.441,225.415
		c0-3.665-2.971-6.636-6.637-6.636c-3.664,0-6.635,2.971-6.635,6.636"/>
</g>
</svg>
